G04 #@! TF.GenerationSoftware,KiCad,Pcbnew,(5.1.8)-1*
G04 #@! TF.CreationDate,2021-04-09T02:34:17+02:00*
G04 #@! TF.ProjectId,Penguino-STM32WL-M,50656e67-7569-46e6-9f2d-53544d333257,0.1*
G04 #@! TF.SameCoordinates,Original*
G04 #@! TF.FileFunction,Legend,Top*
G04 #@! TF.FilePolarity,Positive*
%FSLAX46Y46*%
G04 Gerber Fmt 4.6, Leading zero omitted, Abs format (unit mm)*
G04 Created by KiCad (PCBNEW (5.1.8)-1) date 2021-04-09 02:34:17*
%MOMM*%
%LPD*%
G01*
G04 APERTURE LIST*
%ADD10C,0.150000*%
%ADD11C,0.225000*%
%ADD12C,0.200000*%
G04 #@! TA.AperFunction,Profile*
%ADD13C,0.150000*%
G04 #@! TD*
%ADD14C,0.120000*%
G04 APERTURE END LIST*
D10*
X144737142Y-84798666D02*
X144765714Y-84698666D01*
X144794285Y-84665333D01*
X144851428Y-84632000D01*
X144937142Y-84632000D01*
X144994285Y-84665333D01*
X145022857Y-84698666D01*
X145051428Y-84765333D01*
X145051428Y-85032000D01*
X144451428Y-85032000D01*
X144451428Y-84798666D01*
X144480000Y-84732000D01*
X144508571Y-84698666D01*
X144565714Y-84665333D01*
X144622857Y-84665333D01*
X144680000Y-84698666D01*
X144708571Y-84732000D01*
X144737142Y-84798666D01*
X144737142Y-85032000D01*
X144451428Y-84432000D02*
X144451428Y-84032000D01*
X145051428Y-84232000D02*
X144451428Y-84232000D01*
X144866848Y-86784042D02*
X144957762Y-86733534D01*
X145001535Y-86730167D01*
X145065511Y-86747003D01*
X145126120Y-86807612D01*
X145142956Y-86871588D01*
X145139589Y-86915362D01*
X145112652Y-86982705D01*
X144924090Y-87171267D01*
X144499826Y-86747003D01*
X144664817Y-86582011D01*
X144732161Y-86555074D01*
X144775934Y-86551707D01*
X144839911Y-86568543D01*
X144880317Y-86608949D01*
X144897153Y-86672925D01*
X144893785Y-86716698D01*
X144866848Y-86784042D01*
X144701856Y-86949033D01*
X145089082Y-86157747D02*
X145136222Y-86110607D01*
X145203566Y-86083669D01*
X145247339Y-86080302D01*
X145311315Y-86097138D01*
X145415698Y-86154380D01*
X145516713Y-86255395D01*
X145573955Y-86359778D01*
X145590791Y-86423754D01*
X145587423Y-86467527D01*
X145560486Y-86534871D01*
X145513346Y-86582011D01*
X145446002Y-86608949D01*
X145402229Y-86612316D01*
X145338253Y-86595480D01*
X145233870Y-86538238D01*
X145132855Y-86437223D01*
X145075613Y-86332840D01*
X145058777Y-86268864D01*
X145062144Y-86225091D01*
X145089082Y-86157747D01*
X144770884Y-89079445D02*
X144535181Y-89315148D01*
X144713642Y-89540748D01*
X144717009Y-89496975D01*
X144743946Y-89429632D01*
X144861797Y-89311780D01*
X144929141Y-89284843D01*
X144972914Y-89281476D01*
X145036890Y-89298312D01*
X145137906Y-89399327D01*
X145154741Y-89463303D01*
X145151374Y-89507077D01*
X145124437Y-89574420D01*
X145006586Y-89692271D01*
X144939242Y-89719209D01*
X144895469Y-89722576D01*
X144935875Y-88914454D02*
X145525131Y-89173726D01*
X145265858Y-88584471D01*
X144591947Y-91815694D02*
X144595314Y-91771921D01*
X144622251Y-91704577D01*
X144740103Y-91586726D01*
X144807446Y-91559789D01*
X144851219Y-91556422D01*
X144915196Y-91573258D01*
X144955602Y-91613664D01*
X144992641Y-91697843D01*
X144952235Y-92223122D01*
X145258648Y-91916709D01*
X145282218Y-91044611D02*
X145046516Y-91280313D01*
X145224976Y-91505914D01*
X145228343Y-91462141D01*
X145255280Y-91394797D01*
X145373132Y-91276946D01*
X145440475Y-91250009D01*
X145484248Y-91246642D01*
X145548225Y-91263477D01*
X145649240Y-91364493D01*
X145666076Y-91428469D01*
X145662709Y-91472242D01*
X145635771Y-91539586D01*
X145517920Y-91657437D01*
X145450577Y-91684374D01*
X145406803Y-91687741D01*
X144428571Y-95656333D02*
X144400000Y-95623000D01*
X144371428Y-95556333D01*
X144371428Y-95389666D01*
X144400000Y-95323000D01*
X144428571Y-95289666D01*
X144485714Y-95256333D01*
X144542857Y-95256333D01*
X144628571Y-95289666D01*
X144971428Y-95689666D01*
X144971428Y-95256333D01*
X144371428Y-95023000D02*
X144371428Y-94589666D01*
X144600000Y-94823000D01*
X144600000Y-94723000D01*
X144628571Y-94656333D01*
X144657142Y-94623000D01*
X144714285Y-94589666D01*
X144857142Y-94589666D01*
X144914285Y-94623000D01*
X144942857Y-94656333D01*
X144971428Y-94723000D01*
X144971428Y-94923000D01*
X144942857Y-94989666D01*
X144914285Y-95023000D01*
X144428571Y-100799833D02*
X144400000Y-100766500D01*
X144371428Y-100699833D01*
X144371428Y-100533166D01*
X144400000Y-100466500D01*
X144428571Y-100433166D01*
X144485714Y-100399833D01*
X144542857Y-100399833D01*
X144628571Y-100433166D01*
X144971428Y-100833166D01*
X144971428Y-100399833D01*
X144428571Y-100133166D02*
X144400000Y-100099833D01*
X144371428Y-100033166D01*
X144371428Y-99866500D01*
X144400000Y-99799833D01*
X144428571Y-99766500D01*
X144485714Y-99733166D01*
X144542857Y-99733166D01*
X144628571Y-99766500D01*
X144971428Y-100166500D01*
X144971428Y-99733166D01*
X144428571Y-103276333D02*
X144400000Y-103243000D01*
X144371428Y-103176333D01*
X144371428Y-103009666D01*
X144400000Y-102943000D01*
X144428571Y-102909666D01*
X144485714Y-102876333D01*
X144542857Y-102876333D01*
X144628571Y-102909666D01*
X144971428Y-103309666D01*
X144971428Y-102876333D01*
X144971428Y-102209666D02*
X144971428Y-102609666D01*
X144971428Y-102409666D02*
X144371428Y-102409666D01*
X144457142Y-102476333D01*
X144514285Y-102543000D01*
X144542857Y-102609666D01*
X144971428Y-107956333D02*
X144971428Y-108356333D01*
X144971428Y-108156333D02*
X144371428Y-108156333D01*
X144457142Y-108223000D01*
X144514285Y-108289666D01*
X144542857Y-108356333D01*
X144971428Y-107623000D02*
X144971428Y-107489666D01*
X144942857Y-107423000D01*
X144914285Y-107389666D01*
X144828571Y-107323000D01*
X144714285Y-107289666D01*
X144485714Y-107289666D01*
X144428571Y-107323000D01*
X144400000Y-107356333D01*
X144371428Y-107423000D01*
X144371428Y-107556333D01*
X144400000Y-107623000D01*
X144428571Y-107656333D01*
X144485714Y-107689666D01*
X144628571Y-107689666D01*
X144685714Y-107656333D01*
X144714285Y-107623000D01*
X144742857Y-107556333D01*
X144742857Y-107423000D01*
X144714285Y-107356333D01*
X144685714Y-107323000D01*
X144628571Y-107289666D01*
X144942857Y-111450333D02*
X144971428Y-111350333D01*
X144971428Y-111183666D01*
X144942857Y-111117000D01*
X144914285Y-111083666D01*
X144857142Y-111050333D01*
X144800000Y-111050333D01*
X144742857Y-111083666D01*
X144714285Y-111117000D01*
X144685714Y-111183666D01*
X144657142Y-111317000D01*
X144628571Y-111383666D01*
X144600000Y-111417000D01*
X144542857Y-111450333D01*
X144485714Y-111450333D01*
X144428571Y-111417000D01*
X144400000Y-111383666D01*
X144371428Y-111317000D01*
X144371428Y-111150333D01*
X144400000Y-111050333D01*
X144914285Y-110350333D02*
X144942857Y-110383666D01*
X144971428Y-110483666D01*
X144971428Y-110550333D01*
X144942857Y-110650333D01*
X144885714Y-110717000D01*
X144828571Y-110750333D01*
X144714285Y-110783666D01*
X144628571Y-110783666D01*
X144514285Y-110750333D01*
X144457142Y-110717000D01*
X144400000Y-110650333D01*
X144371428Y-110550333D01*
X144371428Y-110483666D01*
X144400000Y-110383666D01*
X144428571Y-110350333D01*
X144971428Y-109717000D02*
X144971428Y-110050333D01*
X144371428Y-110050333D01*
X144942857Y-113850000D02*
X144971428Y-113750000D01*
X144971428Y-113583333D01*
X144942857Y-113516666D01*
X144914285Y-113483333D01*
X144857142Y-113450000D01*
X144800000Y-113450000D01*
X144742857Y-113483333D01*
X144714285Y-113516666D01*
X144685714Y-113583333D01*
X144657142Y-113716666D01*
X144628571Y-113783333D01*
X144600000Y-113816666D01*
X144542857Y-113850000D01*
X144485714Y-113850000D01*
X144428571Y-113816666D01*
X144400000Y-113783333D01*
X144371428Y-113716666D01*
X144371428Y-113550000D01*
X144400000Y-113450000D01*
X144971428Y-113150000D02*
X144371428Y-113150000D01*
X144371428Y-112983333D01*
X144400000Y-112883333D01*
X144457142Y-112816666D01*
X144514285Y-112783333D01*
X144628571Y-112750000D01*
X144714285Y-112750000D01*
X144828571Y-112783333D01*
X144885714Y-112816666D01*
X144942857Y-112883333D01*
X144971428Y-112983333D01*
X144971428Y-113150000D01*
X144800000Y-112483333D02*
X144800000Y-112150000D01*
X144971428Y-112550000D02*
X144371428Y-112316666D01*
X144971428Y-112083333D01*
X126628571Y-73341666D02*
X126914285Y-73108333D01*
X126628571Y-72941666D02*
X127228571Y-72941666D01*
X127228571Y-73208333D01*
X127200000Y-73275000D01*
X127171428Y-73308333D01*
X127114285Y-73341666D01*
X127028571Y-73341666D01*
X126971428Y-73308333D01*
X126942857Y-73275000D01*
X126914285Y-73208333D01*
X126914285Y-72941666D01*
X126657142Y-73608333D02*
X126628571Y-73708333D01*
X126628571Y-73875000D01*
X126657142Y-73941666D01*
X126685714Y-73975000D01*
X126742857Y-74008333D01*
X126800000Y-74008333D01*
X126857142Y-73975000D01*
X126885714Y-73941666D01*
X126914285Y-73875000D01*
X126942857Y-73741666D01*
X126971428Y-73675000D01*
X127000000Y-73641666D01*
X127057142Y-73608333D01*
X127114285Y-73608333D01*
X127171428Y-73641666D01*
X127200000Y-73675000D01*
X127228571Y-73741666D01*
X127228571Y-73908333D01*
X127200000Y-74008333D01*
X127228571Y-74208333D02*
X127228571Y-74608333D01*
X126628571Y-74408333D02*
X127228571Y-74408333D01*
X126947571Y-75730166D02*
X126947571Y-76163500D01*
X126719000Y-75930166D01*
X126719000Y-76030166D01*
X126690428Y-76096833D01*
X126661857Y-76130166D01*
X126604714Y-76163500D01*
X126461857Y-76163500D01*
X126404714Y-76130166D01*
X126376142Y-76096833D01*
X126347571Y-76030166D01*
X126347571Y-75830166D01*
X126376142Y-75763500D01*
X126404714Y-75730166D01*
X126947571Y-76363500D02*
X126347571Y-76596833D01*
X126947571Y-76830166D01*
X126757071Y-78506666D02*
X126757071Y-78940000D01*
X126528500Y-78706666D01*
X126528500Y-78806666D01*
X126499928Y-78873333D01*
X126471357Y-78906666D01*
X126414214Y-78940000D01*
X126271357Y-78940000D01*
X126214214Y-78906666D01*
X126185642Y-78873333D01*
X126157071Y-78806666D01*
X126157071Y-78606666D01*
X126185642Y-78540000D01*
X126214214Y-78506666D01*
X126557071Y-81349833D02*
X126157071Y-81349833D01*
X126785642Y-81183166D02*
X126357071Y-81016500D01*
X126357071Y-81449833D01*
X126820571Y-83986666D02*
X126820571Y-83653333D01*
X126534857Y-83620000D01*
X126563428Y-83653333D01*
X126592000Y-83720000D01*
X126592000Y-83886666D01*
X126563428Y-83953333D01*
X126534857Y-83986666D01*
X126477714Y-84020000D01*
X126334857Y-84020000D01*
X126277714Y-83986666D01*
X126249142Y-83953333D01*
X126220571Y-83886666D01*
X126220571Y-83720000D01*
X126249142Y-83653333D01*
X126277714Y-83620000D01*
X126884071Y-86429833D02*
X126884071Y-86296500D01*
X126855500Y-86229833D01*
X126826928Y-86196500D01*
X126741214Y-86129833D01*
X126626928Y-86096500D01*
X126398357Y-86096500D01*
X126341214Y-86129833D01*
X126312642Y-86163166D01*
X126284071Y-86229833D01*
X126284071Y-86363166D01*
X126312642Y-86429833D01*
X126341214Y-86463166D01*
X126398357Y-86496500D01*
X126541214Y-86496500D01*
X126598357Y-86463166D01*
X126626928Y-86429833D01*
X126655500Y-86363166D01*
X126655500Y-86229833D01*
X126626928Y-86163166D01*
X126598357Y-86129833D01*
X126541214Y-86096500D01*
X127011071Y-88966666D02*
X127011071Y-89433333D01*
X126411071Y-89133333D01*
X127071428Y-92133333D02*
X127100000Y-92066666D01*
X127128571Y-92033333D01*
X127185714Y-92000000D01*
X127214285Y-92000000D01*
X127271428Y-92033333D01*
X127300000Y-92066666D01*
X127328571Y-92133333D01*
X127328571Y-92266666D01*
X127300000Y-92333333D01*
X127271428Y-92366666D01*
X127214285Y-92400000D01*
X127185714Y-92400000D01*
X127128571Y-92366666D01*
X127100000Y-92333333D01*
X127071428Y-92266666D01*
X127071428Y-92133333D01*
X127042857Y-92066666D01*
X127014285Y-92033333D01*
X126957142Y-92000000D01*
X126842857Y-92000000D01*
X126785714Y-92033333D01*
X126757142Y-92066666D01*
X126728571Y-92133333D01*
X126728571Y-92266666D01*
X126757142Y-92333333D01*
X126785714Y-92366666D01*
X126842857Y-92400000D01*
X126957142Y-92400000D01*
X127014285Y-92366666D01*
X127042857Y-92333333D01*
X127071428Y-92266666D01*
X126765071Y-94566666D02*
X126765071Y-94700000D01*
X126793642Y-94766666D01*
X126822214Y-94800000D01*
X126907928Y-94866666D01*
X127022214Y-94900000D01*
X127250785Y-94900000D01*
X127307928Y-94866666D01*
X127336500Y-94833333D01*
X127365071Y-94766666D01*
X127365071Y-94633333D01*
X127336500Y-94566666D01*
X127307928Y-94533333D01*
X127250785Y-94500000D01*
X127107928Y-94500000D01*
X127050785Y-94533333D01*
X127022214Y-94566666D01*
X126993642Y-94633333D01*
X126993642Y-94766666D01*
X127022214Y-94833333D01*
X127050785Y-94866666D01*
X127107928Y-94900000D01*
X126765071Y-96966666D02*
X126765071Y-96566666D01*
X126765071Y-96766666D02*
X127365071Y-96766666D01*
X127279357Y-96700000D01*
X127222214Y-96633333D01*
X127193642Y-96566666D01*
X127365071Y-97400000D02*
X127365071Y-97466666D01*
X127336500Y-97533333D01*
X127307928Y-97566666D01*
X127250785Y-97600000D01*
X127136500Y-97633333D01*
X126993642Y-97633333D01*
X126879357Y-97600000D01*
X126822214Y-97566666D01*
X126793642Y-97533333D01*
X126765071Y-97466666D01*
X126765071Y-97400000D01*
X126793642Y-97333333D01*
X126822214Y-97300000D01*
X126879357Y-97266666D01*
X126993642Y-97233333D01*
X127136500Y-97233333D01*
X127250785Y-97266666D01*
X127307928Y-97300000D01*
X127336500Y-97333333D01*
X127365071Y-97400000D01*
X126765071Y-98966666D02*
X126765071Y-98566666D01*
X126765071Y-98766666D02*
X127365071Y-98766666D01*
X127279357Y-98700000D01*
X127222214Y-98633333D01*
X127193642Y-98566666D01*
X126765071Y-99633333D02*
X126765071Y-99233333D01*
X126765071Y-99433333D02*
X127365071Y-99433333D01*
X127279357Y-99366666D01*
X127222214Y-99300000D01*
X127193642Y-99233333D01*
X126765071Y-102666666D02*
X126765071Y-102266666D01*
X126765071Y-102466666D02*
X127365071Y-102466666D01*
X127279357Y-102400000D01*
X127222214Y-102333333D01*
X127193642Y-102266666D01*
X127307928Y-102933333D02*
X127336500Y-102966666D01*
X127365071Y-103033333D01*
X127365071Y-103200000D01*
X127336500Y-103266666D01*
X127307928Y-103300000D01*
X127250785Y-103333333D01*
X127193642Y-103333333D01*
X127107928Y-103300000D01*
X126765071Y-102900000D01*
X126765071Y-103333333D01*
X126765071Y-105066666D02*
X126765071Y-104666666D01*
X126765071Y-104866666D02*
X127365071Y-104866666D01*
X127279357Y-104800000D01*
X127222214Y-104733333D01*
X127193642Y-104666666D01*
X127365071Y-105300000D02*
X127365071Y-105733333D01*
X127136500Y-105500000D01*
X127136500Y-105600000D01*
X127107928Y-105666666D01*
X127079357Y-105700000D01*
X127022214Y-105733333D01*
X126879357Y-105733333D01*
X126822214Y-105700000D01*
X126793642Y-105666666D01*
X126765071Y-105600000D01*
X126765071Y-105400000D01*
X126793642Y-105333333D01*
X126822214Y-105300000D01*
X126765071Y-107833333D02*
X127050785Y-107600000D01*
X126765071Y-107433333D02*
X127365071Y-107433333D01*
X127365071Y-107700000D01*
X127336500Y-107766666D01*
X127307928Y-107800000D01*
X127250785Y-107833333D01*
X127165071Y-107833333D01*
X127107928Y-107800000D01*
X127079357Y-107766666D01*
X127050785Y-107700000D01*
X127050785Y-107433333D01*
X126765071Y-108066666D02*
X127165071Y-108433333D01*
X127165071Y-108066666D02*
X126765071Y-108433333D01*
X127365071Y-110016666D02*
X127365071Y-110416666D01*
X126765071Y-110216666D02*
X127365071Y-110216666D01*
X126765071Y-110583333D02*
X127165071Y-110950000D01*
X127165071Y-110583333D02*
X126765071Y-110950000D01*
D11*
X130292857Y-111852380D02*
X131192857Y-111852380D01*
X131192857Y-112233333D01*
X131150000Y-112328571D01*
X131107142Y-112376190D01*
X131021428Y-112423809D01*
X130892857Y-112423809D01*
X130807142Y-112376190D01*
X130764285Y-112328571D01*
X130721428Y-112233333D01*
X130721428Y-111852380D01*
X130764285Y-112852380D02*
X130764285Y-113185714D01*
X130292857Y-113328571D02*
X130292857Y-112852380D01*
X131192857Y-112852380D01*
X131192857Y-113328571D01*
X130292857Y-113757142D02*
X131192857Y-113757142D01*
X130292857Y-114328571D01*
X131192857Y-114328571D01*
X131150000Y-115328571D02*
X131192857Y-115233333D01*
X131192857Y-115090476D01*
X131150000Y-114947619D01*
X131064285Y-114852380D01*
X130978571Y-114804761D01*
X130807142Y-114757142D01*
X130678571Y-114757142D01*
X130507142Y-114804761D01*
X130421428Y-114852380D01*
X130335714Y-114947619D01*
X130292857Y-115090476D01*
X130292857Y-115185714D01*
X130335714Y-115328571D01*
X130378571Y-115376190D01*
X130678571Y-115376190D01*
X130678571Y-115185714D01*
X131192857Y-115804761D02*
X130464285Y-115804761D01*
X130378571Y-115852380D01*
X130335714Y-115900000D01*
X130292857Y-115995238D01*
X130292857Y-116185714D01*
X130335714Y-116280952D01*
X130378571Y-116328571D01*
X130464285Y-116376190D01*
X131192857Y-116376190D01*
X130292857Y-116852380D02*
X131192857Y-116852380D01*
X130292857Y-117328571D02*
X131192857Y-117328571D01*
X130292857Y-117900000D01*
X131192857Y-117900000D01*
X131192857Y-118566666D02*
X131192857Y-118757142D01*
X131150000Y-118852380D01*
X131064285Y-118947619D01*
X130892857Y-118995238D01*
X130592857Y-118995238D01*
X130421428Y-118947619D01*
X130335714Y-118852380D01*
X130292857Y-118757142D01*
X130292857Y-118566666D01*
X130335714Y-118471428D01*
X130421428Y-118376190D01*
X130592857Y-118328571D01*
X130892857Y-118328571D01*
X131064285Y-118376190D01*
X131150000Y-118471428D01*
X131192857Y-118566666D01*
D10*
X127336500Y-112466666D02*
X127365071Y-112400000D01*
X127365071Y-112300000D01*
X127336500Y-112200000D01*
X127279357Y-112133333D01*
X127222214Y-112100000D01*
X127107928Y-112066666D01*
X127022214Y-112066666D01*
X126907928Y-112100000D01*
X126850785Y-112133333D01*
X126793642Y-112200000D01*
X126765071Y-112300000D01*
X126765071Y-112366666D01*
X126793642Y-112466666D01*
X126822214Y-112500000D01*
X127022214Y-112500000D01*
X127022214Y-112366666D01*
X126765071Y-112800000D02*
X127365071Y-112800000D01*
X126765071Y-113200000D01*
X127365071Y-113200000D01*
X126765071Y-113533333D02*
X127365071Y-113533333D01*
X127365071Y-113700000D01*
X127336500Y-113800000D01*
X127279357Y-113866666D01*
X127222214Y-113900000D01*
X127107928Y-113933333D01*
X127022214Y-113933333D01*
X126907928Y-113900000D01*
X126850785Y-113866666D01*
X126793642Y-113800000D01*
X126765071Y-113700000D01*
X126765071Y-113533333D01*
D11*
X128842857Y-111778571D02*
X129742857Y-111778571D01*
X129100000Y-112111904D01*
X129742857Y-112445238D01*
X128842857Y-112445238D01*
X129100000Y-112873809D02*
X129100000Y-113350000D01*
X128842857Y-112778571D02*
X129742857Y-113111904D01*
X128842857Y-113445238D01*
X128842857Y-113778571D02*
X129742857Y-113778571D01*
X129100000Y-114111904D01*
X129742857Y-114445238D01*
X128842857Y-114445238D01*
X129742857Y-114826190D02*
X128842857Y-115064285D01*
X129485714Y-115254761D01*
X128842857Y-115445238D01*
X129742857Y-115683333D01*
X128842857Y-116540476D02*
X128842857Y-116064285D01*
X129742857Y-116064285D01*
X129314285Y-116873809D02*
X129314285Y-117207142D01*
X128842857Y-117350000D02*
X128842857Y-116873809D01*
X129742857Y-116873809D01*
X129742857Y-117350000D01*
X128842857Y-117683333D02*
X129442857Y-118207142D01*
X129442857Y-117683333D02*
X128842857Y-118207142D01*
X128842857Y-118492857D02*
X129442857Y-119016666D01*
X129442857Y-118492857D02*
X128842857Y-119016666D01*
D12*
X141192857Y-116314285D02*
X140592857Y-116528571D01*
X141192857Y-116742857D01*
X140592857Y-117557142D02*
X140592857Y-117042857D01*
X140592857Y-117300000D02*
X141492857Y-117300000D01*
X141364285Y-117214285D01*
X141278571Y-117128571D01*
X141235714Y-117042857D01*
X140678571Y-117942857D02*
X140635714Y-117985714D01*
X140592857Y-117942857D01*
X140635714Y-117900000D01*
X140678571Y-117942857D01*
X140592857Y-117942857D01*
X141492857Y-118542857D02*
X141492857Y-118628571D01*
X141450000Y-118714285D01*
X141407142Y-118757142D01*
X141321428Y-118800000D01*
X141150000Y-118842857D01*
X140935714Y-118842857D01*
X140764285Y-118800000D01*
X140678571Y-118757142D01*
X140635714Y-118714285D01*
X140592857Y-118628571D01*
X140592857Y-118542857D01*
X140635714Y-118457142D01*
X140678571Y-118414285D01*
X140764285Y-118371428D01*
X140935714Y-118328571D01*
X141150000Y-118328571D01*
X141321428Y-118371428D01*
X141407142Y-118414285D01*
X141450000Y-118457142D01*
X141492857Y-118542857D01*
D13*
X127000000Y-119380000D02*
G75*
G02*
X124460000Y-116840000I0J2540000D01*
G01*
X147320000Y-116840000D02*
G75*
G02*
X144780000Y-119380000I-2540000J0D01*
G01*
X144780000Y-68580000D02*
G75*
G02*
X147320000Y-71120000I0J-2540000D01*
G01*
X124460000Y-71120000D02*
G75*
G02*
X127000000Y-68580000I2540000J0D01*
G01*
X124460000Y-116840000D02*
X124460000Y-71120000D01*
X144780000Y-119380000D02*
X127000000Y-119380000D01*
X147320000Y-71120000D02*
X147320000Y-116840000D01*
X127000000Y-68580000D02*
X144780000Y-68580000D01*
D14*
X138370000Y-92006358D02*
X138370000Y-92313640D01*
X139130000Y-92006358D02*
X139130000Y-92313640D01*
X136700000Y-75915000D02*
X135300000Y-75915000D01*
X135300000Y-78235000D02*
X137200000Y-78235000D01*
X142659420Y-74810000D02*
X142940580Y-74810000D01*
X142659420Y-73790000D02*
X142940580Y-73790000D01*
X137410000Y-85390580D02*
X137410000Y-85109420D01*
X136390000Y-85390580D02*
X136390000Y-85109420D01*
X135859420Y-91290000D02*
X136140580Y-91290000D01*
X135859420Y-92310000D02*
X136140580Y-92310000D01*
X141305000Y-68802500D02*
X141305000Y-71087500D01*
X142775000Y-68802500D02*
X141305000Y-68802500D01*
X142775000Y-71087500D02*
X142775000Y-68802500D01*
X134050000Y-86650000D02*
X136050000Y-86650000D01*
X136050000Y-86650000D02*
X136050000Y-82750000D01*
X134050000Y-86650000D02*
X134050000Y-82750000D01*
X127950000Y-75900000D02*
X127350000Y-75900000D01*
X127350000Y-75900000D02*
X127350000Y-73000000D01*
X129650000Y-75900000D02*
X129650000Y-73000000D01*
X129750000Y-91465000D02*
X127465000Y-91465000D01*
X127465000Y-91465000D02*
X127465000Y-92935000D01*
X127465000Y-92935000D02*
X129750000Y-92935000D01*
X131741422Y-82390000D02*
X132258578Y-82390000D01*
X131741422Y-83810000D02*
X132258578Y-83810000D01*
X132050279Y-77210000D02*
X131724721Y-77210000D01*
X132050279Y-76190000D02*
X131724721Y-76190000D01*
X143640000Y-83790000D02*
X139390000Y-83790000D01*
X139390000Y-83790000D02*
X139390000Y-82770000D01*
X139390000Y-82770000D02*
X140990000Y-82770000D01*
X140990000Y-82770000D02*
X140990000Y-81490000D01*
X140990000Y-81490000D02*
X138100000Y-81490000D01*
X143640000Y-75670000D02*
X139390000Y-75670000D01*
X139390000Y-75670000D02*
X139390000Y-76690000D01*
X139390000Y-76690000D02*
X140990000Y-76690000D01*
X140990000Y-76690000D02*
X140990000Y-77970000D01*
X147210000Y-82070000D02*
X147210000Y-77390000D01*
X132165000Y-91035000D02*
X128635000Y-91035000D01*
X132165000Y-84565000D02*
X128635000Y-84565000D01*
X133490000Y-90970000D02*
X132165000Y-90970000D01*
X132165000Y-91035000D02*
X132165000Y-90970000D01*
X128635000Y-91035000D02*
X128635000Y-90970000D01*
X132165000Y-84630000D02*
X132165000Y-84565000D01*
X128635000Y-84630000D02*
X128635000Y-84565000D01*
X144152135Y-113817947D02*
X142242947Y-115727135D01*
X141811612Y-112311809D02*
X141366134Y-111866332D01*
X140284261Y-113839160D02*
X140736809Y-113386612D01*
X142264160Y-111859261D02*
X141811612Y-112311809D01*
X135640000Y-114320000D02*
X135890000Y-114820000D01*
X136140000Y-114320000D02*
X135640000Y-114320000D01*
X135890000Y-114820000D02*
X136140000Y-114320000D01*
X139933000Y-87622500D02*
X139933000Y-86692500D01*
X139933000Y-84462500D02*
X139933000Y-85392500D01*
X139933000Y-84462500D02*
X137773000Y-84462500D01*
X139933000Y-87622500D02*
X138473000Y-87622500D01*
X129511359Y-72643000D02*
X129818641Y-72643000D01*
X129511359Y-71883000D02*
X129818641Y-71883000D01*
X145743642Y-73920000D02*
X145436360Y-73920000D01*
X145743642Y-74680000D02*
X145436360Y-74680000D01*
X137428641Y-83705000D02*
X137121359Y-83705000D01*
X137428641Y-82945000D02*
X137121359Y-82945000D01*
X128880000Y-76971359D02*
X128880000Y-77278641D01*
X128120000Y-76971359D02*
X128120000Y-77278641D01*
X129145000Y-76971359D02*
X129145000Y-77278641D01*
X129905000Y-76971359D02*
X129905000Y-77278641D01*
X127880000Y-76971359D02*
X127880000Y-77278641D01*
X127120000Y-76971359D02*
X127120000Y-77278641D01*
X128241359Y-93880000D02*
X128548641Y-93880000D01*
X128241359Y-93120000D02*
X128548641Y-93120000D01*
X133762500Y-92003359D02*
X133762500Y-92310641D01*
X133002500Y-92003359D02*
X133002500Y-92310641D01*
X132050000Y-92314640D02*
X132050000Y-92007358D01*
X132810000Y-92314640D02*
X132810000Y-92007358D01*
X136246359Y-112348632D02*
X136553641Y-112348632D01*
X136246359Y-113108632D02*
X136553641Y-113108632D01*
X136270000Y-113410141D02*
X136270000Y-113102859D01*
X135510000Y-113410141D02*
X135510000Y-113102859D01*
X128550000Y-78780000D02*
X128650000Y-78780000D01*
X130310000Y-83400000D02*
X130310000Y-79000000D01*
X126890000Y-79000000D02*
X126890000Y-83400000D01*
X128540000Y-83610000D02*
X128640000Y-83610000D01*
X142690000Y-93060000D02*
X142790000Y-93060000D01*
X141040000Y-88450000D02*
X141040000Y-92850000D01*
X144460000Y-92850000D02*
X144460000Y-88450000D01*
X142700000Y-88230000D02*
X142800000Y-88230000D01*
X141800000Y-87610000D02*
X144250000Y-87610000D01*
X143600000Y-84390000D02*
X141800000Y-84390000D01*
X140780000Y-88690000D02*
X140780000Y-90150000D01*
X137620000Y-88690000D02*
X137620000Y-90850000D01*
X137620000Y-88690000D02*
X138550000Y-88690000D01*
X140780000Y-88690000D02*
X139850000Y-88690000D01*
D10*
X132675000Y-78600000D02*
X132675000Y-78825000D01*
X136025000Y-78600000D02*
X136025000Y-78900000D01*
X136025000Y-81950000D02*
X136025000Y-81650000D01*
X132675000Y-81950000D02*
X132675000Y-81650000D01*
X132675000Y-78600000D02*
X136025000Y-78600000D01*
X132675000Y-81950000D02*
X136025000Y-81950000D01*
X132675000Y-78825000D02*
X131450000Y-78825000D01*
D14*
X143890000Y-94230000D02*
X127890000Y-94230000D01*
X127890000Y-94230000D02*
X127890000Y-111030000D01*
X127890000Y-111030000D02*
X143890000Y-111030000D01*
X143890000Y-111030000D02*
X143890000Y-94230000D01*
X144172843Y-111030000D02*
G75*
G03*
X144172843Y-111030000I-282843J0D01*
G01*
X131837500Y-92051164D02*
X131837500Y-92266836D01*
X131117500Y-92051164D02*
X131117500Y-92266836D01*
X134240000Y-88020000D02*
X134240000Y-89780000D01*
X137310000Y-89780000D02*
X137310000Y-87350000D01*
X137387836Y-82735000D02*
X137172164Y-82735000D01*
X137387836Y-82015000D02*
X137172164Y-82015000D01*
X140590000Y-68600000D02*
X140590000Y-66700000D01*
X140590000Y-72500000D02*
X140590000Y-70500000D01*
X131190000Y-68600000D02*
X131190000Y-66700000D01*
X131190000Y-72500000D02*
X131190000Y-70500000D01*
X140590000Y-66700000D02*
X131190000Y-66700000D01*
X138405000Y-76768641D02*
X138405000Y-76461359D01*
X137645000Y-76768641D02*
X137645000Y-76461359D01*
X133545000Y-76753641D02*
X133545000Y-76446359D01*
X134305000Y-76753641D02*
X134305000Y-76446359D01*
X129370500Y-70173664D02*
X129370500Y-70389336D01*
X130090500Y-70173664D02*
X130090500Y-70389336D01*
X133267164Y-78385000D02*
X133482836Y-78385000D01*
X133267164Y-77665000D02*
X133482836Y-77665000D01*
X131342164Y-78385000D02*
X131557836Y-78385000D01*
X131342164Y-77665000D02*
X131557836Y-77665000D01*
X134792164Y-92740000D02*
X135007836Y-92740000D01*
X134792164Y-93460000D02*
X135007836Y-93460000D01*
X144960000Y-97542164D02*
X144960000Y-97757836D01*
X144240000Y-97542164D02*
X144240000Y-97757836D01*
X127510000Y-100757836D02*
X127510000Y-100542164D01*
X126790000Y-100757836D02*
X126790000Y-100542164D01*
X136907836Y-93460000D02*
X136692164Y-93460000D01*
X136907836Y-92740000D02*
X136692164Y-92740000D01*
X144290000Y-105757836D02*
X144290000Y-105542164D01*
X145010000Y-105757836D02*
X145010000Y-105542164D01*
X139370000Y-91996359D02*
X139370000Y-92303641D01*
X140130000Y-91996359D02*
X140130000Y-92303641D01*
M02*
