G04 #@! TF.GenerationSoftware,KiCad,Pcbnew,(5.1.8)-1*
G04 #@! TF.CreationDate,2021-04-09T02:34:17+02:00*
G04 #@! TF.ProjectId,Penguino-STM32WL-M,50656e67-7569-46e6-9f2d-53544d333257,0.1*
G04 #@! TF.SameCoordinates,Original*
G04 #@! TF.FileFunction,Soldermask,Top*
G04 #@! TF.FilePolarity,Negative*
%FSLAX46Y46*%
G04 Gerber Fmt 4.6, Leading zero omitted, Abs format (unit mm)*
G04 Created by KiCad (PCBNEW (5.1.8)-1) date 2021-04-09 02:34:17*
%MOMM*%
%LPD*%
G01*
G04 APERTURE LIST*
G04 #@! TA.AperFunction,Profile*
%ADD10C,0.150000*%
G04 #@! TD*
%ADD11R,0.650000X0.400000*%
%ADD12R,1.200000X0.900000*%
%ADD13R,0.800000X1.000000*%
%ADD14R,2.400000X0.740000*%
%ADD15C,0.100000*%
%ADD16R,1.350000X4.700000*%
%ADD17R,1.500000X4.700000*%
%ADD18R,1.500000X4.400000*%
%ADD19R,0.900000X0.800000*%
%ADD20R,0.660000X1.050000*%
%ADD21R,1.060000X0.650000*%
%ADD22R,0.800000X0.900000*%
%ADD23R,1.400000X0.300000*%
%ADD24C,3.175000*%
%ADD25C,2.540000*%
%ADD26O,1.700000X1.700000*%
%ADD27R,0.650000X1.220000*%
%ADD28O,1.000000X1.600000*%
%ADD29C,0.650000*%
%ADD30O,1.000000X2.100000*%
%ADD31R,0.300000X1.450000*%
%ADD32R,0.600000X1.450000*%
G04 APERTURE END LIST*
D10*
X127000000Y-119380000D02*
G75*
G02*
X124460000Y-116840000I0J2540000D01*
G01*
X147320000Y-116840000D02*
G75*
G02*
X144780000Y-119380000I-2540000J0D01*
G01*
X144780000Y-68580000D02*
G75*
G02*
X147320000Y-71120000I0J-2540000D01*
G01*
X124460000Y-71120000D02*
G75*
G02*
X127000000Y-68580000I2540000J0D01*
G01*
X124460000Y-116840000D02*
X124460000Y-71120000D01*
X144780000Y-119380000D02*
X127000000Y-119380000D01*
X147320000Y-71120000D02*
X147320000Y-116840000D01*
X127000000Y-68580000D02*
X144780000Y-68580000D01*
G36*
G01*
X138565000Y-92399999D02*
X138935000Y-92399999D01*
G75*
G02*
X139070000Y-92534999I0J-135000D01*
G01*
X139070000Y-92804999D01*
G75*
G02*
X138935000Y-92939999I-135000J0D01*
G01*
X138565000Y-92939999D01*
G75*
G02*
X138430000Y-92804999I0J135000D01*
G01*
X138430000Y-92534999D01*
G75*
G02*
X138565000Y-92399999I135000J0D01*
G01*
G37*
G36*
G01*
X138565000Y-91379999D02*
X138935000Y-91379999D01*
G75*
G02*
X139070000Y-91514999I0J-135000D01*
G01*
X139070000Y-91784999D01*
G75*
G02*
X138935000Y-91919999I-135000J0D01*
G01*
X138565000Y-91919999D01*
G75*
G02*
X138430000Y-91784999I0J135000D01*
G01*
X138430000Y-91514999D01*
G75*
G02*
X138565000Y-91379999I135000J0D01*
G01*
G37*
G36*
G01*
X133806327Y-112687625D02*
X133562375Y-112443673D01*
G75*
G02*
X133562375Y-112235077I104298J104298D01*
G01*
X133770971Y-112026481D01*
G75*
G02*
X133979567Y-112026481I104298J-104298D01*
G01*
X134223519Y-112270433D01*
G75*
G02*
X134223519Y-112479029I-104298J-104298D01*
G01*
X134014923Y-112687625D01*
G75*
G02*
X133806327Y-112687625I-104298J104298D01*
G01*
G37*
G36*
G01*
X133120433Y-113373519D02*
X132876481Y-113129567D01*
G75*
G02*
X132876481Y-112920971I104298J104298D01*
G01*
X133085077Y-112712375D01*
G75*
G02*
X133293673Y-112712375I104298J-104298D01*
G01*
X133537625Y-112956327D01*
G75*
G02*
X133537625Y-113164923I-104298J-104298D01*
G01*
X133329029Y-113373519D01*
G75*
G02*
X133120433Y-113373519I-104298J104298D01*
G01*
G37*
D11*
X135050000Y-77725000D03*
X135050000Y-76425000D03*
X136950000Y-77075000D03*
X135050000Y-77075000D03*
X136950000Y-76425000D03*
X136950000Y-77725000D03*
G36*
G01*
X143125000Y-74550000D02*
X143125000Y-74050000D01*
G75*
G02*
X143350000Y-73825000I225000J0D01*
G01*
X143800000Y-73825000D01*
G75*
G02*
X144025000Y-74050000I0J-225000D01*
G01*
X144025000Y-74550000D01*
G75*
G02*
X143800000Y-74775000I-225000J0D01*
G01*
X143350000Y-74775000D01*
G75*
G02*
X143125000Y-74550000I0J225000D01*
G01*
G37*
G36*
G01*
X141575000Y-74550000D02*
X141575000Y-74050000D01*
G75*
G02*
X141800000Y-73825000I225000J0D01*
G01*
X142250000Y-73825000D01*
G75*
G02*
X142475000Y-74050000I0J-225000D01*
G01*
X142475000Y-74550000D01*
G75*
G02*
X142250000Y-74775000I-225000J0D01*
G01*
X141800000Y-74775000D01*
G75*
G02*
X141575000Y-74550000I0J225000D01*
G01*
G37*
G36*
G01*
X137150000Y-84925000D02*
X136650000Y-84925000D01*
G75*
G02*
X136425000Y-84700000I0J225000D01*
G01*
X136425000Y-84250000D01*
G75*
G02*
X136650000Y-84025000I225000J0D01*
G01*
X137150000Y-84025000D01*
G75*
G02*
X137375000Y-84250000I0J-225000D01*
G01*
X137375000Y-84700000D01*
G75*
G02*
X137150000Y-84925000I-225000J0D01*
G01*
G37*
G36*
G01*
X137150000Y-86475000D02*
X136650000Y-86475000D01*
G75*
G02*
X136425000Y-86250000I0J225000D01*
G01*
X136425000Y-85800000D01*
G75*
G02*
X136650000Y-85575000I225000J0D01*
G01*
X137150000Y-85575000D01*
G75*
G02*
X137375000Y-85800000I0J-225000D01*
G01*
X137375000Y-86250000D01*
G75*
G02*
X137150000Y-86475000I-225000J0D01*
G01*
G37*
G36*
G01*
X134775000Y-92050000D02*
X134775000Y-91550000D01*
G75*
G02*
X135000000Y-91325000I225000J0D01*
G01*
X135450000Y-91325000D01*
G75*
G02*
X135675000Y-91550000I0J-225000D01*
G01*
X135675000Y-92050000D01*
G75*
G02*
X135450000Y-92275000I-225000J0D01*
G01*
X135000000Y-92275000D01*
G75*
G02*
X134775000Y-92050000I0J225000D01*
G01*
G37*
G36*
G01*
X136325000Y-92050000D02*
X136325000Y-91550000D01*
G75*
G02*
X136550000Y-91325000I225000J0D01*
G01*
X137000000Y-91325000D01*
G75*
G02*
X137225000Y-91550000I0J-225000D01*
G01*
X137225000Y-92050000D01*
G75*
G02*
X137000000Y-92275000I-225000J0D01*
G01*
X136550000Y-92275000D01*
G75*
G02*
X136325000Y-92050000I0J225000D01*
G01*
G37*
G36*
G01*
X141783750Y-70637500D02*
X142296250Y-70637500D01*
G75*
G02*
X142515000Y-70856250I0J-218750D01*
G01*
X142515000Y-71293750D01*
G75*
G02*
X142296250Y-71512500I-218750J0D01*
G01*
X141783750Y-71512500D01*
G75*
G02*
X141565000Y-71293750I0J218750D01*
G01*
X141565000Y-70856250D01*
G75*
G02*
X141783750Y-70637500I218750J0D01*
G01*
G37*
G36*
G01*
X141783750Y-69062500D02*
X142296250Y-69062500D01*
G75*
G02*
X142515000Y-69281250I0J-218750D01*
G01*
X142515000Y-69718750D01*
G75*
G02*
X142296250Y-69937500I-218750J0D01*
G01*
X141783750Y-69937500D01*
G75*
G02*
X141565000Y-69718750I0J218750D01*
G01*
X141565000Y-69281250D01*
G75*
G02*
X141783750Y-69062500I218750J0D01*
G01*
G37*
D12*
X135050000Y-86050000D03*
X135050000Y-82750000D03*
D13*
X127950000Y-75200000D03*
X127950000Y-73700000D03*
X129050000Y-73700000D03*
X129050000Y-75200000D03*
G36*
G01*
X127725000Y-92456250D02*
X127725000Y-91943750D01*
G75*
G02*
X127943750Y-91725000I218750J0D01*
G01*
X128381250Y-91725000D01*
G75*
G02*
X128600000Y-91943750I0J-218750D01*
G01*
X128600000Y-92456250D01*
G75*
G02*
X128381250Y-92675000I-218750J0D01*
G01*
X127943750Y-92675000D01*
G75*
G02*
X127725000Y-92456250I0J218750D01*
G01*
G37*
G36*
G01*
X129300000Y-92456250D02*
X129300000Y-91943750D01*
G75*
G02*
X129518750Y-91725000I218750J0D01*
G01*
X129956250Y-91725000D01*
G75*
G02*
X130175000Y-91943750I0J-218750D01*
G01*
X130175000Y-92456250D01*
G75*
G02*
X129956250Y-92675000I-218750J0D01*
G01*
X129518750Y-92675000D01*
G75*
G02*
X129300000Y-92456250I0J218750D01*
G01*
G37*
G36*
G01*
X130575000Y-83556250D02*
X130575000Y-82643750D01*
G75*
G02*
X130818750Y-82400000I243750J0D01*
G01*
X131306250Y-82400000D01*
G75*
G02*
X131550000Y-82643750I0J-243750D01*
G01*
X131550000Y-83556250D01*
G75*
G02*
X131306250Y-83800000I-243750J0D01*
G01*
X130818750Y-83800000D01*
G75*
G02*
X130575000Y-83556250I0J243750D01*
G01*
G37*
G36*
G01*
X132450000Y-83556250D02*
X132450000Y-82643750D01*
G75*
G02*
X132693750Y-82400000I243750J0D01*
G01*
X133181250Y-82400000D01*
G75*
G02*
X133425000Y-82643750I0J-243750D01*
G01*
X133425000Y-83556250D01*
G75*
G02*
X133181250Y-83800000I-243750J0D01*
G01*
X132693750Y-83800000D01*
G75*
G02*
X132450000Y-83556250I0J243750D01*
G01*
G37*
G36*
G01*
X133112500Y-76443750D02*
X133112500Y-76956250D01*
G75*
G02*
X132893750Y-77175000I-218750J0D01*
G01*
X132456250Y-77175000D01*
G75*
G02*
X132237500Y-76956250I0J218750D01*
G01*
X132237500Y-76443750D01*
G75*
G02*
X132456250Y-76225000I218750J0D01*
G01*
X132893750Y-76225000D01*
G75*
G02*
X133112500Y-76443750I0J-218750D01*
G01*
G37*
G36*
G01*
X131537500Y-76443750D02*
X131537500Y-76956250D01*
G75*
G02*
X131318750Y-77175000I-218750J0D01*
G01*
X130881250Y-77175000D01*
G75*
G02*
X130662500Y-76956250I0J218750D01*
G01*
X130662500Y-76443750D01*
G75*
G02*
X130881250Y-76225000I218750J0D01*
G01*
X131318750Y-76225000D01*
G75*
G02*
X131537500Y-76443750I0J-218750D01*
G01*
G37*
G36*
G01*
X141350000Y-81230000D02*
X138350000Y-81230000D01*
G75*
G02*
X138100000Y-80980000I0J250000D01*
G01*
X138100000Y-80480000D01*
G75*
G02*
X138350000Y-80230000I250000J0D01*
G01*
X141350000Y-80230000D01*
G75*
G02*
X141600000Y-80480000I0J-250000D01*
G01*
X141600000Y-80980000D01*
G75*
G02*
X141350000Y-81230000I-250000J0D01*
G01*
G37*
G36*
G01*
X141350000Y-79230000D02*
X138350000Y-79230000D01*
G75*
G02*
X138100000Y-78980000I0J250000D01*
G01*
X138100000Y-78480000D01*
G75*
G02*
X138350000Y-78230000I250000J0D01*
G01*
X141350000Y-78230000D01*
G75*
G02*
X141600000Y-78480000I0J-250000D01*
G01*
X141600000Y-78980000D01*
G75*
G02*
X141350000Y-79230000I-250000J0D01*
G01*
G37*
G36*
G01*
X147050000Y-83830000D02*
X144150000Y-83830000D01*
G75*
G02*
X143900000Y-83580000I0J250000D01*
G01*
X143900000Y-82580000D01*
G75*
G02*
X144150000Y-82330000I250000J0D01*
G01*
X147050000Y-82330000D01*
G75*
G02*
X147300000Y-82580000I0J-250000D01*
G01*
X147300000Y-83580000D01*
G75*
G02*
X147050000Y-83830000I-250000J0D01*
G01*
G37*
G36*
G01*
X147050000Y-77130000D02*
X144150000Y-77130000D01*
G75*
G02*
X143900000Y-76880000I0J250000D01*
G01*
X143900000Y-75880000D01*
G75*
G02*
X144150000Y-75630000I250000J0D01*
G01*
X147050000Y-75630000D01*
G75*
G02*
X147300000Y-75880000I0J-250000D01*
G01*
X147300000Y-76880000D01*
G75*
G02*
X147050000Y-77130000I-250000J0D01*
G01*
G37*
D14*
X132350000Y-90340000D03*
X128450000Y-90340000D03*
X132350000Y-89070000D03*
X128450000Y-89070000D03*
X132350000Y-87800000D03*
X128450000Y-87800000D03*
X132350000Y-86530000D03*
X128450000Y-86530000D03*
X132350000Y-85260000D03*
X128450000Y-85260000D03*
D15*
G36*
X140043844Y-114447272D02*
G01*
X140786307Y-113704809D01*
X142341942Y-115260444D01*
X141599479Y-116002907D01*
X140043844Y-114447272D01*
G37*
G36*
X140432754Y-112714860D02*
G01*
X141139860Y-112007754D01*
X141882322Y-112750216D01*
X141175216Y-113457322D01*
X140432754Y-112714860D01*
G37*
G36*
X142129809Y-112361307D02*
G01*
X142872272Y-111618844D01*
X144427907Y-113174479D01*
X143685444Y-113916942D01*
X142129809Y-112361307D01*
G37*
D16*
X133065000Y-116880000D03*
D17*
X138715000Y-116880000D03*
D18*
X135890000Y-116857000D03*
D19*
X138173000Y-85092500D03*
X138173000Y-86992500D03*
X140173000Y-86042500D03*
G36*
G01*
X129905000Y-72448000D02*
X129905000Y-72078000D01*
G75*
G02*
X130040000Y-71943000I135000J0D01*
G01*
X130310000Y-71943000D01*
G75*
G02*
X130445000Y-72078000I0J-135000D01*
G01*
X130445000Y-72448000D01*
G75*
G02*
X130310000Y-72583000I-135000J0D01*
G01*
X130040000Y-72583000D01*
G75*
G02*
X129905000Y-72448000I0J135000D01*
G01*
G37*
G36*
G01*
X128885000Y-72448000D02*
X128885000Y-72078000D01*
G75*
G02*
X129020000Y-71943000I135000J0D01*
G01*
X129290000Y-71943000D01*
G75*
G02*
X129425000Y-72078000I0J-135000D01*
G01*
X129425000Y-72448000D01*
G75*
G02*
X129290000Y-72583000I-135000J0D01*
G01*
X129020000Y-72583000D01*
G75*
G02*
X128885000Y-72448000I0J135000D01*
G01*
G37*
G36*
G01*
X145350001Y-74115000D02*
X145350001Y-74485000D01*
G75*
G02*
X145215001Y-74620000I-135000J0D01*
G01*
X144945001Y-74620000D01*
G75*
G02*
X144810001Y-74485000I0J135000D01*
G01*
X144810001Y-74115000D01*
G75*
G02*
X144945001Y-73980000I135000J0D01*
G01*
X145215001Y-73980000D01*
G75*
G02*
X145350001Y-74115000I0J-135000D01*
G01*
G37*
G36*
G01*
X146370001Y-74115000D02*
X146370001Y-74485000D01*
G75*
G02*
X146235001Y-74620000I-135000J0D01*
G01*
X145965001Y-74620000D01*
G75*
G02*
X145830001Y-74485000I0J135000D01*
G01*
X145830001Y-74115000D01*
G75*
G02*
X145965001Y-73980000I135000J0D01*
G01*
X146235001Y-73980000D01*
G75*
G02*
X146370001Y-74115000I0J-135000D01*
G01*
G37*
G36*
G01*
X138055000Y-83140000D02*
X138055000Y-83510000D01*
G75*
G02*
X137920000Y-83645000I-135000J0D01*
G01*
X137650000Y-83645000D01*
G75*
G02*
X137515000Y-83510000I0J135000D01*
G01*
X137515000Y-83140000D01*
G75*
G02*
X137650000Y-83005000I135000J0D01*
G01*
X137920000Y-83005000D01*
G75*
G02*
X138055000Y-83140000I0J-135000D01*
G01*
G37*
G36*
G01*
X137035000Y-83140000D02*
X137035000Y-83510000D01*
G75*
G02*
X136900000Y-83645000I-135000J0D01*
G01*
X136630000Y-83645000D01*
G75*
G02*
X136495000Y-83510000I0J135000D01*
G01*
X136495000Y-83140000D01*
G75*
G02*
X136630000Y-83005000I135000J0D01*
G01*
X136900000Y-83005000D01*
G75*
G02*
X137035000Y-83140000I0J-135000D01*
G01*
G37*
G36*
G01*
X128315000Y-76345000D02*
X128685000Y-76345000D01*
G75*
G02*
X128820000Y-76480000I0J-135000D01*
G01*
X128820000Y-76750000D01*
G75*
G02*
X128685000Y-76885000I-135000J0D01*
G01*
X128315000Y-76885000D01*
G75*
G02*
X128180000Y-76750000I0J135000D01*
G01*
X128180000Y-76480000D01*
G75*
G02*
X128315000Y-76345000I135000J0D01*
G01*
G37*
G36*
G01*
X128315000Y-77365000D02*
X128685000Y-77365000D01*
G75*
G02*
X128820000Y-77500000I0J-135000D01*
G01*
X128820000Y-77770000D01*
G75*
G02*
X128685000Y-77905000I-135000J0D01*
G01*
X128315000Y-77905000D01*
G75*
G02*
X128180000Y-77770000I0J135000D01*
G01*
X128180000Y-77500000D01*
G75*
G02*
X128315000Y-77365000I135000J0D01*
G01*
G37*
G36*
G01*
X129340000Y-77365000D02*
X129710000Y-77365000D01*
G75*
G02*
X129845000Y-77500000I0J-135000D01*
G01*
X129845000Y-77770000D01*
G75*
G02*
X129710000Y-77905000I-135000J0D01*
G01*
X129340000Y-77905000D01*
G75*
G02*
X129205000Y-77770000I0J135000D01*
G01*
X129205000Y-77500000D01*
G75*
G02*
X129340000Y-77365000I135000J0D01*
G01*
G37*
G36*
G01*
X129340000Y-76345000D02*
X129710000Y-76345000D01*
G75*
G02*
X129845000Y-76480000I0J-135000D01*
G01*
X129845000Y-76750000D01*
G75*
G02*
X129710000Y-76885000I-135000J0D01*
G01*
X129340000Y-76885000D01*
G75*
G02*
X129205000Y-76750000I0J135000D01*
G01*
X129205000Y-76480000D01*
G75*
G02*
X129340000Y-76345000I135000J0D01*
G01*
G37*
G36*
G01*
X127315000Y-76345000D02*
X127685000Y-76345000D01*
G75*
G02*
X127820000Y-76480000I0J-135000D01*
G01*
X127820000Y-76750000D01*
G75*
G02*
X127685000Y-76885000I-135000J0D01*
G01*
X127315000Y-76885000D01*
G75*
G02*
X127180000Y-76750000I0J135000D01*
G01*
X127180000Y-76480000D01*
G75*
G02*
X127315000Y-76345000I135000J0D01*
G01*
G37*
G36*
G01*
X127315000Y-77365000D02*
X127685000Y-77365000D01*
G75*
G02*
X127820000Y-77500000I0J-135000D01*
G01*
X127820000Y-77770000D01*
G75*
G02*
X127685000Y-77905000I-135000J0D01*
G01*
X127315000Y-77905000D01*
G75*
G02*
X127180000Y-77770000I0J135000D01*
G01*
X127180000Y-77500000D01*
G75*
G02*
X127315000Y-77365000I135000J0D01*
G01*
G37*
G36*
G01*
X128635000Y-93685000D02*
X128635000Y-93315000D01*
G75*
G02*
X128770000Y-93180000I135000J0D01*
G01*
X129040000Y-93180000D01*
G75*
G02*
X129175000Y-93315000I0J-135000D01*
G01*
X129175000Y-93685000D01*
G75*
G02*
X129040000Y-93820000I-135000J0D01*
G01*
X128770000Y-93820000D01*
G75*
G02*
X128635000Y-93685000I0J135000D01*
G01*
G37*
G36*
G01*
X127615000Y-93685000D02*
X127615000Y-93315000D01*
G75*
G02*
X127750000Y-93180000I135000J0D01*
G01*
X128020000Y-93180000D01*
G75*
G02*
X128155000Y-93315000I0J-135000D01*
G01*
X128155000Y-93685000D01*
G75*
G02*
X128020000Y-93820000I-135000J0D01*
G01*
X127750000Y-93820000D01*
G75*
G02*
X127615000Y-93685000I0J135000D01*
G01*
G37*
G36*
G01*
X133197500Y-91377000D02*
X133567500Y-91377000D01*
G75*
G02*
X133702500Y-91512000I0J-135000D01*
G01*
X133702500Y-91782000D01*
G75*
G02*
X133567500Y-91917000I-135000J0D01*
G01*
X133197500Y-91917000D01*
G75*
G02*
X133062500Y-91782000I0J135000D01*
G01*
X133062500Y-91512000D01*
G75*
G02*
X133197500Y-91377000I135000J0D01*
G01*
G37*
G36*
G01*
X133197500Y-92397000D02*
X133567500Y-92397000D01*
G75*
G02*
X133702500Y-92532000I0J-135000D01*
G01*
X133702500Y-92802000D01*
G75*
G02*
X133567500Y-92937000I-135000J0D01*
G01*
X133197500Y-92937000D01*
G75*
G02*
X133062500Y-92802000I0J135000D01*
G01*
X133062500Y-92532000D01*
G75*
G02*
X133197500Y-92397000I135000J0D01*
G01*
G37*
G36*
G01*
X132615000Y-92940999D02*
X132245000Y-92940999D01*
G75*
G02*
X132110000Y-92805999I0J135000D01*
G01*
X132110000Y-92535999D01*
G75*
G02*
X132245000Y-92400999I135000J0D01*
G01*
X132615000Y-92400999D01*
G75*
G02*
X132750000Y-92535999I0J-135000D01*
G01*
X132750000Y-92805999D01*
G75*
G02*
X132615000Y-92940999I-135000J0D01*
G01*
G37*
G36*
G01*
X132615000Y-91920999D02*
X132245000Y-91920999D01*
G75*
G02*
X132110000Y-91785999I0J135000D01*
G01*
X132110000Y-91515999D01*
G75*
G02*
X132245000Y-91380999I135000J0D01*
G01*
X132615000Y-91380999D01*
G75*
G02*
X132750000Y-91515999I0J-135000D01*
G01*
X132750000Y-91785999D01*
G75*
G02*
X132615000Y-91920999I-135000J0D01*
G01*
G37*
G36*
G01*
X135620000Y-112913632D02*
X135620000Y-112543632D01*
G75*
G02*
X135755000Y-112408632I135000J0D01*
G01*
X136025000Y-112408632D01*
G75*
G02*
X136160000Y-112543632I0J-135000D01*
G01*
X136160000Y-112913632D01*
G75*
G02*
X136025000Y-113048632I-135000J0D01*
G01*
X135755000Y-113048632D01*
G75*
G02*
X135620000Y-112913632I0J135000D01*
G01*
G37*
G36*
G01*
X136640000Y-112913632D02*
X136640000Y-112543632D01*
G75*
G02*
X136775000Y-112408632I135000J0D01*
G01*
X137045000Y-112408632D01*
G75*
G02*
X137180000Y-112543632I0J-135000D01*
G01*
X137180000Y-112913632D01*
G75*
G02*
X137045000Y-113048632I-135000J0D01*
G01*
X136775000Y-113048632D01*
G75*
G02*
X136640000Y-112913632I0J135000D01*
G01*
G37*
G36*
G01*
X136075000Y-113016500D02*
X135705000Y-113016500D01*
G75*
G02*
X135570000Y-112881500I0J135000D01*
G01*
X135570000Y-112611500D01*
G75*
G02*
X135705000Y-112476500I135000J0D01*
G01*
X136075000Y-112476500D01*
G75*
G02*
X136210000Y-112611500I0J-135000D01*
G01*
X136210000Y-112881500D01*
G75*
G02*
X136075000Y-113016500I-135000J0D01*
G01*
G37*
G36*
G01*
X136075000Y-114036500D02*
X135705000Y-114036500D01*
G75*
G02*
X135570000Y-113901500I0J135000D01*
G01*
X135570000Y-113631500D01*
G75*
G02*
X135705000Y-113496500I135000J0D01*
G01*
X136075000Y-113496500D01*
G75*
G02*
X136210000Y-113631500I0J-135000D01*
G01*
X136210000Y-113901500D01*
G75*
G02*
X136075000Y-114036500I-135000J0D01*
G01*
G37*
D20*
X127530000Y-83275000D03*
X129670000Y-83275000D03*
X127530000Y-79125000D03*
X129670000Y-79125000D03*
X143820000Y-88575000D03*
X141680000Y-88575000D03*
X143820000Y-92725000D03*
X141680000Y-92725000D03*
D21*
X141600000Y-86950000D03*
X141600000Y-85050000D03*
X143800000Y-85050000D03*
X143800000Y-86000000D03*
X143800000Y-86950000D03*
D22*
X139200000Y-88450000D03*
X140150000Y-90450000D03*
X138250000Y-90450000D03*
D23*
X132150000Y-79275000D03*
X132150000Y-79775000D03*
X132150000Y-80275000D03*
X132150000Y-80775000D03*
X132150000Y-81275000D03*
X136550000Y-81275000D03*
X136550000Y-80775000D03*
X136550000Y-80275000D03*
X136550000Y-79775000D03*
X136550000Y-79275000D03*
G36*
G01*
X134793600Y-97430000D02*
X133686400Y-97430000D01*
G75*
G02*
X133440000Y-97183600I0J246400D01*
G01*
X133440000Y-96076400D01*
G75*
G02*
X133686400Y-95830000I246400J0D01*
G01*
X134793600Y-95830000D01*
G75*
G02*
X135040000Y-96076400I0J-246400D01*
G01*
X135040000Y-97183600D01*
G75*
G02*
X134793600Y-97430000I-246400J0D01*
G01*
G37*
G36*
G01*
X138193600Y-97430000D02*
X137086400Y-97430000D01*
G75*
G02*
X136840000Y-97183600I0J246400D01*
G01*
X136840000Y-96076400D01*
G75*
G02*
X137086400Y-95830000I246400J0D01*
G01*
X138193600Y-95830000D01*
G75*
G02*
X138440000Y-96076400I0J-246400D01*
G01*
X138440000Y-97183600D01*
G75*
G02*
X138193600Y-97430000I-246400J0D01*
G01*
G37*
G36*
G01*
X138193600Y-109430000D02*
X137086400Y-109430000D01*
G75*
G02*
X136840000Y-109183600I0J246400D01*
G01*
X136840000Y-108076400D01*
G75*
G02*
X137086400Y-107830000I246400J0D01*
G01*
X138193600Y-107830000D01*
G75*
G02*
X138440000Y-108076400I0J-246400D01*
G01*
X138440000Y-109183600D01*
G75*
G02*
X138193600Y-109430000I-246400J0D01*
G01*
G37*
G36*
G01*
X134793600Y-109430000D02*
X133686400Y-109430000D01*
G75*
G02*
X133440000Y-109183600I0J246400D01*
G01*
X133440000Y-108076400D01*
G75*
G02*
X133686400Y-107830000I246400J0D01*
G01*
X134793600Y-107830000D01*
G75*
G02*
X135040000Y-108076400I0J-246400D01*
G01*
X135040000Y-109183600D01*
G75*
G02*
X134793600Y-109430000I-246400J0D01*
G01*
G37*
G36*
G01*
X131493600Y-97430000D02*
X130386400Y-97430000D01*
G75*
G02*
X130140000Y-97183600I0J246400D01*
G01*
X130140000Y-96076400D01*
G75*
G02*
X130386400Y-95830000I246400J0D01*
G01*
X131493600Y-95830000D01*
G75*
G02*
X131740000Y-96076400I0J-246400D01*
G01*
X131740000Y-97183600D01*
G75*
G02*
X131493600Y-97430000I-246400J0D01*
G01*
G37*
G36*
G01*
X131493600Y-100430000D02*
X130386400Y-100430000D01*
G75*
G02*
X130140000Y-100183600I0J246400D01*
G01*
X130140000Y-99076400D01*
G75*
G02*
X130386400Y-98830000I246400J0D01*
G01*
X131493600Y-98830000D01*
G75*
G02*
X131740000Y-99076400I0J-246400D01*
G01*
X131740000Y-100183600D01*
G75*
G02*
X131493600Y-100430000I-246400J0D01*
G01*
G37*
G36*
G01*
X131493600Y-103430000D02*
X130386400Y-103430000D01*
G75*
G02*
X130140000Y-103183600I0J246400D01*
G01*
X130140000Y-102076400D01*
G75*
G02*
X130386400Y-101830000I246400J0D01*
G01*
X131493600Y-101830000D01*
G75*
G02*
X131740000Y-102076400I0J-246400D01*
G01*
X131740000Y-103183600D01*
G75*
G02*
X131493600Y-103430000I-246400J0D01*
G01*
G37*
G36*
G01*
X131493600Y-106430000D02*
X130386400Y-106430000D01*
G75*
G02*
X130140000Y-106183600I0J246400D01*
G01*
X130140000Y-105076400D01*
G75*
G02*
X130386400Y-104830000I246400J0D01*
G01*
X131493600Y-104830000D01*
G75*
G02*
X131740000Y-105076400I0J-246400D01*
G01*
X131740000Y-106183600D01*
G75*
G02*
X131493600Y-106430000I-246400J0D01*
G01*
G37*
G36*
G01*
X131493600Y-109430000D02*
X130386400Y-109430000D01*
G75*
G02*
X130140000Y-109183600I0J246400D01*
G01*
X130140000Y-108076400D01*
G75*
G02*
X130386400Y-107830000I246400J0D01*
G01*
X131493600Y-107830000D01*
G75*
G02*
X131740000Y-108076400I0J-246400D01*
G01*
X131740000Y-109183600D01*
G75*
G02*
X131493600Y-109430000I-246400J0D01*
G01*
G37*
G36*
G01*
X141393600Y-106430000D02*
X140286400Y-106430000D01*
G75*
G02*
X140040000Y-106183600I0J246400D01*
G01*
X140040000Y-105076400D01*
G75*
G02*
X140286400Y-104830000I246400J0D01*
G01*
X141393600Y-104830000D01*
G75*
G02*
X141640000Y-105076400I0J-246400D01*
G01*
X141640000Y-106183600D01*
G75*
G02*
X141393600Y-106430000I-246400J0D01*
G01*
G37*
G36*
G01*
X141393600Y-97430000D02*
X140286400Y-97430000D01*
G75*
G02*
X140040000Y-97183600I0J246400D01*
G01*
X140040000Y-96076400D01*
G75*
G02*
X140286400Y-95830000I246400J0D01*
G01*
X141393600Y-95830000D01*
G75*
G02*
X141640000Y-96076400I0J-246400D01*
G01*
X141640000Y-97183600D01*
G75*
G02*
X141393600Y-97430000I-246400J0D01*
G01*
G37*
G36*
G01*
X141393600Y-100430000D02*
X140286400Y-100430000D01*
G75*
G02*
X140040000Y-100183600I0J246400D01*
G01*
X140040000Y-99076400D01*
G75*
G02*
X140286400Y-98830000I246400J0D01*
G01*
X141393600Y-98830000D01*
G75*
G02*
X141640000Y-99076400I0J-246400D01*
G01*
X141640000Y-100183600D01*
G75*
G02*
X141393600Y-100430000I-246400J0D01*
G01*
G37*
G36*
G01*
X141393600Y-103430000D02*
X140286400Y-103430000D01*
G75*
G02*
X140040000Y-103183600I0J246400D01*
G01*
X140040000Y-102076400D01*
G75*
G02*
X140286400Y-101830000I246400J0D01*
G01*
X141393600Y-101830000D01*
G75*
G02*
X141640000Y-102076400I0J-246400D01*
G01*
X141640000Y-103183600D01*
G75*
G02*
X141393600Y-103430000I-246400J0D01*
G01*
G37*
G36*
G01*
X141393600Y-109430000D02*
X140286400Y-109430000D01*
G75*
G02*
X140040000Y-109183600I0J246400D01*
G01*
X140040000Y-108076400D01*
G75*
G02*
X140286400Y-107830000I246400J0D01*
G01*
X141393600Y-107830000D01*
G75*
G02*
X141640000Y-108076400I0J-246400D01*
G01*
X141640000Y-109183600D01*
G75*
G02*
X141393600Y-109430000I-246400J0D01*
G01*
G37*
G36*
G01*
X130614900Y-111430000D02*
X130165100Y-111430000D01*
G75*
G02*
X130065000Y-111329900I0J100100D01*
G01*
X130065000Y-109930100D01*
G75*
G02*
X130165100Y-109830000I100100J0D01*
G01*
X130614900Y-109830000D01*
G75*
G02*
X130715000Y-109930100I0J-100100D01*
G01*
X130715000Y-111329900D01*
G75*
G02*
X130614900Y-111430000I-100100J0D01*
G01*
G37*
G36*
G01*
X131614900Y-111430000D02*
X131165100Y-111430000D01*
G75*
G02*
X131065000Y-111329900I0J100100D01*
G01*
X131065000Y-109930100D01*
G75*
G02*
X131165100Y-109830000I100100J0D01*
G01*
X131614900Y-109830000D01*
G75*
G02*
X131715000Y-109930100I0J-100100D01*
G01*
X131715000Y-111329900D01*
G75*
G02*
X131614900Y-111430000I-100100J0D01*
G01*
G37*
G36*
G01*
X132614900Y-111430000D02*
X132165100Y-111430000D01*
G75*
G02*
X132065000Y-111329900I0J100100D01*
G01*
X132065000Y-109930100D01*
G75*
G02*
X132165100Y-109830000I100100J0D01*
G01*
X132614900Y-109830000D01*
G75*
G02*
X132715000Y-109930100I0J-100100D01*
G01*
X132715000Y-111329900D01*
G75*
G02*
X132614900Y-111430000I-100100J0D01*
G01*
G37*
G36*
G01*
X133614900Y-111430000D02*
X133165100Y-111430000D01*
G75*
G02*
X133065000Y-111329900I0J100100D01*
G01*
X133065000Y-109930100D01*
G75*
G02*
X133165100Y-109830000I100100J0D01*
G01*
X133614900Y-109830000D01*
G75*
G02*
X133715000Y-109930100I0J-100100D01*
G01*
X133715000Y-111329900D01*
G75*
G02*
X133614900Y-111430000I-100100J0D01*
G01*
G37*
G36*
G01*
X134614900Y-111430000D02*
X134165100Y-111430000D01*
G75*
G02*
X134065000Y-111329900I0J100100D01*
G01*
X134065000Y-109930100D01*
G75*
G02*
X134165100Y-109830000I100100J0D01*
G01*
X134614900Y-109830000D01*
G75*
G02*
X134715000Y-109930100I0J-100100D01*
G01*
X134715000Y-111329900D01*
G75*
G02*
X134614900Y-111430000I-100100J0D01*
G01*
G37*
G36*
G01*
X135614900Y-111430000D02*
X135165100Y-111430000D01*
G75*
G02*
X135065000Y-111329900I0J100100D01*
G01*
X135065000Y-109930100D01*
G75*
G02*
X135165100Y-109830000I100100J0D01*
G01*
X135614900Y-109830000D01*
G75*
G02*
X135715000Y-109930100I0J-100100D01*
G01*
X135715000Y-111329900D01*
G75*
G02*
X135614900Y-111430000I-100100J0D01*
G01*
G37*
G36*
G01*
X136614900Y-111430000D02*
X136165100Y-111430000D01*
G75*
G02*
X136065000Y-111329900I0J100100D01*
G01*
X136065000Y-109930100D01*
G75*
G02*
X136165100Y-109830000I100100J0D01*
G01*
X136614900Y-109830000D01*
G75*
G02*
X136715000Y-109930100I0J-100100D01*
G01*
X136715000Y-111329900D01*
G75*
G02*
X136614900Y-111430000I-100100J0D01*
G01*
G37*
G36*
G01*
X137614900Y-111430000D02*
X137165100Y-111430000D01*
G75*
G02*
X137065000Y-111329900I0J100100D01*
G01*
X137065000Y-109930100D01*
G75*
G02*
X137165100Y-109830000I100100J0D01*
G01*
X137614900Y-109830000D01*
G75*
G02*
X137715000Y-109930100I0J-100100D01*
G01*
X137715000Y-111329900D01*
G75*
G02*
X137614900Y-111430000I-100100J0D01*
G01*
G37*
G36*
G01*
X138614900Y-111430000D02*
X138165100Y-111430000D01*
G75*
G02*
X138065000Y-111329900I0J100100D01*
G01*
X138065000Y-109930100D01*
G75*
G02*
X138165100Y-109830000I100100J0D01*
G01*
X138614900Y-109830000D01*
G75*
G02*
X138715000Y-109930100I0J-100100D01*
G01*
X138715000Y-111329900D01*
G75*
G02*
X138614900Y-111430000I-100100J0D01*
G01*
G37*
G36*
G01*
X139614900Y-111430000D02*
X139165100Y-111430000D01*
G75*
G02*
X139065000Y-111329900I0J100100D01*
G01*
X139065000Y-109930100D01*
G75*
G02*
X139165100Y-109830000I100100J0D01*
G01*
X139614900Y-109830000D01*
G75*
G02*
X139715000Y-109930100I0J-100100D01*
G01*
X139715000Y-111329900D01*
G75*
G02*
X139614900Y-111430000I-100100J0D01*
G01*
G37*
G36*
G01*
X140614900Y-111430000D02*
X140165100Y-111430000D01*
G75*
G02*
X140065000Y-111329900I0J100100D01*
G01*
X140065000Y-109930100D01*
G75*
G02*
X140165100Y-109830000I100100J0D01*
G01*
X140614900Y-109830000D01*
G75*
G02*
X140715000Y-109930100I0J-100100D01*
G01*
X140715000Y-111329900D01*
G75*
G02*
X140614900Y-111430000I-100100J0D01*
G01*
G37*
G36*
G01*
X127540000Y-96354900D02*
X127540000Y-95905100D01*
G75*
G02*
X127640100Y-95805000I100100J0D01*
G01*
X129039900Y-95805000D01*
G75*
G02*
X129140000Y-95905100I0J-100100D01*
G01*
X129140000Y-96354900D01*
G75*
G02*
X129039900Y-96455000I-100100J0D01*
G01*
X127640100Y-96455000D01*
G75*
G02*
X127540000Y-96354900I0J100100D01*
G01*
G37*
G36*
G01*
X127540000Y-97354900D02*
X127540000Y-96905100D01*
G75*
G02*
X127640100Y-96805000I100100J0D01*
G01*
X129039900Y-96805000D01*
G75*
G02*
X129140000Y-96905100I0J-100100D01*
G01*
X129140000Y-97354900D01*
G75*
G02*
X129039900Y-97455000I-100100J0D01*
G01*
X127640100Y-97455000D01*
G75*
G02*
X127540000Y-97354900I0J100100D01*
G01*
G37*
G36*
G01*
X127540000Y-98354900D02*
X127540000Y-97905100D01*
G75*
G02*
X127640100Y-97805000I100100J0D01*
G01*
X129039900Y-97805000D01*
G75*
G02*
X129140000Y-97905100I0J-100100D01*
G01*
X129140000Y-98354900D01*
G75*
G02*
X129039900Y-98455000I-100100J0D01*
G01*
X127640100Y-98455000D01*
G75*
G02*
X127540000Y-98354900I0J100100D01*
G01*
G37*
G36*
G01*
X127540000Y-99354900D02*
X127540000Y-98905100D01*
G75*
G02*
X127640100Y-98805000I100100J0D01*
G01*
X129039900Y-98805000D01*
G75*
G02*
X129140000Y-98905100I0J-100100D01*
G01*
X129140000Y-99354900D01*
G75*
G02*
X129039900Y-99455000I-100100J0D01*
G01*
X127640100Y-99455000D01*
G75*
G02*
X127540000Y-99354900I0J100100D01*
G01*
G37*
G36*
G01*
X127540000Y-100354900D02*
X127540000Y-99905100D01*
G75*
G02*
X127640100Y-99805000I100100J0D01*
G01*
X129039900Y-99805000D01*
G75*
G02*
X129140000Y-99905100I0J-100100D01*
G01*
X129140000Y-100354900D01*
G75*
G02*
X129039900Y-100455000I-100100J0D01*
G01*
X127640100Y-100455000D01*
G75*
G02*
X127540000Y-100354900I0J100100D01*
G01*
G37*
G36*
G01*
X127540000Y-101354900D02*
X127540000Y-100905100D01*
G75*
G02*
X127640100Y-100805000I100100J0D01*
G01*
X129039900Y-100805000D01*
G75*
G02*
X129140000Y-100905100I0J-100100D01*
G01*
X129140000Y-101354900D01*
G75*
G02*
X129039900Y-101455000I-100100J0D01*
G01*
X127640100Y-101455000D01*
G75*
G02*
X127540000Y-101354900I0J100100D01*
G01*
G37*
G36*
G01*
X127540000Y-102354900D02*
X127540000Y-101905100D01*
G75*
G02*
X127640100Y-101805000I100100J0D01*
G01*
X129039900Y-101805000D01*
G75*
G02*
X129140000Y-101905100I0J-100100D01*
G01*
X129140000Y-102354900D01*
G75*
G02*
X129039900Y-102455000I-100100J0D01*
G01*
X127640100Y-102455000D01*
G75*
G02*
X127540000Y-102354900I0J100100D01*
G01*
G37*
G36*
G01*
X127540000Y-103354900D02*
X127540000Y-102905100D01*
G75*
G02*
X127640100Y-102805000I100100J0D01*
G01*
X129039900Y-102805000D01*
G75*
G02*
X129140000Y-102905100I0J-100100D01*
G01*
X129140000Y-103354900D01*
G75*
G02*
X129039900Y-103455000I-100100J0D01*
G01*
X127640100Y-103455000D01*
G75*
G02*
X127540000Y-103354900I0J100100D01*
G01*
G37*
G36*
G01*
X127540000Y-104354900D02*
X127540000Y-103905100D01*
G75*
G02*
X127640100Y-103805000I100100J0D01*
G01*
X129039900Y-103805000D01*
G75*
G02*
X129140000Y-103905100I0J-100100D01*
G01*
X129140000Y-104354900D01*
G75*
G02*
X129039900Y-104455000I-100100J0D01*
G01*
X127640100Y-104455000D01*
G75*
G02*
X127540000Y-104354900I0J100100D01*
G01*
G37*
G36*
G01*
X127540000Y-105354900D02*
X127540000Y-104905100D01*
G75*
G02*
X127640100Y-104805000I100100J0D01*
G01*
X129039900Y-104805000D01*
G75*
G02*
X129140000Y-104905100I0J-100100D01*
G01*
X129140000Y-105354900D01*
G75*
G02*
X129039900Y-105455000I-100100J0D01*
G01*
X127640100Y-105455000D01*
G75*
G02*
X127540000Y-105354900I0J100100D01*
G01*
G37*
G36*
G01*
X127540000Y-106354900D02*
X127540000Y-105905100D01*
G75*
G02*
X127640100Y-105805000I100100J0D01*
G01*
X129039900Y-105805000D01*
G75*
G02*
X129140000Y-105905100I0J-100100D01*
G01*
X129140000Y-106354900D01*
G75*
G02*
X129039900Y-106455000I-100100J0D01*
G01*
X127640100Y-106455000D01*
G75*
G02*
X127540000Y-106354900I0J100100D01*
G01*
G37*
G36*
G01*
X127540000Y-107354900D02*
X127540000Y-106905100D01*
G75*
G02*
X127640100Y-106805000I100100J0D01*
G01*
X129039900Y-106805000D01*
G75*
G02*
X129140000Y-106905100I0J-100100D01*
G01*
X129140000Y-107354900D01*
G75*
G02*
X129039900Y-107455000I-100100J0D01*
G01*
X127640100Y-107455000D01*
G75*
G02*
X127540000Y-107354900I0J100100D01*
G01*
G37*
G36*
G01*
X127540000Y-108354900D02*
X127540000Y-107905100D01*
G75*
G02*
X127640100Y-107805000I100100J0D01*
G01*
X129039900Y-107805000D01*
G75*
G02*
X129140000Y-107905100I0J-100100D01*
G01*
X129140000Y-108354900D01*
G75*
G02*
X129039900Y-108455000I-100100J0D01*
G01*
X127640100Y-108455000D01*
G75*
G02*
X127540000Y-108354900I0J100100D01*
G01*
G37*
G36*
G01*
X130614900Y-95430000D02*
X130165100Y-95430000D01*
G75*
G02*
X130065000Y-95329900I0J100100D01*
G01*
X130065000Y-93930100D01*
G75*
G02*
X130165100Y-93830000I100100J0D01*
G01*
X130614900Y-93830000D01*
G75*
G02*
X130715000Y-93930100I0J-100100D01*
G01*
X130715000Y-95329900D01*
G75*
G02*
X130614900Y-95430000I-100100J0D01*
G01*
G37*
G36*
G01*
X131614900Y-95430000D02*
X131165100Y-95430000D01*
G75*
G02*
X131065000Y-95329900I0J100100D01*
G01*
X131065000Y-93930100D01*
G75*
G02*
X131165100Y-93830000I100100J0D01*
G01*
X131614900Y-93830000D01*
G75*
G02*
X131715000Y-93930100I0J-100100D01*
G01*
X131715000Y-95329900D01*
G75*
G02*
X131614900Y-95430000I-100100J0D01*
G01*
G37*
G36*
G01*
X132614900Y-95430000D02*
X132165100Y-95430000D01*
G75*
G02*
X132065000Y-95329900I0J100100D01*
G01*
X132065000Y-93930100D01*
G75*
G02*
X132165100Y-93830000I100100J0D01*
G01*
X132614900Y-93830000D01*
G75*
G02*
X132715000Y-93930100I0J-100100D01*
G01*
X132715000Y-95329900D01*
G75*
G02*
X132614900Y-95430000I-100100J0D01*
G01*
G37*
G36*
G01*
X133614900Y-95430000D02*
X133165100Y-95430000D01*
G75*
G02*
X133065000Y-95329900I0J100100D01*
G01*
X133065000Y-93930100D01*
G75*
G02*
X133165100Y-93830000I100100J0D01*
G01*
X133614900Y-93830000D01*
G75*
G02*
X133715000Y-93930100I0J-100100D01*
G01*
X133715000Y-95329900D01*
G75*
G02*
X133614900Y-95430000I-100100J0D01*
G01*
G37*
G36*
G01*
X134614900Y-95430000D02*
X134165100Y-95430000D01*
G75*
G02*
X134065000Y-95329900I0J100100D01*
G01*
X134065000Y-93930100D01*
G75*
G02*
X134165100Y-93830000I100100J0D01*
G01*
X134614900Y-93830000D01*
G75*
G02*
X134715000Y-93930100I0J-100100D01*
G01*
X134715000Y-95329900D01*
G75*
G02*
X134614900Y-95430000I-100100J0D01*
G01*
G37*
G36*
G01*
X135614900Y-95430000D02*
X135165100Y-95430000D01*
G75*
G02*
X135065000Y-95329900I0J100100D01*
G01*
X135065000Y-93930100D01*
G75*
G02*
X135165100Y-93830000I100100J0D01*
G01*
X135614900Y-93830000D01*
G75*
G02*
X135715000Y-93930100I0J-100100D01*
G01*
X135715000Y-95329900D01*
G75*
G02*
X135614900Y-95430000I-100100J0D01*
G01*
G37*
G36*
G01*
X136614900Y-95430000D02*
X136165100Y-95430000D01*
G75*
G02*
X136065000Y-95329900I0J100100D01*
G01*
X136065000Y-93930100D01*
G75*
G02*
X136165100Y-93830000I100100J0D01*
G01*
X136614900Y-93830000D01*
G75*
G02*
X136715000Y-93930100I0J-100100D01*
G01*
X136715000Y-95329900D01*
G75*
G02*
X136614900Y-95430000I-100100J0D01*
G01*
G37*
G36*
G01*
X137614900Y-95430000D02*
X137165100Y-95430000D01*
G75*
G02*
X137065000Y-95329900I0J100100D01*
G01*
X137065000Y-93930100D01*
G75*
G02*
X137165100Y-93830000I100100J0D01*
G01*
X137614900Y-93830000D01*
G75*
G02*
X137715000Y-93930100I0J-100100D01*
G01*
X137715000Y-95329900D01*
G75*
G02*
X137614900Y-95430000I-100100J0D01*
G01*
G37*
G36*
G01*
X138614900Y-95430000D02*
X138165100Y-95430000D01*
G75*
G02*
X138065000Y-95329900I0J100100D01*
G01*
X138065000Y-93930100D01*
G75*
G02*
X138165100Y-93830000I100100J0D01*
G01*
X138614900Y-93830000D01*
G75*
G02*
X138715000Y-93930100I0J-100100D01*
G01*
X138715000Y-95329900D01*
G75*
G02*
X138614900Y-95430000I-100100J0D01*
G01*
G37*
G36*
G01*
X139614900Y-95430000D02*
X139165100Y-95430000D01*
G75*
G02*
X139065000Y-95329900I0J100100D01*
G01*
X139065000Y-93930100D01*
G75*
G02*
X139165100Y-93830000I100100J0D01*
G01*
X139614900Y-93830000D01*
G75*
G02*
X139715000Y-93930100I0J-100100D01*
G01*
X139715000Y-95329900D01*
G75*
G02*
X139614900Y-95430000I-100100J0D01*
G01*
G37*
G36*
G01*
X140614900Y-95430000D02*
X140165100Y-95430000D01*
G75*
G02*
X140065000Y-95329900I0J100100D01*
G01*
X140065000Y-93930100D01*
G75*
G02*
X140165100Y-93830000I100100J0D01*
G01*
X140614900Y-93830000D01*
G75*
G02*
X140715000Y-93930100I0J-100100D01*
G01*
X140715000Y-95329900D01*
G75*
G02*
X140614900Y-95430000I-100100J0D01*
G01*
G37*
G36*
G01*
X142690000Y-96354900D02*
X142690000Y-95905100D01*
G75*
G02*
X142790100Y-95805000I100100J0D01*
G01*
X144189900Y-95805000D01*
G75*
G02*
X144290000Y-95905100I0J-100100D01*
G01*
X144290000Y-96354900D01*
G75*
G02*
X144189900Y-96455000I-100100J0D01*
G01*
X142790100Y-96455000D01*
G75*
G02*
X142690000Y-96354900I0J100100D01*
G01*
G37*
G36*
G01*
X142690000Y-97354900D02*
X142690000Y-96905100D01*
G75*
G02*
X142790100Y-96805000I100100J0D01*
G01*
X144189900Y-96805000D01*
G75*
G02*
X144290000Y-96905100I0J-100100D01*
G01*
X144290000Y-97354900D01*
G75*
G02*
X144189900Y-97455000I-100100J0D01*
G01*
X142790100Y-97455000D01*
G75*
G02*
X142690000Y-97354900I0J100100D01*
G01*
G37*
G36*
G01*
X142690000Y-98354900D02*
X142690000Y-97905100D01*
G75*
G02*
X142790100Y-97805000I100100J0D01*
G01*
X144189900Y-97805000D01*
G75*
G02*
X144290000Y-97905100I0J-100100D01*
G01*
X144290000Y-98354900D01*
G75*
G02*
X144189900Y-98455000I-100100J0D01*
G01*
X142790100Y-98455000D01*
G75*
G02*
X142690000Y-98354900I0J100100D01*
G01*
G37*
G36*
G01*
X142690000Y-99354900D02*
X142690000Y-98905100D01*
G75*
G02*
X142790100Y-98805000I100100J0D01*
G01*
X144189900Y-98805000D01*
G75*
G02*
X144290000Y-98905100I0J-100100D01*
G01*
X144290000Y-99354900D01*
G75*
G02*
X144189900Y-99455000I-100100J0D01*
G01*
X142790100Y-99455000D01*
G75*
G02*
X142690000Y-99354900I0J100100D01*
G01*
G37*
G36*
G01*
X142690000Y-100354900D02*
X142690000Y-99905100D01*
G75*
G02*
X142790100Y-99805000I100100J0D01*
G01*
X144189900Y-99805000D01*
G75*
G02*
X144290000Y-99905100I0J-100100D01*
G01*
X144290000Y-100354900D01*
G75*
G02*
X144189900Y-100455000I-100100J0D01*
G01*
X142790100Y-100455000D01*
G75*
G02*
X142690000Y-100354900I0J100100D01*
G01*
G37*
G36*
G01*
X142690000Y-101354900D02*
X142690000Y-100905100D01*
G75*
G02*
X142790100Y-100805000I100100J0D01*
G01*
X144189900Y-100805000D01*
G75*
G02*
X144290000Y-100905100I0J-100100D01*
G01*
X144290000Y-101354900D01*
G75*
G02*
X144189900Y-101455000I-100100J0D01*
G01*
X142790100Y-101455000D01*
G75*
G02*
X142690000Y-101354900I0J100100D01*
G01*
G37*
G36*
G01*
X142690000Y-102354900D02*
X142690000Y-101905100D01*
G75*
G02*
X142790100Y-101805000I100100J0D01*
G01*
X144189900Y-101805000D01*
G75*
G02*
X144290000Y-101905100I0J-100100D01*
G01*
X144290000Y-102354900D01*
G75*
G02*
X144189900Y-102455000I-100100J0D01*
G01*
X142790100Y-102455000D01*
G75*
G02*
X142690000Y-102354900I0J100100D01*
G01*
G37*
G36*
G01*
X142690000Y-103354900D02*
X142690000Y-102905100D01*
G75*
G02*
X142790100Y-102805000I100100J0D01*
G01*
X144189900Y-102805000D01*
G75*
G02*
X144290000Y-102905100I0J-100100D01*
G01*
X144290000Y-103354900D01*
G75*
G02*
X144189900Y-103455000I-100100J0D01*
G01*
X142790100Y-103455000D01*
G75*
G02*
X142690000Y-103354900I0J100100D01*
G01*
G37*
G36*
G01*
X142690000Y-104354900D02*
X142690000Y-103905100D01*
G75*
G02*
X142790100Y-103805000I100100J0D01*
G01*
X144189900Y-103805000D01*
G75*
G02*
X144290000Y-103905100I0J-100100D01*
G01*
X144290000Y-104354900D01*
G75*
G02*
X144189900Y-104455000I-100100J0D01*
G01*
X142790100Y-104455000D01*
G75*
G02*
X142690000Y-104354900I0J100100D01*
G01*
G37*
G36*
G01*
X142690000Y-105354900D02*
X142690000Y-104905100D01*
G75*
G02*
X142790100Y-104805000I100100J0D01*
G01*
X144189900Y-104805000D01*
G75*
G02*
X144290000Y-104905100I0J-100100D01*
G01*
X144290000Y-105354900D01*
G75*
G02*
X144189900Y-105455000I-100100J0D01*
G01*
X142790100Y-105455000D01*
G75*
G02*
X142690000Y-105354900I0J100100D01*
G01*
G37*
G36*
G01*
X142690000Y-106354900D02*
X142690000Y-105905100D01*
G75*
G02*
X142790100Y-105805000I100100J0D01*
G01*
X144189900Y-105805000D01*
G75*
G02*
X144290000Y-105905100I0J-100100D01*
G01*
X144290000Y-106354900D01*
G75*
G02*
X144189900Y-106455000I-100100J0D01*
G01*
X142790100Y-106455000D01*
G75*
G02*
X142690000Y-106354900I0J100100D01*
G01*
G37*
G36*
G01*
X142690000Y-107354900D02*
X142690000Y-106905100D01*
G75*
G02*
X142790100Y-106805000I100100J0D01*
G01*
X144189900Y-106805000D01*
G75*
G02*
X144290000Y-106905100I0J-100100D01*
G01*
X144290000Y-107354900D01*
G75*
G02*
X144189900Y-107455000I-100100J0D01*
G01*
X142790100Y-107455000D01*
G75*
G02*
X142690000Y-107354900I0J100100D01*
G01*
G37*
G36*
G01*
X142690000Y-108354900D02*
X142690000Y-107905100D01*
G75*
G02*
X142790100Y-107805000I100100J0D01*
G01*
X144189900Y-107805000D01*
G75*
G02*
X144290000Y-107905100I0J-100100D01*
G01*
X144290000Y-108354900D01*
G75*
G02*
X144189900Y-108455000I-100100J0D01*
G01*
X142790100Y-108455000D01*
G75*
G02*
X142690000Y-108354900I0J100100D01*
G01*
G37*
G36*
G01*
X141614900Y-111430000D02*
X141165100Y-111430000D01*
G75*
G02*
X141065000Y-111329900I0J100100D01*
G01*
X141065000Y-109930100D01*
G75*
G02*
X141165100Y-109830000I100100J0D01*
G01*
X141614900Y-109830000D01*
G75*
G02*
X141715000Y-109930100I0J-100100D01*
G01*
X141715000Y-111329900D01*
G75*
G02*
X141614900Y-111430000I-100100J0D01*
G01*
G37*
G36*
G01*
X127540000Y-109354900D02*
X127540000Y-108905100D01*
G75*
G02*
X127640100Y-108805000I100100J0D01*
G01*
X129039900Y-108805000D01*
G75*
G02*
X129140000Y-108905100I0J-100100D01*
G01*
X129140000Y-109354900D01*
G75*
G02*
X129039900Y-109455000I-100100J0D01*
G01*
X127640100Y-109455000D01*
G75*
G02*
X127540000Y-109354900I0J100100D01*
G01*
G37*
G36*
G01*
X142690000Y-109354900D02*
X142690000Y-108905100D01*
G75*
G02*
X142790100Y-108805000I100100J0D01*
G01*
X144189900Y-108805000D01*
G75*
G02*
X144290000Y-108905100I0J-100100D01*
G01*
X144290000Y-109354900D01*
G75*
G02*
X144189900Y-109455000I-100100J0D01*
G01*
X142790100Y-109455000D01*
G75*
G02*
X142690000Y-109354900I0J100100D01*
G01*
G37*
G36*
G01*
X141614900Y-95430000D02*
X141165100Y-95430000D01*
G75*
G02*
X141065000Y-95329900I0J100100D01*
G01*
X141065000Y-93930100D01*
G75*
G02*
X141165100Y-93830000I100100J0D01*
G01*
X141614900Y-93830000D01*
G75*
G02*
X141715000Y-93930100I0J-100100D01*
G01*
X141715000Y-95329900D01*
G75*
G02*
X141614900Y-95430000I-100100J0D01*
G01*
G37*
D24*
X127000000Y-71120000D03*
X144780000Y-71120000D03*
D25*
X144780000Y-116840000D03*
X127000000Y-116840000D03*
D26*
X125730000Y-74930000D03*
X125730000Y-77470000D03*
X125730000Y-80010000D03*
X125730000Y-82550000D03*
X125730000Y-85090000D03*
X125730000Y-87630000D03*
X125730000Y-90170000D03*
X125730000Y-92710000D03*
X125730000Y-95250000D03*
X125730000Y-97790000D03*
X125730000Y-100330000D03*
X125730000Y-102870000D03*
X125730000Y-105410000D03*
X125730000Y-107950000D03*
X125730000Y-110490000D03*
X125730000Y-113030000D03*
X146050000Y-113030000D03*
X146050000Y-110490000D03*
X146050000Y-107950000D03*
X146050000Y-105410000D03*
X146050000Y-102870000D03*
X146050000Y-100330000D03*
X146050000Y-97790000D03*
X146050000Y-95250000D03*
X146050000Y-92710000D03*
X146050000Y-90170000D03*
X146050000Y-87630000D03*
X146050000Y-85090000D03*
G36*
G01*
X131307500Y-91399000D02*
X131647500Y-91399000D01*
G75*
G02*
X131787500Y-91539000I0J-140000D01*
G01*
X131787500Y-91819000D01*
G75*
G02*
X131647500Y-91959000I-140000J0D01*
G01*
X131307500Y-91959000D01*
G75*
G02*
X131167500Y-91819000I0J140000D01*
G01*
X131167500Y-91539000D01*
G75*
G02*
X131307500Y-91399000I140000J0D01*
G01*
G37*
G36*
G01*
X131307500Y-92359000D02*
X131647500Y-92359000D01*
G75*
G02*
X131787500Y-92499000I0J-140000D01*
G01*
X131787500Y-92779000D01*
G75*
G02*
X131647500Y-92919000I-140000J0D01*
G01*
X131307500Y-92919000D01*
G75*
G02*
X131167500Y-92779000I0J140000D01*
G01*
X131167500Y-92499000D01*
G75*
G02*
X131307500Y-92359000I140000J0D01*
G01*
G37*
D27*
X136750000Y-87590000D03*
X135800000Y-87590000D03*
X134850000Y-87590000D03*
X134850000Y-90210000D03*
X136750000Y-90210000D03*
G36*
G01*
X138040000Y-82205000D02*
X138040000Y-82545000D01*
G75*
G02*
X137900000Y-82685000I-140000J0D01*
G01*
X137620000Y-82685000D01*
G75*
G02*
X137480000Y-82545000I0J140000D01*
G01*
X137480000Y-82205000D01*
G75*
G02*
X137620000Y-82065000I140000J0D01*
G01*
X137900000Y-82065000D01*
G75*
G02*
X138040000Y-82205000I0J-140000D01*
G01*
G37*
G36*
G01*
X137080000Y-82205000D02*
X137080000Y-82545000D01*
G75*
G02*
X136940000Y-82685000I-140000J0D01*
G01*
X136660000Y-82685000D01*
G75*
G02*
X136520000Y-82545000I0J140000D01*
G01*
X136520000Y-82205000D01*
G75*
G02*
X136660000Y-82065000I140000J0D01*
G01*
X136940000Y-82065000D01*
G75*
G02*
X137080000Y-82205000I0J-140000D01*
G01*
G37*
D28*
X131570000Y-69550000D03*
D29*
X133000000Y-73200000D03*
D28*
X140210000Y-69550000D03*
D29*
X138780000Y-73200000D03*
D30*
X140210000Y-73730000D03*
X131570000Y-73730000D03*
D31*
X136140000Y-74645000D03*
X134140000Y-74645000D03*
X134640000Y-74645000D03*
X135140000Y-74645000D03*
X135640000Y-74645000D03*
X136640000Y-74645000D03*
X137140000Y-74645000D03*
X137640000Y-74645000D03*
D32*
X132640000Y-74645000D03*
X133440000Y-74645000D03*
X138340000Y-74645000D03*
X139140000Y-74645000D03*
X139140000Y-74645000D03*
X138340000Y-74645000D03*
X133440000Y-74645000D03*
X132640000Y-74645000D03*
G36*
G01*
X138210000Y-76375000D02*
X137840000Y-76375000D01*
G75*
G02*
X137705000Y-76240000I0J135000D01*
G01*
X137705000Y-75970000D01*
G75*
G02*
X137840000Y-75835000I135000J0D01*
G01*
X138210000Y-75835000D01*
G75*
G02*
X138345000Y-75970000I0J-135000D01*
G01*
X138345000Y-76240000D01*
G75*
G02*
X138210000Y-76375000I-135000J0D01*
G01*
G37*
G36*
G01*
X138210000Y-77395000D02*
X137840000Y-77395000D01*
G75*
G02*
X137705000Y-77260000I0J135000D01*
G01*
X137705000Y-76990000D01*
G75*
G02*
X137840000Y-76855000I135000J0D01*
G01*
X138210000Y-76855000D01*
G75*
G02*
X138345000Y-76990000I0J-135000D01*
G01*
X138345000Y-77260000D01*
G75*
G02*
X138210000Y-77395000I-135000J0D01*
G01*
G37*
G36*
G01*
X134110000Y-77380000D02*
X133740000Y-77380000D01*
G75*
G02*
X133605000Y-77245000I0J135000D01*
G01*
X133605000Y-76975000D01*
G75*
G02*
X133740000Y-76840000I135000J0D01*
G01*
X134110000Y-76840000D01*
G75*
G02*
X134245000Y-76975000I0J-135000D01*
G01*
X134245000Y-77245000D01*
G75*
G02*
X134110000Y-77380000I-135000J0D01*
G01*
G37*
G36*
G01*
X134110000Y-76360000D02*
X133740000Y-76360000D01*
G75*
G02*
X133605000Y-76225000I0J135000D01*
G01*
X133605000Y-75955000D01*
G75*
G02*
X133740000Y-75820000I135000J0D01*
G01*
X134110000Y-75820000D01*
G75*
G02*
X134245000Y-75955000I0J-135000D01*
G01*
X134245000Y-76225000D01*
G75*
G02*
X134110000Y-76360000I-135000J0D01*
G01*
G37*
G36*
G01*
X129560500Y-69521500D02*
X129900500Y-69521500D01*
G75*
G02*
X130040500Y-69661500I0J-140000D01*
G01*
X130040500Y-69941500D01*
G75*
G02*
X129900500Y-70081500I-140000J0D01*
G01*
X129560500Y-70081500D01*
G75*
G02*
X129420500Y-69941500I0J140000D01*
G01*
X129420500Y-69661500D01*
G75*
G02*
X129560500Y-69521500I140000J0D01*
G01*
G37*
G36*
G01*
X129560500Y-70481500D02*
X129900500Y-70481500D01*
G75*
G02*
X130040500Y-70621500I0J-140000D01*
G01*
X130040500Y-70901500D01*
G75*
G02*
X129900500Y-71041500I-140000J0D01*
G01*
X129560500Y-71041500D01*
G75*
G02*
X129420500Y-70901500I0J140000D01*
G01*
X129420500Y-70621500D01*
G75*
G02*
X129560500Y-70481500I140000J0D01*
G01*
G37*
G36*
G01*
X132615000Y-78195000D02*
X132615000Y-77855000D01*
G75*
G02*
X132755000Y-77715000I140000J0D01*
G01*
X133035000Y-77715000D01*
G75*
G02*
X133175000Y-77855000I0J-140000D01*
G01*
X133175000Y-78195000D01*
G75*
G02*
X133035000Y-78335000I-140000J0D01*
G01*
X132755000Y-78335000D01*
G75*
G02*
X132615000Y-78195000I0J140000D01*
G01*
G37*
G36*
G01*
X133575000Y-78195000D02*
X133575000Y-77855000D01*
G75*
G02*
X133715000Y-77715000I140000J0D01*
G01*
X133995000Y-77715000D01*
G75*
G02*
X134135000Y-77855000I0J-140000D01*
G01*
X134135000Y-78195000D01*
G75*
G02*
X133995000Y-78335000I-140000J0D01*
G01*
X133715000Y-78335000D01*
G75*
G02*
X133575000Y-78195000I0J140000D01*
G01*
G37*
G36*
G01*
X130690000Y-78195000D02*
X130690000Y-77855000D01*
G75*
G02*
X130830000Y-77715000I140000J0D01*
G01*
X131110000Y-77715000D01*
G75*
G02*
X131250000Y-77855000I0J-140000D01*
G01*
X131250000Y-78195000D01*
G75*
G02*
X131110000Y-78335000I-140000J0D01*
G01*
X130830000Y-78335000D01*
G75*
G02*
X130690000Y-78195000I0J140000D01*
G01*
G37*
G36*
G01*
X131650000Y-78195000D02*
X131650000Y-77855000D01*
G75*
G02*
X131790000Y-77715000I140000J0D01*
G01*
X132070000Y-77715000D01*
G75*
G02*
X132210000Y-77855000I0J-140000D01*
G01*
X132210000Y-78195000D01*
G75*
G02*
X132070000Y-78335000I-140000J0D01*
G01*
X131790000Y-78335000D01*
G75*
G02*
X131650000Y-78195000I0J140000D01*
G01*
G37*
G36*
G01*
X135100000Y-93270000D02*
X135100000Y-92930000D01*
G75*
G02*
X135240000Y-92790000I140000J0D01*
G01*
X135520000Y-92790000D01*
G75*
G02*
X135660000Y-92930000I0J-140000D01*
G01*
X135660000Y-93270000D01*
G75*
G02*
X135520000Y-93410000I-140000J0D01*
G01*
X135240000Y-93410000D01*
G75*
G02*
X135100000Y-93270000I0J140000D01*
G01*
G37*
G36*
G01*
X134140000Y-93270000D02*
X134140000Y-92930000D01*
G75*
G02*
X134280000Y-92790000I140000J0D01*
G01*
X134560000Y-92790000D01*
G75*
G02*
X134700000Y-92930000I0J-140000D01*
G01*
X134700000Y-93270000D01*
G75*
G02*
X134560000Y-93410000I-140000J0D01*
G01*
X134280000Y-93410000D01*
G75*
G02*
X134140000Y-93270000I0J140000D01*
G01*
G37*
G36*
G01*
X144430000Y-97850000D02*
X144770000Y-97850000D01*
G75*
G02*
X144910000Y-97990000I0J-140000D01*
G01*
X144910000Y-98270000D01*
G75*
G02*
X144770000Y-98410000I-140000J0D01*
G01*
X144430000Y-98410000D01*
G75*
G02*
X144290000Y-98270000I0J140000D01*
G01*
X144290000Y-97990000D01*
G75*
G02*
X144430000Y-97850000I140000J0D01*
G01*
G37*
G36*
G01*
X144430000Y-96890000D02*
X144770000Y-96890000D01*
G75*
G02*
X144910000Y-97030000I0J-140000D01*
G01*
X144910000Y-97310000D01*
G75*
G02*
X144770000Y-97450000I-140000J0D01*
G01*
X144430000Y-97450000D01*
G75*
G02*
X144290000Y-97310000I0J140000D01*
G01*
X144290000Y-97030000D01*
G75*
G02*
X144430000Y-96890000I140000J0D01*
G01*
G37*
G36*
G01*
X127320000Y-101410000D02*
X126980000Y-101410000D01*
G75*
G02*
X126840000Y-101270000I0J140000D01*
G01*
X126840000Y-100990000D01*
G75*
G02*
X126980000Y-100850000I140000J0D01*
G01*
X127320000Y-100850000D01*
G75*
G02*
X127460000Y-100990000I0J-140000D01*
G01*
X127460000Y-101270000D01*
G75*
G02*
X127320000Y-101410000I-140000J0D01*
G01*
G37*
G36*
G01*
X127320000Y-100450000D02*
X126980000Y-100450000D01*
G75*
G02*
X126840000Y-100310000I0J140000D01*
G01*
X126840000Y-100030000D01*
G75*
G02*
X126980000Y-99890000I140000J0D01*
G01*
X127320000Y-99890000D01*
G75*
G02*
X127460000Y-100030000I0J-140000D01*
G01*
X127460000Y-100310000D01*
G75*
G02*
X127320000Y-100450000I-140000J0D01*
G01*
G37*
G36*
G01*
X136600000Y-92930000D02*
X136600000Y-93270000D01*
G75*
G02*
X136460000Y-93410000I-140000J0D01*
G01*
X136180000Y-93410000D01*
G75*
G02*
X136040000Y-93270000I0J140000D01*
G01*
X136040000Y-92930000D01*
G75*
G02*
X136180000Y-92790000I140000J0D01*
G01*
X136460000Y-92790000D01*
G75*
G02*
X136600000Y-92930000I0J-140000D01*
G01*
G37*
G36*
G01*
X137560000Y-92930000D02*
X137560000Y-93270000D01*
G75*
G02*
X137420000Y-93410000I-140000J0D01*
G01*
X137140000Y-93410000D01*
G75*
G02*
X137000000Y-93270000I0J140000D01*
G01*
X137000000Y-92930000D01*
G75*
G02*
X137140000Y-92790000I140000J0D01*
G01*
X137420000Y-92790000D01*
G75*
G02*
X137560000Y-92930000I0J-140000D01*
G01*
G37*
G36*
G01*
X144820000Y-105450000D02*
X144480000Y-105450000D01*
G75*
G02*
X144340000Y-105310000I0J140000D01*
G01*
X144340000Y-105030000D01*
G75*
G02*
X144480000Y-104890000I140000J0D01*
G01*
X144820000Y-104890000D01*
G75*
G02*
X144960000Y-105030000I0J-140000D01*
G01*
X144960000Y-105310000D01*
G75*
G02*
X144820000Y-105450000I-140000J0D01*
G01*
G37*
G36*
G01*
X144820000Y-106410000D02*
X144480000Y-106410000D01*
G75*
G02*
X144340000Y-106270000I0J140000D01*
G01*
X144340000Y-105990000D01*
G75*
G02*
X144480000Y-105850000I140000J0D01*
G01*
X144820000Y-105850000D01*
G75*
G02*
X144960000Y-105990000I0J-140000D01*
G01*
X144960000Y-106270000D01*
G75*
G02*
X144820000Y-106410000I-140000J0D01*
G01*
G37*
G36*
G01*
X139565000Y-91370000D02*
X139935000Y-91370000D01*
G75*
G02*
X140070000Y-91505000I0J-135000D01*
G01*
X140070000Y-91775000D01*
G75*
G02*
X139935000Y-91910000I-135000J0D01*
G01*
X139565000Y-91910000D01*
G75*
G02*
X139430000Y-91775000I0J135000D01*
G01*
X139430000Y-91505000D01*
G75*
G02*
X139565000Y-91370000I135000J0D01*
G01*
G37*
G36*
G01*
X139565000Y-92390000D02*
X139935000Y-92390000D01*
G75*
G02*
X140070000Y-92525000I0J-135000D01*
G01*
X140070000Y-92795000D01*
G75*
G02*
X139935000Y-92930000I-135000J0D01*
G01*
X139565000Y-92930000D01*
G75*
G02*
X139430000Y-92795000I0J135000D01*
G01*
X139430000Y-92525000D01*
G75*
G02*
X139565000Y-92390000I135000J0D01*
G01*
G37*
M02*
