G04 #@! TF.GenerationSoftware,KiCad,Pcbnew,(5.1.8)-1*
G04 #@! TF.CreationDate,2021-04-09T02:34:17+02:00*
G04 #@! TF.ProjectId,Penguino-STM32WL-M,50656e67-7569-46e6-9f2d-53544d333257,0.1*
G04 #@! TF.SameCoordinates,Original*
G04 #@! TF.FileFunction,Paste,Top*
G04 #@! TF.FilePolarity,Positive*
%FSLAX46Y46*%
G04 Gerber Fmt 4.6, Leading zero omitted, Abs format (unit mm)*
G04 Created by KiCad (PCBNEW (5.1.8)-1) date 2021-04-09 02:34:17*
%MOMM*%
%LPD*%
G01*
G04 APERTURE LIST*
G04 #@! TA.AperFunction,Profile*
%ADD10C,0.150000*%
G04 #@! TD*
%ADD11R,0.650000X0.400000*%
%ADD12R,1.200000X0.900000*%
%ADD13R,0.800000X1.000000*%
%ADD14R,2.400000X0.740000*%
%ADD15C,0.100000*%
%ADD16R,1.350000X4.700000*%
%ADD17R,1.500000X4.700000*%
%ADD18R,1.500000X4.400000*%
%ADD19R,0.900000X0.800000*%
%ADD20R,0.660000X1.050000*%
%ADD21R,1.060000X0.650000*%
%ADD22R,0.800000X0.900000*%
%ADD23R,1.400000X0.300000*%
%ADD24R,0.650000X1.220000*%
%ADD25R,0.300000X1.450000*%
%ADD26R,0.600000X1.450000*%
G04 APERTURE END LIST*
D10*
X127000000Y-119380000D02*
G75*
G02*
X124460000Y-116840000I0J2540000D01*
G01*
X147320000Y-116840000D02*
G75*
G02*
X144780000Y-119380000I-2540000J0D01*
G01*
X144780000Y-68580000D02*
G75*
G02*
X147320000Y-71120000I0J-2540000D01*
G01*
X124460000Y-71120000D02*
G75*
G02*
X127000000Y-68580000I2540000J0D01*
G01*
X124460000Y-116840000D02*
X124460000Y-71120000D01*
X144780000Y-119380000D02*
X127000000Y-119380000D01*
X147320000Y-71120000D02*
X147320000Y-116840000D01*
X127000000Y-68580000D02*
X144780000Y-68580000D01*
G36*
G01*
X138565000Y-92399999D02*
X138935000Y-92399999D01*
G75*
G02*
X139070000Y-92534999I0J-135000D01*
G01*
X139070000Y-92804999D01*
G75*
G02*
X138935000Y-92939999I-135000J0D01*
G01*
X138565000Y-92939999D01*
G75*
G02*
X138430000Y-92804999I0J135000D01*
G01*
X138430000Y-92534999D01*
G75*
G02*
X138565000Y-92399999I135000J0D01*
G01*
G37*
G36*
G01*
X138565000Y-91379999D02*
X138935000Y-91379999D01*
G75*
G02*
X139070000Y-91514999I0J-135000D01*
G01*
X139070000Y-91784999D01*
G75*
G02*
X138935000Y-91919999I-135000J0D01*
G01*
X138565000Y-91919999D01*
G75*
G02*
X138430000Y-91784999I0J135000D01*
G01*
X138430000Y-91514999D01*
G75*
G02*
X138565000Y-91379999I135000J0D01*
G01*
G37*
G36*
G01*
X133806327Y-112687625D02*
X133562375Y-112443673D01*
G75*
G02*
X133562375Y-112235077I104298J104298D01*
G01*
X133770971Y-112026481D01*
G75*
G02*
X133979567Y-112026481I104298J-104298D01*
G01*
X134223519Y-112270433D01*
G75*
G02*
X134223519Y-112479029I-104298J-104298D01*
G01*
X134014923Y-112687625D01*
G75*
G02*
X133806327Y-112687625I-104298J104298D01*
G01*
G37*
G36*
G01*
X133120433Y-113373519D02*
X132876481Y-113129567D01*
G75*
G02*
X132876481Y-112920971I104298J104298D01*
G01*
X133085077Y-112712375D01*
G75*
G02*
X133293673Y-112712375I104298J-104298D01*
G01*
X133537625Y-112956327D01*
G75*
G02*
X133537625Y-113164923I-104298J-104298D01*
G01*
X133329029Y-113373519D01*
G75*
G02*
X133120433Y-113373519I-104298J104298D01*
G01*
G37*
D11*
X135050000Y-77725000D03*
X135050000Y-76425000D03*
X136950000Y-77075000D03*
X135050000Y-77075000D03*
X136950000Y-76425000D03*
X136950000Y-77725000D03*
G36*
G01*
X143125000Y-74550000D02*
X143125000Y-74050000D01*
G75*
G02*
X143350000Y-73825000I225000J0D01*
G01*
X143800000Y-73825000D01*
G75*
G02*
X144025000Y-74050000I0J-225000D01*
G01*
X144025000Y-74550000D01*
G75*
G02*
X143800000Y-74775000I-225000J0D01*
G01*
X143350000Y-74775000D01*
G75*
G02*
X143125000Y-74550000I0J225000D01*
G01*
G37*
G36*
G01*
X141575000Y-74550000D02*
X141575000Y-74050000D01*
G75*
G02*
X141800000Y-73825000I225000J0D01*
G01*
X142250000Y-73825000D01*
G75*
G02*
X142475000Y-74050000I0J-225000D01*
G01*
X142475000Y-74550000D01*
G75*
G02*
X142250000Y-74775000I-225000J0D01*
G01*
X141800000Y-74775000D01*
G75*
G02*
X141575000Y-74550000I0J225000D01*
G01*
G37*
G36*
G01*
X137150000Y-84925000D02*
X136650000Y-84925000D01*
G75*
G02*
X136425000Y-84700000I0J225000D01*
G01*
X136425000Y-84250000D01*
G75*
G02*
X136650000Y-84025000I225000J0D01*
G01*
X137150000Y-84025000D01*
G75*
G02*
X137375000Y-84250000I0J-225000D01*
G01*
X137375000Y-84700000D01*
G75*
G02*
X137150000Y-84925000I-225000J0D01*
G01*
G37*
G36*
G01*
X137150000Y-86475000D02*
X136650000Y-86475000D01*
G75*
G02*
X136425000Y-86250000I0J225000D01*
G01*
X136425000Y-85800000D01*
G75*
G02*
X136650000Y-85575000I225000J0D01*
G01*
X137150000Y-85575000D01*
G75*
G02*
X137375000Y-85800000I0J-225000D01*
G01*
X137375000Y-86250000D01*
G75*
G02*
X137150000Y-86475000I-225000J0D01*
G01*
G37*
G36*
G01*
X134775000Y-92050000D02*
X134775000Y-91550000D01*
G75*
G02*
X135000000Y-91325000I225000J0D01*
G01*
X135450000Y-91325000D01*
G75*
G02*
X135675000Y-91550000I0J-225000D01*
G01*
X135675000Y-92050000D01*
G75*
G02*
X135450000Y-92275000I-225000J0D01*
G01*
X135000000Y-92275000D01*
G75*
G02*
X134775000Y-92050000I0J225000D01*
G01*
G37*
G36*
G01*
X136325000Y-92050000D02*
X136325000Y-91550000D01*
G75*
G02*
X136550000Y-91325000I225000J0D01*
G01*
X137000000Y-91325000D01*
G75*
G02*
X137225000Y-91550000I0J-225000D01*
G01*
X137225000Y-92050000D01*
G75*
G02*
X137000000Y-92275000I-225000J0D01*
G01*
X136550000Y-92275000D01*
G75*
G02*
X136325000Y-92050000I0J225000D01*
G01*
G37*
G36*
G01*
X141783750Y-70637500D02*
X142296250Y-70637500D01*
G75*
G02*
X142515000Y-70856250I0J-218750D01*
G01*
X142515000Y-71293750D01*
G75*
G02*
X142296250Y-71512500I-218750J0D01*
G01*
X141783750Y-71512500D01*
G75*
G02*
X141565000Y-71293750I0J218750D01*
G01*
X141565000Y-70856250D01*
G75*
G02*
X141783750Y-70637500I218750J0D01*
G01*
G37*
G36*
G01*
X141783750Y-69062500D02*
X142296250Y-69062500D01*
G75*
G02*
X142515000Y-69281250I0J-218750D01*
G01*
X142515000Y-69718750D01*
G75*
G02*
X142296250Y-69937500I-218750J0D01*
G01*
X141783750Y-69937500D01*
G75*
G02*
X141565000Y-69718750I0J218750D01*
G01*
X141565000Y-69281250D01*
G75*
G02*
X141783750Y-69062500I218750J0D01*
G01*
G37*
D12*
X135050000Y-86050000D03*
X135050000Y-82750000D03*
D13*
X127950000Y-75200000D03*
X127950000Y-73700000D03*
X129050000Y-73700000D03*
X129050000Y-75200000D03*
G36*
G01*
X127725000Y-92456250D02*
X127725000Y-91943750D01*
G75*
G02*
X127943750Y-91725000I218750J0D01*
G01*
X128381250Y-91725000D01*
G75*
G02*
X128600000Y-91943750I0J-218750D01*
G01*
X128600000Y-92456250D01*
G75*
G02*
X128381250Y-92675000I-218750J0D01*
G01*
X127943750Y-92675000D01*
G75*
G02*
X127725000Y-92456250I0J218750D01*
G01*
G37*
G36*
G01*
X129300000Y-92456250D02*
X129300000Y-91943750D01*
G75*
G02*
X129518750Y-91725000I218750J0D01*
G01*
X129956250Y-91725000D01*
G75*
G02*
X130175000Y-91943750I0J-218750D01*
G01*
X130175000Y-92456250D01*
G75*
G02*
X129956250Y-92675000I-218750J0D01*
G01*
X129518750Y-92675000D01*
G75*
G02*
X129300000Y-92456250I0J218750D01*
G01*
G37*
G36*
G01*
X130575000Y-83556250D02*
X130575000Y-82643750D01*
G75*
G02*
X130818750Y-82400000I243750J0D01*
G01*
X131306250Y-82400000D01*
G75*
G02*
X131550000Y-82643750I0J-243750D01*
G01*
X131550000Y-83556250D01*
G75*
G02*
X131306250Y-83800000I-243750J0D01*
G01*
X130818750Y-83800000D01*
G75*
G02*
X130575000Y-83556250I0J243750D01*
G01*
G37*
G36*
G01*
X132450000Y-83556250D02*
X132450000Y-82643750D01*
G75*
G02*
X132693750Y-82400000I243750J0D01*
G01*
X133181250Y-82400000D01*
G75*
G02*
X133425000Y-82643750I0J-243750D01*
G01*
X133425000Y-83556250D01*
G75*
G02*
X133181250Y-83800000I-243750J0D01*
G01*
X132693750Y-83800000D01*
G75*
G02*
X132450000Y-83556250I0J243750D01*
G01*
G37*
G36*
G01*
X133112500Y-76443750D02*
X133112500Y-76956250D01*
G75*
G02*
X132893750Y-77175000I-218750J0D01*
G01*
X132456250Y-77175000D01*
G75*
G02*
X132237500Y-76956250I0J218750D01*
G01*
X132237500Y-76443750D01*
G75*
G02*
X132456250Y-76225000I218750J0D01*
G01*
X132893750Y-76225000D01*
G75*
G02*
X133112500Y-76443750I0J-218750D01*
G01*
G37*
G36*
G01*
X131537500Y-76443750D02*
X131537500Y-76956250D01*
G75*
G02*
X131318750Y-77175000I-218750J0D01*
G01*
X130881250Y-77175000D01*
G75*
G02*
X130662500Y-76956250I0J218750D01*
G01*
X130662500Y-76443750D01*
G75*
G02*
X130881250Y-76225000I218750J0D01*
G01*
X131318750Y-76225000D01*
G75*
G02*
X131537500Y-76443750I0J-218750D01*
G01*
G37*
G36*
G01*
X141350000Y-81230000D02*
X138350000Y-81230000D01*
G75*
G02*
X138100000Y-80980000I0J250000D01*
G01*
X138100000Y-80480000D01*
G75*
G02*
X138350000Y-80230000I250000J0D01*
G01*
X141350000Y-80230000D01*
G75*
G02*
X141600000Y-80480000I0J-250000D01*
G01*
X141600000Y-80980000D01*
G75*
G02*
X141350000Y-81230000I-250000J0D01*
G01*
G37*
G36*
G01*
X141350000Y-79230000D02*
X138350000Y-79230000D01*
G75*
G02*
X138100000Y-78980000I0J250000D01*
G01*
X138100000Y-78480000D01*
G75*
G02*
X138350000Y-78230000I250000J0D01*
G01*
X141350000Y-78230000D01*
G75*
G02*
X141600000Y-78480000I0J-250000D01*
G01*
X141600000Y-78980000D01*
G75*
G02*
X141350000Y-79230000I-250000J0D01*
G01*
G37*
G36*
G01*
X147050000Y-83830000D02*
X144150000Y-83830000D01*
G75*
G02*
X143900000Y-83580000I0J250000D01*
G01*
X143900000Y-82580000D01*
G75*
G02*
X144150000Y-82330000I250000J0D01*
G01*
X147050000Y-82330000D01*
G75*
G02*
X147300000Y-82580000I0J-250000D01*
G01*
X147300000Y-83580000D01*
G75*
G02*
X147050000Y-83830000I-250000J0D01*
G01*
G37*
G36*
G01*
X147050000Y-77130000D02*
X144150000Y-77130000D01*
G75*
G02*
X143900000Y-76880000I0J250000D01*
G01*
X143900000Y-75880000D01*
G75*
G02*
X144150000Y-75630000I250000J0D01*
G01*
X147050000Y-75630000D01*
G75*
G02*
X147300000Y-75880000I0J-250000D01*
G01*
X147300000Y-76880000D01*
G75*
G02*
X147050000Y-77130000I-250000J0D01*
G01*
G37*
D14*
X132350000Y-90340000D03*
X128450000Y-90340000D03*
X132350000Y-89070000D03*
X128450000Y-89070000D03*
X132350000Y-87800000D03*
X128450000Y-87800000D03*
X132350000Y-86530000D03*
X128450000Y-86530000D03*
X132350000Y-85260000D03*
X128450000Y-85260000D03*
D15*
G36*
X140043844Y-114447272D02*
G01*
X140786307Y-113704809D01*
X142341942Y-115260444D01*
X141599479Y-116002907D01*
X140043844Y-114447272D01*
G37*
G36*
X140432754Y-112714860D02*
G01*
X141139860Y-112007754D01*
X141882322Y-112750216D01*
X141175216Y-113457322D01*
X140432754Y-112714860D01*
G37*
G36*
X142129809Y-112361307D02*
G01*
X142872272Y-111618844D01*
X144427907Y-113174479D01*
X143685444Y-113916942D01*
X142129809Y-112361307D01*
G37*
D16*
X133065000Y-116880000D03*
D17*
X138715000Y-116880000D03*
D18*
X135890000Y-116857000D03*
D19*
X138173000Y-85092500D03*
X138173000Y-86992500D03*
X140173000Y-86042500D03*
G36*
G01*
X129905000Y-72448000D02*
X129905000Y-72078000D01*
G75*
G02*
X130040000Y-71943000I135000J0D01*
G01*
X130310000Y-71943000D01*
G75*
G02*
X130445000Y-72078000I0J-135000D01*
G01*
X130445000Y-72448000D01*
G75*
G02*
X130310000Y-72583000I-135000J0D01*
G01*
X130040000Y-72583000D01*
G75*
G02*
X129905000Y-72448000I0J135000D01*
G01*
G37*
G36*
G01*
X128885000Y-72448000D02*
X128885000Y-72078000D01*
G75*
G02*
X129020000Y-71943000I135000J0D01*
G01*
X129290000Y-71943000D01*
G75*
G02*
X129425000Y-72078000I0J-135000D01*
G01*
X129425000Y-72448000D01*
G75*
G02*
X129290000Y-72583000I-135000J0D01*
G01*
X129020000Y-72583000D01*
G75*
G02*
X128885000Y-72448000I0J135000D01*
G01*
G37*
G36*
G01*
X145350001Y-74115000D02*
X145350001Y-74485000D01*
G75*
G02*
X145215001Y-74620000I-135000J0D01*
G01*
X144945001Y-74620000D01*
G75*
G02*
X144810001Y-74485000I0J135000D01*
G01*
X144810001Y-74115000D01*
G75*
G02*
X144945001Y-73980000I135000J0D01*
G01*
X145215001Y-73980000D01*
G75*
G02*
X145350001Y-74115000I0J-135000D01*
G01*
G37*
G36*
G01*
X146370001Y-74115000D02*
X146370001Y-74485000D01*
G75*
G02*
X146235001Y-74620000I-135000J0D01*
G01*
X145965001Y-74620000D01*
G75*
G02*
X145830001Y-74485000I0J135000D01*
G01*
X145830001Y-74115000D01*
G75*
G02*
X145965001Y-73980000I135000J0D01*
G01*
X146235001Y-73980000D01*
G75*
G02*
X146370001Y-74115000I0J-135000D01*
G01*
G37*
G36*
G01*
X138055000Y-83140000D02*
X138055000Y-83510000D01*
G75*
G02*
X137920000Y-83645000I-135000J0D01*
G01*
X137650000Y-83645000D01*
G75*
G02*
X137515000Y-83510000I0J135000D01*
G01*
X137515000Y-83140000D01*
G75*
G02*
X137650000Y-83005000I135000J0D01*
G01*
X137920000Y-83005000D01*
G75*
G02*
X138055000Y-83140000I0J-135000D01*
G01*
G37*
G36*
G01*
X137035000Y-83140000D02*
X137035000Y-83510000D01*
G75*
G02*
X136900000Y-83645000I-135000J0D01*
G01*
X136630000Y-83645000D01*
G75*
G02*
X136495000Y-83510000I0J135000D01*
G01*
X136495000Y-83140000D01*
G75*
G02*
X136630000Y-83005000I135000J0D01*
G01*
X136900000Y-83005000D01*
G75*
G02*
X137035000Y-83140000I0J-135000D01*
G01*
G37*
G36*
G01*
X128315000Y-76345000D02*
X128685000Y-76345000D01*
G75*
G02*
X128820000Y-76480000I0J-135000D01*
G01*
X128820000Y-76750000D01*
G75*
G02*
X128685000Y-76885000I-135000J0D01*
G01*
X128315000Y-76885000D01*
G75*
G02*
X128180000Y-76750000I0J135000D01*
G01*
X128180000Y-76480000D01*
G75*
G02*
X128315000Y-76345000I135000J0D01*
G01*
G37*
G36*
G01*
X128315000Y-77365000D02*
X128685000Y-77365000D01*
G75*
G02*
X128820000Y-77500000I0J-135000D01*
G01*
X128820000Y-77770000D01*
G75*
G02*
X128685000Y-77905000I-135000J0D01*
G01*
X128315000Y-77905000D01*
G75*
G02*
X128180000Y-77770000I0J135000D01*
G01*
X128180000Y-77500000D01*
G75*
G02*
X128315000Y-77365000I135000J0D01*
G01*
G37*
G36*
G01*
X129340000Y-77365000D02*
X129710000Y-77365000D01*
G75*
G02*
X129845000Y-77500000I0J-135000D01*
G01*
X129845000Y-77770000D01*
G75*
G02*
X129710000Y-77905000I-135000J0D01*
G01*
X129340000Y-77905000D01*
G75*
G02*
X129205000Y-77770000I0J135000D01*
G01*
X129205000Y-77500000D01*
G75*
G02*
X129340000Y-77365000I135000J0D01*
G01*
G37*
G36*
G01*
X129340000Y-76345000D02*
X129710000Y-76345000D01*
G75*
G02*
X129845000Y-76480000I0J-135000D01*
G01*
X129845000Y-76750000D01*
G75*
G02*
X129710000Y-76885000I-135000J0D01*
G01*
X129340000Y-76885000D01*
G75*
G02*
X129205000Y-76750000I0J135000D01*
G01*
X129205000Y-76480000D01*
G75*
G02*
X129340000Y-76345000I135000J0D01*
G01*
G37*
G36*
G01*
X127315000Y-76345000D02*
X127685000Y-76345000D01*
G75*
G02*
X127820000Y-76480000I0J-135000D01*
G01*
X127820000Y-76750000D01*
G75*
G02*
X127685000Y-76885000I-135000J0D01*
G01*
X127315000Y-76885000D01*
G75*
G02*
X127180000Y-76750000I0J135000D01*
G01*
X127180000Y-76480000D01*
G75*
G02*
X127315000Y-76345000I135000J0D01*
G01*
G37*
G36*
G01*
X127315000Y-77365000D02*
X127685000Y-77365000D01*
G75*
G02*
X127820000Y-77500000I0J-135000D01*
G01*
X127820000Y-77770000D01*
G75*
G02*
X127685000Y-77905000I-135000J0D01*
G01*
X127315000Y-77905000D01*
G75*
G02*
X127180000Y-77770000I0J135000D01*
G01*
X127180000Y-77500000D01*
G75*
G02*
X127315000Y-77365000I135000J0D01*
G01*
G37*
G36*
G01*
X128635000Y-93685000D02*
X128635000Y-93315000D01*
G75*
G02*
X128770000Y-93180000I135000J0D01*
G01*
X129040000Y-93180000D01*
G75*
G02*
X129175000Y-93315000I0J-135000D01*
G01*
X129175000Y-93685000D01*
G75*
G02*
X129040000Y-93820000I-135000J0D01*
G01*
X128770000Y-93820000D01*
G75*
G02*
X128635000Y-93685000I0J135000D01*
G01*
G37*
G36*
G01*
X127615000Y-93685000D02*
X127615000Y-93315000D01*
G75*
G02*
X127750000Y-93180000I135000J0D01*
G01*
X128020000Y-93180000D01*
G75*
G02*
X128155000Y-93315000I0J-135000D01*
G01*
X128155000Y-93685000D01*
G75*
G02*
X128020000Y-93820000I-135000J0D01*
G01*
X127750000Y-93820000D01*
G75*
G02*
X127615000Y-93685000I0J135000D01*
G01*
G37*
G36*
G01*
X133197500Y-91377000D02*
X133567500Y-91377000D01*
G75*
G02*
X133702500Y-91512000I0J-135000D01*
G01*
X133702500Y-91782000D01*
G75*
G02*
X133567500Y-91917000I-135000J0D01*
G01*
X133197500Y-91917000D01*
G75*
G02*
X133062500Y-91782000I0J135000D01*
G01*
X133062500Y-91512000D01*
G75*
G02*
X133197500Y-91377000I135000J0D01*
G01*
G37*
G36*
G01*
X133197500Y-92397000D02*
X133567500Y-92397000D01*
G75*
G02*
X133702500Y-92532000I0J-135000D01*
G01*
X133702500Y-92802000D01*
G75*
G02*
X133567500Y-92937000I-135000J0D01*
G01*
X133197500Y-92937000D01*
G75*
G02*
X133062500Y-92802000I0J135000D01*
G01*
X133062500Y-92532000D01*
G75*
G02*
X133197500Y-92397000I135000J0D01*
G01*
G37*
G36*
G01*
X132615000Y-92940999D02*
X132245000Y-92940999D01*
G75*
G02*
X132110000Y-92805999I0J135000D01*
G01*
X132110000Y-92535999D01*
G75*
G02*
X132245000Y-92400999I135000J0D01*
G01*
X132615000Y-92400999D01*
G75*
G02*
X132750000Y-92535999I0J-135000D01*
G01*
X132750000Y-92805999D01*
G75*
G02*
X132615000Y-92940999I-135000J0D01*
G01*
G37*
G36*
G01*
X132615000Y-91920999D02*
X132245000Y-91920999D01*
G75*
G02*
X132110000Y-91785999I0J135000D01*
G01*
X132110000Y-91515999D01*
G75*
G02*
X132245000Y-91380999I135000J0D01*
G01*
X132615000Y-91380999D01*
G75*
G02*
X132750000Y-91515999I0J-135000D01*
G01*
X132750000Y-91785999D01*
G75*
G02*
X132615000Y-91920999I-135000J0D01*
G01*
G37*
G36*
G01*
X135620000Y-112913632D02*
X135620000Y-112543632D01*
G75*
G02*
X135755000Y-112408632I135000J0D01*
G01*
X136025000Y-112408632D01*
G75*
G02*
X136160000Y-112543632I0J-135000D01*
G01*
X136160000Y-112913632D01*
G75*
G02*
X136025000Y-113048632I-135000J0D01*
G01*
X135755000Y-113048632D01*
G75*
G02*
X135620000Y-112913632I0J135000D01*
G01*
G37*
G36*
G01*
X136640000Y-112913632D02*
X136640000Y-112543632D01*
G75*
G02*
X136775000Y-112408632I135000J0D01*
G01*
X137045000Y-112408632D01*
G75*
G02*
X137180000Y-112543632I0J-135000D01*
G01*
X137180000Y-112913632D01*
G75*
G02*
X137045000Y-113048632I-135000J0D01*
G01*
X136775000Y-113048632D01*
G75*
G02*
X136640000Y-112913632I0J135000D01*
G01*
G37*
G36*
G01*
X136075000Y-113016500D02*
X135705000Y-113016500D01*
G75*
G02*
X135570000Y-112881500I0J135000D01*
G01*
X135570000Y-112611500D01*
G75*
G02*
X135705000Y-112476500I135000J0D01*
G01*
X136075000Y-112476500D01*
G75*
G02*
X136210000Y-112611500I0J-135000D01*
G01*
X136210000Y-112881500D01*
G75*
G02*
X136075000Y-113016500I-135000J0D01*
G01*
G37*
G36*
G01*
X136075000Y-114036500D02*
X135705000Y-114036500D01*
G75*
G02*
X135570000Y-113901500I0J135000D01*
G01*
X135570000Y-113631500D01*
G75*
G02*
X135705000Y-113496500I135000J0D01*
G01*
X136075000Y-113496500D01*
G75*
G02*
X136210000Y-113631500I0J-135000D01*
G01*
X136210000Y-113901500D01*
G75*
G02*
X136075000Y-114036500I-135000J0D01*
G01*
G37*
D20*
X127530000Y-83275000D03*
X129670000Y-83275000D03*
X127530000Y-79125000D03*
X129670000Y-79125000D03*
X143820000Y-88575000D03*
X141680000Y-88575000D03*
X143820000Y-92725000D03*
X141680000Y-92725000D03*
D21*
X141600000Y-86950000D03*
X141600000Y-85050000D03*
X143800000Y-85050000D03*
X143800000Y-86000000D03*
X143800000Y-86950000D03*
D22*
X139200000Y-88450000D03*
X140150000Y-90450000D03*
X138250000Y-90450000D03*
D23*
X132150000Y-79275000D03*
X132150000Y-79775000D03*
X132150000Y-80275000D03*
X132150000Y-80775000D03*
X132150000Y-81275000D03*
X136550000Y-81275000D03*
X136550000Y-80775000D03*
X136550000Y-80275000D03*
X136550000Y-79775000D03*
X136550000Y-79275000D03*
G36*
G01*
X134731320Y-97340000D02*
X133748680Y-97340000D01*
G75*
G02*
X133530000Y-97121320I0J218680D01*
G01*
X133530000Y-96138680D01*
G75*
G02*
X133748680Y-95920000I218680J0D01*
G01*
X134731320Y-95920000D01*
G75*
G02*
X134950000Y-96138680I0J-218680D01*
G01*
X134950000Y-97121320D01*
G75*
G02*
X134731320Y-97340000I-218680J0D01*
G01*
G37*
G36*
G01*
X138131320Y-97340000D02*
X137148680Y-97340000D01*
G75*
G02*
X136930000Y-97121320I0J218680D01*
G01*
X136930000Y-96138680D01*
G75*
G02*
X137148680Y-95920000I218680J0D01*
G01*
X138131320Y-95920000D01*
G75*
G02*
X138350000Y-96138680I0J-218680D01*
G01*
X138350000Y-97121320D01*
G75*
G02*
X138131320Y-97340000I-218680J0D01*
G01*
G37*
G36*
G01*
X138131320Y-109340000D02*
X137148680Y-109340000D01*
G75*
G02*
X136930000Y-109121320I0J218680D01*
G01*
X136930000Y-108138680D01*
G75*
G02*
X137148680Y-107920000I218680J0D01*
G01*
X138131320Y-107920000D01*
G75*
G02*
X138350000Y-108138680I0J-218680D01*
G01*
X138350000Y-109121320D01*
G75*
G02*
X138131320Y-109340000I-218680J0D01*
G01*
G37*
G36*
G01*
X134731320Y-109340000D02*
X133748680Y-109340000D01*
G75*
G02*
X133530000Y-109121320I0J218680D01*
G01*
X133530000Y-108138680D01*
G75*
G02*
X133748680Y-107920000I218680J0D01*
G01*
X134731320Y-107920000D01*
G75*
G02*
X134950000Y-108138680I0J-218680D01*
G01*
X134950000Y-109121320D01*
G75*
G02*
X134731320Y-109340000I-218680J0D01*
G01*
G37*
G36*
G01*
X131431320Y-97340000D02*
X130448680Y-97340000D01*
G75*
G02*
X130230000Y-97121320I0J218680D01*
G01*
X130230000Y-96138680D01*
G75*
G02*
X130448680Y-95920000I218680J0D01*
G01*
X131431320Y-95920000D01*
G75*
G02*
X131650000Y-96138680I0J-218680D01*
G01*
X131650000Y-97121320D01*
G75*
G02*
X131431320Y-97340000I-218680J0D01*
G01*
G37*
G36*
G01*
X131431320Y-100340000D02*
X130448680Y-100340000D01*
G75*
G02*
X130230000Y-100121320I0J218680D01*
G01*
X130230000Y-99138680D01*
G75*
G02*
X130448680Y-98920000I218680J0D01*
G01*
X131431320Y-98920000D01*
G75*
G02*
X131650000Y-99138680I0J-218680D01*
G01*
X131650000Y-100121320D01*
G75*
G02*
X131431320Y-100340000I-218680J0D01*
G01*
G37*
G36*
G01*
X131431320Y-103340000D02*
X130448680Y-103340000D01*
G75*
G02*
X130230000Y-103121320I0J218680D01*
G01*
X130230000Y-102138680D01*
G75*
G02*
X130448680Y-101920000I218680J0D01*
G01*
X131431320Y-101920000D01*
G75*
G02*
X131650000Y-102138680I0J-218680D01*
G01*
X131650000Y-103121320D01*
G75*
G02*
X131431320Y-103340000I-218680J0D01*
G01*
G37*
G36*
G01*
X131431320Y-106340000D02*
X130448680Y-106340000D01*
G75*
G02*
X130230000Y-106121320I0J218680D01*
G01*
X130230000Y-105138680D01*
G75*
G02*
X130448680Y-104920000I218680J0D01*
G01*
X131431320Y-104920000D01*
G75*
G02*
X131650000Y-105138680I0J-218680D01*
G01*
X131650000Y-106121320D01*
G75*
G02*
X131431320Y-106340000I-218680J0D01*
G01*
G37*
G36*
G01*
X131431320Y-109340000D02*
X130448680Y-109340000D01*
G75*
G02*
X130230000Y-109121320I0J218680D01*
G01*
X130230000Y-108138680D01*
G75*
G02*
X130448680Y-107920000I218680J0D01*
G01*
X131431320Y-107920000D01*
G75*
G02*
X131650000Y-108138680I0J-218680D01*
G01*
X131650000Y-109121320D01*
G75*
G02*
X131431320Y-109340000I-218680J0D01*
G01*
G37*
G36*
G01*
X141331320Y-106340000D02*
X140348680Y-106340000D01*
G75*
G02*
X140130000Y-106121320I0J218680D01*
G01*
X140130000Y-105138680D01*
G75*
G02*
X140348680Y-104920000I218680J0D01*
G01*
X141331320Y-104920000D01*
G75*
G02*
X141550000Y-105138680I0J-218680D01*
G01*
X141550000Y-106121320D01*
G75*
G02*
X141331320Y-106340000I-218680J0D01*
G01*
G37*
G36*
G01*
X141331320Y-97340000D02*
X140348680Y-97340000D01*
G75*
G02*
X140130000Y-97121320I0J218680D01*
G01*
X140130000Y-96138680D01*
G75*
G02*
X140348680Y-95920000I218680J0D01*
G01*
X141331320Y-95920000D01*
G75*
G02*
X141550000Y-96138680I0J-218680D01*
G01*
X141550000Y-97121320D01*
G75*
G02*
X141331320Y-97340000I-218680J0D01*
G01*
G37*
G36*
G01*
X141331320Y-100340000D02*
X140348680Y-100340000D01*
G75*
G02*
X140130000Y-100121320I0J218680D01*
G01*
X140130000Y-99138680D01*
G75*
G02*
X140348680Y-98920000I218680J0D01*
G01*
X141331320Y-98920000D01*
G75*
G02*
X141550000Y-99138680I0J-218680D01*
G01*
X141550000Y-100121320D01*
G75*
G02*
X141331320Y-100340000I-218680J0D01*
G01*
G37*
G36*
G01*
X141331320Y-103340000D02*
X140348680Y-103340000D01*
G75*
G02*
X140130000Y-103121320I0J218680D01*
G01*
X140130000Y-102138680D01*
G75*
G02*
X140348680Y-101920000I218680J0D01*
G01*
X141331320Y-101920000D01*
G75*
G02*
X141550000Y-102138680I0J-218680D01*
G01*
X141550000Y-103121320D01*
G75*
G02*
X141331320Y-103340000I-218680J0D01*
G01*
G37*
G36*
G01*
X141331320Y-109340000D02*
X140348680Y-109340000D01*
G75*
G02*
X140130000Y-109121320I0J218680D01*
G01*
X140130000Y-108138680D01*
G75*
G02*
X140348680Y-107920000I218680J0D01*
G01*
X141331320Y-107920000D01*
G75*
G02*
X141550000Y-108138680I0J-218680D01*
G01*
X141550000Y-109121320D01*
G75*
G02*
X141331320Y-109340000I-218680J0D01*
G01*
G37*
G36*
G01*
X130594140Y-111400000D02*
X130185860Y-111400000D01*
G75*
G02*
X130095000Y-111309140I0J90860D01*
G01*
X130095000Y-109950860D01*
G75*
G02*
X130185860Y-109860000I90860J0D01*
G01*
X130594140Y-109860000D01*
G75*
G02*
X130685000Y-109950860I0J-90860D01*
G01*
X130685000Y-111309140D01*
G75*
G02*
X130594140Y-111400000I-90860J0D01*
G01*
G37*
G36*
G01*
X131594140Y-111400000D02*
X131185860Y-111400000D01*
G75*
G02*
X131095000Y-111309140I0J90860D01*
G01*
X131095000Y-109950860D01*
G75*
G02*
X131185860Y-109860000I90860J0D01*
G01*
X131594140Y-109860000D01*
G75*
G02*
X131685000Y-109950860I0J-90860D01*
G01*
X131685000Y-111309140D01*
G75*
G02*
X131594140Y-111400000I-90860J0D01*
G01*
G37*
G36*
G01*
X132594140Y-111400000D02*
X132185860Y-111400000D01*
G75*
G02*
X132095000Y-111309140I0J90860D01*
G01*
X132095000Y-109950860D01*
G75*
G02*
X132185860Y-109860000I90860J0D01*
G01*
X132594140Y-109860000D01*
G75*
G02*
X132685000Y-109950860I0J-90860D01*
G01*
X132685000Y-111309140D01*
G75*
G02*
X132594140Y-111400000I-90860J0D01*
G01*
G37*
G36*
G01*
X133594140Y-111400000D02*
X133185860Y-111400000D01*
G75*
G02*
X133095000Y-111309140I0J90860D01*
G01*
X133095000Y-109950860D01*
G75*
G02*
X133185860Y-109860000I90860J0D01*
G01*
X133594140Y-109860000D01*
G75*
G02*
X133685000Y-109950860I0J-90860D01*
G01*
X133685000Y-111309140D01*
G75*
G02*
X133594140Y-111400000I-90860J0D01*
G01*
G37*
G36*
G01*
X134594140Y-111400000D02*
X134185860Y-111400000D01*
G75*
G02*
X134095000Y-111309140I0J90860D01*
G01*
X134095000Y-109950860D01*
G75*
G02*
X134185860Y-109860000I90860J0D01*
G01*
X134594140Y-109860000D01*
G75*
G02*
X134685000Y-109950860I0J-90860D01*
G01*
X134685000Y-111309140D01*
G75*
G02*
X134594140Y-111400000I-90860J0D01*
G01*
G37*
G36*
G01*
X135594140Y-111400000D02*
X135185860Y-111400000D01*
G75*
G02*
X135095000Y-111309140I0J90860D01*
G01*
X135095000Y-109950860D01*
G75*
G02*
X135185860Y-109860000I90860J0D01*
G01*
X135594140Y-109860000D01*
G75*
G02*
X135685000Y-109950860I0J-90860D01*
G01*
X135685000Y-111309140D01*
G75*
G02*
X135594140Y-111400000I-90860J0D01*
G01*
G37*
G36*
G01*
X136594140Y-111400000D02*
X136185860Y-111400000D01*
G75*
G02*
X136095000Y-111309140I0J90860D01*
G01*
X136095000Y-109950860D01*
G75*
G02*
X136185860Y-109860000I90860J0D01*
G01*
X136594140Y-109860000D01*
G75*
G02*
X136685000Y-109950860I0J-90860D01*
G01*
X136685000Y-111309140D01*
G75*
G02*
X136594140Y-111400000I-90860J0D01*
G01*
G37*
G36*
G01*
X137594140Y-111400000D02*
X137185860Y-111400000D01*
G75*
G02*
X137095000Y-111309140I0J90860D01*
G01*
X137095000Y-109950860D01*
G75*
G02*
X137185860Y-109860000I90860J0D01*
G01*
X137594140Y-109860000D01*
G75*
G02*
X137685000Y-109950860I0J-90860D01*
G01*
X137685000Y-111309140D01*
G75*
G02*
X137594140Y-111400000I-90860J0D01*
G01*
G37*
G36*
G01*
X138594140Y-111400000D02*
X138185860Y-111400000D01*
G75*
G02*
X138095000Y-111309140I0J90860D01*
G01*
X138095000Y-109950860D01*
G75*
G02*
X138185860Y-109860000I90860J0D01*
G01*
X138594140Y-109860000D01*
G75*
G02*
X138685000Y-109950860I0J-90860D01*
G01*
X138685000Y-111309140D01*
G75*
G02*
X138594140Y-111400000I-90860J0D01*
G01*
G37*
G36*
G01*
X139594140Y-111400000D02*
X139185860Y-111400000D01*
G75*
G02*
X139095000Y-111309140I0J90860D01*
G01*
X139095000Y-109950860D01*
G75*
G02*
X139185860Y-109860000I90860J0D01*
G01*
X139594140Y-109860000D01*
G75*
G02*
X139685000Y-109950860I0J-90860D01*
G01*
X139685000Y-111309140D01*
G75*
G02*
X139594140Y-111400000I-90860J0D01*
G01*
G37*
G36*
G01*
X140594140Y-111400000D02*
X140185860Y-111400000D01*
G75*
G02*
X140095000Y-111309140I0J90860D01*
G01*
X140095000Y-109950860D01*
G75*
G02*
X140185860Y-109860000I90860J0D01*
G01*
X140594140Y-109860000D01*
G75*
G02*
X140685000Y-109950860I0J-90860D01*
G01*
X140685000Y-111309140D01*
G75*
G02*
X140594140Y-111400000I-90860J0D01*
G01*
G37*
G36*
G01*
X127570000Y-96334140D02*
X127570000Y-95925860D01*
G75*
G02*
X127660860Y-95835000I90860J0D01*
G01*
X129019140Y-95835000D01*
G75*
G02*
X129110000Y-95925860I0J-90860D01*
G01*
X129110000Y-96334140D01*
G75*
G02*
X129019140Y-96425000I-90860J0D01*
G01*
X127660860Y-96425000D01*
G75*
G02*
X127570000Y-96334140I0J90860D01*
G01*
G37*
G36*
G01*
X127570000Y-97334140D02*
X127570000Y-96925860D01*
G75*
G02*
X127660860Y-96835000I90860J0D01*
G01*
X129019140Y-96835000D01*
G75*
G02*
X129110000Y-96925860I0J-90860D01*
G01*
X129110000Y-97334140D01*
G75*
G02*
X129019140Y-97425000I-90860J0D01*
G01*
X127660860Y-97425000D01*
G75*
G02*
X127570000Y-97334140I0J90860D01*
G01*
G37*
G36*
G01*
X127570000Y-98334140D02*
X127570000Y-97925860D01*
G75*
G02*
X127660860Y-97835000I90860J0D01*
G01*
X129019140Y-97835000D01*
G75*
G02*
X129110000Y-97925860I0J-90860D01*
G01*
X129110000Y-98334140D01*
G75*
G02*
X129019140Y-98425000I-90860J0D01*
G01*
X127660860Y-98425000D01*
G75*
G02*
X127570000Y-98334140I0J90860D01*
G01*
G37*
G36*
G01*
X127570000Y-99334140D02*
X127570000Y-98925860D01*
G75*
G02*
X127660860Y-98835000I90860J0D01*
G01*
X129019140Y-98835000D01*
G75*
G02*
X129110000Y-98925860I0J-90860D01*
G01*
X129110000Y-99334140D01*
G75*
G02*
X129019140Y-99425000I-90860J0D01*
G01*
X127660860Y-99425000D01*
G75*
G02*
X127570000Y-99334140I0J90860D01*
G01*
G37*
G36*
G01*
X127570000Y-100334140D02*
X127570000Y-99925860D01*
G75*
G02*
X127660860Y-99835000I90860J0D01*
G01*
X129019140Y-99835000D01*
G75*
G02*
X129110000Y-99925860I0J-90860D01*
G01*
X129110000Y-100334140D01*
G75*
G02*
X129019140Y-100425000I-90860J0D01*
G01*
X127660860Y-100425000D01*
G75*
G02*
X127570000Y-100334140I0J90860D01*
G01*
G37*
G36*
G01*
X127570000Y-101334140D02*
X127570000Y-100925860D01*
G75*
G02*
X127660860Y-100835000I90860J0D01*
G01*
X129019140Y-100835000D01*
G75*
G02*
X129110000Y-100925860I0J-90860D01*
G01*
X129110000Y-101334140D01*
G75*
G02*
X129019140Y-101425000I-90860J0D01*
G01*
X127660860Y-101425000D01*
G75*
G02*
X127570000Y-101334140I0J90860D01*
G01*
G37*
G36*
G01*
X127570000Y-102334140D02*
X127570000Y-101925860D01*
G75*
G02*
X127660860Y-101835000I90860J0D01*
G01*
X129019140Y-101835000D01*
G75*
G02*
X129110000Y-101925860I0J-90860D01*
G01*
X129110000Y-102334140D01*
G75*
G02*
X129019140Y-102425000I-90860J0D01*
G01*
X127660860Y-102425000D01*
G75*
G02*
X127570000Y-102334140I0J90860D01*
G01*
G37*
G36*
G01*
X127570000Y-103334140D02*
X127570000Y-102925860D01*
G75*
G02*
X127660860Y-102835000I90860J0D01*
G01*
X129019140Y-102835000D01*
G75*
G02*
X129110000Y-102925860I0J-90860D01*
G01*
X129110000Y-103334140D01*
G75*
G02*
X129019140Y-103425000I-90860J0D01*
G01*
X127660860Y-103425000D01*
G75*
G02*
X127570000Y-103334140I0J90860D01*
G01*
G37*
G36*
G01*
X127570000Y-104334140D02*
X127570000Y-103925860D01*
G75*
G02*
X127660860Y-103835000I90860J0D01*
G01*
X129019140Y-103835000D01*
G75*
G02*
X129110000Y-103925860I0J-90860D01*
G01*
X129110000Y-104334140D01*
G75*
G02*
X129019140Y-104425000I-90860J0D01*
G01*
X127660860Y-104425000D01*
G75*
G02*
X127570000Y-104334140I0J90860D01*
G01*
G37*
G36*
G01*
X127570000Y-105334140D02*
X127570000Y-104925860D01*
G75*
G02*
X127660860Y-104835000I90860J0D01*
G01*
X129019140Y-104835000D01*
G75*
G02*
X129110000Y-104925860I0J-90860D01*
G01*
X129110000Y-105334140D01*
G75*
G02*
X129019140Y-105425000I-90860J0D01*
G01*
X127660860Y-105425000D01*
G75*
G02*
X127570000Y-105334140I0J90860D01*
G01*
G37*
G36*
G01*
X127570000Y-106334140D02*
X127570000Y-105925860D01*
G75*
G02*
X127660860Y-105835000I90860J0D01*
G01*
X129019140Y-105835000D01*
G75*
G02*
X129110000Y-105925860I0J-90860D01*
G01*
X129110000Y-106334140D01*
G75*
G02*
X129019140Y-106425000I-90860J0D01*
G01*
X127660860Y-106425000D01*
G75*
G02*
X127570000Y-106334140I0J90860D01*
G01*
G37*
G36*
G01*
X127570000Y-107334140D02*
X127570000Y-106925860D01*
G75*
G02*
X127660860Y-106835000I90860J0D01*
G01*
X129019140Y-106835000D01*
G75*
G02*
X129110000Y-106925860I0J-90860D01*
G01*
X129110000Y-107334140D01*
G75*
G02*
X129019140Y-107425000I-90860J0D01*
G01*
X127660860Y-107425000D01*
G75*
G02*
X127570000Y-107334140I0J90860D01*
G01*
G37*
G36*
G01*
X127570000Y-108334140D02*
X127570000Y-107925860D01*
G75*
G02*
X127660860Y-107835000I90860J0D01*
G01*
X129019140Y-107835000D01*
G75*
G02*
X129110000Y-107925860I0J-90860D01*
G01*
X129110000Y-108334140D01*
G75*
G02*
X129019140Y-108425000I-90860J0D01*
G01*
X127660860Y-108425000D01*
G75*
G02*
X127570000Y-108334140I0J90860D01*
G01*
G37*
G36*
G01*
X130594140Y-95400000D02*
X130185860Y-95400000D01*
G75*
G02*
X130095000Y-95309140I0J90860D01*
G01*
X130095000Y-93950860D01*
G75*
G02*
X130185860Y-93860000I90860J0D01*
G01*
X130594140Y-93860000D01*
G75*
G02*
X130685000Y-93950860I0J-90860D01*
G01*
X130685000Y-95309140D01*
G75*
G02*
X130594140Y-95400000I-90860J0D01*
G01*
G37*
G36*
G01*
X131594140Y-95400000D02*
X131185860Y-95400000D01*
G75*
G02*
X131095000Y-95309140I0J90860D01*
G01*
X131095000Y-93950860D01*
G75*
G02*
X131185860Y-93860000I90860J0D01*
G01*
X131594140Y-93860000D01*
G75*
G02*
X131685000Y-93950860I0J-90860D01*
G01*
X131685000Y-95309140D01*
G75*
G02*
X131594140Y-95400000I-90860J0D01*
G01*
G37*
G36*
G01*
X132594140Y-95400000D02*
X132185860Y-95400000D01*
G75*
G02*
X132095000Y-95309140I0J90860D01*
G01*
X132095000Y-93950860D01*
G75*
G02*
X132185860Y-93860000I90860J0D01*
G01*
X132594140Y-93860000D01*
G75*
G02*
X132685000Y-93950860I0J-90860D01*
G01*
X132685000Y-95309140D01*
G75*
G02*
X132594140Y-95400000I-90860J0D01*
G01*
G37*
G36*
G01*
X133594140Y-95400000D02*
X133185860Y-95400000D01*
G75*
G02*
X133095000Y-95309140I0J90860D01*
G01*
X133095000Y-93950860D01*
G75*
G02*
X133185860Y-93860000I90860J0D01*
G01*
X133594140Y-93860000D01*
G75*
G02*
X133685000Y-93950860I0J-90860D01*
G01*
X133685000Y-95309140D01*
G75*
G02*
X133594140Y-95400000I-90860J0D01*
G01*
G37*
G36*
G01*
X134594140Y-95400000D02*
X134185860Y-95400000D01*
G75*
G02*
X134095000Y-95309140I0J90860D01*
G01*
X134095000Y-93950860D01*
G75*
G02*
X134185860Y-93860000I90860J0D01*
G01*
X134594140Y-93860000D01*
G75*
G02*
X134685000Y-93950860I0J-90860D01*
G01*
X134685000Y-95309140D01*
G75*
G02*
X134594140Y-95400000I-90860J0D01*
G01*
G37*
G36*
G01*
X135594140Y-95400000D02*
X135185860Y-95400000D01*
G75*
G02*
X135095000Y-95309140I0J90860D01*
G01*
X135095000Y-93950860D01*
G75*
G02*
X135185860Y-93860000I90860J0D01*
G01*
X135594140Y-93860000D01*
G75*
G02*
X135685000Y-93950860I0J-90860D01*
G01*
X135685000Y-95309140D01*
G75*
G02*
X135594140Y-95400000I-90860J0D01*
G01*
G37*
G36*
G01*
X136594140Y-95400000D02*
X136185860Y-95400000D01*
G75*
G02*
X136095000Y-95309140I0J90860D01*
G01*
X136095000Y-93950860D01*
G75*
G02*
X136185860Y-93860000I90860J0D01*
G01*
X136594140Y-93860000D01*
G75*
G02*
X136685000Y-93950860I0J-90860D01*
G01*
X136685000Y-95309140D01*
G75*
G02*
X136594140Y-95400000I-90860J0D01*
G01*
G37*
G36*
G01*
X137594140Y-95400000D02*
X137185860Y-95400000D01*
G75*
G02*
X137095000Y-95309140I0J90860D01*
G01*
X137095000Y-93950860D01*
G75*
G02*
X137185860Y-93860000I90860J0D01*
G01*
X137594140Y-93860000D01*
G75*
G02*
X137685000Y-93950860I0J-90860D01*
G01*
X137685000Y-95309140D01*
G75*
G02*
X137594140Y-95400000I-90860J0D01*
G01*
G37*
G36*
G01*
X138594140Y-95400000D02*
X138185860Y-95400000D01*
G75*
G02*
X138095000Y-95309140I0J90860D01*
G01*
X138095000Y-93950860D01*
G75*
G02*
X138185860Y-93860000I90860J0D01*
G01*
X138594140Y-93860000D01*
G75*
G02*
X138685000Y-93950860I0J-90860D01*
G01*
X138685000Y-95309140D01*
G75*
G02*
X138594140Y-95400000I-90860J0D01*
G01*
G37*
G36*
G01*
X139594140Y-95400000D02*
X139185860Y-95400000D01*
G75*
G02*
X139095000Y-95309140I0J90860D01*
G01*
X139095000Y-93950860D01*
G75*
G02*
X139185860Y-93860000I90860J0D01*
G01*
X139594140Y-93860000D01*
G75*
G02*
X139685000Y-93950860I0J-90860D01*
G01*
X139685000Y-95309140D01*
G75*
G02*
X139594140Y-95400000I-90860J0D01*
G01*
G37*
G36*
G01*
X140594140Y-95400000D02*
X140185860Y-95400000D01*
G75*
G02*
X140095000Y-95309140I0J90860D01*
G01*
X140095000Y-93950860D01*
G75*
G02*
X140185860Y-93860000I90860J0D01*
G01*
X140594140Y-93860000D01*
G75*
G02*
X140685000Y-93950860I0J-90860D01*
G01*
X140685000Y-95309140D01*
G75*
G02*
X140594140Y-95400000I-90860J0D01*
G01*
G37*
G36*
G01*
X142720000Y-96334140D02*
X142720000Y-95925860D01*
G75*
G02*
X142810860Y-95835000I90860J0D01*
G01*
X144169140Y-95835000D01*
G75*
G02*
X144260000Y-95925860I0J-90860D01*
G01*
X144260000Y-96334140D01*
G75*
G02*
X144169140Y-96425000I-90860J0D01*
G01*
X142810860Y-96425000D01*
G75*
G02*
X142720000Y-96334140I0J90860D01*
G01*
G37*
G36*
G01*
X142720000Y-97334140D02*
X142720000Y-96925860D01*
G75*
G02*
X142810860Y-96835000I90860J0D01*
G01*
X144169140Y-96835000D01*
G75*
G02*
X144260000Y-96925860I0J-90860D01*
G01*
X144260000Y-97334140D01*
G75*
G02*
X144169140Y-97425000I-90860J0D01*
G01*
X142810860Y-97425000D01*
G75*
G02*
X142720000Y-97334140I0J90860D01*
G01*
G37*
G36*
G01*
X142720000Y-98334140D02*
X142720000Y-97925860D01*
G75*
G02*
X142810860Y-97835000I90860J0D01*
G01*
X144169140Y-97835000D01*
G75*
G02*
X144260000Y-97925860I0J-90860D01*
G01*
X144260000Y-98334140D01*
G75*
G02*
X144169140Y-98425000I-90860J0D01*
G01*
X142810860Y-98425000D01*
G75*
G02*
X142720000Y-98334140I0J90860D01*
G01*
G37*
G36*
G01*
X142720000Y-99334140D02*
X142720000Y-98925860D01*
G75*
G02*
X142810860Y-98835000I90860J0D01*
G01*
X144169140Y-98835000D01*
G75*
G02*
X144260000Y-98925860I0J-90860D01*
G01*
X144260000Y-99334140D01*
G75*
G02*
X144169140Y-99425000I-90860J0D01*
G01*
X142810860Y-99425000D01*
G75*
G02*
X142720000Y-99334140I0J90860D01*
G01*
G37*
G36*
G01*
X142720000Y-100334140D02*
X142720000Y-99925860D01*
G75*
G02*
X142810860Y-99835000I90860J0D01*
G01*
X144169140Y-99835000D01*
G75*
G02*
X144260000Y-99925860I0J-90860D01*
G01*
X144260000Y-100334140D01*
G75*
G02*
X144169140Y-100425000I-90860J0D01*
G01*
X142810860Y-100425000D01*
G75*
G02*
X142720000Y-100334140I0J90860D01*
G01*
G37*
G36*
G01*
X142720000Y-101334140D02*
X142720000Y-100925860D01*
G75*
G02*
X142810860Y-100835000I90860J0D01*
G01*
X144169140Y-100835000D01*
G75*
G02*
X144260000Y-100925860I0J-90860D01*
G01*
X144260000Y-101334140D01*
G75*
G02*
X144169140Y-101425000I-90860J0D01*
G01*
X142810860Y-101425000D01*
G75*
G02*
X142720000Y-101334140I0J90860D01*
G01*
G37*
G36*
G01*
X142720000Y-102334140D02*
X142720000Y-101925860D01*
G75*
G02*
X142810860Y-101835000I90860J0D01*
G01*
X144169140Y-101835000D01*
G75*
G02*
X144260000Y-101925860I0J-90860D01*
G01*
X144260000Y-102334140D01*
G75*
G02*
X144169140Y-102425000I-90860J0D01*
G01*
X142810860Y-102425000D01*
G75*
G02*
X142720000Y-102334140I0J90860D01*
G01*
G37*
G36*
G01*
X142720000Y-103334140D02*
X142720000Y-102925860D01*
G75*
G02*
X142810860Y-102835000I90860J0D01*
G01*
X144169140Y-102835000D01*
G75*
G02*
X144260000Y-102925860I0J-90860D01*
G01*
X144260000Y-103334140D01*
G75*
G02*
X144169140Y-103425000I-90860J0D01*
G01*
X142810860Y-103425000D01*
G75*
G02*
X142720000Y-103334140I0J90860D01*
G01*
G37*
G36*
G01*
X142720000Y-104334140D02*
X142720000Y-103925860D01*
G75*
G02*
X142810860Y-103835000I90860J0D01*
G01*
X144169140Y-103835000D01*
G75*
G02*
X144260000Y-103925860I0J-90860D01*
G01*
X144260000Y-104334140D01*
G75*
G02*
X144169140Y-104425000I-90860J0D01*
G01*
X142810860Y-104425000D01*
G75*
G02*
X142720000Y-104334140I0J90860D01*
G01*
G37*
G36*
G01*
X142720000Y-105334140D02*
X142720000Y-104925860D01*
G75*
G02*
X142810860Y-104835000I90860J0D01*
G01*
X144169140Y-104835000D01*
G75*
G02*
X144260000Y-104925860I0J-90860D01*
G01*
X144260000Y-105334140D01*
G75*
G02*
X144169140Y-105425000I-90860J0D01*
G01*
X142810860Y-105425000D01*
G75*
G02*
X142720000Y-105334140I0J90860D01*
G01*
G37*
G36*
G01*
X142720000Y-106334140D02*
X142720000Y-105925860D01*
G75*
G02*
X142810860Y-105835000I90860J0D01*
G01*
X144169140Y-105835000D01*
G75*
G02*
X144260000Y-105925860I0J-90860D01*
G01*
X144260000Y-106334140D01*
G75*
G02*
X144169140Y-106425000I-90860J0D01*
G01*
X142810860Y-106425000D01*
G75*
G02*
X142720000Y-106334140I0J90860D01*
G01*
G37*
G36*
G01*
X142720000Y-107334140D02*
X142720000Y-106925860D01*
G75*
G02*
X142810860Y-106835000I90860J0D01*
G01*
X144169140Y-106835000D01*
G75*
G02*
X144260000Y-106925860I0J-90860D01*
G01*
X144260000Y-107334140D01*
G75*
G02*
X144169140Y-107425000I-90860J0D01*
G01*
X142810860Y-107425000D01*
G75*
G02*
X142720000Y-107334140I0J90860D01*
G01*
G37*
G36*
G01*
X142720000Y-108334140D02*
X142720000Y-107925860D01*
G75*
G02*
X142810860Y-107835000I90860J0D01*
G01*
X144169140Y-107835000D01*
G75*
G02*
X144260000Y-107925860I0J-90860D01*
G01*
X144260000Y-108334140D01*
G75*
G02*
X144169140Y-108425000I-90860J0D01*
G01*
X142810860Y-108425000D01*
G75*
G02*
X142720000Y-108334140I0J90860D01*
G01*
G37*
G36*
G01*
X141594140Y-111400000D02*
X141185860Y-111400000D01*
G75*
G02*
X141095000Y-111309140I0J90860D01*
G01*
X141095000Y-109950860D01*
G75*
G02*
X141185860Y-109860000I90860J0D01*
G01*
X141594140Y-109860000D01*
G75*
G02*
X141685000Y-109950860I0J-90860D01*
G01*
X141685000Y-111309140D01*
G75*
G02*
X141594140Y-111400000I-90860J0D01*
G01*
G37*
G36*
G01*
X127570000Y-109334140D02*
X127570000Y-108925860D01*
G75*
G02*
X127660860Y-108835000I90860J0D01*
G01*
X129019140Y-108835000D01*
G75*
G02*
X129110000Y-108925860I0J-90860D01*
G01*
X129110000Y-109334140D01*
G75*
G02*
X129019140Y-109425000I-90860J0D01*
G01*
X127660860Y-109425000D01*
G75*
G02*
X127570000Y-109334140I0J90860D01*
G01*
G37*
G36*
G01*
X142720000Y-109334140D02*
X142720000Y-108925860D01*
G75*
G02*
X142810860Y-108835000I90860J0D01*
G01*
X144169140Y-108835000D01*
G75*
G02*
X144260000Y-108925860I0J-90860D01*
G01*
X144260000Y-109334140D01*
G75*
G02*
X144169140Y-109425000I-90860J0D01*
G01*
X142810860Y-109425000D01*
G75*
G02*
X142720000Y-109334140I0J90860D01*
G01*
G37*
G36*
G01*
X141594140Y-95400000D02*
X141185860Y-95400000D01*
G75*
G02*
X141095000Y-95309140I0J90860D01*
G01*
X141095000Y-93950860D01*
G75*
G02*
X141185860Y-93860000I90860J0D01*
G01*
X141594140Y-93860000D01*
G75*
G02*
X141685000Y-93950860I0J-90860D01*
G01*
X141685000Y-95309140D01*
G75*
G02*
X141594140Y-95400000I-90860J0D01*
G01*
G37*
G36*
G01*
X131307500Y-91399000D02*
X131647500Y-91399000D01*
G75*
G02*
X131787500Y-91539000I0J-140000D01*
G01*
X131787500Y-91819000D01*
G75*
G02*
X131647500Y-91959000I-140000J0D01*
G01*
X131307500Y-91959000D01*
G75*
G02*
X131167500Y-91819000I0J140000D01*
G01*
X131167500Y-91539000D01*
G75*
G02*
X131307500Y-91399000I140000J0D01*
G01*
G37*
G36*
G01*
X131307500Y-92359000D02*
X131647500Y-92359000D01*
G75*
G02*
X131787500Y-92499000I0J-140000D01*
G01*
X131787500Y-92779000D01*
G75*
G02*
X131647500Y-92919000I-140000J0D01*
G01*
X131307500Y-92919000D01*
G75*
G02*
X131167500Y-92779000I0J140000D01*
G01*
X131167500Y-92499000D01*
G75*
G02*
X131307500Y-92359000I140000J0D01*
G01*
G37*
D24*
X136750000Y-87590000D03*
X135800000Y-87590000D03*
X134850000Y-87590000D03*
X134850000Y-90210000D03*
X136750000Y-90210000D03*
G36*
G01*
X138040000Y-82205000D02*
X138040000Y-82545000D01*
G75*
G02*
X137900000Y-82685000I-140000J0D01*
G01*
X137620000Y-82685000D01*
G75*
G02*
X137480000Y-82545000I0J140000D01*
G01*
X137480000Y-82205000D01*
G75*
G02*
X137620000Y-82065000I140000J0D01*
G01*
X137900000Y-82065000D01*
G75*
G02*
X138040000Y-82205000I0J-140000D01*
G01*
G37*
G36*
G01*
X137080000Y-82205000D02*
X137080000Y-82545000D01*
G75*
G02*
X136940000Y-82685000I-140000J0D01*
G01*
X136660000Y-82685000D01*
G75*
G02*
X136520000Y-82545000I0J140000D01*
G01*
X136520000Y-82205000D01*
G75*
G02*
X136660000Y-82065000I140000J0D01*
G01*
X136940000Y-82065000D01*
G75*
G02*
X137080000Y-82205000I0J-140000D01*
G01*
G37*
D25*
X136140000Y-74645000D03*
X134140000Y-74645000D03*
X134640000Y-74645000D03*
X135140000Y-74645000D03*
X135640000Y-74645000D03*
X136640000Y-74645000D03*
X137140000Y-74645000D03*
X137640000Y-74645000D03*
D26*
X132640000Y-74645000D03*
X133440000Y-74645000D03*
X138340000Y-74645000D03*
X139140000Y-74645000D03*
X139140000Y-74645000D03*
X138340000Y-74645000D03*
X133440000Y-74645000D03*
X132640000Y-74645000D03*
G36*
G01*
X138210000Y-76375000D02*
X137840000Y-76375000D01*
G75*
G02*
X137705000Y-76240000I0J135000D01*
G01*
X137705000Y-75970000D01*
G75*
G02*
X137840000Y-75835000I135000J0D01*
G01*
X138210000Y-75835000D01*
G75*
G02*
X138345000Y-75970000I0J-135000D01*
G01*
X138345000Y-76240000D01*
G75*
G02*
X138210000Y-76375000I-135000J0D01*
G01*
G37*
G36*
G01*
X138210000Y-77395000D02*
X137840000Y-77395000D01*
G75*
G02*
X137705000Y-77260000I0J135000D01*
G01*
X137705000Y-76990000D01*
G75*
G02*
X137840000Y-76855000I135000J0D01*
G01*
X138210000Y-76855000D01*
G75*
G02*
X138345000Y-76990000I0J-135000D01*
G01*
X138345000Y-77260000D01*
G75*
G02*
X138210000Y-77395000I-135000J0D01*
G01*
G37*
G36*
G01*
X134110000Y-77380000D02*
X133740000Y-77380000D01*
G75*
G02*
X133605000Y-77245000I0J135000D01*
G01*
X133605000Y-76975000D01*
G75*
G02*
X133740000Y-76840000I135000J0D01*
G01*
X134110000Y-76840000D01*
G75*
G02*
X134245000Y-76975000I0J-135000D01*
G01*
X134245000Y-77245000D01*
G75*
G02*
X134110000Y-77380000I-135000J0D01*
G01*
G37*
G36*
G01*
X134110000Y-76360000D02*
X133740000Y-76360000D01*
G75*
G02*
X133605000Y-76225000I0J135000D01*
G01*
X133605000Y-75955000D01*
G75*
G02*
X133740000Y-75820000I135000J0D01*
G01*
X134110000Y-75820000D01*
G75*
G02*
X134245000Y-75955000I0J-135000D01*
G01*
X134245000Y-76225000D01*
G75*
G02*
X134110000Y-76360000I-135000J0D01*
G01*
G37*
G36*
G01*
X129560500Y-69521500D02*
X129900500Y-69521500D01*
G75*
G02*
X130040500Y-69661500I0J-140000D01*
G01*
X130040500Y-69941500D01*
G75*
G02*
X129900500Y-70081500I-140000J0D01*
G01*
X129560500Y-70081500D01*
G75*
G02*
X129420500Y-69941500I0J140000D01*
G01*
X129420500Y-69661500D01*
G75*
G02*
X129560500Y-69521500I140000J0D01*
G01*
G37*
G36*
G01*
X129560500Y-70481500D02*
X129900500Y-70481500D01*
G75*
G02*
X130040500Y-70621500I0J-140000D01*
G01*
X130040500Y-70901500D01*
G75*
G02*
X129900500Y-71041500I-140000J0D01*
G01*
X129560500Y-71041500D01*
G75*
G02*
X129420500Y-70901500I0J140000D01*
G01*
X129420500Y-70621500D01*
G75*
G02*
X129560500Y-70481500I140000J0D01*
G01*
G37*
G36*
G01*
X132615000Y-78195000D02*
X132615000Y-77855000D01*
G75*
G02*
X132755000Y-77715000I140000J0D01*
G01*
X133035000Y-77715000D01*
G75*
G02*
X133175000Y-77855000I0J-140000D01*
G01*
X133175000Y-78195000D01*
G75*
G02*
X133035000Y-78335000I-140000J0D01*
G01*
X132755000Y-78335000D01*
G75*
G02*
X132615000Y-78195000I0J140000D01*
G01*
G37*
G36*
G01*
X133575000Y-78195000D02*
X133575000Y-77855000D01*
G75*
G02*
X133715000Y-77715000I140000J0D01*
G01*
X133995000Y-77715000D01*
G75*
G02*
X134135000Y-77855000I0J-140000D01*
G01*
X134135000Y-78195000D01*
G75*
G02*
X133995000Y-78335000I-140000J0D01*
G01*
X133715000Y-78335000D01*
G75*
G02*
X133575000Y-78195000I0J140000D01*
G01*
G37*
G36*
G01*
X130690000Y-78195000D02*
X130690000Y-77855000D01*
G75*
G02*
X130830000Y-77715000I140000J0D01*
G01*
X131110000Y-77715000D01*
G75*
G02*
X131250000Y-77855000I0J-140000D01*
G01*
X131250000Y-78195000D01*
G75*
G02*
X131110000Y-78335000I-140000J0D01*
G01*
X130830000Y-78335000D01*
G75*
G02*
X130690000Y-78195000I0J140000D01*
G01*
G37*
G36*
G01*
X131650000Y-78195000D02*
X131650000Y-77855000D01*
G75*
G02*
X131790000Y-77715000I140000J0D01*
G01*
X132070000Y-77715000D01*
G75*
G02*
X132210000Y-77855000I0J-140000D01*
G01*
X132210000Y-78195000D01*
G75*
G02*
X132070000Y-78335000I-140000J0D01*
G01*
X131790000Y-78335000D01*
G75*
G02*
X131650000Y-78195000I0J140000D01*
G01*
G37*
G36*
G01*
X135100000Y-93270000D02*
X135100000Y-92930000D01*
G75*
G02*
X135240000Y-92790000I140000J0D01*
G01*
X135520000Y-92790000D01*
G75*
G02*
X135660000Y-92930000I0J-140000D01*
G01*
X135660000Y-93270000D01*
G75*
G02*
X135520000Y-93410000I-140000J0D01*
G01*
X135240000Y-93410000D01*
G75*
G02*
X135100000Y-93270000I0J140000D01*
G01*
G37*
G36*
G01*
X134140000Y-93270000D02*
X134140000Y-92930000D01*
G75*
G02*
X134280000Y-92790000I140000J0D01*
G01*
X134560000Y-92790000D01*
G75*
G02*
X134700000Y-92930000I0J-140000D01*
G01*
X134700000Y-93270000D01*
G75*
G02*
X134560000Y-93410000I-140000J0D01*
G01*
X134280000Y-93410000D01*
G75*
G02*
X134140000Y-93270000I0J140000D01*
G01*
G37*
G36*
G01*
X144430000Y-97850000D02*
X144770000Y-97850000D01*
G75*
G02*
X144910000Y-97990000I0J-140000D01*
G01*
X144910000Y-98270000D01*
G75*
G02*
X144770000Y-98410000I-140000J0D01*
G01*
X144430000Y-98410000D01*
G75*
G02*
X144290000Y-98270000I0J140000D01*
G01*
X144290000Y-97990000D01*
G75*
G02*
X144430000Y-97850000I140000J0D01*
G01*
G37*
G36*
G01*
X144430000Y-96890000D02*
X144770000Y-96890000D01*
G75*
G02*
X144910000Y-97030000I0J-140000D01*
G01*
X144910000Y-97310000D01*
G75*
G02*
X144770000Y-97450000I-140000J0D01*
G01*
X144430000Y-97450000D01*
G75*
G02*
X144290000Y-97310000I0J140000D01*
G01*
X144290000Y-97030000D01*
G75*
G02*
X144430000Y-96890000I140000J0D01*
G01*
G37*
G36*
G01*
X127320000Y-101410000D02*
X126980000Y-101410000D01*
G75*
G02*
X126840000Y-101270000I0J140000D01*
G01*
X126840000Y-100990000D01*
G75*
G02*
X126980000Y-100850000I140000J0D01*
G01*
X127320000Y-100850000D01*
G75*
G02*
X127460000Y-100990000I0J-140000D01*
G01*
X127460000Y-101270000D01*
G75*
G02*
X127320000Y-101410000I-140000J0D01*
G01*
G37*
G36*
G01*
X127320000Y-100450000D02*
X126980000Y-100450000D01*
G75*
G02*
X126840000Y-100310000I0J140000D01*
G01*
X126840000Y-100030000D01*
G75*
G02*
X126980000Y-99890000I140000J0D01*
G01*
X127320000Y-99890000D01*
G75*
G02*
X127460000Y-100030000I0J-140000D01*
G01*
X127460000Y-100310000D01*
G75*
G02*
X127320000Y-100450000I-140000J0D01*
G01*
G37*
G36*
G01*
X136600000Y-92930000D02*
X136600000Y-93270000D01*
G75*
G02*
X136460000Y-93410000I-140000J0D01*
G01*
X136180000Y-93410000D01*
G75*
G02*
X136040000Y-93270000I0J140000D01*
G01*
X136040000Y-92930000D01*
G75*
G02*
X136180000Y-92790000I140000J0D01*
G01*
X136460000Y-92790000D01*
G75*
G02*
X136600000Y-92930000I0J-140000D01*
G01*
G37*
G36*
G01*
X137560000Y-92930000D02*
X137560000Y-93270000D01*
G75*
G02*
X137420000Y-93410000I-140000J0D01*
G01*
X137140000Y-93410000D01*
G75*
G02*
X137000000Y-93270000I0J140000D01*
G01*
X137000000Y-92930000D01*
G75*
G02*
X137140000Y-92790000I140000J0D01*
G01*
X137420000Y-92790000D01*
G75*
G02*
X137560000Y-92930000I0J-140000D01*
G01*
G37*
G36*
G01*
X144820000Y-105450000D02*
X144480000Y-105450000D01*
G75*
G02*
X144340000Y-105310000I0J140000D01*
G01*
X144340000Y-105030000D01*
G75*
G02*
X144480000Y-104890000I140000J0D01*
G01*
X144820000Y-104890000D01*
G75*
G02*
X144960000Y-105030000I0J-140000D01*
G01*
X144960000Y-105310000D01*
G75*
G02*
X144820000Y-105450000I-140000J0D01*
G01*
G37*
G36*
G01*
X144820000Y-106410000D02*
X144480000Y-106410000D01*
G75*
G02*
X144340000Y-106270000I0J140000D01*
G01*
X144340000Y-105990000D01*
G75*
G02*
X144480000Y-105850000I140000J0D01*
G01*
X144820000Y-105850000D01*
G75*
G02*
X144960000Y-105990000I0J-140000D01*
G01*
X144960000Y-106270000D01*
G75*
G02*
X144820000Y-106410000I-140000J0D01*
G01*
G37*
G36*
G01*
X139565000Y-91370000D02*
X139935000Y-91370000D01*
G75*
G02*
X140070000Y-91505000I0J-135000D01*
G01*
X140070000Y-91775000D01*
G75*
G02*
X139935000Y-91910000I-135000J0D01*
G01*
X139565000Y-91910000D01*
G75*
G02*
X139430000Y-91775000I0J135000D01*
G01*
X139430000Y-91505000D01*
G75*
G02*
X139565000Y-91370000I135000J0D01*
G01*
G37*
G36*
G01*
X139565000Y-92390000D02*
X139935000Y-92390000D01*
G75*
G02*
X140070000Y-92525000I0J-135000D01*
G01*
X140070000Y-92795000D01*
G75*
G02*
X139935000Y-92930000I-135000J0D01*
G01*
X139565000Y-92930000D01*
G75*
G02*
X139430000Y-92795000I0J135000D01*
G01*
X139430000Y-92525000D01*
G75*
G02*
X139565000Y-92390000I135000J0D01*
G01*
G37*
M02*
