G04 #@! TF.GenerationSoftware,KiCad,Pcbnew,(5.1.8)-1*
G04 #@! TF.CreationDate,2021-04-09T02:34:17+02:00*
G04 #@! TF.ProjectId,Penguino-STM32WL-M,50656e67-7569-46e6-9f2d-53544d333257,0.1*
G04 #@! TF.SameCoordinates,Original*
G04 #@! TF.FileFunction,Copper,L2,Inr*
G04 #@! TF.FilePolarity,Positive*
%FSLAX46Y46*%
G04 Gerber Fmt 4.6, Leading zero omitted, Abs format (unit mm)*
G04 Created by KiCad (PCBNEW (5.1.8)-1) date 2021-04-09 02:34:17*
%MOMM*%
%LPD*%
G01*
G04 APERTURE LIST*
G04 #@! TA.AperFunction,Profile*
%ADD10C,0.150000*%
G04 #@! TD*
G04 #@! TA.AperFunction,ComponentPad*
%ADD11C,3.175000*%
G04 #@! TD*
G04 #@! TA.AperFunction,ComponentPad*
%ADD12C,2.540000*%
G04 #@! TD*
G04 #@! TA.AperFunction,ComponentPad*
%ADD13O,1.700000X1.700000*%
G04 #@! TD*
G04 #@! TA.AperFunction,ComponentPad*
%ADD14O,1.000000X1.600000*%
G04 #@! TD*
G04 #@! TA.AperFunction,ComponentPad*
%ADD15O,1.000000X2.100000*%
G04 #@! TD*
G04 #@! TA.AperFunction,ViaPad*
%ADD16C,0.600000*%
G04 #@! TD*
G04 #@! TA.AperFunction,ViaPad*
%ADD17C,0.550000*%
G04 #@! TD*
G04 #@! TA.AperFunction,ViaPad*
%ADD18C,0.450000*%
G04 #@! TD*
G04 #@! TA.AperFunction,ViaPad*
%ADD19C,0.500000*%
G04 #@! TD*
G04 #@! TA.AperFunction,Conductor*
%ADD20C,0.254000*%
G04 #@! TD*
G04 #@! TA.AperFunction,Conductor*
%ADD21C,0.100000*%
G04 #@! TD*
G04 APERTURE END LIST*
D10*
X127000000Y-119380000D02*
G75*
G02*
X124460000Y-116840000I0J2540000D01*
G01*
X147320000Y-116840000D02*
G75*
G02*
X144780000Y-119380000I-2540000J0D01*
G01*
X144780000Y-68580000D02*
G75*
G02*
X147320000Y-71120000I0J-2540000D01*
G01*
X124460000Y-71120000D02*
G75*
G02*
X127000000Y-68580000I2540000J0D01*
G01*
X124460000Y-116840000D02*
X124460000Y-71120000D01*
X144780000Y-119380000D02*
X127000000Y-119380000D01*
X147320000Y-71120000D02*
X147320000Y-116840000D01*
X127000000Y-68580000D02*
X144780000Y-68580000D01*
D11*
X127000000Y-71120000D03*
X144780000Y-71120000D03*
D12*
X144780000Y-116840000D03*
X127000000Y-116840000D03*
D13*
X125730000Y-74930000D03*
X125730000Y-77470000D03*
X125730000Y-80010000D03*
X125730000Y-82550000D03*
X125730000Y-85090000D03*
X125730000Y-87630000D03*
X125730000Y-90170000D03*
X125730000Y-92710000D03*
X125730000Y-95250000D03*
X125730000Y-97790000D03*
X125730000Y-100330000D03*
X125730000Y-102870000D03*
X125730000Y-105410000D03*
X125730000Y-107950000D03*
X125730000Y-110490000D03*
X125730000Y-113030000D03*
X146050000Y-113030000D03*
X146050000Y-110490000D03*
X146050000Y-107950000D03*
X146050000Y-105410000D03*
X146050000Y-102870000D03*
X146050000Y-100330000D03*
X146050000Y-97790000D03*
X146050000Y-95250000D03*
X146050000Y-92710000D03*
X146050000Y-90170000D03*
X146050000Y-87630000D03*
X146050000Y-85090000D03*
D14*
X131570000Y-69550000D03*
X140210000Y-69550000D03*
D15*
X140210000Y-73730000D03*
X131570000Y-73730000D03*
D16*
X145600000Y-78050000D03*
X145600000Y-81500000D03*
X145600000Y-79800000D03*
X143375000Y-76375000D03*
X143419990Y-83080010D03*
X134250000Y-98110000D03*
X137620000Y-98100000D03*
X139510000Y-99620000D03*
X139530000Y-102610000D03*
X139460000Y-105610000D03*
X140870000Y-107200000D03*
X137630000Y-106850000D03*
X134230000Y-107190000D03*
X132310000Y-105680000D03*
X132320000Y-102630000D03*
X132380000Y-99640000D03*
X130950000Y-98080000D03*
X130400000Y-112220000D03*
X142180000Y-105110000D03*
D17*
X132900000Y-112050000D03*
X134550000Y-111900000D03*
X135200000Y-112100000D03*
X134150000Y-113300000D03*
X135100000Y-113400000D03*
X135900000Y-111900000D03*
X136950000Y-111950000D03*
X136650000Y-113500000D03*
X137600000Y-113350000D03*
X137600000Y-112100000D03*
X138400000Y-112100000D03*
X138400000Y-113350000D03*
X139300000Y-111975000D03*
X139275000Y-113450000D03*
X140000000Y-113650000D03*
X141725000Y-111900000D03*
X132525000Y-113600000D03*
X134500000Y-118700000D03*
X134500000Y-117700000D03*
X134500000Y-116800000D03*
X134500000Y-115900000D03*
X134500000Y-115000000D03*
X134700000Y-114200000D03*
X137100000Y-114200000D03*
X137200000Y-115000000D03*
X137200000Y-115900000D03*
X137200000Y-116800000D03*
X137200000Y-117700000D03*
X137200000Y-118700000D03*
X140200000Y-118700000D03*
X140200000Y-117700000D03*
X140100000Y-116800000D03*
X140100000Y-115800000D03*
X131700000Y-118700000D03*
X131700000Y-117700000D03*
X131700000Y-116800000D03*
X131700000Y-115900000D03*
X131700000Y-115000000D03*
X131800000Y-114100000D03*
X138700000Y-114000000D03*
X133100000Y-114000000D03*
X142500000Y-116200000D03*
X144600000Y-114100000D03*
X144100000Y-111900000D03*
D18*
X129600000Y-100125000D03*
X142175000Y-98125000D03*
X137125000Y-72700000D03*
X135575000Y-72200000D03*
X134425000Y-72725000D03*
X133850000Y-78700000D03*
D16*
X131875000Y-75675000D03*
X142650000Y-86025000D03*
X135825000Y-88925000D03*
X139850000Y-77575000D03*
X142025000Y-78700000D03*
X139850000Y-79650000D03*
X137500000Y-78450000D03*
D18*
X140880000Y-98140000D03*
X140660000Y-92640000D03*
D16*
X135747000Y-96003000D03*
D18*
X126946000Y-99414000D03*
X129750000Y-80750000D03*
X129925000Y-81675000D03*
X126625000Y-83800000D03*
X126550000Y-81225000D03*
X129676485Y-93273312D03*
D16*
X132296801Y-108914351D03*
D18*
X133450000Y-80500000D03*
X134200000Y-80350000D03*
X141600000Y-72950000D03*
X143450000Y-69300000D03*
X146600000Y-72400000D03*
X132050000Y-91181326D03*
D16*
X137716502Y-91610580D03*
D18*
X128510000Y-69350000D03*
X127054400Y-114620600D03*
X127656800Y-110403800D03*
X127656800Y-112211000D03*
X128259200Y-113415800D03*
X128861600Y-111006200D03*
X128861600Y-114620600D03*
X128861600Y-118235000D03*
X129464000Y-115825400D03*
X130066400Y-74862200D03*
X130066400Y-113415800D03*
X130066400Y-117030200D03*
X130668800Y-114620600D03*
X130668800Y-118235000D03*
X132476000Y-71247800D03*
X132476000Y-103777400D03*
X133680800Y-70645400D03*
X133680800Y-105584600D03*
X134885600Y-101367800D03*
X135488000Y-70645400D03*
X135488000Y-102572600D03*
X135488000Y-105584600D03*
X136090400Y-100765400D03*
X136090400Y-106789400D03*
X136692800Y-101970200D03*
X137295200Y-70645400D03*
X137295200Y-99560600D03*
X137295200Y-103175000D03*
X137897600Y-100765400D03*
X138500000Y-71247800D03*
X138500000Y-103777400D03*
X139102400Y-101367800D03*
X140307200Y-76067000D03*
X141512000Y-89922200D03*
X141512000Y-117632600D03*
X142716800Y-118235000D03*
X143319200Y-94139000D03*
X143921600Y-77874200D03*
X143921600Y-79681400D03*
X143921600Y-81488600D03*
X146331200Y-115223000D03*
D19*
X133833053Y-88692331D03*
D18*
X141290000Y-82440000D03*
X136050000Y-81950000D03*
D16*
X136000000Y-84475000D03*
X139151888Y-76052410D03*
D18*
X133800000Y-103750000D03*
D16*
X139875000Y-82125000D03*
D18*
X134650000Y-78375000D03*
D16*
X135050000Y-84425000D03*
X135050000Y-83675000D03*
X138175000Y-85950000D03*
X141600000Y-85925000D03*
X141600000Y-84225000D03*
D19*
X146125000Y-73325000D03*
D16*
X138094986Y-84342635D03*
D18*
X127150000Y-101700000D03*
X144750000Y-96575000D03*
D19*
X134300000Y-92400000D03*
X134300000Y-91800000D03*
X139320598Y-86300000D03*
X142500000Y-92700000D03*
X142500000Y-88550000D03*
D18*
X130733265Y-90657231D03*
X134300000Y-91225000D03*
X129632620Y-91530141D03*
X135640016Y-73377150D03*
X136659812Y-73359806D03*
D19*
X140625000Y-87925000D03*
X134850000Y-88680358D03*
D18*
X133300000Y-93300000D03*
D19*
X144950000Y-86550000D03*
X141275000Y-70275000D03*
D18*
X130000000Y-73700000D03*
X134190784Y-89207768D03*
X133550000Y-81475000D03*
X130711653Y-91385950D03*
X129650000Y-96750000D03*
X145350000Y-106650000D03*
X133650000Y-102100000D03*
X126647590Y-93525195D03*
D16*
X137390262Y-94430000D03*
D18*
X134175000Y-81575000D03*
X144780000Y-107000000D03*
X144547590Y-104320000D03*
X139390000Y-95980000D03*
X127100000Y-103500000D03*
X127053113Y-104246887D03*
X129580000Y-107122000D03*
X129563000Y-108127000D03*
X129552000Y-109114000D03*
X136377029Y-109211869D03*
X139250000Y-106837000D03*
X139992693Y-107182287D03*
X144720000Y-109060000D03*
X144710000Y-108220000D03*
X144640000Y-99110000D03*
X140590000Y-93400000D03*
X139020000Y-93330000D03*
X137286767Y-92593223D03*
X139299000Y-107773000D03*
X127068000Y-97886000D03*
X130608734Y-88820886D03*
X127004000Y-98782000D03*
X130700000Y-88200000D03*
D16*
X138375000Y-82375000D03*
D18*
X126797590Y-88450000D03*
X132501000Y-96199000D03*
X126700000Y-86550000D03*
X128993692Y-95066919D03*
X142220000Y-94470000D03*
X128000000Y-82000000D03*
X127035609Y-96274155D03*
X127032000Y-97130000D03*
X128667410Y-81500000D03*
X129152410Y-82074750D03*
X129525000Y-102125000D03*
X128207138Y-95095180D03*
X135635000Y-109209000D03*
D20*
X130701748Y-69077294D02*
X130689000Y-69206727D01*
X130689000Y-69893272D01*
X130701748Y-70022705D01*
X130752125Y-70188774D01*
X130833932Y-70341824D01*
X130944025Y-70475975D01*
X131078175Y-70586068D01*
X131231225Y-70667875D01*
X131397294Y-70718252D01*
X131570000Y-70735262D01*
X131742705Y-70718252D01*
X131908774Y-70667875D01*
X132061824Y-70586068D01*
X132195975Y-70475975D01*
X132306068Y-70341825D01*
X132387875Y-70188775D01*
X132438252Y-70022706D01*
X132451000Y-69893273D01*
X132451000Y-69206727D01*
X132438252Y-69077294D01*
X132425725Y-69036000D01*
X139354275Y-69036000D01*
X139341748Y-69077294D01*
X139329000Y-69206727D01*
X139329000Y-69893272D01*
X139341748Y-70022705D01*
X139392125Y-70188774D01*
X139473932Y-70341824D01*
X139584025Y-70475975D01*
X139718175Y-70586068D01*
X139871225Y-70667875D01*
X140037294Y-70718252D01*
X140210000Y-70735262D01*
X140382705Y-70718252D01*
X140548774Y-70667875D01*
X140701824Y-70586068D01*
X140716115Y-70574340D01*
X140784870Y-70677239D01*
X140872761Y-70765130D01*
X140976109Y-70834185D01*
X141090944Y-70881751D01*
X141212852Y-70906000D01*
X141337148Y-70906000D01*
X141459056Y-70881751D01*
X141573891Y-70834185D01*
X141677239Y-70765130D01*
X141765130Y-70677239D01*
X141834185Y-70573891D01*
X141881751Y-70459056D01*
X141906000Y-70337148D01*
X141906000Y-70212852D01*
X141881751Y-70090944D01*
X141834185Y-69976109D01*
X141765130Y-69872761D01*
X141677239Y-69784870D01*
X141573891Y-69715815D01*
X141459056Y-69668249D01*
X141337148Y-69644000D01*
X141212852Y-69644000D01*
X141091000Y-69668238D01*
X141091000Y-69206727D01*
X141078252Y-69077294D01*
X141065725Y-69036000D01*
X144757695Y-69036000D01*
X145184360Y-69077835D01*
X145573319Y-69195268D01*
X145932058Y-69386013D01*
X146246918Y-69642807D01*
X146505899Y-69955862D01*
X146699147Y-70313266D01*
X146819293Y-70701394D01*
X146864000Y-71126756D01*
X146864000Y-84163103D01*
X146834717Y-84133820D01*
X146633097Y-83999102D01*
X146409069Y-83906307D01*
X146171243Y-83859000D01*
X145928757Y-83859000D01*
X145690931Y-83906307D01*
X145466903Y-83999102D01*
X145265283Y-84133820D01*
X145093820Y-84305283D01*
X144959102Y-84506903D01*
X144866307Y-84730931D01*
X144819000Y-84968757D01*
X144819000Y-85211243D01*
X144866307Y-85449069D01*
X144959102Y-85673097D01*
X145093820Y-85874717D01*
X145182360Y-85963257D01*
X145134056Y-85943249D01*
X145012148Y-85919000D01*
X144887852Y-85919000D01*
X144765944Y-85943249D01*
X144651109Y-85990815D01*
X144547761Y-86059870D01*
X144459870Y-86147761D01*
X144390815Y-86251109D01*
X144343249Y-86365944D01*
X144319000Y-86487852D01*
X144319000Y-86612148D01*
X144343249Y-86734056D01*
X144390815Y-86848891D01*
X144459870Y-86952239D01*
X144547761Y-87040130D01*
X144651109Y-87109185D01*
X144765944Y-87156751D01*
X144887852Y-87181000D01*
X144903557Y-87181000D01*
X144866307Y-87270931D01*
X144819000Y-87508757D01*
X144819000Y-87751243D01*
X144866307Y-87989069D01*
X144959102Y-88213097D01*
X145093820Y-88414717D01*
X145265283Y-88586180D01*
X145466903Y-88720898D01*
X145690931Y-88813693D01*
X145928757Y-88861000D01*
X146171243Y-88861000D01*
X146409069Y-88813693D01*
X146633097Y-88720898D01*
X146834717Y-88586180D01*
X146864000Y-88556897D01*
X146864000Y-89243103D01*
X146834717Y-89213820D01*
X146633097Y-89079102D01*
X146409069Y-88986307D01*
X146171243Y-88939000D01*
X145928757Y-88939000D01*
X145690931Y-88986307D01*
X145466903Y-89079102D01*
X145265283Y-89213820D01*
X145093820Y-89385283D01*
X144959102Y-89586903D01*
X144866307Y-89810931D01*
X144819000Y-90048757D01*
X144819000Y-90291243D01*
X144866307Y-90529069D01*
X144959102Y-90753097D01*
X145093820Y-90954717D01*
X145265283Y-91126180D01*
X145466903Y-91260898D01*
X145690931Y-91353693D01*
X145928757Y-91401000D01*
X146171243Y-91401000D01*
X146409069Y-91353693D01*
X146633097Y-91260898D01*
X146834717Y-91126180D01*
X146864000Y-91096897D01*
X146864000Y-91783103D01*
X146834717Y-91753820D01*
X146633097Y-91619102D01*
X146409069Y-91526307D01*
X146171243Y-91479000D01*
X145928757Y-91479000D01*
X145690931Y-91526307D01*
X145466903Y-91619102D01*
X145265283Y-91753820D01*
X145093820Y-91925283D01*
X144959102Y-92126903D01*
X144866307Y-92350931D01*
X144819000Y-92588757D01*
X144819000Y-92831243D01*
X144866307Y-93069069D01*
X144959102Y-93293097D01*
X145093820Y-93494717D01*
X145265283Y-93666180D01*
X145466903Y-93800898D01*
X145690931Y-93893693D01*
X145928757Y-93941000D01*
X146171243Y-93941000D01*
X146409069Y-93893693D01*
X146633097Y-93800898D01*
X146834717Y-93666180D01*
X146864000Y-93636897D01*
X146864001Y-94323104D01*
X146834717Y-94293820D01*
X146633097Y-94159102D01*
X146409069Y-94066307D01*
X146171243Y-94019000D01*
X145928757Y-94019000D01*
X145690931Y-94066307D01*
X145466903Y-94159102D01*
X145265283Y-94293820D01*
X145093820Y-94465283D01*
X144959102Y-94666903D01*
X144866307Y-94890931D01*
X144819000Y-95128757D01*
X144819000Y-95371243D01*
X144866307Y-95609069D01*
X144959102Y-95833097D01*
X145093820Y-96034717D01*
X145265283Y-96206180D01*
X145466903Y-96340898D01*
X145690931Y-96433693D01*
X145928757Y-96481000D01*
X146171243Y-96481000D01*
X146409069Y-96433693D01*
X146633097Y-96340898D01*
X146834717Y-96206180D01*
X146864001Y-96176896D01*
X146864001Y-96863104D01*
X146834717Y-96833820D01*
X146633097Y-96699102D01*
X146409069Y-96606307D01*
X146171243Y-96559000D01*
X145928757Y-96559000D01*
X145690931Y-96606307D01*
X145466903Y-96699102D01*
X145311520Y-96802925D01*
X145332712Y-96751764D01*
X145356000Y-96634686D01*
X145356000Y-96515314D01*
X145332712Y-96398236D01*
X145287030Y-96287951D01*
X145220711Y-96188698D01*
X145136302Y-96104289D01*
X145037049Y-96037970D01*
X144926764Y-95992288D01*
X144809686Y-95969000D01*
X144690314Y-95969000D01*
X144573236Y-95992288D01*
X144462951Y-96037970D01*
X144363698Y-96104289D01*
X144279289Y-96188698D01*
X144212970Y-96287951D01*
X144167288Y-96398236D01*
X144144000Y-96515314D01*
X144144000Y-96634686D01*
X144167288Y-96751764D01*
X144212970Y-96862049D01*
X144279289Y-96961302D01*
X144363698Y-97045711D01*
X144462951Y-97112030D01*
X144573236Y-97157712D01*
X144690314Y-97181000D01*
X144809686Y-97181000D01*
X144926764Y-97157712D01*
X145016924Y-97120366D01*
X144959102Y-97206903D01*
X144866307Y-97430931D01*
X144819000Y-97668757D01*
X144819000Y-97911243D01*
X144866307Y-98149069D01*
X144959102Y-98373097D01*
X145093820Y-98574717D01*
X145265283Y-98746180D01*
X145466903Y-98880898D01*
X145690931Y-98973693D01*
X145928757Y-99021000D01*
X146171243Y-99021000D01*
X146409069Y-98973693D01*
X146633097Y-98880898D01*
X146834717Y-98746180D01*
X146864001Y-98716896D01*
X146864001Y-99403104D01*
X146834717Y-99373820D01*
X146633097Y-99239102D01*
X146409069Y-99146307D01*
X146171243Y-99099000D01*
X145928757Y-99099000D01*
X145690931Y-99146307D01*
X145466903Y-99239102D01*
X145265283Y-99373820D01*
X145093820Y-99545283D01*
X144959102Y-99746903D01*
X144866307Y-99970931D01*
X144819000Y-100208757D01*
X144819000Y-100451243D01*
X144866307Y-100689069D01*
X144959102Y-100913097D01*
X145093820Y-101114717D01*
X145265283Y-101286180D01*
X145466903Y-101420898D01*
X145690931Y-101513693D01*
X145928757Y-101561000D01*
X146171243Y-101561000D01*
X146409069Y-101513693D01*
X146633097Y-101420898D01*
X146834717Y-101286180D01*
X146864001Y-101256896D01*
X146864001Y-101943104D01*
X146834717Y-101913820D01*
X146633097Y-101779102D01*
X146409069Y-101686307D01*
X146171243Y-101639000D01*
X145928757Y-101639000D01*
X145690931Y-101686307D01*
X145466903Y-101779102D01*
X145265283Y-101913820D01*
X145093820Y-102085283D01*
X144959102Y-102286903D01*
X144866307Y-102510931D01*
X144819000Y-102748757D01*
X144819000Y-102991243D01*
X144866307Y-103229069D01*
X144959102Y-103453097D01*
X145093820Y-103654717D01*
X145265283Y-103826180D01*
X145466903Y-103960898D01*
X145690931Y-104053693D01*
X145928757Y-104101000D01*
X146171243Y-104101000D01*
X146409069Y-104053693D01*
X146633097Y-103960898D01*
X146834717Y-103826180D01*
X146864001Y-103796896D01*
X146864001Y-104483104D01*
X146834717Y-104453820D01*
X146633097Y-104319102D01*
X146409069Y-104226307D01*
X146171243Y-104179000D01*
X145928757Y-104179000D01*
X145690931Y-104226307D01*
X145466903Y-104319102D01*
X145265283Y-104453820D01*
X145093820Y-104625283D01*
X144959102Y-104826903D01*
X144866307Y-105050931D01*
X144819000Y-105288757D01*
X144819000Y-105531243D01*
X144866307Y-105769069D01*
X144959102Y-105993097D01*
X145046530Y-106123942D01*
X144963698Y-106179289D01*
X144879289Y-106263698D01*
X144812970Y-106362951D01*
X144800109Y-106394000D01*
X144720314Y-106394000D01*
X144603236Y-106417288D01*
X144492951Y-106462970D01*
X144393698Y-106529289D01*
X144309289Y-106613698D01*
X144242970Y-106712951D01*
X144197288Y-106823236D01*
X144174000Y-106940314D01*
X144174000Y-107059686D01*
X144197288Y-107176764D01*
X144242970Y-107287049D01*
X144309289Y-107386302D01*
X144393698Y-107470711D01*
X144492951Y-107537030D01*
X144603236Y-107582712D01*
X144720314Y-107606000D01*
X144839686Y-107606000D01*
X144864283Y-107601107D01*
X144858215Y-107631609D01*
X144769686Y-107614000D01*
X144650314Y-107614000D01*
X144533236Y-107637288D01*
X144422951Y-107682970D01*
X144323698Y-107749289D01*
X144239289Y-107833698D01*
X144172970Y-107932951D01*
X144127288Y-108043236D01*
X144104000Y-108160314D01*
X144104000Y-108279686D01*
X144127288Y-108396764D01*
X144172970Y-108507049D01*
X144239289Y-108606302D01*
X144277987Y-108645000D01*
X144249289Y-108673698D01*
X144182970Y-108772951D01*
X144137288Y-108883236D01*
X144114000Y-109000314D01*
X144114000Y-109119686D01*
X144137288Y-109236764D01*
X144182970Y-109347049D01*
X144249289Y-109446302D01*
X144333698Y-109530711D01*
X144432951Y-109597030D01*
X144543236Y-109642712D01*
X144660314Y-109666000D01*
X144779686Y-109666000D01*
X144896764Y-109642712D01*
X145007049Y-109597030D01*
X145106302Y-109530711D01*
X145190711Y-109446302D01*
X145257030Y-109347049D01*
X145302712Y-109236764D01*
X145326000Y-109119686D01*
X145326000Y-109000314D01*
X145313712Y-108938539D01*
X145466903Y-109040898D01*
X145690931Y-109133693D01*
X145928757Y-109181000D01*
X146171243Y-109181000D01*
X146409069Y-109133693D01*
X146633097Y-109040898D01*
X146834717Y-108906180D01*
X146864001Y-108876896D01*
X146864001Y-109563104D01*
X146834717Y-109533820D01*
X146633097Y-109399102D01*
X146409069Y-109306307D01*
X146171243Y-109259000D01*
X145928757Y-109259000D01*
X145690931Y-109306307D01*
X145466903Y-109399102D01*
X145265283Y-109533820D01*
X145093820Y-109705283D01*
X144959102Y-109906903D01*
X144866307Y-110130931D01*
X144819000Y-110368757D01*
X144819000Y-110611243D01*
X144866307Y-110849069D01*
X144959102Y-111073097D01*
X145093820Y-111274717D01*
X145265283Y-111446180D01*
X145466903Y-111580898D01*
X145690931Y-111673693D01*
X145928757Y-111721000D01*
X146171243Y-111721000D01*
X146409069Y-111673693D01*
X146633097Y-111580898D01*
X146834717Y-111446180D01*
X146864001Y-111416896D01*
X146864001Y-112103104D01*
X146834717Y-112073820D01*
X146633097Y-111939102D01*
X146409069Y-111846307D01*
X146171243Y-111799000D01*
X145928757Y-111799000D01*
X145690931Y-111846307D01*
X145466903Y-111939102D01*
X145265283Y-112073820D01*
X145093820Y-112245283D01*
X144959102Y-112446903D01*
X144866307Y-112670931D01*
X144819000Y-112908757D01*
X144819000Y-113151243D01*
X144866307Y-113389069D01*
X144959102Y-113613097D01*
X145093820Y-113814717D01*
X145265283Y-113986180D01*
X145466903Y-114120898D01*
X145690931Y-114213693D01*
X145928757Y-114261000D01*
X146171243Y-114261000D01*
X146409069Y-114213693D01*
X146633097Y-114120898D01*
X146834717Y-113986180D01*
X146864001Y-113956896D01*
X146864001Y-116817684D01*
X146822165Y-117244359D01*
X146704732Y-117633319D01*
X146513987Y-117992058D01*
X146257193Y-118306918D01*
X145944138Y-118565899D01*
X145586734Y-118759147D01*
X145198606Y-118879293D01*
X144773244Y-118924000D01*
X127022305Y-118924000D01*
X126595641Y-118882165D01*
X126206681Y-118764732D01*
X125847942Y-118573987D01*
X125533082Y-118317193D01*
X125274101Y-118004138D01*
X125080853Y-117646734D01*
X124960707Y-117258606D01*
X124916000Y-116833244D01*
X124916000Y-116677391D01*
X125349000Y-116677391D01*
X125349000Y-117002609D01*
X125412447Y-117321579D01*
X125536903Y-117622042D01*
X125717585Y-117892451D01*
X125947549Y-118122415D01*
X126217958Y-118303097D01*
X126518421Y-118427553D01*
X126837391Y-118491000D01*
X127162609Y-118491000D01*
X127481579Y-118427553D01*
X127782042Y-118303097D01*
X128052451Y-118122415D01*
X128282415Y-117892451D01*
X128463097Y-117622042D01*
X128587553Y-117321579D01*
X128651000Y-117002609D01*
X128651000Y-116677391D01*
X143129000Y-116677391D01*
X143129000Y-117002609D01*
X143192447Y-117321579D01*
X143316903Y-117622042D01*
X143497585Y-117892451D01*
X143727549Y-118122415D01*
X143997958Y-118303097D01*
X144298421Y-118427553D01*
X144617391Y-118491000D01*
X144942609Y-118491000D01*
X145261579Y-118427553D01*
X145562042Y-118303097D01*
X145832451Y-118122415D01*
X146062415Y-117892451D01*
X146243097Y-117622042D01*
X146367553Y-117321579D01*
X146431000Y-117002609D01*
X146431000Y-116677391D01*
X146367553Y-116358421D01*
X146243097Y-116057958D01*
X146062415Y-115787549D01*
X145832451Y-115557585D01*
X145562042Y-115376903D01*
X145261579Y-115252447D01*
X144942609Y-115189000D01*
X144617391Y-115189000D01*
X144298421Y-115252447D01*
X143997958Y-115376903D01*
X143727549Y-115557585D01*
X143497585Y-115787549D01*
X143316903Y-116057958D01*
X143192447Y-116358421D01*
X143129000Y-116677391D01*
X128651000Y-116677391D01*
X128587553Y-116358421D01*
X128463097Y-116057958D01*
X128282415Y-115787549D01*
X128052451Y-115557585D01*
X127782042Y-115376903D01*
X127481579Y-115252447D01*
X127162609Y-115189000D01*
X126837391Y-115189000D01*
X126518421Y-115252447D01*
X126217958Y-115376903D01*
X125947549Y-115557585D01*
X125717585Y-115787549D01*
X125536903Y-116057958D01*
X125412447Y-116358421D01*
X125349000Y-116677391D01*
X124916000Y-116677391D01*
X124916000Y-114006635D01*
X125043267Y-114106629D01*
X125266502Y-114219917D01*
X125507549Y-114287477D01*
X125707000Y-114200044D01*
X125707000Y-113053000D01*
X125753000Y-113053000D01*
X125753000Y-114200044D01*
X125952451Y-114287477D01*
X126193498Y-114219917D01*
X126416733Y-114106629D01*
X126613578Y-113951967D01*
X126776467Y-113761874D01*
X126899141Y-113543656D01*
X126976886Y-113305698D01*
X126987476Y-113252451D01*
X126900024Y-113053000D01*
X125753000Y-113053000D01*
X125707000Y-113053000D01*
X125687000Y-113053000D01*
X125687000Y-113007000D01*
X125707000Y-113007000D01*
X125707000Y-111859956D01*
X125753000Y-111859956D01*
X125753000Y-113007000D01*
X126900024Y-113007000D01*
X126987476Y-112807549D01*
X126976886Y-112754302D01*
X126899141Y-112516344D01*
X126776467Y-112298126D01*
X126613578Y-112108033D01*
X126416733Y-111953371D01*
X126193498Y-111840083D01*
X125952451Y-111772523D01*
X125753000Y-111859956D01*
X125707000Y-111859956D01*
X125507549Y-111772523D01*
X125266502Y-111840083D01*
X125043267Y-111953371D01*
X124916000Y-112053365D01*
X124916000Y-111416897D01*
X124945283Y-111446180D01*
X125146903Y-111580898D01*
X125370931Y-111673693D01*
X125608757Y-111721000D01*
X125851243Y-111721000D01*
X126089069Y-111673693D01*
X126313097Y-111580898D01*
X126514717Y-111446180D01*
X126686180Y-111274717D01*
X126820898Y-111073097D01*
X126913693Y-110849069D01*
X126961000Y-110611243D01*
X126961000Y-110368757D01*
X126913693Y-110130931D01*
X126820898Y-109906903D01*
X126686180Y-109705283D01*
X126514717Y-109533820D01*
X126313097Y-109399102D01*
X126089069Y-109306307D01*
X125851243Y-109259000D01*
X125608757Y-109259000D01*
X125370931Y-109306307D01*
X125146903Y-109399102D01*
X124945283Y-109533820D01*
X124916000Y-109563103D01*
X124916000Y-108876897D01*
X124945283Y-108906180D01*
X125146903Y-109040898D01*
X125370931Y-109133693D01*
X125608757Y-109181000D01*
X125851243Y-109181000D01*
X126089069Y-109133693D01*
X126280707Y-109054314D01*
X128946000Y-109054314D01*
X128946000Y-109173686D01*
X128969288Y-109290764D01*
X129014970Y-109401049D01*
X129081289Y-109500302D01*
X129165698Y-109584711D01*
X129264951Y-109651030D01*
X129375236Y-109696712D01*
X129492314Y-109720000D01*
X129611686Y-109720000D01*
X129728764Y-109696712D01*
X129839049Y-109651030D01*
X129938302Y-109584711D01*
X130022711Y-109500302D01*
X130089030Y-109401049D01*
X130134712Y-109290764D01*
X130158000Y-109173686D01*
X130158000Y-109149314D01*
X135029000Y-109149314D01*
X135029000Y-109268686D01*
X135052288Y-109385764D01*
X135097970Y-109496049D01*
X135164289Y-109595302D01*
X135248698Y-109679711D01*
X135347951Y-109746030D01*
X135458236Y-109791712D01*
X135575314Y-109815000D01*
X135694686Y-109815000D01*
X135811764Y-109791712D01*
X135922049Y-109746030D01*
X136003868Y-109691360D01*
X136089980Y-109748899D01*
X136200265Y-109794581D01*
X136317343Y-109817869D01*
X136436715Y-109817869D01*
X136553793Y-109794581D01*
X136664078Y-109748899D01*
X136763331Y-109682580D01*
X136847740Y-109598171D01*
X136914059Y-109498918D01*
X136959741Y-109388633D01*
X136983029Y-109271555D01*
X136983029Y-109152183D01*
X136959741Y-109035105D01*
X136914059Y-108924820D01*
X136847740Y-108825567D01*
X136763331Y-108741158D01*
X136664078Y-108674839D01*
X136553793Y-108629157D01*
X136436715Y-108605869D01*
X136317343Y-108605869D01*
X136200265Y-108629157D01*
X136089980Y-108674839D01*
X136008161Y-108729509D01*
X135922049Y-108671970D01*
X135811764Y-108626288D01*
X135694686Y-108603000D01*
X135575314Y-108603000D01*
X135458236Y-108626288D01*
X135347951Y-108671970D01*
X135248698Y-108738289D01*
X135164289Y-108822698D01*
X135097970Y-108921951D01*
X135052288Y-109032236D01*
X135029000Y-109149314D01*
X130158000Y-109149314D01*
X130158000Y-109054314D01*
X130134712Y-108937236D01*
X130089030Y-108826951D01*
X130022711Y-108727698D01*
X129938302Y-108643289D01*
X129909696Y-108624175D01*
X129949302Y-108597711D01*
X130033711Y-108513302D01*
X130100030Y-108414049D01*
X130145712Y-108303764D01*
X130169000Y-108186686D01*
X130169000Y-108067314D01*
X130145712Y-107950236D01*
X130100030Y-107839951D01*
X130033711Y-107740698D01*
X129949302Y-107656289D01*
X129910227Y-107630180D01*
X129966302Y-107592711D01*
X130050711Y-107508302D01*
X130117030Y-107409049D01*
X130162712Y-107298764D01*
X130186000Y-107181686D01*
X130186000Y-107062314D01*
X130162712Y-106945236D01*
X130117030Y-106834951D01*
X130078519Y-106777314D01*
X138644000Y-106777314D01*
X138644000Y-106896686D01*
X138667288Y-107013764D01*
X138712970Y-107124049D01*
X138779289Y-107223302D01*
X138863698Y-107307711D01*
X138889821Y-107325166D01*
X138828289Y-107386698D01*
X138761970Y-107485951D01*
X138716288Y-107596236D01*
X138693000Y-107713314D01*
X138693000Y-107832686D01*
X138716288Y-107949764D01*
X138761970Y-108060049D01*
X138828289Y-108159302D01*
X138912698Y-108243711D01*
X139011951Y-108310030D01*
X139122236Y-108355712D01*
X139239314Y-108379000D01*
X139358686Y-108379000D01*
X139475764Y-108355712D01*
X139586049Y-108310030D01*
X139685302Y-108243711D01*
X139769711Y-108159302D01*
X139836030Y-108060049D01*
X139881712Y-107949764D01*
X139905000Y-107832686D01*
X139905000Y-107782716D01*
X139933007Y-107788287D01*
X140052379Y-107788287D01*
X140169457Y-107764999D01*
X140279742Y-107719317D01*
X140378995Y-107652998D01*
X140463404Y-107568589D01*
X140529723Y-107469336D01*
X140575405Y-107359051D01*
X140598693Y-107241973D01*
X140598693Y-107122601D01*
X140575405Y-107005523D01*
X140529723Y-106895238D01*
X140463404Y-106795985D01*
X140378995Y-106711576D01*
X140279742Y-106645257D01*
X140169457Y-106599575D01*
X140052379Y-106576287D01*
X139933007Y-106576287D01*
X139815929Y-106599575D01*
X139808807Y-106602525D01*
X139787030Y-106549951D01*
X139720711Y-106450698D01*
X139636302Y-106366289D01*
X139537049Y-106299970D01*
X139426764Y-106254288D01*
X139309686Y-106231000D01*
X139190314Y-106231000D01*
X139073236Y-106254288D01*
X138962951Y-106299970D01*
X138863698Y-106366289D01*
X138779289Y-106450698D01*
X138712970Y-106549951D01*
X138667288Y-106660236D01*
X138644000Y-106777314D01*
X130078519Y-106777314D01*
X130050711Y-106735698D01*
X129966302Y-106651289D01*
X129867049Y-106584970D01*
X129756764Y-106539288D01*
X129639686Y-106516000D01*
X129520314Y-106516000D01*
X129403236Y-106539288D01*
X129292951Y-106584970D01*
X129193698Y-106651289D01*
X129109289Y-106735698D01*
X129042970Y-106834951D01*
X128997288Y-106945236D01*
X128974000Y-107062314D01*
X128974000Y-107181686D01*
X128997288Y-107298764D01*
X129042970Y-107409049D01*
X129109289Y-107508302D01*
X129193698Y-107592711D01*
X129232773Y-107618820D01*
X129176698Y-107656289D01*
X129092289Y-107740698D01*
X129025970Y-107839951D01*
X128980288Y-107950236D01*
X128957000Y-108067314D01*
X128957000Y-108186686D01*
X128980288Y-108303764D01*
X129025970Y-108414049D01*
X129092289Y-108513302D01*
X129176698Y-108597711D01*
X129205304Y-108616825D01*
X129165698Y-108643289D01*
X129081289Y-108727698D01*
X129014970Y-108826951D01*
X128969288Y-108937236D01*
X128946000Y-109054314D01*
X126280707Y-109054314D01*
X126313097Y-109040898D01*
X126514717Y-108906180D01*
X126686180Y-108734717D01*
X126820898Y-108533097D01*
X126913693Y-108309069D01*
X126961000Y-108071243D01*
X126961000Y-107828757D01*
X126913693Y-107590931D01*
X126820898Y-107366903D01*
X126686180Y-107165283D01*
X126514717Y-106993820D01*
X126313097Y-106859102D01*
X126089069Y-106766307D01*
X125851243Y-106719000D01*
X125608757Y-106719000D01*
X125370931Y-106766307D01*
X125146903Y-106859102D01*
X124945283Y-106993820D01*
X124916000Y-107023103D01*
X124916000Y-106336897D01*
X124945283Y-106366180D01*
X125146903Y-106500898D01*
X125370931Y-106593693D01*
X125608757Y-106641000D01*
X125851243Y-106641000D01*
X126089069Y-106593693D01*
X126313097Y-106500898D01*
X126514717Y-106366180D01*
X126686180Y-106194717D01*
X126820898Y-105993097D01*
X126913693Y-105769069D01*
X126961000Y-105531243D01*
X126961000Y-105288757D01*
X126913693Y-105050931D01*
X126820898Y-104826903D01*
X126802168Y-104798872D01*
X126876349Y-104829599D01*
X126993427Y-104852887D01*
X127112799Y-104852887D01*
X127229877Y-104829599D01*
X127340162Y-104783917D01*
X127439415Y-104717598D01*
X127523824Y-104633189D01*
X127590143Y-104533936D01*
X127635825Y-104423651D01*
X127659113Y-104306573D01*
X127659113Y-104260314D01*
X143941590Y-104260314D01*
X143941590Y-104379686D01*
X143964878Y-104496764D01*
X144010560Y-104607049D01*
X144076879Y-104706302D01*
X144161288Y-104790711D01*
X144260541Y-104857030D01*
X144370826Y-104902712D01*
X144487904Y-104926000D01*
X144607276Y-104926000D01*
X144724354Y-104902712D01*
X144834639Y-104857030D01*
X144933892Y-104790711D01*
X145018301Y-104706302D01*
X145084620Y-104607049D01*
X145130302Y-104496764D01*
X145153590Y-104379686D01*
X145153590Y-104260314D01*
X145130302Y-104143236D01*
X145084620Y-104032951D01*
X145018301Y-103933698D01*
X144933892Y-103849289D01*
X144834639Y-103782970D01*
X144724354Y-103737288D01*
X144607276Y-103714000D01*
X144487904Y-103714000D01*
X144370826Y-103737288D01*
X144260541Y-103782970D01*
X144161288Y-103849289D01*
X144076879Y-103933698D01*
X144010560Y-104032951D01*
X143964878Y-104143236D01*
X143941590Y-104260314D01*
X127659113Y-104260314D01*
X127659113Y-104187201D01*
X127635825Y-104070123D01*
X127590143Y-103959838D01*
X127552905Y-103904108D01*
X127570711Y-103886302D01*
X127637030Y-103787049D01*
X127682712Y-103676764D01*
X127706000Y-103559686D01*
X127706000Y-103440314D01*
X127682712Y-103323236D01*
X127637030Y-103212951D01*
X127570711Y-103113698D01*
X127486302Y-103029289D01*
X127387049Y-102962970D01*
X127276764Y-102917288D01*
X127159686Y-102894000D01*
X127040314Y-102894000D01*
X126961000Y-102909776D01*
X126961000Y-102748757D01*
X126913693Y-102510931D01*
X126820898Y-102286903D01*
X126702108Y-102109121D01*
X126763698Y-102170711D01*
X126862951Y-102237030D01*
X126973236Y-102282712D01*
X127090314Y-102306000D01*
X127209686Y-102306000D01*
X127326764Y-102282712D01*
X127437049Y-102237030D01*
X127536302Y-102170711D01*
X127620711Y-102086302D01*
X127634734Y-102065314D01*
X128919000Y-102065314D01*
X128919000Y-102184686D01*
X128942288Y-102301764D01*
X128987970Y-102412049D01*
X129054289Y-102511302D01*
X129138698Y-102595711D01*
X129237951Y-102662030D01*
X129348236Y-102707712D01*
X129465314Y-102731000D01*
X129584686Y-102731000D01*
X129701764Y-102707712D01*
X129812049Y-102662030D01*
X129911302Y-102595711D01*
X129995711Y-102511302D01*
X130062030Y-102412049D01*
X130107712Y-102301764D01*
X130131000Y-102184686D01*
X130131000Y-102065314D01*
X130126028Y-102040314D01*
X133044000Y-102040314D01*
X133044000Y-102159686D01*
X133067288Y-102276764D01*
X133112970Y-102387049D01*
X133179289Y-102486302D01*
X133263698Y-102570711D01*
X133362951Y-102637030D01*
X133473236Y-102682712D01*
X133590314Y-102706000D01*
X133709686Y-102706000D01*
X133826764Y-102682712D01*
X133937049Y-102637030D01*
X134036302Y-102570711D01*
X134120711Y-102486302D01*
X134187030Y-102387049D01*
X134232712Y-102276764D01*
X134256000Y-102159686D01*
X134256000Y-102040314D01*
X134232712Y-101923236D01*
X134187030Y-101812951D01*
X134120711Y-101713698D01*
X134036302Y-101629289D01*
X133937049Y-101562970D01*
X133826764Y-101517288D01*
X133709686Y-101494000D01*
X133590314Y-101494000D01*
X133473236Y-101517288D01*
X133362951Y-101562970D01*
X133263698Y-101629289D01*
X133179289Y-101713698D01*
X133112970Y-101812951D01*
X133067288Y-101923236D01*
X133044000Y-102040314D01*
X130126028Y-102040314D01*
X130107712Y-101948236D01*
X130062030Y-101837951D01*
X129995711Y-101738698D01*
X129911302Y-101654289D01*
X129812049Y-101587970D01*
X129701764Y-101542288D01*
X129584686Y-101519000D01*
X129465314Y-101519000D01*
X129348236Y-101542288D01*
X129237951Y-101587970D01*
X129138698Y-101654289D01*
X129054289Y-101738698D01*
X128987970Y-101837951D01*
X128942288Y-101948236D01*
X128919000Y-102065314D01*
X127634734Y-102065314D01*
X127687030Y-101987049D01*
X127732712Y-101876764D01*
X127756000Y-101759686D01*
X127756000Y-101640314D01*
X127732712Y-101523236D01*
X127687030Y-101412951D01*
X127620711Y-101313698D01*
X127536302Y-101229289D01*
X127437049Y-101162970D01*
X127326764Y-101117288D01*
X127209686Y-101094000D01*
X127090314Y-101094000D01*
X126973236Y-101117288D01*
X126862951Y-101162970D01*
X126763698Y-101229289D01*
X126679289Y-101313698D01*
X126612970Y-101412951D01*
X126567288Y-101523236D01*
X126544000Y-101640314D01*
X126544000Y-101759686D01*
X126567288Y-101876764D01*
X126612970Y-101987049D01*
X126663361Y-102062464D01*
X126514717Y-101913820D01*
X126313097Y-101779102D01*
X126089069Y-101686307D01*
X125851243Y-101639000D01*
X125608757Y-101639000D01*
X125370931Y-101686307D01*
X125146903Y-101779102D01*
X124945283Y-101913820D01*
X124916000Y-101943103D01*
X124916000Y-101256897D01*
X124945283Y-101286180D01*
X125146903Y-101420898D01*
X125370931Y-101513693D01*
X125608757Y-101561000D01*
X125851243Y-101561000D01*
X126089069Y-101513693D01*
X126313097Y-101420898D01*
X126514717Y-101286180D01*
X126686180Y-101114717D01*
X126820898Y-100913097D01*
X126913693Y-100689069D01*
X126961000Y-100451243D01*
X126961000Y-100208757D01*
X126913693Y-99970931D01*
X126820898Y-99746903D01*
X126686180Y-99545283D01*
X126514717Y-99373820D01*
X126313097Y-99239102D01*
X126089069Y-99146307D01*
X125851243Y-99099000D01*
X125608757Y-99099000D01*
X125370931Y-99146307D01*
X125146903Y-99239102D01*
X124945283Y-99373820D01*
X124916000Y-99403103D01*
X124916000Y-98716897D01*
X124945283Y-98746180D01*
X125146903Y-98880898D01*
X125370931Y-98973693D01*
X125608757Y-99021000D01*
X125851243Y-99021000D01*
X126089069Y-98973693D01*
X126313097Y-98880898D01*
X126398000Y-98824168D01*
X126398000Y-98841686D01*
X126421288Y-98958764D01*
X126466970Y-99069049D01*
X126533289Y-99168302D01*
X126617698Y-99252711D01*
X126716951Y-99319030D01*
X126827236Y-99364712D01*
X126944314Y-99388000D01*
X127063686Y-99388000D01*
X127180764Y-99364712D01*
X127291049Y-99319030D01*
X127390302Y-99252711D01*
X127474711Y-99168302D01*
X127541030Y-99069049D01*
X127548790Y-99050314D01*
X144034000Y-99050314D01*
X144034000Y-99169686D01*
X144057288Y-99286764D01*
X144102970Y-99397049D01*
X144169289Y-99496302D01*
X144253698Y-99580711D01*
X144352951Y-99647030D01*
X144463236Y-99692712D01*
X144580314Y-99716000D01*
X144699686Y-99716000D01*
X144816764Y-99692712D01*
X144927049Y-99647030D01*
X145026302Y-99580711D01*
X145110711Y-99496302D01*
X145177030Y-99397049D01*
X145222712Y-99286764D01*
X145246000Y-99169686D01*
X145246000Y-99050314D01*
X145222712Y-98933236D01*
X145177030Y-98822951D01*
X145110711Y-98723698D01*
X145026302Y-98639289D01*
X144927049Y-98572970D01*
X144816764Y-98527288D01*
X144699686Y-98504000D01*
X144580314Y-98504000D01*
X144463236Y-98527288D01*
X144352951Y-98572970D01*
X144253698Y-98639289D01*
X144169289Y-98723698D01*
X144102970Y-98822951D01*
X144057288Y-98933236D01*
X144034000Y-99050314D01*
X127548790Y-99050314D01*
X127586712Y-98958764D01*
X127610000Y-98841686D01*
X127610000Y-98722314D01*
X127586712Y-98605236D01*
X127541030Y-98494951D01*
X127474711Y-98395698D01*
X127443165Y-98364152D01*
X127454302Y-98356711D01*
X127538711Y-98272302D01*
X127605030Y-98173049D01*
X127650712Y-98062764D01*
X127674000Y-97945686D01*
X127674000Y-97826314D01*
X127650712Y-97709236D01*
X127605030Y-97598951D01*
X127538711Y-97499698D01*
X127523781Y-97484768D01*
X127569030Y-97417049D01*
X127614712Y-97306764D01*
X127638000Y-97189686D01*
X127638000Y-97070314D01*
X127614712Y-96953236D01*
X127569030Y-96842951D01*
X127502711Y-96743698D01*
X127462895Y-96703882D01*
X127476463Y-96690314D01*
X129044000Y-96690314D01*
X129044000Y-96809686D01*
X129067288Y-96926764D01*
X129112970Y-97037049D01*
X129179289Y-97136302D01*
X129263698Y-97220711D01*
X129362951Y-97287030D01*
X129473236Y-97332712D01*
X129590314Y-97356000D01*
X129709686Y-97356000D01*
X129826764Y-97332712D01*
X129937049Y-97287030D01*
X130036302Y-97220711D01*
X130120711Y-97136302D01*
X130187030Y-97037049D01*
X130232712Y-96926764D01*
X130256000Y-96809686D01*
X130256000Y-96690314D01*
X130232712Y-96573236D01*
X130187030Y-96462951D01*
X130120711Y-96363698D01*
X130036302Y-96279289D01*
X129937049Y-96212970D01*
X129826764Y-96167288D01*
X129709686Y-96144000D01*
X129590314Y-96144000D01*
X129473236Y-96167288D01*
X129362951Y-96212970D01*
X129263698Y-96279289D01*
X129179289Y-96363698D01*
X129112970Y-96462951D01*
X129067288Y-96573236D01*
X129044000Y-96690314D01*
X127476463Y-96690314D01*
X127506320Y-96660457D01*
X127572639Y-96561204D01*
X127618321Y-96450919D01*
X127641609Y-96333841D01*
X127641609Y-96214469D01*
X127626660Y-96139314D01*
X131895000Y-96139314D01*
X131895000Y-96258686D01*
X131918288Y-96375764D01*
X131963970Y-96486049D01*
X132030289Y-96585302D01*
X132114698Y-96669711D01*
X132213951Y-96736030D01*
X132324236Y-96781712D01*
X132441314Y-96805000D01*
X132560686Y-96805000D01*
X132677764Y-96781712D01*
X132788049Y-96736030D01*
X132887302Y-96669711D01*
X132971711Y-96585302D01*
X133038030Y-96486049D01*
X133083712Y-96375764D01*
X133107000Y-96258686D01*
X133107000Y-96139314D01*
X133083712Y-96022236D01*
X133041495Y-95920314D01*
X138784000Y-95920314D01*
X138784000Y-96039686D01*
X138807288Y-96156764D01*
X138852970Y-96267049D01*
X138919289Y-96366302D01*
X139003698Y-96450711D01*
X139102951Y-96517030D01*
X139213236Y-96562712D01*
X139330314Y-96586000D01*
X139449686Y-96586000D01*
X139566764Y-96562712D01*
X139677049Y-96517030D01*
X139776302Y-96450711D01*
X139860711Y-96366302D01*
X139927030Y-96267049D01*
X139972712Y-96156764D01*
X139996000Y-96039686D01*
X139996000Y-95920314D01*
X139972712Y-95803236D01*
X139927030Y-95692951D01*
X139860711Y-95593698D01*
X139776302Y-95509289D01*
X139677049Y-95442970D01*
X139566764Y-95397288D01*
X139449686Y-95374000D01*
X139330314Y-95374000D01*
X139213236Y-95397288D01*
X139102951Y-95442970D01*
X139003698Y-95509289D01*
X138919289Y-95593698D01*
X138852970Y-95692951D01*
X138807288Y-95803236D01*
X138784000Y-95920314D01*
X133041495Y-95920314D01*
X133038030Y-95911951D01*
X132971711Y-95812698D01*
X132887302Y-95728289D01*
X132788049Y-95661970D01*
X132677764Y-95616288D01*
X132560686Y-95593000D01*
X132441314Y-95593000D01*
X132324236Y-95616288D01*
X132213951Y-95661970D01*
X132114698Y-95728289D01*
X132030289Y-95812698D01*
X131963970Y-95911951D01*
X131918288Y-96022236D01*
X131895000Y-96139314D01*
X127626660Y-96139314D01*
X127618321Y-96097391D01*
X127572639Y-95987106D01*
X127506320Y-95887853D01*
X127421911Y-95803444D01*
X127322658Y-95737125D01*
X127212373Y-95691443D01*
X127095295Y-95668155D01*
X126975923Y-95668155D01*
X126881434Y-95686950D01*
X126913693Y-95609069D01*
X126961000Y-95371243D01*
X126961000Y-95128757D01*
X126942449Y-95035494D01*
X127601138Y-95035494D01*
X127601138Y-95154866D01*
X127624426Y-95271944D01*
X127670108Y-95382229D01*
X127736427Y-95481482D01*
X127820836Y-95565891D01*
X127920089Y-95632210D01*
X128030374Y-95677892D01*
X128147452Y-95701180D01*
X128266824Y-95701180D01*
X128383902Y-95677892D01*
X128494187Y-95632210D01*
X128593440Y-95565891D01*
X128615969Y-95543362D01*
X128706643Y-95603949D01*
X128816928Y-95649631D01*
X128934006Y-95672919D01*
X129053378Y-95672919D01*
X129170456Y-95649631D01*
X129280741Y-95603949D01*
X129379994Y-95537630D01*
X129464403Y-95453221D01*
X129530722Y-95353968D01*
X129576404Y-95243683D01*
X129599692Y-95126605D01*
X129599692Y-95007233D01*
X129576404Y-94890155D01*
X129530722Y-94779870D01*
X129464403Y-94680617D01*
X129379994Y-94596208D01*
X129280741Y-94529889D01*
X129170456Y-94484207D01*
X129053378Y-94460919D01*
X128934006Y-94460919D01*
X128816928Y-94484207D01*
X128706643Y-94529889D01*
X128607390Y-94596208D01*
X128584861Y-94618737D01*
X128494187Y-94558150D01*
X128383902Y-94512468D01*
X128266824Y-94489180D01*
X128147452Y-94489180D01*
X128030374Y-94512468D01*
X127920089Y-94558150D01*
X127820836Y-94624469D01*
X127736427Y-94708878D01*
X127670108Y-94808131D01*
X127624426Y-94918416D01*
X127601138Y-95035494D01*
X126942449Y-95035494D01*
X126913693Y-94890931D01*
X126820898Y-94666903D01*
X126686180Y-94465283D01*
X126583824Y-94362927D01*
X136709262Y-94362927D01*
X136709262Y-94497073D01*
X136735433Y-94628640D01*
X136786768Y-94752574D01*
X136861295Y-94864112D01*
X136956150Y-94958967D01*
X137067688Y-95033494D01*
X137191622Y-95084829D01*
X137323189Y-95111000D01*
X137457335Y-95111000D01*
X137588902Y-95084829D01*
X137712836Y-95033494D01*
X137824374Y-94958967D01*
X137919229Y-94864112D01*
X137993756Y-94752574D01*
X138045091Y-94628640D01*
X138071262Y-94497073D01*
X138071262Y-94410314D01*
X141614000Y-94410314D01*
X141614000Y-94529686D01*
X141637288Y-94646764D01*
X141682970Y-94757049D01*
X141749289Y-94856302D01*
X141833698Y-94940711D01*
X141932951Y-95007030D01*
X142043236Y-95052712D01*
X142160314Y-95076000D01*
X142279686Y-95076000D01*
X142396764Y-95052712D01*
X142507049Y-95007030D01*
X142606302Y-94940711D01*
X142690711Y-94856302D01*
X142757030Y-94757049D01*
X142802712Y-94646764D01*
X142826000Y-94529686D01*
X142826000Y-94410314D01*
X142802712Y-94293236D01*
X142757030Y-94182951D01*
X142690711Y-94083698D01*
X142606302Y-93999289D01*
X142507049Y-93932970D01*
X142396764Y-93887288D01*
X142279686Y-93864000D01*
X142160314Y-93864000D01*
X142043236Y-93887288D01*
X141932951Y-93932970D01*
X141833698Y-93999289D01*
X141749289Y-94083698D01*
X141682970Y-94182951D01*
X141637288Y-94293236D01*
X141614000Y-94410314D01*
X138071262Y-94410314D01*
X138071262Y-94362927D01*
X138045091Y-94231360D01*
X137993756Y-94107426D01*
X137919229Y-93995888D01*
X137824374Y-93901033D01*
X137712836Y-93826506D01*
X137588902Y-93775171D01*
X137457335Y-93749000D01*
X137323189Y-93749000D01*
X137191622Y-93775171D01*
X137067688Y-93826506D01*
X136956150Y-93901033D01*
X136861295Y-93995888D01*
X136786768Y-94107426D01*
X136735433Y-94231360D01*
X136709262Y-94362927D01*
X126583824Y-94362927D01*
X126514717Y-94293820D01*
X126313097Y-94159102D01*
X126089069Y-94066307D01*
X125851243Y-94019000D01*
X125608757Y-94019000D01*
X125370931Y-94066307D01*
X125146903Y-94159102D01*
X124945283Y-94293820D01*
X124916000Y-94323103D01*
X124916000Y-93636897D01*
X124945283Y-93666180D01*
X125146903Y-93800898D01*
X125370931Y-93893693D01*
X125608757Y-93941000D01*
X125851243Y-93941000D01*
X126089069Y-93893693D01*
X126148527Y-93869065D01*
X126176879Y-93911497D01*
X126261288Y-93995906D01*
X126360541Y-94062225D01*
X126470826Y-94107907D01*
X126587904Y-94131195D01*
X126707276Y-94131195D01*
X126824354Y-94107907D01*
X126934639Y-94062225D01*
X127033892Y-93995906D01*
X127118301Y-93911497D01*
X127184620Y-93812244D01*
X127230302Y-93701959D01*
X127253590Y-93584881D01*
X127253590Y-93465509D01*
X127230302Y-93348431D01*
X127185519Y-93240314D01*
X132694000Y-93240314D01*
X132694000Y-93359686D01*
X132717288Y-93476764D01*
X132762970Y-93587049D01*
X132829289Y-93686302D01*
X132913698Y-93770711D01*
X133012951Y-93837030D01*
X133123236Y-93882712D01*
X133240314Y-93906000D01*
X133359686Y-93906000D01*
X133476764Y-93882712D01*
X133587049Y-93837030D01*
X133686302Y-93770711D01*
X133770711Y-93686302D01*
X133837030Y-93587049D01*
X133882712Y-93476764D01*
X133906000Y-93359686D01*
X133906000Y-93270314D01*
X138414000Y-93270314D01*
X138414000Y-93389686D01*
X138437288Y-93506764D01*
X138482970Y-93617049D01*
X138549289Y-93716302D01*
X138633698Y-93800711D01*
X138732951Y-93867030D01*
X138843236Y-93912712D01*
X138960314Y-93936000D01*
X139079686Y-93936000D01*
X139196764Y-93912712D01*
X139307049Y-93867030D01*
X139406302Y-93800711D01*
X139490711Y-93716302D01*
X139557030Y-93617049D01*
X139602712Y-93506764D01*
X139626000Y-93389686D01*
X139626000Y-93340314D01*
X139984000Y-93340314D01*
X139984000Y-93459686D01*
X140007288Y-93576764D01*
X140052970Y-93687049D01*
X140119289Y-93786302D01*
X140203698Y-93870711D01*
X140302951Y-93937030D01*
X140413236Y-93982712D01*
X140530314Y-94006000D01*
X140649686Y-94006000D01*
X140766764Y-93982712D01*
X140877049Y-93937030D01*
X140976302Y-93870711D01*
X141060711Y-93786302D01*
X141127030Y-93687049D01*
X141172712Y-93576764D01*
X141196000Y-93459686D01*
X141196000Y-93340314D01*
X141172712Y-93223236D01*
X141127030Y-93112951D01*
X141060711Y-93013698D01*
X140976302Y-92929289D01*
X140877049Y-92862970D01*
X140766764Y-92817288D01*
X140649686Y-92794000D01*
X140530314Y-92794000D01*
X140413236Y-92817288D01*
X140302951Y-92862970D01*
X140203698Y-92929289D01*
X140119289Y-93013698D01*
X140052970Y-93112951D01*
X140007288Y-93223236D01*
X139984000Y-93340314D01*
X139626000Y-93340314D01*
X139626000Y-93270314D01*
X139602712Y-93153236D01*
X139557030Y-93042951D01*
X139490711Y-92943698D01*
X139406302Y-92859289D01*
X139307049Y-92792970D01*
X139196764Y-92747288D01*
X139079686Y-92724000D01*
X138960314Y-92724000D01*
X138843236Y-92747288D01*
X138732951Y-92792970D01*
X138633698Y-92859289D01*
X138549289Y-92943698D01*
X138482970Y-93042951D01*
X138437288Y-93153236D01*
X138414000Y-93270314D01*
X133906000Y-93270314D01*
X133906000Y-93240314D01*
X133882712Y-93123236D01*
X133837030Y-93012951D01*
X133770711Y-92913698D01*
X133686302Y-92829289D01*
X133587049Y-92762970D01*
X133476764Y-92717288D01*
X133359686Y-92694000D01*
X133240314Y-92694000D01*
X133123236Y-92717288D01*
X133012951Y-92762970D01*
X132913698Y-92829289D01*
X132829289Y-92913698D01*
X132762970Y-93012951D01*
X132717288Y-93123236D01*
X132694000Y-93240314D01*
X127185519Y-93240314D01*
X127184620Y-93238146D01*
X127118301Y-93138893D01*
X127033892Y-93054484D01*
X126934639Y-92988165D01*
X126930155Y-92986308D01*
X126961000Y-92831243D01*
X126961000Y-92588757D01*
X126913693Y-92350931D01*
X126820898Y-92126903D01*
X126686180Y-91925283D01*
X126514717Y-91753820D01*
X126313097Y-91619102D01*
X126089069Y-91526307D01*
X125851243Y-91479000D01*
X125608757Y-91479000D01*
X125370931Y-91526307D01*
X125146903Y-91619102D01*
X124945283Y-91753820D01*
X124916000Y-91783103D01*
X124916000Y-91470455D01*
X129026620Y-91470455D01*
X129026620Y-91589827D01*
X129049908Y-91706905D01*
X129095590Y-91817190D01*
X129161909Y-91916443D01*
X129246318Y-92000852D01*
X129345571Y-92067171D01*
X129455856Y-92112853D01*
X129572934Y-92136141D01*
X129692306Y-92136141D01*
X129809384Y-92112853D01*
X129919669Y-92067171D01*
X130018922Y-92000852D01*
X130103331Y-91916443D01*
X130169650Y-91817190D01*
X130208423Y-91723584D01*
X130240942Y-91772252D01*
X130325351Y-91856661D01*
X130424604Y-91922980D01*
X130534889Y-91968662D01*
X130651967Y-91991950D01*
X130771339Y-91991950D01*
X130888417Y-91968662D01*
X130998702Y-91922980D01*
X131097955Y-91856661D01*
X131182364Y-91772252D01*
X131205349Y-91737852D01*
X133669000Y-91737852D01*
X133669000Y-91862148D01*
X133693249Y-91984056D01*
X133740815Y-92098891D01*
X133741556Y-92100000D01*
X133740815Y-92101109D01*
X133693249Y-92215944D01*
X133669000Y-92337852D01*
X133669000Y-92462148D01*
X133693249Y-92584056D01*
X133740815Y-92698891D01*
X133809870Y-92802239D01*
X133897761Y-92890130D01*
X134001109Y-92959185D01*
X134115944Y-93006751D01*
X134237852Y-93031000D01*
X134362148Y-93031000D01*
X134484056Y-93006751D01*
X134598891Y-92959185D01*
X134702239Y-92890130D01*
X134790130Y-92802239D01*
X134859185Y-92698891D01*
X134906751Y-92584056D01*
X134916799Y-92533537D01*
X136680767Y-92533537D01*
X136680767Y-92652909D01*
X136704055Y-92769987D01*
X136749737Y-92880272D01*
X136816056Y-92979525D01*
X136900465Y-93063934D01*
X136999718Y-93130253D01*
X137110003Y-93175935D01*
X137227081Y-93199223D01*
X137346453Y-93199223D01*
X137463531Y-93175935D01*
X137573816Y-93130253D01*
X137673069Y-93063934D01*
X137757478Y-92979525D01*
X137823797Y-92880272D01*
X137869479Y-92769987D01*
X137892767Y-92652909D01*
X137892767Y-92637852D01*
X141869000Y-92637852D01*
X141869000Y-92762148D01*
X141893249Y-92884056D01*
X141940815Y-92998891D01*
X142009870Y-93102239D01*
X142097761Y-93190130D01*
X142201109Y-93259185D01*
X142315944Y-93306751D01*
X142437852Y-93331000D01*
X142562148Y-93331000D01*
X142684056Y-93306751D01*
X142798891Y-93259185D01*
X142902239Y-93190130D01*
X142990130Y-93102239D01*
X143059185Y-92998891D01*
X143106751Y-92884056D01*
X143131000Y-92762148D01*
X143131000Y-92637852D01*
X143106751Y-92515944D01*
X143059185Y-92401109D01*
X142990130Y-92297761D01*
X142902239Y-92209870D01*
X142798891Y-92140815D01*
X142684056Y-92093249D01*
X142562148Y-92069000D01*
X142437852Y-92069000D01*
X142315944Y-92093249D01*
X142201109Y-92140815D01*
X142097761Y-92209870D01*
X142009870Y-92297761D01*
X141940815Y-92401109D01*
X141893249Y-92515944D01*
X141869000Y-92637852D01*
X137892767Y-92637852D01*
X137892767Y-92533537D01*
X137869479Y-92416459D01*
X137823797Y-92306174D01*
X137757478Y-92206921D01*
X137673069Y-92122512D01*
X137573816Y-92056193D01*
X137463531Y-92010511D01*
X137346453Y-91987223D01*
X137227081Y-91987223D01*
X137110003Y-92010511D01*
X136999718Y-92056193D01*
X136900465Y-92122512D01*
X136816056Y-92206921D01*
X136749737Y-92306174D01*
X136704055Y-92416459D01*
X136680767Y-92533537D01*
X134916799Y-92533537D01*
X134931000Y-92462148D01*
X134931000Y-92337852D01*
X134906751Y-92215944D01*
X134859185Y-92101109D01*
X134858444Y-92100000D01*
X134859185Y-92098891D01*
X134906751Y-91984056D01*
X134931000Y-91862148D01*
X134931000Y-91737852D01*
X134906751Y-91615944D01*
X134859185Y-91501109D01*
X134848306Y-91484827D01*
X134882712Y-91401764D01*
X134906000Y-91284686D01*
X134906000Y-91165314D01*
X134882712Y-91048236D01*
X134837030Y-90937951D01*
X134770711Y-90838698D01*
X134686302Y-90754289D01*
X134587049Y-90687970D01*
X134476764Y-90642288D01*
X134359686Y-90619000D01*
X134240314Y-90619000D01*
X134123236Y-90642288D01*
X134012951Y-90687970D01*
X133913698Y-90754289D01*
X133829289Y-90838698D01*
X133762970Y-90937951D01*
X133717288Y-91048236D01*
X133694000Y-91165314D01*
X133694000Y-91284686D01*
X133717288Y-91401764D01*
X133751694Y-91484827D01*
X133740815Y-91501109D01*
X133693249Y-91615944D01*
X133669000Y-91737852D01*
X131205349Y-91737852D01*
X131248683Y-91672999D01*
X131294365Y-91562714D01*
X131317653Y-91445636D01*
X131317653Y-91326264D01*
X131294365Y-91209186D01*
X131248683Y-91098901D01*
X131207832Y-91037763D01*
X131270295Y-90944280D01*
X131315977Y-90833995D01*
X131339265Y-90716917D01*
X131339265Y-90597545D01*
X131315977Y-90480467D01*
X131270295Y-90370182D01*
X131203976Y-90270929D01*
X131119567Y-90186520D01*
X131020314Y-90120201D01*
X130910029Y-90074519D01*
X130792951Y-90051231D01*
X130673579Y-90051231D01*
X130556501Y-90074519D01*
X130446216Y-90120201D01*
X130346963Y-90186520D01*
X130262554Y-90270929D01*
X130196235Y-90370182D01*
X130150553Y-90480467D01*
X130127265Y-90597545D01*
X130127265Y-90716917D01*
X130150553Y-90833995D01*
X130196235Y-90944280D01*
X130237086Y-91005418D01*
X130174623Y-91098901D01*
X130135850Y-91192507D01*
X130103331Y-91143839D01*
X130018922Y-91059430D01*
X129919669Y-90993111D01*
X129809384Y-90947429D01*
X129692306Y-90924141D01*
X129572934Y-90924141D01*
X129455856Y-90947429D01*
X129345571Y-90993111D01*
X129246318Y-91059430D01*
X129161909Y-91143839D01*
X129095590Y-91243092D01*
X129049908Y-91353377D01*
X129026620Y-91470455D01*
X124916000Y-91470455D01*
X124916000Y-91096897D01*
X124945283Y-91126180D01*
X125146903Y-91260898D01*
X125370931Y-91353693D01*
X125608757Y-91401000D01*
X125851243Y-91401000D01*
X126089069Y-91353693D01*
X126313097Y-91260898D01*
X126514717Y-91126180D01*
X126686180Y-90954717D01*
X126820898Y-90753097D01*
X126913693Y-90529069D01*
X126961000Y-90291243D01*
X126961000Y-90048757D01*
X126913693Y-89810931D01*
X126820898Y-89586903D01*
X126686180Y-89385283D01*
X126514717Y-89213820D01*
X126313097Y-89079102D01*
X126089069Y-88986307D01*
X125851243Y-88939000D01*
X125608757Y-88939000D01*
X125370931Y-88986307D01*
X125146903Y-89079102D01*
X124945283Y-89213820D01*
X124916000Y-89243103D01*
X124916000Y-88556897D01*
X124945283Y-88586180D01*
X125146903Y-88720898D01*
X125370931Y-88813693D01*
X125608757Y-88861000D01*
X125851243Y-88861000D01*
X126089069Y-88813693D01*
X126263496Y-88741443D01*
X126326879Y-88836302D01*
X126411288Y-88920711D01*
X126510541Y-88987030D01*
X126620826Y-89032712D01*
X126737904Y-89056000D01*
X126857276Y-89056000D01*
X126974354Y-89032712D01*
X127084639Y-88987030D01*
X127183892Y-88920711D01*
X127268301Y-88836302D01*
X127318482Y-88761200D01*
X130002734Y-88761200D01*
X130002734Y-88880572D01*
X130026022Y-88997650D01*
X130071704Y-89107935D01*
X130138023Y-89207188D01*
X130222432Y-89291597D01*
X130321685Y-89357916D01*
X130431970Y-89403598D01*
X130549048Y-89426886D01*
X130668420Y-89426886D01*
X130785498Y-89403598D01*
X130895783Y-89357916D01*
X130995036Y-89291597D01*
X131079445Y-89207188D01*
X131118938Y-89148082D01*
X133584784Y-89148082D01*
X133584784Y-89267454D01*
X133608072Y-89384532D01*
X133653754Y-89494817D01*
X133720073Y-89594070D01*
X133804482Y-89678479D01*
X133903735Y-89744798D01*
X134014020Y-89790480D01*
X134131098Y-89813768D01*
X134250470Y-89813768D01*
X134367548Y-89790480D01*
X134477833Y-89744798D01*
X134577086Y-89678479D01*
X134661495Y-89594070D01*
X134727814Y-89494817D01*
X134773496Y-89384532D01*
X134788051Y-89311358D01*
X134912148Y-89311358D01*
X135034056Y-89287109D01*
X135148891Y-89239543D01*
X135252239Y-89170488D01*
X135340130Y-89082597D01*
X135409185Y-88979249D01*
X135456751Y-88864414D01*
X135481000Y-88742506D01*
X135481000Y-88618210D01*
X135456751Y-88496302D01*
X135409185Y-88381467D01*
X135340130Y-88278119D01*
X135252239Y-88190228D01*
X135148891Y-88121173D01*
X135034056Y-88073607D01*
X134912148Y-88049358D01*
X134787852Y-88049358D01*
X134665944Y-88073607D01*
X134551109Y-88121173D01*
X134447761Y-88190228D01*
X134359870Y-88278119D01*
X134290815Y-88381467D01*
X134243249Y-88496302D01*
X134222271Y-88601768D01*
X134131098Y-88601768D01*
X134014020Y-88625056D01*
X133903735Y-88670738D01*
X133804482Y-88737057D01*
X133720073Y-88821466D01*
X133653754Y-88920719D01*
X133608072Y-89031004D01*
X133584784Y-89148082D01*
X131118938Y-89148082D01*
X131145764Y-89107935D01*
X131191446Y-88997650D01*
X131214734Y-88880572D01*
X131214734Y-88761200D01*
X131191446Y-88644122D01*
X131168438Y-88588575D01*
X131170711Y-88586302D01*
X131237030Y-88487049D01*
X131282712Y-88376764D01*
X131306000Y-88259686D01*
X131306000Y-88140314D01*
X131282712Y-88023236D01*
X131237030Y-87912951D01*
X131203555Y-87862852D01*
X139994000Y-87862852D01*
X139994000Y-87987148D01*
X140018249Y-88109056D01*
X140065815Y-88223891D01*
X140134870Y-88327239D01*
X140222761Y-88415130D01*
X140326109Y-88484185D01*
X140440944Y-88531751D01*
X140562852Y-88556000D01*
X140687148Y-88556000D01*
X140809056Y-88531751D01*
X140915038Y-88487852D01*
X141869000Y-88487852D01*
X141869000Y-88612148D01*
X141893249Y-88734056D01*
X141940815Y-88848891D01*
X142009870Y-88952239D01*
X142097761Y-89040130D01*
X142201109Y-89109185D01*
X142315944Y-89156751D01*
X142437852Y-89181000D01*
X142562148Y-89181000D01*
X142684056Y-89156751D01*
X142798891Y-89109185D01*
X142902239Y-89040130D01*
X142990130Y-88952239D01*
X143059185Y-88848891D01*
X143106751Y-88734056D01*
X143131000Y-88612148D01*
X143131000Y-88487852D01*
X143106751Y-88365944D01*
X143059185Y-88251109D01*
X142990130Y-88147761D01*
X142902239Y-88059870D01*
X142798891Y-87990815D01*
X142684056Y-87943249D01*
X142562148Y-87919000D01*
X142437852Y-87919000D01*
X142315944Y-87943249D01*
X142201109Y-87990815D01*
X142097761Y-88059870D01*
X142009870Y-88147761D01*
X141940815Y-88251109D01*
X141893249Y-88365944D01*
X141869000Y-88487852D01*
X140915038Y-88487852D01*
X140923891Y-88484185D01*
X141027239Y-88415130D01*
X141115130Y-88327239D01*
X141184185Y-88223891D01*
X141231751Y-88109056D01*
X141256000Y-87987148D01*
X141256000Y-87862852D01*
X141231751Y-87740944D01*
X141184185Y-87626109D01*
X141115130Y-87522761D01*
X141027239Y-87434870D01*
X140923891Y-87365815D01*
X140809056Y-87318249D01*
X140687148Y-87294000D01*
X140562852Y-87294000D01*
X140440944Y-87318249D01*
X140326109Y-87365815D01*
X140222761Y-87434870D01*
X140134870Y-87522761D01*
X140065815Y-87626109D01*
X140018249Y-87740944D01*
X139994000Y-87862852D01*
X131203555Y-87862852D01*
X131170711Y-87813698D01*
X131086302Y-87729289D01*
X130987049Y-87662970D01*
X130876764Y-87617288D01*
X130759686Y-87594000D01*
X130640314Y-87594000D01*
X130523236Y-87617288D01*
X130412951Y-87662970D01*
X130313698Y-87729289D01*
X130229289Y-87813698D01*
X130162970Y-87912951D01*
X130117288Y-88023236D01*
X130094000Y-88140314D01*
X130094000Y-88259686D01*
X130117288Y-88376764D01*
X130140296Y-88432311D01*
X130138023Y-88434584D01*
X130071704Y-88533837D01*
X130026022Y-88644122D01*
X130002734Y-88761200D01*
X127318482Y-88761200D01*
X127334620Y-88737049D01*
X127380302Y-88626764D01*
X127403590Y-88509686D01*
X127403590Y-88390314D01*
X127380302Y-88273236D01*
X127334620Y-88162951D01*
X127268301Y-88063698D01*
X127183892Y-87979289D01*
X127084639Y-87912970D01*
X126974354Y-87867288D01*
X126939304Y-87860316D01*
X126961000Y-87751243D01*
X126961000Y-87508757D01*
X126913693Y-87270931D01*
X126857988Y-87136447D01*
X126876764Y-87132712D01*
X126987049Y-87087030D01*
X127086302Y-87020711D01*
X127170711Y-86936302D01*
X127237030Y-86837049D01*
X127282712Y-86726764D01*
X127306000Y-86609686D01*
X127306000Y-86490314D01*
X127282712Y-86373236D01*
X127237030Y-86262951D01*
X127170711Y-86163698D01*
X127086302Y-86079289D01*
X126987049Y-86012970D01*
X126876764Y-85967288D01*
X126759686Y-85944000D01*
X126640314Y-85944000D01*
X126611083Y-85949814D01*
X126677970Y-85882927D01*
X137494000Y-85882927D01*
X137494000Y-86017073D01*
X137520171Y-86148640D01*
X137571506Y-86272574D01*
X137646033Y-86384112D01*
X137740888Y-86478967D01*
X137852426Y-86553494D01*
X137976360Y-86604829D01*
X138107927Y-86631000D01*
X138242073Y-86631000D01*
X138373640Y-86604829D01*
X138497574Y-86553494D01*
X138609112Y-86478967D01*
X138695626Y-86392453D01*
X138713847Y-86484056D01*
X138761413Y-86598891D01*
X138830468Y-86702239D01*
X138918359Y-86790130D01*
X139021707Y-86859185D01*
X139136542Y-86906751D01*
X139258450Y-86931000D01*
X139382746Y-86931000D01*
X139504654Y-86906751D01*
X139619489Y-86859185D01*
X139722837Y-86790130D01*
X139810728Y-86702239D01*
X139879783Y-86598891D01*
X139927349Y-86484056D01*
X139951598Y-86362148D01*
X139951598Y-86237852D01*
X139927349Y-86115944D01*
X139879783Y-86001109D01*
X139810728Y-85897761D01*
X139770894Y-85857927D01*
X140919000Y-85857927D01*
X140919000Y-85992073D01*
X140945171Y-86123640D01*
X140996506Y-86247574D01*
X141071033Y-86359112D01*
X141165888Y-86453967D01*
X141277426Y-86528494D01*
X141401360Y-86579829D01*
X141532927Y-86606000D01*
X141667073Y-86606000D01*
X141798640Y-86579829D01*
X141922574Y-86528494D01*
X142034112Y-86453967D01*
X142128967Y-86359112D01*
X142203494Y-86247574D01*
X142254829Y-86123640D01*
X142281000Y-85992073D01*
X142281000Y-85857927D01*
X142254829Y-85726360D01*
X142203494Y-85602426D01*
X142128967Y-85490888D01*
X142034112Y-85396033D01*
X141922574Y-85321506D01*
X141798640Y-85270171D01*
X141667073Y-85244000D01*
X141532927Y-85244000D01*
X141401360Y-85270171D01*
X141277426Y-85321506D01*
X141165888Y-85396033D01*
X141071033Y-85490888D01*
X140996506Y-85602426D01*
X140945171Y-85726360D01*
X140919000Y-85857927D01*
X139770894Y-85857927D01*
X139722837Y-85809870D01*
X139619489Y-85740815D01*
X139504654Y-85693249D01*
X139382746Y-85669000D01*
X139258450Y-85669000D01*
X139136542Y-85693249D01*
X139021707Y-85740815D01*
X138918359Y-85809870D01*
X138854225Y-85874004D01*
X138829829Y-85751360D01*
X138778494Y-85627426D01*
X138703967Y-85515888D01*
X138609112Y-85421033D01*
X138497574Y-85346506D01*
X138373640Y-85295171D01*
X138242073Y-85269000D01*
X138107927Y-85269000D01*
X137976360Y-85295171D01*
X137852426Y-85346506D01*
X137740888Y-85421033D01*
X137646033Y-85515888D01*
X137571506Y-85627426D01*
X137520171Y-85751360D01*
X137494000Y-85882927D01*
X126677970Y-85882927D01*
X126686180Y-85874717D01*
X126820898Y-85673097D01*
X126913693Y-85449069D01*
X126961000Y-85211243D01*
X126961000Y-84968757D01*
X126913693Y-84730931D01*
X126820898Y-84506903D01*
X126686180Y-84305283D01*
X126514717Y-84133820D01*
X126313097Y-83999102D01*
X126089069Y-83906307D01*
X125851243Y-83859000D01*
X125608757Y-83859000D01*
X125370931Y-83906307D01*
X125146903Y-83999102D01*
X124945283Y-84133820D01*
X124916000Y-84163103D01*
X124916000Y-83526635D01*
X125043267Y-83626629D01*
X125266502Y-83739917D01*
X125507549Y-83807477D01*
X125707000Y-83720044D01*
X125707000Y-82573000D01*
X125753000Y-82573000D01*
X125753000Y-83720044D01*
X125952451Y-83807477D01*
X126193498Y-83739917D01*
X126416733Y-83626629D01*
X126440535Y-83607927D01*
X134369000Y-83607927D01*
X134369000Y-83742073D01*
X134395171Y-83873640D01*
X134446506Y-83997574D01*
X134481536Y-84050000D01*
X134446506Y-84102426D01*
X134395171Y-84226360D01*
X134369000Y-84357927D01*
X134369000Y-84492073D01*
X134395171Y-84623640D01*
X134446506Y-84747574D01*
X134521033Y-84859112D01*
X134615888Y-84953967D01*
X134727426Y-85028494D01*
X134851360Y-85079829D01*
X134982927Y-85106000D01*
X135117073Y-85106000D01*
X135248640Y-85079829D01*
X135372574Y-85028494D01*
X135484112Y-84953967D01*
X135578967Y-84859112D01*
X135653494Y-84747574D01*
X135704829Y-84623640D01*
X135731000Y-84492073D01*
X135731000Y-84357927D01*
X135714617Y-84275562D01*
X137413986Y-84275562D01*
X137413986Y-84409708D01*
X137440157Y-84541275D01*
X137491492Y-84665209D01*
X137566019Y-84776747D01*
X137660874Y-84871602D01*
X137772412Y-84946129D01*
X137896346Y-84997464D01*
X138027913Y-85023635D01*
X138162059Y-85023635D01*
X138293626Y-84997464D01*
X138417560Y-84946129D01*
X138529098Y-84871602D01*
X138623953Y-84776747D01*
X138698480Y-84665209D01*
X138749815Y-84541275D01*
X138775986Y-84409708D01*
X138775986Y-84275562D01*
X138752587Y-84157927D01*
X140919000Y-84157927D01*
X140919000Y-84292073D01*
X140945171Y-84423640D01*
X140996506Y-84547574D01*
X141071033Y-84659112D01*
X141165888Y-84753967D01*
X141277426Y-84828494D01*
X141401360Y-84879829D01*
X141532927Y-84906000D01*
X141667073Y-84906000D01*
X141798640Y-84879829D01*
X141922574Y-84828494D01*
X142034112Y-84753967D01*
X142128967Y-84659112D01*
X142203494Y-84547574D01*
X142254829Y-84423640D01*
X142281000Y-84292073D01*
X142281000Y-84157927D01*
X142254829Y-84026360D01*
X142203494Y-83902426D01*
X142128967Y-83790888D01*
X142034112Y-83696033D01*
X141922574Y-83621506D01*
X141798640Y-83570171D01*
X141667073Y-83544000D01*
X141532927Y-83544000D01*
X141401360Y-83570171D01*
X141277426Y-83621506D01*
X141165888Y-83696033D01*
X141071033Y-83790888D01*
X140996506Y-83902426D01*
X140945171Y-84026360D01*
X140919000Y-84157927D01*
X138752587Y-84157927D01*
X138749815Y-84143995D01*
X138698480Y-84020061D01*
X138623953Y-83908523D01*
X138529098Y-83813668D01*
X138417560Y-83739141D01*
X138293626Y-83687806D01*
X138162059Y-83661635D01*
X138027913Y-83661635D01*
X137896346Y-83687806D01*
X137772412Y-83739141D01*
X137660874Y-83813668D01*
X137566019Y-83908523D01*
X137491492Y-84020061D01*
X137440157Y-84143995D01*
X137413986Y-84275562D01*
X135714617Y-84275562D01*
X135704829Y-84226360D01*
X135653494Y-84102426D01*
X135618464Y-84050000D01*
X135653494Y-83997574D01*
X135704829Y-83873640D01*
X135731000Y-83742073D01*
X135731000Y-83607927D01*
X135704829Y-83476360D01*
X135653494Y-83352426D01*
X135578967Y-83240888D01*
X135484112Y-83146033D01*
X135372574Y-83071506D01*
X135248640Y-83020171D01*
X135117073Y-82994000D01*
X134982927Y-82994000D01*
X134851360Y-83020171D01*
X134727426Y-83071506D01*
X134615888Y-83146033D01*
X134521033Y-83240888D01*
X134446506Y-83352426D01*
X134395171Y-83476360D01*
X134369000Y-83607927D01*
X126440535Y-83607927D01*
X126613578Y-83471967D01*
X126776467Y-83281874D01*
X126899141Y-83063656D01*
X126976886Y-82825698D01*
X126987476Y-82772451D01*
X126900024Y-82573000D01*
X125753000Y-82573000D01*
X125707000Y-82573000D01*
X125687000Y-82573000D01*
X125687000Y-82527000D01*
X125707000Y-82527000D01*
X125707000Y-81379956D01*
X125753000Y-81379956D01*
X125753000Y-82527000D01*
X126900024Y-82527000D01*
X126987476Y-82327549D01*
X126976886Y-82274302D01*
X126899141Y-82036344D01*
X126845157Y-81940314D01*
X127394000Y-81940314D01*
X127394000Y-82059686D01*
X127417288Y-82176764D01*
X127462970Y-82287049D01*
X127529289Y-82386302D01*
X127613698Y-82470711D01*
X127712951Y-82537030D01*
X127823236Y-82582712D01*
X127940314Y-82606000D01*
X128059686Y-82606000D01*
X128176764Y-82582712D01*
X128287049Y-82537030D01*
X128386302Y-82470711D01*
X128470711Y-82386302D01*
X128537030Y-82287049D01*
X128563875Y-82222240D01*
X128569698Y-82251514D01*
X128615380Y-82361799D01*
X128681699Y-82461052D01*
X128766108Y-82545461D01*
X128865361Y-82611780D01*
X128975646Y-82657462D01*
X129092724Y-82680750D01*
X129212096Y-82680750D01*
X129329174Y-82657462D01*
X129439459Y-82611780D01*
X129538712Y-82545461D01*
X129623121Y-82461052D01*
X129689440Y-82361799D01*
X129711754Y-82307927D01*
X137694000Y-82307927D01*
X137694000Y-82442073D01*
X137720171Y-82573640D01*
X137771506Y-82697574D01*
X137846033Y-82809112D01*
X137940888Y-82903967D01*
X138052426Y-82978494D01*
X138176360Y-83029829D01*
X138307927Y-83056000D01*
X138442073Y-83056000D01*
X138573640Y-83029829D01*
X138614421Y-83012937D01*
X142738990Y-83012937D01*
X142738990Y-83147083D01*
X142765161Y-83278650D01*
X142816496Y-83402584D01*
X142891023Y-83514122D01*
X142985878Y-83608977D01*
X143097416Y-83683504D01*
X143221350Y-83734839D01*
X143352917Y-83761010D01*
X143487063Y-83761010D01*
X143618630Y-83734839D01*
X143742564Y-83683504D01*
X143854102Y-83608977D01*
X143948957Y-83514122D01*
X144023484Y-83402584D01*
X144074819Y-83278650D01*
X144100990Y-83147083D01*
X144100990Y-83012937D01*
X144074819Y-82881370D01*
X144023484Y-82757436D01*
X143948957Y-82645898D01*
X143854102Y-82551043D01*
X143742564Y-82476516D01*
X143618630Y-82425181D01*
X143487063Y-82399010D01*
X143352917Y-82399010D01*
X143221350Y-82425181D01*
X143097416Y-82476516D01*
X142985878Y-82551043D01*
X142891023Y-82645898D01*
X142816496Y-82757436D01*
X142765161Y-82881370D01*
X142738990Y-83012937D01*
X138614421Y-83012937D01*
X138697574Y-82978494D01*
X138809112Y-82903967D01*
X138903967Y-82809112D01*
X138978494Y-82697574D01*
X139029829Y-82573640D01*
X139056000Y-82442073D01*
X139056000Y-82307927D01*
X139029829Y-82176360D01*
X138980773Y-82057927D01*
X139194000Y-82057927D01*
X139194000Y-82192073D01*
X139220171Y-82323640D01*
X139271506Y-82447574D01*
X139346033Y-82559112D01*
X139440888Y-82653967D01*
X139552426Y-82728494D01*
X139676360Y-82779829D01*
X139807927Y-82806000D01*
X139942073Y-82806000D01*
X140073640Y-82779829D01*
X140197574Y-82728494D01*
X140309112Y-82653967D01*
X140403967Y-82559112D01*
X140478494Y-82447574D01*
X140529829Y-82323640D01*
X140556000Y-82192073D01*
X140556000Y-82057927D01*
X140529829Y-81926360D01*
X140478494Y-81802426D01*
X140403967Y-81690888D01*
X140309112Y-81596033D01*
X140197574Y-81521506D01*
X140073640Y-81470171D01*
X139942073Y-81444000D01*
X139807927Y-81444000D01*
X139676360Y-81470171D01*
X139552426Y-81521506D01*
X139440888Y-81596033D01*
X139346033Y-81690888D01*
X139271506Y-81802426D01*
X139220171Y-81926360D01*
X139194000Y-82057927D01*
X138980773Y-82057927D01*
X138978494Y-82052426D01*
X138903967Y-81940888D01*
X138809112Y-81846033D01*
X138697574Y-81771506D01*
X138573640Y-81720171D01*
X138442073Y-81694000D01*
X138307927Y-81694000D01*
X138176360Y-81720171D01*
X138052426Y-81771506D01*
X137940888Y-81846033D01*
X137846033Y-81940888D01*
X137771506Y-82052426D01*
X137720171Y-82176360D01*
X137694000Y-82307927D01*
X129711754Y-82307927D01*
X129735122Y-82251514D01*
X129758410Y-82134436D01*
X129758410Y-82015064D01*
X129735122Y-81897986D01*
X129689440Y-81787701D01*
X129623121Y-81688448D01*
X129538712Y-81604039D01*
X129439459Y-81537720D01*
X129329174Y-81492038D01*
X129273410Y-81480946D01*
X129273410Y-81440314D01*
X129268438Y-81415314D01*
X132944000Y-81415314D01*
X132944000Y-81534686D01*
X132967288Y-81651764D01*
X133012970Y-81762049D01*
X133079289Y-81861302D01*
X133163698Y-81945711D01*
X133262951Y-82012030D01*
X133373236Y-82057712D01*
X133490314Y-82081000D01*
X133609686Y-82081000D01*
X133726764Y-82057712D01*
X133779044Y-82036057D01*
X133788698Y-82045711D01*
X133887951Y-82112030D01*
X133998236Y-82157712D01*
X134115314Y-82181000D01*
X134234686Y-82181000D01*
X134351764Y-82157712D01*
X134462049Y-82112030D01*
X134561302Y-82045711D01*
X134645711Y-81961302D01*
X134712030Y-81862049D01*
X134757712Y-81751764D01*
X134781000Y-81634686D01*
X134781000Y-81515314D01*
X134764613Y-81432927D01*
X144919000Y-81432927D01*
X144919000Y-81567073D01*
X144945171Y-81698640D01*
X144996506Y-81822574D01*
X145071033Y-81934112D01*
X145165888Y-82028967D01*
X145277426Y-82103494D01*
X145401360Y-82154829D01*
X145532927Y-82181000D01*
X145667073Y-82181000D01*
X145798640Y-82154829D01*
X145922574Y-82103494D01*
X146034112Y-82028967D01*
X146128967Y-81934112D01*
X146203494Y-81822574D01*
X146254829Y-81698640D01*
X146281000Y-81567073D01*
X146281000Y-81432927D01*
X146254829Y-81301360D01*
X146203494Y-81177426D01*
X146128967Y-81065888D01*
X146034112Y-80971033D01*
X145922574Y-80896506D01*
X145798640Y-80845171D01*
X145667073Y-80819000D01*
X145532927Y-80819000D01*
X145401360Y-80845171D01*
X145277426Y-80896506D01*
X145165888Y-80971033D01*
X145071033Y-81065888D01*
X144996506Y-81177426D01*
X144945171Y-81301360D01*
X144919000Y-81432927D01*
X134764613Y-81432927D01*
X134757712Y-81398236D01*
X134712030Y-81287951D01*
X134645711Y-81188698D01*
X134561302Y-81104289D01*
X134462049Y-81037970D01*
X134351764Y-80992288D01*
X134234686Y-80969000D01*
X134115314Y-80969000D01*
X133998236Y-80992288D01*
X133945956Y-81013943D01*
X133936302Y-81004289D01*
X133837049Y-80937970D01*
X133726764Y-80892288D01*
X133609686Y-80869000D01*
X133490314Y-80869000D01*
X133373236Y-80892288D01*
X133262951Y-80937970D01*
X133163698Y-81004289D01*
X133079289Y-81088698D01*
X133012970Y-81187951D01*
X132967288Y-81298236D01*
X132944000Y-81415314D01*
X129268438Y-81415314D01*
X129250122Y-81323236D01*
X129204440Y-81212951D01*
X129138121Y-81113698D01*
X129053712Y-81029289D01*
X128954459Y-80962970D01*
X128844174Y-80917288D01*
X128727096Y-80894000D01*
X128607724Y-80894000D01*
X128490646Y-80917288D01*
X128380361Y-80962970D01*
X128281108Y-81029289D01*
X128196699Y-81113698D01*
X128130380Y-81212951D01*
X128084698Y-81323236D01*
X128070206Y-81396093D01*
X128059686Y-81394000D01*
X127940314Y-81394000D01*
X127823236Y-81417288D01*
X127712951Y-81462970D01*
X127613698Y-81529289D01*
X127529289Y-81613698D01*
X127462970Y-81712951D01*
X127417288Y-81823236D01*
X127394000Y-81940314D01*
X126845157Y-81940314D01*
X126776467Y-81818126D01*
X126613578Y-81628033D01*
X126416733Y-81473371D01*
X126193498Y-81360083D01*
X125952451Y-81292523D01*
X125753000Y-81379956D01*
X125707000Y-81379956D01*
X125507549Y-81292523D01*
X125266502Y-81360083D01*
X125043267Y-81473371D01*
X124916000Y-81573365D01*
X124916000Y-80936897D01*
X124945283Y-80966180D01*
X125146903Y-81100898D01*
X125370931Y-81193693D01*
X125608757Y-81241000D01*
X125851243Y-81241000D01*
X126089069Y-81193693D01*
X126313097Y-81100898D01*
X126514717Y-80966180D01*
X126686180Y-80794717D01*
X126820898Y-80593097D01*
X126913693Y-80369069D01*
X126961000Y-80131243D01*
X126961000Y-79888757D01*
X126930004Y-79732927D01*
X144919000Y-79732927D01*
X144919000Y-79867073D01*
X144945171Y-79998640D01*
X144996506Y-80122574D01*
X145071033Y-80234112D01*
X145165888Y-80328967D01*
X145277426Y-80403494D01*
X145401360Y-80454829D01*
X145532927Y-80481000D01*
X145667073Y-80481000D01*
X145798640Y-80454829D01*
X145922574Y-80403494D01*
X146034112Y-80328967D01*
X146128967Y-80234112D01*
X146203494Y-80122574D01*
X146254829Y-79998640D01*
X146281000Y-79867073D01*
X146281000Y-79732927D01*
X146254829Y-79601360D01*
X146203494Y-79477426D01*
X146128967Y-79365888D01*
X146034112Y-79271033D01*
X145922574Y-79196506D01*
X145798640Y-79145171D01*
X145667073Y-79119000D01*
X145532927Y-79119000D01*
X145401360Y-79145171D01*
X145277426Y-79196506D01*
X145165888Y-79271033D01*
X145071033Y-79365888D01*
X144996506Y-79477426D01*
X144945171Y-79601360D01*
X144919000Y-79732927D01*
X126930004Y-79732927D01*
X126913693Y-79650931D01*
X126820898Y-79426903D01*
X126686180Y-79225283D01*
X126514717Y-79053820D01*
X126313097Y-78919102D01*
X126089069Y-78826307D01*
X125851243Y-78779000D01*
X125608757Y-78779000D01*
X125370931Y-78826307D01*
X125146903Y-78919102D01*
X124945283Y-79053820D01*
X124916000Y-79083103D01*
X124916000Y-78396897D01*
X124945283Y-78426180D01*
X125146903Y-78560898D01*
X125370931Y-78653693D01*
X125608757Y-78701000D01*
X125851243Y-78701000D01*
X126089069Y-78653693D01*
X126313097Y-78560898D01*
X126514717Y-78426180D01*
X126625583Y-78315314D01*
X134044000Y-78315314D01*
X134044000Y-78434686D01*
X134067288Y-78551764D01*
X134112970Y-78662049D01*
X134179289Y-78761302D01*
X134263698Y-78845711D01*
X134362951Y-78912030D01*
X134473236Y-78957712D01*
X134590314Y-78981000D01*
X134709686Y-78981000D01*
X134826764Y-78957712D01*
X134937049Y-78912030D01*
X135036302Y-78845711D01*
X135120711Y-78761302D01*
X135187030Y-78662049D01*
X135232712Y-78551764D01*
X135256000Y-78434686D01*
X135256000Y-78315314D01*
X135232712Y-78198236D01*
X135187030Y-78087951D01*
X135120711Y-77988698D01*
X135114940Y-77982927D01*
X144919000Y-77982927D01*
X144919000Y-78117073D01*
X144945171Y-78248640D01*
X144996506Y-78372574D01*
X145071033Y-78484112D01*
X145165888Y-78578967D01*
X145277426Y-78653494D01*
X145401360Y-78704829D01*
X145532927Y-78731000D01*
X145667073Y-78731000D01*
X145798640Y-78704829D01*
X145922574Y-78653494D01*
X146034112Y-78578967D01*
X146128967Y-78484112D01*
X146203494Y-78372574D01*
X146254829Y-78248640D01*
X146281000Y-78117073D01*
X146281000Y-77982927D01*
X146254829Y-77851360D01*
X146203494Y-77727426D01*
X146128967Y-77615888D01*
X146034112Y-77521033D01*
X145922574Y-77446506D01*
X145798640Y-77395171D01*
X145667073Y-77369000D01*
X145532927Y-77369000D01*
X145401360Y-77395171D01*
X145277426Y-77446506D01*
X145165888Y-77521033D01*
X145071033Y-77615888D01*
X144996506Y-77727426D01*
X144945171Y-77851360D01*
X144919000Y-77982927D01*
X135114940Y-77982927D01*
X135036302Y-77904289D01*
X134937049Y-77837970D01*
X134826764Y-77792288D01*
X134709686Y-77769000D01*
X134590314Y-77769000D01*
X134473236Y-77792288D01*
X134362951Y-77837970D01*
X134263698Y-77904289D01*
X134179289Y-77988698D01*
X134112970Y-78087951D01*
X134067288Y-78198236D01*
X134044000Y-78315314D01*
X126625583Y-78315314D01*
X126686180Y-78254717D01*
X126820898Y-78053097D01*
X126913693Y-77829069D01*
X126961000Y-77591243D01*
X126961000Y-77348757D01*
X126913693Y-77110931D01*
X126820898Y-76886903D01*
X126686180Y-76685283D01*
X126514717Y-76513820D01*
X126313097Y-76379102D01*
X126141265Y-76307927D01*
X142694000Y-76307927D01*
X142694000Y-76442073D01*
X142720171Y-76573640D01*
X142771506Y-76697574D01*
X142846033Y-76809112D01*
X142940888Y-76903967D01*
X143052426Y-76978494D01*
X143176360Y-77029829D01*
X143307927Y-77056000D01*
X143442073Y-77056000D01*
X143573640Y-77029829D01*
X143697574Y-76978494D01*
X143809112Y-76903967D01*
X143903967Y-76809112D01*
X143978494Y-76697574D01*
X144029829Y-76573640D01*
X144056000Y-76442073D01*
X144056000Y-76307927D01*
X144029829Y-76176360D01*
X143978494Y-76052426D01*
X143903967Y-75940888D01*
X143809112Y-75846033D01*
X143697574Y-75771506D01*
X143573640Y-75720171D01*
X143442073Y-75694000D01*
X143307927Y-75694000D01*
X143176360Y-75720171D01*
X143052426Y-75771506D01*
X142940888Y-75846033D01*
X142846033Y-75940888D01*
X142771506Y-76052426D01*
X142720171Y-76176360D01*
X142694000Y-76307927D01*
X126141265Y-76307927D01*
X126089069Y-76286307D01*
X125851243Y-76239000D01*
X125608757Y-76239000D01*
X125370931Y-76286307D01*
X125146903Y-76379102D01*
X124945283Y-76513820D01*
X124916000Y-76543103D01*
X124916000Y-75856897D01*
X124945283Y-75886180D01*
X125146903Y-76020898D01*
X125370931Y-76113693D01*
X125608757Y-76161000D01*
X125851243Y-76161000D01*
X126089069Y-76113693D01*
X126313097Y-76020898D01*
X126514717Y-75886180D01*
X126686180Y-75714717D01*
X126820898Y-75513097D01*
X126913693Y-75289069D01*
X126961000Y-75051243D01*
X126961000Y-74808757D01*
X126913693Y-74570931D01*
X126820898Y-74346903D01*
X126805109Y-74323272D01*
X130689000Y-74323272D01*
X130701748Y-74452705D01*
X130752125Y-74618774D01*
X130833932Y-74771824D01*
X130944025Y-74905975D01*
X131078175Y-75016068D01*
X131231225Y-75097875D01*
X131397294Y-75148252D01*
X131570000Y-75165262D01*
X131742705Y-75148252D01*
X131908774Y-75097875D01*
X132061824Y-75016068D01*
X132195975Y-74905975D01*
X132306068Y-74771825D01*
X132387875Y-74618775D01*
X132438252Y-74452706D01*
X132451000Y-74323273D01*
X132451000Y-73649130D01*
X132451614Y-73650049D01*
X132549951Y-73748386D01*
X132665584Y-73825649D01*
X132794067Y-73878869D01*
X132930465Y-73906000D01*
X133069535Y-73906000D01*
X133205933Y-73878869D01*
X133334416Y-73825649D01*
X133450049Y-73748386D01*
X133548386Y-73650049D01*
X133625649Y-73534416D01*
X133678869Y-73405933D01*
X133696466Y-73317464D01*
X135034016Y-73317464D01*
X135034016Y-73436836D01*
X135057304Y-73553914D01*
X135102986Y-73664199D01*
X135169305Y-73763452D01*
X135253714Y-73847861D01*
X135352967Y-73914180D01*
X135463252Y-73959862D01*
X135580330Y-73983150D01*
X135699702Y-73983150D01*
X135816780Y-73959862D01*
X135927065Y-73914180D01*
X136026318Y-73847861D01*
X136110727Y-73763452D01*
X136155708Y-73696133D01*
X136189101Y-73746108D01*
X136273510Y-73830517D01*
X136372763Y-73896836D01*
X136483048Y-73942518D01*
X136600126Y-73965806D01*
X136719498Y-73965806D01*
X136836576Y-73942518D01*
X136946861Y-73896836D01*
X137046114Y-73830517D01*
X137130523Y-73746108D01*
X137196842Y-73646855D01*
X137242524Y-73536570D01*
X137265812Y-73419492D01*
X137265812Y-73300120D01*
X137242524Y-73183042D01*
X137220746Y-73130465D01*
X138074000Y-73130465D01*
X138074000Y-73269535D01*
X138101131Y-73405933D01*
X138154351Y-73534416D01*
X138231614Y-73650049D01*
X138329951Y-73748386D01*
X138445584Y-73825649D01*
X138574067Y-73878869D01*
X138710465Y-73906000D01*
X138849535Y-73906000D01*
X138985933Y-73878869D01*
X139114416Y-73825649D01*
X139230049Y-73748386D01*
X139328386Y-73650049D01*
X139329001Y-73649129D01*
X139329000Y-74323272D01*
X139341748Y-74452705D01*
X139392125Y-74618774D01*
X139473932Y-74771824D01*
X139584025Y-74905975D01*
X139718175Y-75016068D01*
X139871225Y-75097875D01*
X140037294Y-75148252D01*
X140210000Y-75165262D01*
X140382705Y-75148252D01*
X140548774Y-75097875D01*
X140701824Y-75016068D01*
X140835975Y-74905975D01*
X140946068Y-74771825D01*
X141027875Y-74618775D01*
X141078252Y-74452706D01*
X141091000Y-74323273D01*
X141091000Y-73136727D01*
X141078252Y-73007294D01*
X141027875Y-72841225D01*
X140946068Y-72688175D01*
X140835975Y-72554025D01*
X140701825Y-72443932D01*
X140548775Y-72362125D01*
X140382706Y-72311748D01*
X140210000Y-72294738D01*
X140037295Y-72311748D01*
X139871226Y-72362125D01*
X139718176Y-72443932D01*
X139584026Y-72554025D01*
X139473933Y-72688175D01*
X139392126Y-72841225D01*
X139391266Y-72844059D01*
X139328386Y-72749951D01*
X139230049Y-72651614D01*
X139114416Y-72574351D01*
X138985933Y-72521131D01*
X138849535Y-72494000D01*
X138710465Y-72494000D01*
X138574067Y-72521131D01*
X138445584Y-72574351D01*
X138329951Y-72651614D01*
X138231614Y-72749951D01*
X138154351Y-72865584D01*
X138101131Y-72994067D01*
X138074000Y-73130465D01*
X137220746Y-73130465D01*
X137196842Y-73072757D01*
X137130523Y-72973504D01*
X137046114Y-72889095D01*
X136946861Y-72822776D01*
X136836576Y-72777094D01*
X136719498Y-72753806D01*
X136600126Y-72753806D01*
X136483048Y-72777094D01*
X136372763Y-72822776D01*
X136273510Y-72889095D01*
X136189101Y-72973504D01*
X136144120Y-73040823D01*
X136110727Y-72990848D01*
X136026318Y-72906439D01*
X135927065Y-72840120D01*
X135816780Y-72794438D01*
X135699702Y-72771150D01*
X135580330Y-72771150D01*
X135463252Y-72794438D01*
X135352967Y-72840120D01*
X135253714Y-72906439D01*
X135169305Y-72990848D01*
X135102986Y-73090101D01*
X135057304Y-73200386D01*
X135034016Y-73317464D01*
X133696466Y-73317464D01*
X133706000Y-73269535D01*
X133706000Y-73130465D01*
X133678869Y-72994067D01*
X133625649Y-72865584D01*
X133548386Y-72749951D01*
X133450049Y-72651614D01*
X133334416Y-72574351D01*
X133205933Y-72521131D01*
X133069535Y-72494000D01*
X132930465Y-72494000D01*
X132794067Y-72521131D01*
X132665584Y-72574351D01*
X132549951Y-72651614D01*
X132451614Y-72749951D01*
X132388734Y-72844058D01*
X132387875Y-72841225D01*
X132306068Y-72688175D01*
X132195975Y-72554025D01*
X132061825Y-72443932D01*
X131908775Y-72362125D01*
X131742706Y-72311748D01*
X131570000Y-72294738D01*
X131397295Y-72311748D01*
X131231226Y-72362125D01*
X131078176Y-72443932D01*
X130944026Y-72554025D01*
X130833933Y-72688175D01*
X130752126Y-72841225D01*
X130701749Y-73007294D01*
X130689001Y-73136727D01*
X130689000Y-74323272D01*
X126805109Y-74323272D01*
X126686180Y-74145283D01*
X126514717Y-73973820D01*
X126313097Y-73839102D01*
X126089069Y-73746307D01*
X125851243Y-73699000D01*
X125608757Y-73699000D01*
X125370931Y-73746307D01*
X125146903Y-73839102D01*
X124945283Y-73973820D01*
X124916000Y-74003103D01*
X124916000Y-73640314D01*
X129394000Y-73640314D01*
X129394000Y-73759686D01*
X129417288Y-73876764D01*
X129462970Y-73987049D01*
X129529289Y-74086302D01*
X129613698Y-74170711D01*
X129712951Y-74237030D01*
X129823236Y-74282712D01*
X129940314Y-74306000D01*
X130059686Y-74306000D01*
X130176764Y-74282712D01*
X130287049Y-74237030D01*
X130386302Y-74170711D01*
X130470711Y-74086302D01*
X130537030Y-73987049D01*
X130582712Y-73876764D01*
X130606000Y-73759686D01*
X130606000Y-73640314D01*
X130582712Y-73523236D01*
X130537030Y-73412951D01*
X130470711Y-73313698D01*
X130386302Y-73229289D01*
X130287049Y-73162970D01*
X130176764Y-73117288D01*
X130059686Y-73094000D01*
X129940314Y-73094000D01*
X129823236Y-73117288D01*
X129712951Y-73162970D01*
X129613698Y-73229289D01*
X129529289Y-73313698D01*
X129462970Y-73412951D01*
X129417288Y-73523236D01*
X129394000Y-73640314D01*
X124916000Y-73640314D01*
X124916000Y-71142305D01*
X124937197Y-70926120D01*
X125031500Y-70926120D01*
X125031500Y-71313880D01*
X125107148Y-71694190D01*
X125255538Y-72052435D01*
X125470966Y-72374846D01*
X125745154Y-72649034D01*
X126067565Y-72864462D01*
X126425810Y-73012852D01*
X126806120Y-73088500D01*
X127193880Y-73088500D01*
X127574190Y-73012852D01*
X127932435Y-72864462D01*
X128254846Y-72649034D01*
X128529034Y-72374846D01*
X128744462Y-72052435D01*
X128892852Y-71694190D01*
X128968500Y-71313880D01*
X128968500Y-70926120D01*
X142811500Y-70926120D01*
X142811500Y-71313880D01*
X142887148Y-71694190D01*
X143035538Y-72052435D01*
X143250966Y-72374846D01*
X143525154Y-72649034D01*
X143847565Y-72864462D01*
X144205810Y-73012852D01*
X144586120Y-73088500D01*
X144973880Y-73088500D01*
X145354190Y-73012852D01*
X145679546Y-72878085D01*
X145634870Y-72922761D01*
X145565815Y-73026109D01*
X145518249Y-73140944D01*
X145494000Y-73262852D01*
X145494000Y-73387148D01*
X145518249Y-73509056D01*
X145565815Y-73623891D01*
X145634870Y-73727239D01*
X145722761Y-73815130D01*
X145826109Y-73884185D01*
X145940944Y-73931751D01*
X146062852Y-73956000D01*
X146187148Y-73956000D01*
X146309056Y-73931751D01*
X146423891Y-73884185D01*
X146527239Y-73815130D01*
X146615130Y-73727239D01*
X146684185Y-73623891D01*
X146731751Y-73509056D01*
X146756000Y-73387148D01*
X146756000Y-73262852D01*
X146731751Y-73140944D01*
X146684185Y-73026109D01*
X146615130Y-72922761D01*
X146527239Y-72834870D01*
X146423891Y-72765815D01*
X146309056Y-72718249D01*
X146187148Y-72694000D01*
X146062852Y-72694000D01*
X145940944Y-72718249D01*
X145915461Y-72728804D01*
X146034846Y-72649034D01*
X146309034Y-72374846D01*
X146524462Y-72052435D01*
X146672852Y-71694190D01*
X146748500Y-71313880D01*
X146748500Y-70926120D01*
X146672852Y-70545810D01*
X146524462Y-70187565D01*
X146309034Y-69865154D01*
X146034846Y-69590966D01*
X145712435Y-69375538D01*
X145354190Y-69227148D01*
X144973880Y-69151500D01*
X144586120Y-69151500D01*
X144205810Y-69227148D01*
X143847565Y-69375538D01*
X143525154Y-69590966D01*
X143250966Y-69865154D01*
X143035538Y-70187565D01*
X142887148Y-70545810D01*
X142811500Y-70926120D01*
X128968500Y-70926120D01*
X128892852Y-70545810D01*
X128744462Y-70187565D01*
X128529034Y-69865154D01*
X128254846Y-69590966D01*
X127932435Y-69375538D01*
X127574190Y-69227148D01*
X127193880Y-69151500D01*
X126806120Y-69151500D01*
X126425810Y-69227148D01*
X126067565Y-69375538D01*
X125745154Y-69590966D01*
X125470966Y-69865154D01*
X125255538Y-70187565D01*
X125107148Y-70545810D01*
X125031500Y-70926120D01*
X124937197Y-70926120D01*
X124957835Y-70715640D01*
X125075268Y-70326681D01*
X125266013Y-69967942D01*
X125522807Y-69653082D01*
X125835862Y-69394101D01*
X126193266Y-69200853D01*
X126581394Y-69080707D01*
X127006756Y-69036000D01*
X130714275Y-69036000D01*
X130701748Y-69077294D01*
G04 #@! TA.AperFunction,Conductor*
D21*
G36*
X130701748Y-69077294D02*
G01*
X130689000Y-69206727D01*
X130689000Y-69893272D01*
X130701748Y-70022705D01*
X130752125Y-70188774D01*
X130833932Y-70341824D01*
X130944025Y-70475975D01*
X131078175Y-70586068D01*
X131231225Y-70667875D01*
X131397294Y-70718252D01*
X131570000Y-70735262D01*
X131742705Y-70718252D01*
X131908774Y-70667875D01*
X132061824Y-70586068D01*
X132195975Y-70475975D01*
X132306068Y-70341825D01*
X132387875Y-70188775D01*
X132438252Y-70022706D01*
X132451000Y-69893273D01*
X132451000Y-69206727D01*
X132438252Y-69077294D01*
X132425725Y-69036000D01*
X139354275Y-69036000D01*
X139341748Y-69077294D01*
X139329000Y-69206727D01*
X139329000Y-69893272D01*
X139341748Y-70022705D01*
X139392125Y-70188774D01*
X139473932Y-70341824D01*
X139584025Y-70475975D01*
X139718175Y-70586068D01*
X139871225Y-70667875D01*
X140037294Y-70718252D01*
X140210000Y-70735262D01*
X140382705Y-70718252D01*
X140548774Y-70667875D01*
X140701824Y-70586068D01*
X140716115Y-70574340D01*
X140784870Y-70677239D01*
X140872761Y-70765130D01*
X140976109Y-70834185D01*
X141090944Y-70881751D01*
X141212852Y-70906000D01*
X141337148Y-70906000D01*
X141459056Y-70881751D01*
X141573891Y-70834185D01*
X141677239Y-70765130D01*
X141765130Y-70677239D01*
X141834185Y-70573891D01*
X141881751Y-70459056D01*
X141906000Y-70337148D01*
X141906000Y-70212852D01*
X141881751Y-70090944D01*
X141834185Y-69976109D01*
X141765130Y-69872761D01*
X141677239Y-69784870D01*
X141573891Y-69715815D01*
X141459056Y-69668249D01*
X141337148Y-69644000D01*
X141212852Y-69644000D01*
X141091000Y-69668238D01*
X141091000Y-69206727D01*
X141078252Y-69077294D01*
X141065725Y-69036000D01*
X144757695Y-69036000D01*
X145184360Y-69077835D01*
X145573319Y-69195268D01*
X145932058Y-69386013D01*
X146246918Y-69642807D01*
X146505899Y-69955862D01*
X146699147Y-70313266D01*
X146819293Y-70701394D01*
X146864000Y-71126756D01*
X146864000Y-84163103D01*
X146834717Y-84133820D01*
X146633097Y-83999102D01*
X146409069Y-83906307D01*
X146171243Y-83859000D01*
X145928757Y-83859000D01*
X145690931Y-83906307D01*
X145466903Y-83999102D01*
X145265283Y-84133820D01*
X145093820Y-84305283D01*
X144959102Y-84506903D01*
X144866307Y-84730931D01*
X144819000Y-84968757D01*
X144819000Y-85211243D01*
X144866307Y-85449069D01*
X144959102Y-85673097D01*
X145093820Y-85874717D01*
X145182360Y-85963257D01*
X145134056Y-85943249D01*
X145012148Y-85919000D01*
X144887852Y-85919000D01*
X144765944Y-85943249D01*
X144651109Y-85990815D01*
X144547761Y-86059870D01*
X144459870Y-86147761D01*
X144390815Y-86251109D01*
X144343249Y-86365944D01*
X144319000Y-86487852D01*
X144319000Y-86612148D01*
X144343249Y-86734056D01*
X144390815Y-86848891D01*
X144459870Y-86952239D01*
X144547761Y-87040130D01*
X144651109Y-87109185D01*
X144765944Y-87156751D01*
X144887852Y-87181000D01*
X144903557Y-87181000D01*
X144866307Y-87270931D01*
X144819000Y-87508757D01*
X144819000Y-87751243D01*
X144866307Y-87989069D01*
X144959102Y-88213097D01*
X145093820Y-88414717D01*
X145265283Y-88586180D01*
X145466903Y-88720898D01*
X145690931Y-88813693D01*
X145928757Y-88861000D01*
X146171243Y-88861000D01*
X146409069Y-88813693D01*
X146633097Y-88720898D01*
X146834717Y-88586180D01*
X146864000Y-88556897D01*
X146864000Y-89243103D01*
X146834717Y-89213820D01*
X146633097Y-89079102D01*
X146409069Y-88986307D01*
X146171243Y-88939000D01*
X145928757Y-88939000D01*
X145690931Y-88986307D01*
X145466903Y-89079102D01*
X145265283Y-89213820D01*
X145093820Y-89385283D01*
X144959102Y-89586903D01*
X144866307Y-89810931D01*
X144819000Y-90048757D01*
X144819000Y-90291243D01*
X144866307Y-90529069D01*
X144959102Y-90753097D01*
X145093820Y-90954717D01*
X145265283Y-91126180D01*
X145466903Y-91260898D01*
X145690931Y-91353693D01*
X145928757Y-91401000D01*
X146171243Y-91401000D01*
X146409069Y-91353693D01*
X146633097Y-91260898D01*
X146834717Y-91126180D01*
X146864000Y-91096897D01*
X146864000Y-91783103D01*
X146834717Y-91753820D01*
X146633097Y-91619102D01*
X146409069Y-91526307D01*
X146171243Y-91479000D01*
X145928757Y-91479000D01*
X145690931Y-91526307D01*
X145466903Y-91619102D01*
X145265283Y-91753820D01*
X145093820Y-91925283D01*
X144959102Y-92126903D01*
X144866307Y-92350931D01*
X144819000Y-92588757D01*
X144819000Y-92831243D01*
X144866307Y-93069069D01*
X144959102Y-93293097D01*
X145093820Y-93494717D01*
X145265283Y-93666180D01*
X145466903Y-93800898D01*
X145690931Y-93893693D01*
X145928757Y-93941000D01*
X146171243Y-93941000D01*
X146409069Y-93893693D01*
X146633097Y-93800898D01*
X146834717Y-93666180D01*
X146864000Y-93636897D01*
X146864001Y-94323104D01*
X146834717Y-94293820D01*
X146633097Y-94159102D01*
X146409069Y-94066307D01*
X146171243Y-94019000D01*
X145928757Y-94019000D01*
X145690931Y-94066307D01*
X145466903Y-94159102D01*
X145265283Y-94293820D01*
X145093820Y-94465283D01*
X144959102Y-94666903D01*
X144866307Y-94890931D01*
X144819000Y-95128757D01*
X144819000Y-95371243D01*
X144866307Y-95609069D01*
X144959102Y-95833097D01*
X145093820Y-96034717D01*
X145265283Y-96206180D01*
X145466903Y-96340898D01*
X145690931Y-96433693D01*
X145928757Y-96481000D01*
X146171243Y-96481000D01*
X146409069Y-96433693D01*
X146633097Y-96340898D01*
X146834717Y-96206180D01*
X146864001Y-96176896D01*
X146864001Y-96863104D01*
X146834717Y-96833820D01*
X146633097Y-96699102D01*
X146409069Y-96606307D01*
X146171243Y-96559000D01*
X145928757Y-96559000D01*
X145690931Y-96606307D01*
X145466903Y-96699102D01*
X145311520Y-96802925D01*
X145332712Y-96751764D01*
X145356000Y-96634686D01*
X145356000Y-96515314D01*
X145332712Y-96398236D01*
X145287030Y-96287951D01*
X145220711Y-96188698D01*
X145136302Y-96104289D01*
X145037049Y-96037970D01*
X144926764Y-95992288D01*
X144809686Y-95969000D01*
X144690314Y-95969000D01*
X144573236Y-95992288D01*
X144462951Y-96037970D01*
X144363698Y-96104289D01*
X144279289Y-96188698D01*
X144212970Y-96287951D01*
X144167288Y-96398236D01*
X144144000Y-96515314D01*
X144144000Y-96634686D01*
X144167288Y-96751764D01*
X144212970Y-96862049D01*
X144279289Y-96961302D01*
X144363698Y-97045711D01*
X144462951Y-97112030D01*
X144573236Y-97157712D01*
X144690314Y-97181000D01*
X144809686Y-97181000D01*
X144926764Y-97157712D01*
X145016924Y-97120366D01*
X144959102Y-97206903D01*
X144866307Y-97430931D01*
X144819000Y-97668757D01*
X144819000Y-97911243D01*
X144866307Y-98149069D01*
X144959102Y-98373097D01*
X145093820Y-98574717D01*
X145265283Y-98746180D01*
X145466903Y-98880898D01*
X145690931Y-98973693D01*
X145928757Y-99021000D01*
X146171243Y-99021000D01*
X146409069Y-98973693D01*
X146633097Y-98880898D01*
X146834717Y-98746180D01*
X146864001Y-98716896D01*
X146864001Y-99403104D01*
X146834717Y-99373820D01*
X146633097Y-99239102D01*
X146409069Y-99146307D01*
X146171243Y-99099000D01*
X145928757Y-99099000D01*
X145690931Y-99146307D01*
X145466903Y-99239102D01*
X145265283Y-99373820D01*
X145093820Y-99545283D01*
X144959102Y-99746903D01*
X144866307Y-99970931D01*
X144819000Y-100208757D01*
X144819000Y-100451243D01*
X144866307Y-100689069D01*
X144959102Y-100913097D01*
X145093820Y-101114717D01*
X145265283Y-101286180D01*
X145466903Y-101420898D01*
X145690931Y-101513693D01*
X145928757Y-101561000D01*
X146171243Y-101561000D01*
X146409069Y-101513693D01*
X146633097Y-101420898D01*
X146834717Y-101286180D01*
X146864001Y-101256896D01*
X146864001Y-101943104D01*
X146834717Y-101913820D01*
X146633097Y-101779102D01*
X146409069Y-101686307D01*
X146171243Y-101639000D01*
X145928757Y-101639000D01*
X145690931Y-101686307D01*
X145466903Y-101779102D01*
X145265283Y-101913820D01*
X145093820Y-102085283D01*
X144959102Y-102286903D01*
X144866307Y-102510931D01*
X144819000Y-102748757D01*
X144819000Y-102991243D01*
X144866307Y-103229069D01*
X144959102Y-103453097D01*
X145093820Y-103654717D01*
X145265283Y-103826180D01*
X145466903Y-103960898D01*
X145690931Y-104053693D01*
X145928757Y-104101000D01*
X146171243Y-104101000D01*
X146409069Y-104053693D01*
X146633097Y-103960898D01*
X146834717Y-103826180D01*
X146864001Y-103796896D01*
X146864001Y-104483104D01*
X146834717Y-104453820D01*
X146633097Y-104319102D01*
X146409069Y-104226307D01*
X146171243Y-104179000D01*
X145928757Y-104179000D01*
X145690931Y-104226307D01*
X145466903Y-104319102D01*
X145265283Y-104453820D01*
X145093820Y-104625283D01*
X144959102Y-104826903D01*
X144866307Y-105050931D01*
X144819000Y-105288757D01*
X144819000Y-105531243D01*
X144866307Y-105769069D01*
X144959102Y-105993097D01*
X145046530Y-106123942D01*
X144963698Y-106179289D01*
X144879289Y-106263698D01*
X144812970Y-106362951D01*
X144800109Y-106394000D01*
X144720314Y-106394000D01*
X144603236Y-106417288D01*
X144492951Y-106462970D01*
X144393698Y-106529289D01*
X144309289Y-106613698D01*
X144242970Y-106712951D01*
X144197288Y-106823236D01*
X144174000Y-106940314D01*
X144174000Y-107059686D01*
X144197288Y-107176764D01*
X144242970Y-107287049D01*
X144309289Y-107386302D01*
X144393698Y-107470711D01*
X144492951Y-107537030D01*
X144603236Y-107582712D01*
X144720314Y-107606000D01*
X144839686Y-107606000D01*
X144864283Y-107601107D01*
X144858215Y-107631609D01*
X144769686Y-107614000D01*
X144650314Y-107614000D01*
X144533236Y-107637288D01*
X144422951Y-107682970D01*
X144323698Y-107749289D01*
X144239289Y-107833698D01*
X144172970Y-107932951D01*
X144127288Y-108043236D01*
X144104000Y-108160314D01*
X144104000Y-108279686D01*
X144127288Y-108396764D01*
X144172970Y-108507049D01*
X144239289Y-108606302D01*
X144277987Y-108645000D01*
X144249289Y-108673698D01*
X144182970Y-108772951D01*
X144137288Y-108883236D01*
X144114000Y-109000314D01*
X144114000Y-109119686D01*
X144137288Y-109236764D01*
X144182970Y-109347049D01*
X144249289Y-109446302D01*
X144333698Y-109530711D01*
X144432951Y-109597030D01*
X144543236Y-109642712D01*
X144660314Y-109666000D01*
X144779686Y-109666000D01*
X144896764Y-109642712D01*
X145007049Y-109597030D01*
X145106302Y-109530711D01*
X145190711Y-109446302D01*
X145257030Y-109347049D01*
X145302712Y-109236764D01*
X145326000Y-109119686D01*
X145326000Y-109000314D01*
X145313712Y-108938539D01*
X145466903Y-109040898D01*
X145690931Y-109133693D01*
X145928757Y-109181000D01*
X146171243Y-109181000D01*
X146409069Y-109133693D01*
X146633097Y-109040898D01*
X146834717Y-108906180D01*
X146864001Y-108876896D01*
X146864001Y-109563104D01*
X146834717Y-109533820D01*
X146633097Y-109399102D01*
X146409069Y-109306307D01*
X146171243Y-109259000D01*
X145928757Y-109259000D01*
X145690931Y-109306307D01*
X145466903Y-109399102D01*
X145265283Y-109533820D01*
X145093820Y-109705283D01*
X144959102Y-109906903D01*
X144866307Y-110130931D01*
X144819000Y-110368757D01*
X144819000Y-110611243D01*
X144866307Y-110849069D01*
X144959102Y-111073097D01*
X145093820Y-111274717D01*
X145265283Y-111446180D01*
X145466903Y-111580898D01*
X145690931Y-111673693D01*
X145928757Y-111721000D01*
X146171243Y-111721000D01*
X146409069Y-111673693D01*
X146633097Y-111580898D01*
X146834717Y-111446180D01*
X146864001Y-111416896D01*
X146864001Y-112103104D01*
X146834717Y-112073820D01*
X146633097Y-111939102D01*
X146409069Y-111846307D01*
X146171243Y-111799000D01*
X145928757Y-111799000D01*
X145690931Y-111846307D01*
X145466903Y-111939102D01*
X145265283Y-112073820D01*
X145093820Y-112245283D01*
X144959102Y-112446903D01*
X144866307Y-112670931D01*
X144819000Y-112908757D01*
X144819000Y-113151243D01*
X144866307Y-113389069D01*
X144959102Y-113613097D01*
X145093820Y-113814717D01*
X145265283Y-113986180D01*
X145466903Y-114120898D01*
X145690931Y-114213693D01*
X145928757Y-114261000D01*
X146171243Y-114261000D01*
X146409069Y-114213693D01*
X146633097Y-114120898D01*
X146834717Y-113986180D01*
X146864001Y-113956896D01*
X146864001Y-116817684D01*
X146822165Y-117244359D01*
X146704732Y-117633319D01*
X146513987Y-117992058D01*
X146257193Y-118306918D01*
X145944138Y-118565899D01*
X145586734Y-118759147D01*
X145198606Y-118879293D01*
X144773244Y-118924000D01*
X127022305Y-118924000D01*
X126595641Y-118882165D01*
X126206681Y-118764732D01*
X125847942Y-118573987D01*
X125533082Y-118317193D01*
X125274101Y-118004138D01*
X125080853Y-117646734D01*
X124960707Y-117258606D01*
X124916000Y-116833244D01*
X124916000Y-116677391D01*
X125349000Y-116677391D01*
X125349000Y-117002609D01*
X125412447Y-117321579D01*
X125536903Y-117622042D01*
X125717585Y-117892451D01*
X125947549Y-118122415D01*
X126217958Y-118303097D01*
X126518421Y-118427553D01*
X126837391Y-118491000D01*
X127162609Y-118491000D01*
X127481579Y-118427553D01*
X127782042Y-118303097D01*
X128052451Y-118122415D01*
X128282415Y-117892451D01*
X128463097Y-117622042D01*
X128587553Y-117321579D01*
X128651000Y-117002609D01*
X128651000Y-116677391D01*
X143129000Y-116677391D01*
X143129000Y-117002609D01*
X143192447Y-117321579D01*
X143316903Y-117622042D01*
X143497585Y-117892451D01*
X143727549Y-118122415D01*
X143997958Y-118303097D01*
X144298421Y-118427553D01*
X144617391Y-118491000D01*
X144942609Y-118491000D01*
X145261579Y-118427553D01*
X145562042Y-118303097D01*
X145832451Y-118122415D01*
X146062415Y-117892451D01*
X146243097Y-117622042D01*
X146367553Y-117321579D01*
X146431000Y-117002609D01*
X146431000Y-116677391D01*
X146367553Y-116358421D01*
X146243097Y-116057958D01*
X146062415Y-115787549D01*
X145832451Y-115557585D01*
X145562042Y-115376903D01*
X145261579Y-115252447D01*
X144942609Y-115189000D01*
X144617391Y-115189000D01*
X144298421Y-115252447D01*
X143997958Y-115376903D01*
X143727549Y-115557585D01*
X143497585Y-115787549D01*
X143316903Y-116057958D01*
X143192447Y-116358421D01*
X143129000Y-116677391D01*
X128651000Y-116677391D01*
X128587553Y-116358421D01*
X128463097Y-116057958D01*
X128282415Y-115787549D01*
X128052451Y-115557585D01*
X127782042Y-115376903D01*
X127481579Y-115252447D01*
X127162609Y-115189000D01*
X126837391Y-115189000D01*
X126518421Y-115252447D01*
X126217958Y-115376903D01*
X125947549Y-115557585D01*
X125717585Y-115787549D01*
X125536903Y-116057958D01*
X125412447Y-116358421D01*
X125349000Y-116677391D01*
X124916000Y-116677391D01*
X124916000Y-114006635D01*
X125043267Y-114106629D01*
X125266502Y-114219917D01*
X125507549Y-114287477D01*
X125707000Y-114200044D01*
X125707000Y-113053000D01*
X125753000Y-113053000D01*
X125753000Y-114200044D01*
X125952451Y-114287477D01*
X126193498Y-114219917D01*
X126416733Y-114106629D01*
X126613578Y-113951967D01*
X126776467Y-113761874D01*
X126899141Y-113543656D01*
X126976886Y-113305698D01*
X126987476Y-113252451D01*
X126900024Y-113053000D01*
X125753000Y-113053000D01*
X125707000Y-113053000D01*
X125687000Y-113053000D01*
X125687000Y-113007000D01*
X125707000Y-113007000D01*
X125707000Y-111859956D01*
X125753000Y-111859956D01*
X125753000Y-113007000D01*
X126900024Y-113007000D01*
X126987476Y-112807549D01*
X126976886Y-112754302D01*
X126899141Y-112516344D01*
X126776467Y-112298126D01*
X126613578Y-112108033D01*
X126416733Y-111953371D01*
X126193498Y-111840083D01*
X125952451Y-111772523D01*
X125753000Y-111859956D01*
X125707000Y-111859956D01*
X125507549Y-111772523D01*
X125266502Y-111840083D01*
X125043267Y-111953371D01*
X124916000Y-112053365D01*
X124916000Y-111416897D01*
X124945283Y-111446180D01*
X125146903Y-111580898D01*
X125370931Y-111673693D01*
X125608757Y-111721000D01*
X125851243Y-111721000D01*
X126089069Y-111673693D01*
X126313097Y-111580898D01*
X126514717Y-111446180D01*
X126686180Y-111274717D01*
X126820898Y-111073097D01*
X126913693Y-110849069D01*
X126961000Y-110611243D01*
X126961000Y-110368757D01*
X126913693Y-110130931D01*
X126820898Y-109906903D01*
X126686180Y-109705283D01*
X126514717Y-109533820D01*
X126313097Y-109399102D01*
X126089069Y-109306307D01*
X125851243Y-109259000D01*
X125608757Y-109259000D01*
X125370931Y-109306307D01*
X125146903Y-109399102D01*
X124945283Y-109533820D01*
X124916000Y-109563103D01*
X124916000Y-108876897D01*
X124945283Y-108906180D01*
X125146903Y-109040898D01*
X125370931Y-109133693D01*
X125608757Y-109181000D01*
X125851243Y-109181000D01*
X126089069Y-109133693D01*
X126280707Y-109054314D01*
X128946000Y-109054314D01*
X128946000Y-109173686D01*
X128969288Y-109290764D01*
X129014970Y-109401049D01*
X129081289Y-109500302D01*
X129165698Y-109584711D01*
X129264951Y-109651030D01*
X129375236Y-109696712D01*
X129492314Y-109720000D01*
X129611686Y-109720000D01*
X129728764Y-109696712D01*
X129839049Y-109651030D01*
X129938302Y-109584711D01*
X130022711Y-109500302D01*
X130089030Y-109401049D01*
X130134712Y-109290764D01*
X130158000Y-109173686D01*
X130158000Y-109149314D01*
X135029000Y-109149314D01*
X135029000Y-109268686D01*
X135052288Y-109385764D01*
X135097970Y-109496049D01*
X135164289Y-109595302D01*
X135248698Y-109679711D01*
X135347951Y-109746030D01*
X135458236Y-109791712D01*
X135575314Y-109815000D01*
X135694686Y-109815000D01*
X135811764Y-109791712D01*
X135922049Y-109746030D01*
X136003868Y-109691360D01*
X136089980Y-109748899D01*
X136200265Y-109794581D01*
X136317343Y-109817869D01*
X136436715Y-109817869D01*
X136553793Y-109794581D01*
X136664078Y-109748899D01*
X136763331Y-109682580D01*
X136847740Y-109598171D01*
X136914059Y-109498918D01*
X136959741Y-109388633D01*
X136983029Y-109271555D01*
X136983029Y-109152183D01*
X136959741Y-109035105D01*
X136914059Y-108924820D01*
X136847740Y-108825567D01*
X136763331Y-108741158D01*
X136664078Y-108674839D01*
X136553793Y-108629157D01*
X136436715Y-108605869D01*
X136317343Y-108605869D01*
X136200265Y-108629157D01*
X136089980Y-108674839D01*
X136008161Y-108729509D01*
X135922049Y-108671970D01*
X135811764Y-108626288D01*
X135694686Y-108603000D01*
X135575314Y-108603000D01*
X135458236Y-108626288D01*
X135347951Y-108671970D01*
X135248698Y-108738289D01*
X135164289Y-108822698D01*
X135097970Y-108921951D01*
X135052288Y-109032236D01*
X135029000Y-109149314D01*
X130158000Y-109149314D01*
X130158000Y-109054314D01*
X130134712Y-108937236D01*
X130089030Y-108826951D01*
X130022711Y-108727698D01*
X129938302Y-108643289D01*
X129909696Y-108624175D01*
X129949302Y-108597711D01*
X130033711Y-108513302D01*
X130100030Y-108414049D01*
X130145712Y-108303764D01*
X130169000Y-108186686D01*
X130169000Y-108067314D01*
X130145712Y-107950236D01*
X130100030Y-107839951D01*
X130033711Y-107740698D01*
X129949302Y-107656289D01*
X129910227Y-107630180D01*
X129966302Y-107592711D01*
X130050711Y-107508302D01*
X130117030Y-107409049D01*
X130162712Y-107298764D01*
X130186000Y-107181686D01*
X130186000Y-107062314D01*
X130162712Y-106945236D01*
X130117030Y-106834951D01*
X130078519Y-106777314D01*
X138644000Y-106777314D01*
X138644000Y-106896686D01*
X138667288Y-107013764D01*
X138712970Y-107124049D01*
X138779289Y-107223302D01*
X138863698Y-107307711D01*
X138889821Y-107325166D01*
X138828289Y-107386698D01*
X138761970Y-107485951D01*
X138716288Y-107596236D01*
X138693000Y-107713314D01*
X138693000Y-107832686D01*
X138716288Y-107949764D01*
X138761970Y-108060049D01*
X138828289Y-108159302D01*
X138912698Y-108243711D01*
X139011951Y-108310030D01*
X139122236Y-108355712D01*
X139239314Y-108379000D01*
X139358686Y-108379000D01*
X139475764Y-108355712D01*
X139586049Y-108310030D01*
X139685302Y-108243711D01*
X139769711Y-108159302D01*
X139836030Y-108060049D01*
X139881712Y-107949764D01*
X139905000Y-107832686D01*
X139905000Y-107782716D01*
X139933007Y-107788287D01*
X140052379Y-107788287D01*
X140169457Y-107764999D01*
X140279742Y-107719317D01*
X140378995Y-107652998D01*
X140463404Y-107568589D01*
X140529723Y-107469336D01*
X140575405Y-107359051D01*
X140598693Y-107241973D01*
X140598693Y-107122601D01*
X140575405Y-107005523D01*
X140529723Y-106895238D01*
X140463404Y-106795985D01*
X140378995Y-106711576D01*
X140279742Y-106645257D01*
X140169457Y-106599575D01*
X140052379Y-106576287D01*
X139933007Y-106576287D01*
X139815929Y-106599575D01*
X139808807Y-106602525D01*
X139787030Y-106549951D01*
X139720711Y-106450698D01*
X139636302Y-106366289D01*
X139537049Y-106299970D01*
X139426764Y-106254288D01*
X139309686Y-106231000D01*
X139190314Y-106231000D01*
X139073236Y-106254288D01*
X138962951Y-106299970D01*
X138863698Y-106366289D01*
X138779289Y-106450698D01*
X138712970Y-106549951D01*
X138667288Y-106660236D01*
X138644000Y-106777314D01*
X130078519Y-106777314D01*
X130050711Y-106735698D01*
X129966302Y-106651289D01*
X129867049Y-106584970D01*
X129756764Y-106539288D01*
X129639686Y-106516000D01*
X129520314Y-106516000D01*
X129403236Y-106539288D01*
X129292951Y-106584970D01*
X129193698Y-106651289D01*
X129109289Y-106735698D01*
X129042970Y-106834951D01*
X128997288Y-106945236D01*
X128974000Y-107062314D01*
X128974000Y-107181686D01*
X128997288Y-107298764D01*
X129042970Y-107409049D01*
X129109289Y-107508302D01*
X129193698Y-107592711D01*
X129232773Y-107618820D01*
X129176698Y-107656289D01*
X129092289Y-107740698D01*
X129025970Y-107839951D01*
X128980288Y-107950236D01*
X128957000Y-108067314D01*
X128957000Y-108186686D01*
X128980288Y-108303764D01*
X129025970Y-108414049D01*
X129092289Y-108513302D01*
X129176698Y-108597711D01*
X129205304Y-108616825D01*
X129165698Y-108643289D01*
X129081289Y-108727698D01*
X129014970Y-108826951D01*
X128969288Y-108937236D01*
X128946000Y-109054314D01*
X126280707Y-109054314D01*
X126313097Y-109040898D01*
X126514717Y-108906180D01*
X126686180Y-108734717D01*
X126820898Y-108533097D01*
X126913693Y-108309069D01*
X126961000Y-108071243D01*
X126961000Y-107828757D01*
X126913693Y-107590931D01*
X126820898Y-107366903D01*
X126686180Y-107165283D01*
X126514717Y-106993820D01*
X126313097Y-106859102D01*
X126089069Y-106766307D01*
X125851243Y-106719000D01*
X125608757Y-106719000D01*
X125370931Y-106766307D01*
X125146903Y-106859102D01*
X124945283Y-106993820D01*
X124916000Y-107023103D01*
X124916000Y-106336897D01*
X124945283Y-106366180D01*
X125146903Y-106500898D01*
X125370931Y-106593693D01*
X125608757Y-106641000D01*
X125851243Y-106641000D01*
X126089069Y-106593693D01*
X126313097Y-106500898D01*
X126514717Y-106366180D01*
X126686180Y-106194717D01*
X126820898Y-105993097D01*
X126913693Y-105769069D01*
X126961000Y-105531243D01*
X126961000Y-105288757D01*
X126913693Y-105050931D01*
X126820898Y-104826903D01*
X126802168Y-104798872D01*
X126876349Y-104829599D01*
X126993427Y-104852887D01*
X127112799Y-104852887D01*
X127229877Y-104829599D01*
X127340162Y-104783917D01*
X127439415Y-104717598D01*
X127523824Y-104633189D01*
X127590143Y-104533936D01*
X127635825Y-104423651D01*
X127659113Y-104306573D01*
X127659113Y-104260314D01*
X143941590Y-104260314D01*
X143941590Y-104379686D01*
X143964878Y-104496764D01*
X144010560Y-104607049D01*
X144076879Y-104706302D01*
X144161288Y-104790711D01*
X144260541Y-104857030D01*
X144370826Y-104902712D01*
X144487904Y-104926000D01*
X144607276Y-104926000D01*
X144724354Y-104902712D01*
X144834639Y-104857030D01*
X144933892Y-104790711D01*
X145018301Y-104706302D01*
X145084620Y-104607049D01*
X145130302Y-104496764D01*
X145153590Y-104379686D01*
X145153590Y-104260314D01*
X145130302Y-104143236D01*
X145084620Y-104032951D01*
X145018301Y-103933698D01*
X144933892Y-103849289D01*
X144834639Y-103782970D01*
X144724354Y-103737288D01*
X144607276Y-103714000D01*
X144487904Y-103714000D01*
X144370826Y-103737288D01*
X144260541Y-103782970D01*
X144161288Y-103849289D01*
X144076879Y-103933698D01*
X144010560Y-104032951D01*
X143964878Y-104143236D01*
X143941590Y-104260314D01*
X127659113Y-104260314D01*
X127659113Y-104187201D01*
X127635825Y-104070123D01*
X127590143Y-103959838D01*
X127552905Y-103904108D01*
X127570711Y-103886302D01*
X127637030Y-103787049D01*
X127682712Y-103676764D01*
X127706000Y-103559686D01*
X127706000Y-103440314D01*
X127682712Y-103323236D01*
X127637030Y-103212951D01*
X127570711Y-103113698D01*
X127486302Y-103029289D01*
X127387049Y-102962970D01*
X127276764Y-102917288D01*
X127159686Y-102894000D01*
X127040314Y-102894000D01*
X126961000Y-102909776D01*
X126961000Y-102748757D01*
X126913693Y-102510931D01*
X126820898Y-102286903D01*
X126702108Y-102109121D01*
X126763698Y-102170711D01*
X126862951Y-102237030D01*
X126973236Y-102282712D01*
X127090314Y-102306000D01*
X127209686Y-102306000D01*
X127326764Y-102282712D01*
X127437049Y-102237030D01*
X127536302Y-102170711D01*
X127620711Y-102086302D01*
X127634734Y-102065314D01*
X128919000Y-102065314D01*
X128919000Y-102184686D01*
X128942288Y-102301764D01*
X128987970Y-102412049D01*
X129054289Y-102511302D01*
X129138698Y-102595711D01*
X129237951Y-102662030D01*
X129348236Y-102707712D01*
X129465314Y-102731000D01*
X129584686Y-102731000D01*
X129701764Y-102707712D01*
X129812049Y-102662030D01*
X129911302Y-102595711D01*
X129995711Y-102511302D01*
X130062030Y-102412049D01*
X130107712Y-102301764D01*
X130131000Y-102184686D01*
X130131000Y-102065314D01*
X130126028Y-102040314D01*
X133044000Y-102040314D01*
X133044000Y-102159686D01*
X133067288Y-102276764D01*
X133112970Y-102387049D01*
X133179289Y-102486302D01*
X133263698Y-102570711D01*
X133362951Y-102637030D01*
X133473236Y-102682712D01*
X133590314Y-102706000D01*
X133709686Y-102706000D01*
X133826764Y-102682712D01*
X133937049Y-102637030D01*
X134036302Y-102570711D01*
X134120711Y-102486302D01*
X134187030Y-102387049D01*
X134232712Y-102276764D01*
X134256000Y-102159686D01*
X134256000Y-102040314D01*
X134232712Y-101923236D01*
X134187030Y-101812951D01*
X134120711Y-101713698D01*
X134036302Y-101629289D01*
X133937049Y-101562970D01*
X133826764Y-101517288D01*
X133709686Y-101494000D01*
X133590314Y-101494000D01*
X133473236Y-101517288D01*
X133362951Y-101562970D01*
X133263698Y-101629289D01*
X133179289Y-101713698D01*
X133112970Y-101812951D01*
X133067288Y-101923236D01*
X133044000Y-102040314D01*
X130126028Y-102040314D01*
X130107712Y-101948236D01*
X130062030Y-101837951D01*
X129995711Y-101738698D01*
X129911302Y-101654289D01*
X129812049Y-101587970D01*
X129701764Y-101542288D01*
X129584686Y-101519000D01*
X129465314Y-101519000D01*
X129348236Y-101542288D01*
X129237951Y-101587970D01*
X129138698Y-101654289D01*
X129054289Y-101738698D01*
X128987970Y-101837951D01*
X128942288Y-101948236D01*
X128919000Y-102065314D01*
X127634734Y-102065314D01*
X127687030Y-101987049D01*
X127732712Y-101876764D01*
X127756000Y-101759686D01*
X127756000Y-101640314D01*
X127732712Y-101523236D01*
X127687030Y-101412951D01*
X127620711Y-101313698D01*
X127536302Y-101229289D01*
X127437049Y-101162970D01*
X127326764Y-101117288D01*
X127209686Y-101094000D01*
X127090314Y-101094000D01*
X126973236Y-101117288D01*
X126862951Y-101162970D01*
X126763698Y-101229289D01*
X126679289Y-101313698D01*
X126612970Y-101412951D01*
X126567288Y-101523236D01*
X126544000Y-101640314D01*
X126544000Y-101759686D01*
X126567288Y-101876764D01*
X126612970Y-101987049D01*
X126663361Y-102062464D01*
X126514717Y-101913820D01*
X126313097Y-101779102D01*
X126089069Y-101686307D01*
X125851243Y-101639000D01*
X125608757Y-101639000D01*
X125370931Y-101686307D01*
X125146903Y-101779102D01*
X124945283Y-101913820D01*
X124916000Y-101943103D01*
X124916000Y-101256897D01*
X124945283Y-101286180D01*
X125146903Y-101420898D01*
X125370931Y-101513693D01*
X125608757Y-101561000D01*
X125851243Y-101561000D01*
X126089069Y-101513693D01*
X126313097Y-101420898D01*
X126514717Y-101286180D01*
X126686180Y-101114717D01*
X126820898Y-100913097D01*
X126913693Y-100689069D01*
X126961000Y-100451243D01*
X126961000Y-100208757D01*
X126913693Y-99970931D01*
X126820898Y-99746903D01*
X126686180Y-99545283D01*
X126514717Y-99373820D01*
X126313097Y-99239102D01*
X126089069Y-99146307D01*
X125851243Y-99099000D01*
X125608757Y-99099000D01*
X125370931Y-99146307D01*
X125146903Y-99239102D01*
X124945283Y-99373820D01*
X124916000Y-99403103D01*
X124916000Y-98716897D01*
X124945283Y-98746180D01*
X125146903Y-98880898D01*
X125370931Y-98973693D01*
X125608757Y-99021000D01*
X125851243Y-99021000D01*
X126089069Y-98973693D01*
X126313097Y-98880898D01*
X126398000Y-98824168D01*
X126398000Y-98841686D01*
X126421288Y-98958764D01*
X126466970Y-99069049D01*
X126533289Y-99168302D01*
X126617698Y-99252711D01*
X126716951Y-99319030D01*
X126827236Y-99364712D01*
X126944314Y-99388000D01*
X127063686Y-99388000D01*
X127180764Y-99364712D01*
X127291049Y-99319030D01*
X127390302Y-99252711D01*
X127474711Y-99168302D01*
X127541030Y-99069049D01*
X127548790Y-99050314D01*
X144034000Y-99050314D01*
X144034000Y-99169686D01*
X144057288Y-99286764D01*
X144102970Y-99397049D01*
X144169289Y-99496302D01*
X144253698Y-99580711D01*
X144352951Y-99647030D01*
X144463236Y-99692712D01*
X144580314Y-99716000D01*
X144699686Y-99716000D01*
X144816764Y-99692712D01*
X144927049Y-99647030D01*
X145026302Y-99580711D01*
X145110711Y-99496302D01*
X145177030Y-99397049D01*
X145222712Y-99286764D01*
X145246000Y-99169686D01*
X145246000Y-99050314D01*
X145222712Y-98933236D01*
X145177030Y-98822951D01*
X145110711Y-98723698D01*
X145026302Y-98639289D01*
X144927049Y-98572970D01*
X144816764Y-98527288D01*
X144699686Y-98504000D01*
X144580314Y-98504000D01*
X144463236Y-98527288D01*
X144352951Y-98572970D01*
X144253698Y-98639289D01*
X144169289Y-98723698D01*
X144102970Y-98822951D01*
X144057288Y-98933236D01*
X144034000Y-99050314D01*
X127548790Y-99050314D01*
X127586712Y-98958764D01*
X127610000Y-98841686D01*
X127610000Y-98722314D01*
X127586712Y-98605236D01*
X127541030Y-98494951D01*
X127474711Y-98395698D01*
X127443165Y-98364152D01*
X127454302Y-98356711D01*
X127538711Y-98272302D01*
X127605030Y-98173049D01*
X127650712Y-98062764D01*
X127674000Y-97945686D01*
X127674000Y-97826314D01*
X127650712Y-97709236D01*
X127605030Y-97598951D01*
X127538711Y-97499698D01*
X127523781Y-97484768D01*
X127569030Y-97417049D01*
X127614712Y-97306764D01*
X127638000Y-97189686D01*
X127638000Y-97070314D01*
X127614712Y-96953236D01*
X127569030Y-96842951D01*
X127502711Y-96743698D01*
X127462895Y-96703882D01*
X127476463Y-96690314D01*
X129044000Y-96690314D01*
X129044000Y-96809686D01*
X129067288Y-96926764D01*
X129112970Y-97037049D01*
X129179289Y-97136302D01*
X129263698Y-97220711D01*
X129362951Y-97287030D01*
X129473236Y-97332712D01*
X129590314Y-97356000D01*
X129709686Y-97356000D01*
X129826764Y-97332712D01*
X129937049Y-97287030D01*
X130036302Y-97220711D01*
X130120711Y-97136302D01*
X130187030Y-97037049D01*
X130232712Y-96926764D01*
X130256000Y-96809686D01*
X130256000Y-96690314D01*
X130232712Y-96573236D01*
X130187030Y-96462951D01*
X130120711Y-96363698D01*
X130036302Y-96279289D01*
X129937049Y-96212970D01*
X129826764Y-96167288D01*
X129709686Y-96144000D01*
X129590314Y-96144000D01*
X129473236Y-96167288D01*
X129362951Y-96212970D01*
X129263698Y-96279289D01*
X129179289Y-96363698D01*
X129112970Y-96462951D01*
X129067288Y-96573236D01*
X129044000Y-96690314D01*
X127476463Y-96690314D01*
X127506320Y-96660457D01*
X127572639Y-96561204D01*
X127618321Y-96450919D01*
X127641609Y-96333841D01*
X127641609Y-96214469D01*
X127626660Y-96139314D01*
X131895000Y-96139314D01*
X131895000Y-96258686D01*
X131918288Y-96375764D01*
X131963970Y-96486049D01*
X132030289Y-96585302D01*
X132114698Y-96669711D01*
X132213951Y-96736030D01*
X132324236Y-96781712D01*
X132441314Y-96805000D01*
X132560686Y-96805000D01*
X132677764Y-96781712D01*
X132788049Y-96736030D01*
X132887302Y-96669711D01*
X132971711Y-96585302D01*
X133038030Y-96486049D01*
X133083712Y-96375764D01*
X133107000Y-96258686D01*
X133107000Y-96139314D01*
X133083712Y-96022236D01*
X133041495Y-95920314D01*
X138784000Y-95920314D01*
X138784000Y-96039686D01*
X138807288Y-96156764D01*
X138852970Y-96267049D01*
X138919289Y-96366302D01*
X139003698Y-96450711D01*
X139102951Y-96517030D01*
X139213236Y-96562712D01*
X139330314Y-96586000D01*
X139449686Y-96586000D01*
X139566764Y-96562712D01*
X139677049Y-96517030D01*
X139776302Y-96450711D01*
X139860711Y-96366302D01*
X139927030Y-96267049D01*
X139972712Y-96156764D01*
X139996000Y-96039686D01*
X139996000Y-95920314D01*
X139972712Y-95803236D01*
X139927030Y-95692951D01*
X139860711Y-95593698D01*
X139776302Y-95509289D01*
X139677049Y-95442970D01*
X139566764Y-95397288D01*
X139449686Y-95374000D01*
X139330314Y-95374000D01*
X139213236Y-95397288D01*
X139102951Y-95442970D01*
X139003698Y-95509289D01*
X138919289Y-95593698D01*
X138852970Y-95692951D01*
X138807288Y-95803236D01*
X138784000Y-95920314D01*
X133041495Y-95920314D01*
X133038030Y-95911951D01*
X132971711Y-95812698D01*
X132887302Y-95728289D01*
X132788049Y-95661970D01*
X132677764Y-95616288D01*
X132560686Y-95593000D01*
X132441314Y-95593000D01*
X132324236Y-95616288D01*
X132213951Y-95661970D01*
X132114698Y-95728289D01*
X132030289Y-95812698D01*
X131963970Y-95911951D01*
X131918288Y-96022236D01*
X131895000Y-96139314D01*
X127626660Y-96139314D01*
X127618321Y-96097391D01*
X127572639Y-95987106D01*
X127506320Y-95887853D01*
X127421911Y-95803444D01*
X127322658Y-95737125D01*
X127212373Y-95691443D01*
X127095295Y-95668155D01*
X126975923Y-95668155D01*
X126881434Y-95686950D01*
X126913693Y-95609069D01*
X126961000Y-95371243D01*
X126961000Y-95128757D01*
X126942449Y-95035494D01*
X127601138Y-95035494D01*
X127601138Y-95154866D01*
X127624426Y-95271944D01*
X127670108Y-95382229D01*
X127736427Y-95481482D01*
X127820836Y-95565891D01*
X127920089Y-95632210D01*
X128030374Y-95677892D01*
X128147452Y-95701180D01*
X128266824Y-95701180D01*
X128383902Y-95677892D01*
X128494187Y-95632210D01*
X128593440Y-95565891D01*
X128615969Y-95543362D01*
X128706643Y-95603949D01*
X128816928Y-95649631D01*
X128934006Y-95672919D01*
X129053378Y-95672919D01*
X129170456Y-95649631D01*
X129280741Y-95603949D01*
X129379994Y-95537630D01*
X129464403Y-95453221D01*
X129530722Y-95353968D01*
X129576404Y-95243683D01*
X129599692Y-95126605D01*
X129599692Y-95007233D01*
X129576404Y-94890155D01*
X129530722Y-94779870D01*
X129464403Y-94680617D01*
X129379994Y-94596208D01*
X129280741Y-94529889D01*
X129170456Y-94484207D01*
X129053378Y-94460919D01*
X128934006Y-94460919D01*
X128816928Y-94484207D01*
X128706643Y-94529889D01*
X128607390Y-94596208D01*
X128584861Y-94618737D01*
X128494187Y-94558150D01*
X128383902Y-94512468D01*
X128266824Y-94489180D01*
X128147452Y-94489180D01*
X128030374Y-94512468D01*
X127920089Y-94558150D01*
X127820836Y-94624469D01*
X127736427Y-94708878D01*
X127670108Y-94808131D01*
X127624426Y-94918416D01*
X127601138Y-95035494D01*
X126942449Y-95035494D01*
X126913693Y-94890931D01*
X126820898Y-94666903D01*
X126686180Y-94465283D01*
X126583824Y-94362927D01*
X136709262Y-94362927D01*
X136709262Y-94497073D01*
X136735433Y-94628640D01*
X136786768Y-94752574D01*
X136861295Y-94864112D01*
X136956150Y-94958967D01*
X137067688Y-95033494D01*
X137191622Y-95084829D01*
X137323189Y-95111000D01*
X137457335Y-95111000D01*
X137588902Y-95084829D01*
X137712836Y-95033494D01*
X137824374Y-94958967D01*
X137919229Y-94864112D01*
X137993756Y-94752574D01*
X138045091Y-94628640D01*
X138071262Y-94497073D01*
X138071262Y-94410314D01*
X141614000Y-94410314D01*
X141614000Y-94529686D01*
X141637288Y-94646764D01*
X141682970Y-94757049D01*
X141749289Y-94856302D01*
X141833698Y-94940711D01*
X141932951Y-95007030D01*
X142043236Y-95052712D01*
X142160314Y-95076000D01*
X142279686Y-95076000D01*
X142396764Y-95052712D01*
X142507049Y-95007030D01*
X142606302Y-94940711D01*
X142690711Y-94856302D01*
X142757030Y-94757049D01*
X142802712Y-94646764D01*
X142826000Y-94529686D01*
X142826000Y-94410314D01*
X142802712Y-94293236D01*
X142757030Y-94182951D01*
X142690711Y-94083698D01*
X142606302Y-93999289D01*
X142507049Y-93932970D01*
X142396764Y-93887288D01*
X142279686Y-93864000D01*
X142160314Y-93864000D01*
X142043236Y-93887288D01*
X141932951Y-93932970D01*
X141833698Y-93999289D01*
X141749289Y-94083698D01*
X141682970Y-94182951D01*
X141637288Y-94293236D01*
X141614000Y-94410314D01*
X138071262Y-94410314D01*
X138071262Y-94362927D01*
X138045091Y-94231360D01*
X137993756Y-94107426D01*
X137919229Y-93995888D01*
X137824374Y-93901033D01*
X137712836Y-93826506D01*
X137588902Y-93775171D01*
X137457335Y-93749000D01*
X137323189Y-93749000D01*
X137191622Y-93775171D01*
X137067688Y-93826506D01*
X136956150Y-93901033D01*
X136861295Y-93995888D01*
X136786768Y-94107426D01*
X136735433Y-94231360D01*
X136709262Y-94362927D01*
X126583824Y-94362927D01*
X126514717Y-94293820D01*
X126313097Y-94159102D01*
X126089069Y-94066307D01*
X125851243Y-94019000D01*
X125608757Y-94019000D01*
X125370931Y-94066307D01*
X125146903Y-94159102D01*
X124945283Y-94293820D01*
X124916000Y-94323103D01*
X124916000Y-93636897D01*
X124945283Y-93666180D01*
X125146903Y-93800898D01*
X125370931Y-93893693D01*
X125608757Y-93941000D01*
X125851243Y-93941000D01*
X126089069Y-93893693D01*
X126148527Y-93869065D01*
X126176879Y-93911497D01*
X126261288Y-93995906D01*
X126360541Y-94062225D01*
X126470826Y-94107907D01*
X126587904Y-94131195D01*
X126707276Y-94131195D01*
X126824354Y-94107907D01*
X126934639Y-94062225D01*
X127033892Y-93995906D01*
X127118301Y-93911497D01*
X127184620Y-93812244D01*
X127230302Y-93701959D01*
X127253590Y-93584881D01*
X127253590Y-93465509D01*
X127230302Y-93348431D01*
X127185519Y-93240314D01*
X132694000Y-93240314D01*
X132694000Y-93359686D01*
X132717288Y-93476764D01*
X132762970Y-93587049D01*
X132829289Y-93686302D01*
X132913698Y-93770711D01*
X133012951Y-93837030D01*
X133123236Y-93882712D01*
X133240314Y-93906000D01*
X133359686Y-93906000D01*
X133476764Y-93882712D01*
X133587049Y-93837030D01*
X133686302Y-93770711D01*
X133770711Y-93686302D01*
X133837030Y-93587049D01*
X133882712Y-93476764D01*
X133906000Y-93359686D01*
X133906000Y-93270314D01*
X138414000Y-93270314D01*
X138414000Y-93389686D01*
X138437288Y-93506764D01*
X138482970Y-93617049D01*
X138549289Y-93716302D01*
X138633698Y-93800711D01*
X138732951Y-93867030D01*
X138843236Y-93912712D01*
X138960314Y-93936000D01*
X139079686Y-93936000D01*
X139196764Y-93912712D01*
X139307049Y-93867030D01*
X139406302Y-93800711D01*
X139490711Y-93716302D01*
X139557030Y-93617049D01*
X139602712Y-93506764D01*
X139626000Y-93389686D01*
X139626000Y-93340314D01*
X139984000Y-93340314D01*
X139984000Y-93459686D01*
X140007288Y-93576764D01*
X140052970Y-93687049D01*
X140119289Y-93786302D01*
X140203698Y-93870711D01*
X140302951Y-93937030D01*
X140413236Y-93982712D01*
X140530314Y-94006000D01*
X140649686Y-94006000D01*
X140766764Y-93982712D01*
X140877049Y-93937030D01*
X140976302Y-93870711D01*
X141060711Y-93786302D01*
X141127030Y-93687049D01*
X141172712Y-93576764D01*
X141196000Y-93459686D01*
X141196000Y-93340314D01*
X141172712Y-93223236D01*
X141127030Y-93112951D01*
X141060711Y-93013698D01*
X140976302Y-92929289D01*
X140877049Y-92862970D01*
X140766764Y-92817288D01*
X140649686Y-92794000D01*
X140530314Y-92794000D01*
X140413236Y-92817288D01*
X140302951Y-92862970D01*
X140203698Y-92929289D01*
X140119289Y-93013698D01*
X140052970Y-93112951D01*
X140007288Y-93223236D01*
X139984000Y-93340314D01*
X139626000Y-93340314D01*
X139626000Y-93270314D01*
X139602712Y-93153236D01*
X139557030Y-93042951D01*
X139490711Y-92943698D01*
X139406302Y-92859289D01*
X139307049Y-92792970D01*
X139196764Y-92747288D01*
X139079686Y-92724000D01*
X138960314Y-92724000D01*
X138843236Y-92747288D01*
X138732951Y-92792970D01*
X138633698Y-92859289D01*
X138549289Y-92943698D01*
X138482970Y-93042951D01*
X138437288Y-93153236D01*
X138414000Y-93270314D01*
X133906000Y-93270314D01*
X133906000Y-93240314D01*
X133882712Y-93123236D01*
X133837030Y-93012951D01*
X133770711Y-92913698D01*
X133686302Y-92829289D01*
X133587049Y-92762970D01*
X133476764Y-92717288D01*
X133359686Y-92694000D01*
X133240314Y-92694000D01*
X133123236Y-92717288D01*
X133012951Y-92762970D01*
X132913698Y-92829289D01*
X132829289Y-92913698D01*
X132762970Y-93012951D01*
X132717288Y-93123236D01*
X132694000Y-93240314D01*
X127185519Y-93240314D01*
X127184620Y-93238146D01*
X127118301Y-93138893D01*
X127033892Y-93054484D01*
X126934639Y-92988165D01*
X126930155Y-92986308D01*
X126961000Y-92831243D01*
X126961000Y-92588757D01*
X126913693Y-92350931D01*
X126820898Y-92126903D01*
X126686180Y-91925283D01*
X126514717Y-91753820D01*
X126313097Y-91619102D01*
X126089069Y-91526307D01*
X125851243Y-91479000D01*
X125608757Y-91479000D01*
X125370931Y-91526307D01*
X125146903Y-91619102D01*
X124945283Y-91753820D01*
X124916000Y-91783103D01*
X124916000Y-91470455D01*
X129026620Y-91470455D01*
X129026620Y-91589827D01*
X129049908Y-91706905D01*
X129095590Y-91817190D01*
X129161909Y-91916443D01*
X129246318Y-92000852D01*
X129345571Y-92067171D01*
X129455856Y-92112853D01*
X129572934Y-92136141D01*
X129692306Y-92136141D01*
X129809384Y-92112853D01*
X129919669Y-92067171D01*
X130018922Y-92000852D01*
X130103331Y-91916443D01*
X130169650Y-91817190D01*
X130208423Y-91723584D01*
X130240942Y-91772252D01*
X130325351Y-91856661D01*
X130424604Y-91922980D01*
X130534889Y-91968662D01*
X130651967Y-91991950D01*
X130771339Y-91991950D01*
X130888417Y-91968662D01*
X130998702Y-91922980D01*
X131097955Y-91856661D01*
X131182364Y-91772252D01*
X131205349Y-91737852D01*
X133669000Y-91737852D01*
X133669000Y-91862148D01*
X133693249Y-91984056D01*
X133740815Y-92098891D01*
X133741556Y-92100000D01*
X133740815Y-92101109D01*
X133693249Y-92215944D01*
X133669000Y-92337852D01*
X133669000Y-92462148D01*
X133693249Y-92584056D01*
X133740815Y-92698891D01*
X133809870Y-92802239D01*
X133897761Y-92890130D01*
X134001109Y-92959185D01*
X134115944Y-93006751D01*
X134237852Y-93031000D01*
X134362148Y-93031000D01*
X134484056Y-93006751D01*
X134598891Y-92959185D01*
X134702239Y-92890130D01*
X134790130Y-92802239D01*
X134859185Y-92698891D01*
X134906751Y-92584056D01*
X134916799Y-92533537D01*
X136680767Y-92533537D01*
X136680767Y-92652909D01*
X136704055Y-92769987D01*
X136749737Y-92880272D01*
X136816056Y-92979525D01*
X136900465Y-93063934D01*
X136999718Y-93130253D01*
X137110003Y-93175935D01*
X137227081Y-93199223D01*
X137346453Y-93199223D01*
X137463531Y-93175935D01*
X137573816Y-93130253D01*
X137673069Y-93063934D01*
X137757478Y-92979525D01*
X137823797Y-92880272D01*
X137869479Y-92769987D01*
X137892767Y-92652909D01*
X137892767Y-92637852D01*
X141869000Y-92637852D01*
X141869000Y-92762148D01*
X141893249Y-92884056D01*
X141940815Y-92998891D01*
X142009870Y-93102239D01*
X142097761Y-93190130D01*
X142201109Y-93259185D01*
X142315944Y-93306751D01*
X142437852Y-93331000D01*
X142562148Y-93331000D01*
X142684056Y-93306751D01*
X142798891Y-93259185D01*
X142902239Y-93190130D01*
X142990130Y-93102239D01*
X143059185Y-92998891D01*
X143106751Y-92884056D01*
X143131000Y-92762148D01*
X143131000Y-92637852D01*
X143106751Y-92515944D01*
X143059185Y-92401109D01*
X142990130Y-92297761D01*
X142902239Y-92209870D01*
X142798891Y-92140815D01*
X142684056Y-92093249D01*
X142562148Y-92069000D01*
X142437852Y-92069000D01*
X142315944Y-92093249D01*
X142201109Y-92140815D01*
X142097761Y-92209870D01*
X142009870Y-92297761D01*
X141940815Y-92401109D01*
X141893249Y-92515944D01*
X141869000Y-92637852D01*
X137892767Y-92637852D01*
X137892767Y-92533537D01*
X137869479Y-92416459D01*
X137823797Y-92306174D01*
X137757478Y-92206921D01*
X137673069Y-92122512D01*
X137573816Y-92056193D01*
X137463531Y-92010511D01*
X137346453Y-91987223D01*
X137227081Y-91987223D01*
X137110003Y-92010511D01*
X136999718Y-92056193D01*
X136900465Y-92122512D01*
X136816056Y-92206921D01*
X136749737Y-92306174D01*
X136704055Y-92416459D01*
X136680767Y-92533537D01*
X134916799Y-92533537D01*
X134931000Y-92462148D01*
X134931000Y-92337852D01*
X134906751Y-92215944D01*
X134859185Y-92101109D01*
X134858444Y-92100000D01*
X134859185Y-92098891D01*
X134906751Y-91984056D01*
X134931000Y-91862148D01*
X134931000Y-91737852D01*
X134906751Y-91615944D01*
X134859185Y-91501109D01*
X134848306Y-91484827D01*
X134882712Y-91401764D01*
X134906000Y-91284686D01*
X134906000Y-91165314D01*
X134882712Y-91048236D01*
X134837030Y-90937951D01*
X134770711Y-90838698D01*
X134686302Y-90754289D01*
X134587049Y-90687970D01*
X134476764Y-90642288D01*
X134359686Y-90619000D01*
X134240314Y-90619000D01*
X134123236Y-90642288D01*
X134012951Y-90687970D01*
X133913698Y-90754289D01*
X133829289Y-90838698D01*
X133762970Y-90937951D01*
X133717288Y-91048236D01*
X133694000Y-91165314D01*
X133694000Y-91284686D01*
X133717288Y-91401764D01*
X133751694Y-91484827D01*
X133740815Y-91501109D01*
X133693249Y-91615944D01*
X133669000Y-91737852D01*
X131205349Y-91737852D01*
X131248683Y-91672999D01*
X131294365Y-91562714D01*
X131317653Y-91445636D01*
X131317653Y-91326264D01*
X131294365Y-91209186D01*
X131248683Y-91098901D01*
X131207832Y-91037763D01*
X131270295Y-90944280D01*
X131315977Y-90833995D01*
X131339265Y-90716917D01*
X131339265Y-90597545D01*
X131315977Y-90480467D01*
X131270295Y-90370182D01*
X131203976Y-90270929D01*
X131119567Y-90186520D01*
X131020314Y-90120201D01*
X130910029Y-90074519D01*
X130792951Y-90051231D01*
X130673579Y-90051231D01*
X130556501Y-90074519D01*
X130446216Y-90120201D01*
X130346963Y-90186520D01*
X130262554Y-90270929D01*
X130196235Y-90370182D01*
X130150553Y-90480467D01*
X130127265Y-90597545D01*
X130127265Y-90716917D01*
X130150553Y-90833995D01*
X130196235Y-90944280D01*
X130237086Y-91005418D01*
X130174623Y-91098901D01*
X130135850Y-91192507D01*
X130103331Y-91143839D01*
X130018922Y-91059430D01*
X129919669Y-90993111D01*
X129809384Y-90947429D01*
X129692306Y-90924141D01*
X129572934Y-90924141D01*
X129455856Y-90947429D01*
X129345571Y-90993111D01*
X129246318Y-91059430D01*
X129161909Y-91143839D01*
X129095590Y-91243092D01*
X129049908Y-91353377D01*
X129026620Y-91470455D01*
X124916000Y-91470455D01*
X124916000Y-91096897D01*
X124945283Y-91126180D01*
X125146903Y-91260898D01*
X125370931Y-91353693D01*
X125608757Y-91401000D01*
X125851243Y-91401000D01*
X126089069Y-91353693D01*
X126313097Y-91260898D01*
X126514717Y-91126180D01*
X126686180Y-90954717D01*
X126820898Y-90753097D01*
X126913693Y-90529069D01*
X126961000Y-90291243D01*
X126961000Y-90048757D01*
X126913693Y-89810931D01*
X126820898Y-89586903D01*
X126686180Y-89385283D01*
X126514717Y-89213820D01*
X126313097Y-89079102D01*
X126089069Y-88986307D01*
X125851243Y-88939000D01*
X125608757Y-88939000D01*
X125370931Y-88986307D01*
X125146903Y-89079102D01*
X124945283Y-89213820D01*
X124916000Y-89243103D01*
X124916000Y-88556897D01*
X124945283Y-88586180D01*
X125146903Y-88720898D01*
X125370931Y-88813693D01*
X125608757Y-88861000D01*
X125851243Y-88861000D01*
X126089069Y-88813693D01*
X126263496Y-88741443D01*
X126326879Y-88836302D01*
X126411288Y-88920711D01*
X126510541Y-88987030D01*
X126620826Y-89032712D01*
X126737904Y-89056000D01*
X126857276Y-89056000D01*
X126974354Y-89032712D01*
X127084639Y-88987030D01*
X127183892Y-88920711D01*
X127268301Y-88836302D01*
X127318482Y-88761200D01*
X130002734Y-88761200D01*
X130002734Y-88880572D01*
X130026022Y-88997650D01*
X130071704Y-89107935D01*
X130138023Y-89207188D01*
X130222432Y-89291597D01*
X130321685Y-89357916D01*
X130431970Y-89403598D01*
X130549048Y-89426886D01*
X130668420Y-89426886D01*
X130785498Y-89403598D01*
X130895783Y-89357916D01*
X130995036Y-89291597D01*
X131079445Y-89207188D01*
X131118938Y-89148082D01*
X133584784Y-89148082D01*
X133584784Y-89267454D01*
X133608072Y-89384532D01*
X133653754Y-89494817D01*
X133720073Y-89594070D01*
X133804482Y-89678479D01*
X133903735Y-89744798D01*
X134014020Y-89790480D01*
X134131098Y-89813768D01*
X134250470Y-89813768D01*
X134367548Y-89790480D01*
X134477833Y-89744798D01*
X134577086Y-89678479D01*
X134661495Y-89594070D01*
X134727814Y-89494817D01*
X134773496Y-89384532D01*
X134788051Y-89311358D01*
X134912148Y-89311358D01*
X135034056Y-89287109D01*
X135148891Y-89239543D01*
X135252239Y-89170488D01*
X135340130Y-89082597D01*
X135409185Y-88979249D01*
X135456751Y-88864414D01*
X135481000Y-88742506D01*
X135481000Y-88618210D01*
X135456751Y-88496302D01*
X135409185Y-88381467D01*
X135340130Y-88278119D01*
X135252239Y-88190228D01*
X135148891Y-88121173D01*
X135034056Y-88073607D01*
X134912148Y-88049358D01*
X134787852Y-88049358D01*
X134665944Y-88073607D01*
X134551109Y-88121173D01*
X134447761Y-88190228D01*
X134359870Y-88278119D01*
X134290815Y-88381467D01*
X134243249Y-88496302D01*
X134222271Y-88601768D01*
X134131098Y-88601768D01*
X134014020Y-88625056D01*
X133903735Y-88670738D01*
X133804482Y-88737057D01*
X133720073Y-88821466D01*
X133653754Y-88920719D01*
X133608072Y-89031004D01*
X133584784Y-89148082D01*
X131118938Y-89148082D01*
X131145764Y-89107935D01*
X131191446Y-88997650D01*
X131214734Y-88880572D01*
X131214734Y-88761200D01*
X131191446Y-88644122D01*
X131168438Y-88588575D01*
X131170711Y-88586302D01*
X131237030Y-88487049D01*
X131282712Y-88376764D01*
X131306000Y-88259686D01*
X131306000Y-88140314D01*
X131282712Y-88023236D01*
X131237030Y-87912951D01*
X131203555Y-87862852D01*
X139994000Y-87862852D01*
X139994000Y-87987148D01*
X140018249Y-88109056D01*
X140065815Y-88223891D01*
X140134870Y-88327239D01*
X140222761Y-88415130D01*
X140326109Y-88484185D01*
X140440944Y-88531751D01*
X140562852Y-88556000D01*
X140687148Y-88556000D01*
X140809056Y-88531751D01*
X140915038Y-88487852D01*
X141869000Y-88487852D01*
X141869000Y-88612148D01*
X141893249Y-88734056D01*
X141940815Y-88848891D01*
X142009870Y-88952239D01*
X142097761Y-89040130D01*
X142201109Y-89109185D01*
X142315944Y-89156751D01*
X142437852Y-89181000D01*
X142562148Y-89181000D01*
X142684056Y-89156751D01*
X142798891Y-89109185D01*
X142902239Y-89040130D01*
X142990130Y-88952239D01*
X143059185Y-88848891D01*
X143106751Y-88734056D01*
X143131000Y-88612148D01*
X143131000Y-88487852D01*
X143106751Y-88365944D01*
X143059185Y-88251109D01*
X142990130Y-88147761D01*
X142902239Y-88059870D01*
X142798891Y-87990815D01*
X142684056Y-87943249D01*
X142562148Y-87919000D01*
X142437852Y-87919000D01*
X142315944Y-87943249D01*
X142201109Y-87990815D01*
X142097761Y-88059870D01*
X142009870Y-88147761D01*
X141940815Y-88251109D01*
X141893249Y-88365944D01*
X141869000Y-88487852D01*
X140915038Y-88487852D01*
X140923891Y-88484185D01*
X141027239Y-88415130D01*
X141115130Y-88327239D01*
X141184185Y-88223891D01*
X141231751Y-88109056D01*
X141256000Y-87987148D01*
X141256000Y-87862852D01*
X141231751Y-87740944D01*
X141184185Y-87626109D01*
X141115130Y-87522761D01*
X141027239Y-87434870D01*
X140923891Y-87365815D01*
X140809056Y-87318249D01*
X140687148Y-87294000D01*
X140562852Y-87294000D01*
X140440944Y-87318249D01*
X140326109Y-87365815D01*
X140222761Y-87434870D01*
X140134870Y-87522761D01*
X140065815Y-87626109D01*
X140018249Y-87740944D01*
X139994000Y-87862852D01*
X131203555Y-87862852D01*
X131170711Y-87813698D01*
X131086302Y-87729289D01*
X130987049Y-87662970D01*
X130876764Y-87617288D01*
X130759686Y-87594000D01*
X130640314Y-87594000D01*
X130523236Y-87617288D01*
X130412951Y-87662970D01*
X130313698Y-87729289D01*
X130229289Y-87813698D01*
X130162970Y-87912951D01*
X130117288Y-88023236D01*
X130094000Y-88140314D01*
X130094000Y-88259686D01*
X130117288Y-88376764D01*
X130140296Y-88432311D01*
X130138023Y-88434584D01*
X130071704Y-88533837D01*
X130026022Y-88644122D01*
X130002734Y-88761200D01*
X127318482Y-88761200D01*
X127334620Y-88737049D01*
X127380302Y-88626764D01*
X127403590Y-88509686D01*
X127403590Y-88390314D01*
X127380302Y-88273236D01*
X127334620Y-88162951D01*
X127268301Y-88063698D01*
X127183892Y-87979289D01*
X127084639Y-87912970D01*
X126974354Y-87867288D01*
X126939304Y-87860316D01*
X126961000Y-87751243D01*
X126961000Y-87508757D01*
X126913693Y-87270931D01*
X126857988Y-87136447D01*
X126876764Y-87132712D01*
X126987049Y-87087030D01*
X127086302Y-87020711D01*
X127170711Y-86936302D01*
X127237030Y-86837049D01*
X127282712Y-86726764D01*
X127306000Y-86609686D01*
X127306000Y-86490314D01*
X127282712Y-86373236D01*
X127237030Y-86262951D01*
X127170711Y-86163698D01*
X127086302Y-86079289D01*
X126987049Y-86012970D01*
X126876764Y-85967288D01*
X126759686Y-85944000D01*
X126640314Y-85944000D01*
X126611083Y-85949814D01*
X126677970Y-85882927D01*
X137494000Y-85882927D01*
X137494000Y-86017073D01*
X137520171Y-86148640D01*
X137571506Y-86272574D01*
X137646033Y-86384112D01*
X137740888Y-86478967D01*
X137852426Y-86553494D01*
X137976360Y-86604829D01*
X138107927Y-86631000D01*
X138242073Y-86631000D01*
X138373640Y-86604829D01*
X138497574Y-86553494D01*
X138609112Y-86478967D01*
X138695626Y-86392453D01*
X138713847Y-86484056D01*
X138761413Y-86598891D01*
X138830468Y-86702239D01*
X138918359Y-86790130D01*
X139021707Y-86859185D01*
X139136542Y-86906751D01*
X139258450Y-86931000D01*
X139382746Y-86931000D01*
X139504654Y-86906751D01*
X139619489Y-86859185D01*
X139722837Y-86790130D01*
X139810728Y-86702239D01*
X139879783Y-86598891D01*
X139927349Y-86484056D01*
X139951598Y-86362148D01*
X139951598Y-86237852D01*
X139927349Y-86115944D01*
X139879783Y-86001109D01*
X139810728Y-85897761D01*
X139770894Y-85857927D01*
X140919000Y-85857927D01*
X140919000Y-85992073D01*
X140945171Y-86123640D01*
X140996506Y-86247574D01*
X141071033Y-86359112D01*
X141165888Y-86453967D01*
X141277426Y-86528494D01*
X141401360Y-86579829D01*
X141532927Y-86606000D01*
X141667073Y-86606000D01*
X141798640Y-86579829D01*
X141922574Y-86528494D01*
X142034112Y-86453967D01*
X142128967Y-86359112D01*
X142203494Y-86247574D01*
X142254829Y-86123640D01*
X142281000Y-85992073D01*
X142281000Y-85857927D01*
X142254829Y-85726360D01*
X142203494Y-85602426D01*
X142128967Y-85490888D01*
X142034112Y-85396033D01*
X141922574Y-85321506D01*
X141798640Y-85270171D01*
X141667073Y-85244000D01*
X141532927Y-85244000D01*
X141401360Y-85270171D01*
X141277426Y-85321506D01*
X141165888Y-85396033D01*
X141071033Y-85490888D01*
X140996506Y-85602426D01*
X140945171Y-85726360D01*
X140919000Y-85857927D01*
X139770894Y-85857927D01*
X139722837Y-85809870D01*
X139619489Y-85740815D01*
X139504654Y-85693249D01*
X139382746Y-85669000D01*
X139258450Y-85669000D01*
X139136542Y-85693249D01*
X139021707Y-85740815D01*
X138918359Y-85809870D01*
X138854225Y-85874004D01*
X138829829Y-85751360D01*
X138778494Y-85627426D01*
X138703967Y-85515888D01*
X138609112Y-85421033D01*
X138497574Y-85346506D01*
X138373640Y-85295171D01*
X138242073Y-85269000D01*
X138107927Y-85269000D01*
X137976360Y-85295171D01*
X137852426Y-85346506D01*
X137740888Y-85421033D01*
X137646033Y-85515888D01*
X137571506Y-85627426D01*
X137520171Y-85751360D01*
X137494000Y-85882927D01*
X126677970Y-85882927D01*
X126686180Y-85874717D01*
X126820898Y-85673097D01*
X126913693Y-85449069D01*
X126961000Y-85211243D01*
X126961000Y-84968757D01*
X126913693Y-84730931D01*
X126820898Y-84506903D01*
X126686180Y-84305283D01*
X126514717Y-84133820D01*
X126313097Y-83999102D01*
X126089069Y-83906307D01*
X125851243Y-83859000D01*
X125608757Y-83859000D01*
X125370931Y-83906307D01*
X125146903Y-83999102D01*
X124945283Y-84133820D01*
X124916000Y-84163103D01*
X124916000Y-83526635D01*
X125043267Y-83626629D01*
X125266502Y-83739917D01*
X125507549Y-83807477D01*
X125707000Y-83720044D01*
X125707000Y-82573000D01*
X125753000Y-82573000D01*
X125753000Y-83720044D01*
X125952451Y-83807477D01*
X126193498Y-83739917D01*
X126416733Y-83626629D01*
X126440535Y-83607927D01*
X134369000Y-83607927D01*
X134369000Y-83742073D01*
X134395171Y-83873640D01*
X134446506Y-83997574D01*
X134481536Y-84050000D01*
X134446506Y-84102426D01*
X134395171Y-84226360D01*
X134369000Y-84357927D01*
X134369000Y-84492073D01*
X134395171Y-84623640D01*
X134446506Y-84747574D01*
X134521033Y-84859112D01*
X134615888Y-84953967D01*
X134727426Y-85028494D01*
X134851360Y-85079829D01*
X134982927Y-85106000D01*
X135117073Y-85106000D01*
X135248640Y-85079829D01*
X135372574Y-85028494D01*
X135484112Y-84953967D01*
X135578967Y-84859112D01*
X135653494Y-84747574D01*
X135704829Y-84623640D01*
X135731000Y-84492073D01*
X135731000Y-84357927D01*
X135714617Y-84275562D01*
X137413986Y-84275562D01*
X137413986Y-84409708D01*
X137440157Y-84541275D01*
X137491492Y-84665209D01*
X137566019Y-84776747D01*
X137660874Y-84871602D01*
X137772412Y-84946129D01*
X137896346Y-84997464D01*
X138027913Y-85023635D01*
X138162059Y-85023635D01*
X138293626Y-84997464D01*
X138417560Y-84946129D01*
X138529098Y-84871602D01*
X138623953Y-84776747D01*
X138698480Y-84665209D01*
X138749815Y-84541275D01*
X138775986Y-84409708D01*
X138775986Y-84275562D01*
X138752587Y-84157927D01*
X140919000Y-84157927D01*
X140919000Y-84292073D01*
X140945171Y-84423640D01*
X140996506Y-84547574D01*
X141071033Y-84659112D01*
X141165888Y-84753967D01*
X141277426Y-84828494D01*
X141401360Y-84879829D01*
X141532927Y-84906000D01*
X141667073Y-84906000D01*
X141798640Y-84879829D01*
X141922574Y-84828494D01*
X142034112Y-84753967D01*
X142128967Y-84659112D01*
X142203494Y-84547574D01*
X142254829Y-84423640D01*
X142281000Y-84292073D01*
X142281000Y-84157927D01*
X142254829Y-84026360D01*
X142203494Y-83902426D01*
X142128967Y-83790888D01*
X142034112Y-83696033D01*
X141922574Y-83621506D01*
X141798640Y-83570171D01*
X141667073Y-83544000D01*
X141532927Y-83544000D01*
X141401360Y-83570171D01*
X141277426Y-83621506D01*
X141165888Y-83696033D01*
X141071033Y-83790888D01*
X140996506Y-83902426D01*
X140945171Y-84026360D01*
X140919000Y-84157927D01*
X138752587Y-84157927D01*
X138749815Y-84143995D01*
X138698480Y-84020061D01*
X138623953Y-83908523D01*
X138529098Y-83813668D01*
X138417560Y-83739141D01*
X138293626Y-83687806D01*
X138162059Y-83661635D01*
X138027913Y-83661635D01*
X137896346Y-83687806D01*
X137772412Y-83739141D01*
X137660874Y-83813668D01*
X137566019Y-83908523D01*
X137491492Y-84020061D01*
X137440157Y-84143995D01*
X137413986Y-84275562D01*
X135714617Y-84275562D01*
X135704829Y-84226360D01*
X135653494Y-84102426D01*
X135618464Y-84050000D01*
X135653494Y-83997574D01*
X135704829Y-83873640D01*
X135731000Y-83742073D01*
X135731000Y-83607927D01*
X135704829Y-83476360D01*
X135653494Y-83352426D01*
X135578967Y-83240888D01*
X135484112Y-83146033D01*
X135372574Y-83071506D01*
X135248640Y-83020171D01*
X135117073Y-82994000D01*
X134982927Y-82994000D01*
X134851360Y-83020171D01*
X134727426Y-83071506D01*
X134615888Y-83146033D01*
X134521033Y-83240888D01*
X134446506Y-83352426D01*
X134395171Y-83476360D01*
X134369000Y-83607927D01*
X126440535Y-83607927D01*
X126613578Y-83471967D01*
X126776467Y-83281874D01*
X126899141Y-83063656D01*
X126976886Y-82825698D01*
X126987476Y-82772451D01*
X126900024Y-82573000D01*
X125753000Y-82573000D01*
X125707000Y-82573000D01*
X125687000Y-82573000D01*
X125687000Y-82527000D01*
X125707000Y-82527000D01*
X125707000Y-81379956D01*
X125753000Y-81379956D01*
X125753000Y-82527000D01*
X126900024Y-82527000D01*
X126987476Y-82327549D01*
X126976886Y-82274302D01*
X126899141Y-82036344D01*
X126845157Y-81940314D01*
X127394000Y-81940314D01*
X127394000Y-82059686D01*
X127417288Y-82176764D01*
X127462970Y-82287049D01*
X127529289Y-82386302D01*
X127613698Y-82470711D01*
X127712951Y-82537030D01*
X127823236Y-82582712D01*
X127940314Y-82606000D01*
X128059686Y-82606000D01*
X128176764Y-82582712D01*
X128287049Y-82537030D01*
X128386302Y-82470711D01*
X128470711Y-82386302D01*
X128537030Y-82287049D01*
X128563875Y-82222240D01*
X128569698Y-82251514D01*
X128615380Y-82361799D01*
X128681699Y-82461052D01*
X128766108Y-82545461D01*
X128865361Y-82611780D01*
X128975646Y-82657462D01*
X129092724Y-82680750D01*
X129212096Y-82680750D01*
X129329174Y-82657462D01*
X129439459Y-82611780D01*
X129538712Y-82545461D01*
X129623121Y-82461052D01*
X129689440Y-82361799D01*
X129711754Y-82307927D01*
X137694000Y-82307927D01*
X137694000Y-82442073D01*
X137720171Y-82573640D01*
X137771506Y-82697574D01*
X137846033Y-82809112D01*
X137940888Y-82903967D01*
X138052426Y-82978494D01*
X138176360Y-83029829D01*
X138307927Y-83056000D01*
X138442073Y-83056000D01*
X138573640Y-83029829D01*
X138614421Y-83012937D01*
X142738990Y-83012937D01*
X142738990Y-83147083D01*
X142765161Y-83278650D01*
X142816496Y-83402584D01*
X142891023Y-83514122D01*
X142985878Y-83608977D01*
X143097416Y-83683504D01*
X143221350Y-83734839D01*
X143352917Y-83761010D01*
X143487063Y-83761010D01*
X143618630Y-83734839D01*
X143742564Y-83683504D01*
X143854102Y-83608977D01*
X143948957Y-83514122D01*
X144023484Y-83402584D01*
X144074819Y-83278650D01*
X144100990Y-83147083D01*
X144100990Y-83012937D01*
X144074819Y-82881370D01*
X144023484Y-82757436D01*
X143948957Y-82645898D01*
X143854102Y-82551043D01*
X143742564Y-82476516D01*
X143618630Y-82425181D01*
X143487063Y-82399010D01*
X143352917Y-82399010D01*
X143221350Y-82425181D01*
X143097416Y-82476516D01*
X142985878Y-82551043D01*
X142891023Y-82645898D01*
X142816496Y-82757436D01*
X142765161Y-82881370D01*
X142738990Y-83012937D01*
X138614421Y-83012937D01*
X138697574Y-82978494D01*
X138809112Y-82903967D01*
X138903967Y-82809112D01*
X138978494Y-82697574D01*
X139029829Y-82573640D01*
X139056000Y-82442073D01*
X139056000Y-82307927D01*
X139029829Y-82176360D01*
X138980773Y-82057927D01*
X139194000Y-82057927D01*
X139194000Y-82192073D01*
X139220171Y-82323640D01*
X139271506Y-82447574D01*
X139346033Y-82559112D01*
X139440888Y-82653967D01*
X139552426Y-82728494D01*
X139676360Y-82779829D01*
X139807927Y-82806000D01*
X139942073Y-82806000D01*
X140073640Y-82779829D01*
X140197574Y-82728494D01*
X140309112Y-82653967D01*
X140403967Y-82559112D01*
X140478494Y-82447574D01*
X140529829Y-82323640D01*
X140556000Y-82192073D01*
X140556000Y-82057927D01*
X140529829Y-81926360D01*
X140478494Y-81802426D01*
X140403967Y-81690888D01*
X140309112Y-81596033D01*
X140197574Y-81521506D01*
X140073640Y-81470171D01*
X139942073Y-81444000D01*
X139807927Y-81444000D01*
X139676360Y-81470171D01*
X139552426Y-81521506D01*
X139440888Y-81596033D01*
X139346033Y-81690888D01*
X139271506Y-81802426D01*
X139220171Y-81926360D01*
X139194000Y-82057927D01*
X138980773Y-82057927D01*
X138978494Y-82052426D01*
X138903967Y-81940888D01*
X138809112Y-81846033D01*
X138697574Y-81771506D01*
X138573640Y-81720171D01*
X138442073Y-81694000D01*
X138307927Y-81694000D01*
X138176360Y-81720171D01*
X138052426Y-81771506D01*
X137940888Y-81846033D01*
X137846033Y-81940888D01*
X137771506Y-82052426D01*
X137720171Y-82176360D01*
X137694000Y-82307927D01*
X129711754Y-82307927D01*
X129735122Y-82251514D01*
X129758410Y-82134436D01*
X129758410Y-82015064D01*
X129735122Y-81897986D01*
X129689440Y-81787701D01*
X129623121Y-81688448D01*
X129538712Y-81604039D01*
X129439459Y-81537720D01*
X129329174Y-81492038D01*
X129273410Y-81480946D01*
X129273410Y-81440314D01*
X129268438Y-81415314D01*
X132944000Y-81415314D01*
X132944000Y-81534686D01*
X132967288Y-81651764D01*
X133012970Y-81762049D01*
X133079289Y-81861302D01*
X133163698Y-81945711D01*
X133262951Y-82012030D01*
X133373236Y-82057712D01*
X133490314Y-82081000D01*
X133609686Y-82081000D01*
X133726764Y-82057712D01*
X133779044Y-82036057D01*
X133788698Y-82045711D01*
X133887951Y-82112030D01*
X133998236Y-82157712D01*
X134115314Y-82181000D01*
X134234686Y-82181000D01*
X134351764Y-82157712D01*
X134462049Y-82112030D01*
X134561302Y-82045711D01*
X134645711Y-81961302D01*
X134712030Y-81862049D01*
X134757712Y-81751764D01*
X134781000Y-81634686D01*
X134781000Y-81515314D01*
X134764613Y-81432927D01*
X144919000Y-81432927D01*
X144919000Y-81567073D01*
X144945171Y-81698640D01*
X144996506Y-81822574D01*
X145071033Y-81934112D01*
X145165888Y-82028967D01*
X145277426Y-82103494D01*
X145401360Y-82154829D01*
X145532927Y-82181000D01*
X145667073Y-82181000D01*
X145798640Y-82154829D01*
X145922574Y-82103494D01*
X146034112Y-82028967D01*
X146128967Y-81934112D01*
X146203494Y-81822574D01*
X146254829Y-81698640D01*
X146281000Y-81567073D01*
X146281000Y-81432927D01*
X146254829Y-81301360D01*
X146203494Y-81177426D01*
X146128967Y-81065888D01*
X146034112Y-80971033D01*
X145922574Y-80896506D01*
X145798640Y-80845171D01*
X145667073Y-80819000D01*
X145532927Y-80819000D01*
X145401360Y-80845171D01*
X145277426Y-80896506D01*
X145165888Y-80971033D01*
X145071033Y-81065888D01*
X144996506Y-81177426D01*
X144945171Y-81301360D01*
X144919000Y-81432927D01*
X134764613Y-81432927D01*
X134757712Y-81398236D01*
X134712030Y-81287951D01*
X134645711Y-81188698D01*
X134561302Y-81104289D01*
X134462049Y-81037970D01*
X134351764Y-80992288D01*
X134234686Y-80969000D01*
X134115314Y-80969000D01*
X133998236Y-80992288D01*
X133945956Y-81013943D01*
X133936302Y-81004289D01*
X133837049Y-80937970D01*
X133726764Y-80892288D01*
X133609686Y-80869000D01*
X133490314Y-80869000D01*
X133373236Y-80892288D01*
X133262951Y-80937970D01*
X133163698Y-81004289D01*
X133079289Y-81088698D01*
X133012970Y-81187951D01*
X132967288Y-81298236D01*
X132944000Y-81415314D01*
X129268438Y-81415314D01*
X129250122Y-81323236D01*
X129204440Y-81212951D01*
X129138121Y-81113698D01*
X129053712Y-81029289D01*
X128954459Y-80962970D01*
X128844174Y-80917288D01*
X128727096Y-80894000D01*
X128607724Y-80894000D01*
X128490646Y-80917288D01*
X128380361Y-80962970D01*
X128281108Y-81029289D01*
X128196699Y-81113698D01*
X128130380Y-81212951D01*
X128084698Y-81323236D01*
X128070206Y-81396093D01*
X128059686Y-81394000D01*
X127940314Y-81394000D01*
X127823236Y-81417288D01*
X127712951Y-81462970D01*
X127613698Y-81529289D01*
X127529289Y-81613698D01*
X127462970Y-81712951D01*
X127417288Y-81823236D01*
X127394000Y-81940314D01*
X126845157Y-81940314D01*
X126776467Y-81818126D01*
X126613578Y-81628033D01*
X126416733Y-81473371D01*
X126193498Y-81360083D01*
X125952451Y-81292523D01*
X125753000Y-81379956D01*
X125707000Y-81379956D01*
X125507549Y-81292523D01*
X125266502Y-81360083D01*
X125043267Y-81473371D01*
X124916000Y-81573365D01*
X124916000Y-80936897D01*
X124945283Y-80966180D01*
X125146903Y-81100898D01*
X125370931Y-81193693D01*
X125608757Y-81241000D01*
X125851243Y-81241000D01*
X126089069Y-81193693D01*
X126313097Y-81100898D01*
X126514717Y-80966180D01*
X126686180Y-80794717D01*
X126820898Y-80593097D01*
X126913693Y-80369069D01*
X126961000Y-80131243D01*
X126961000Y-79888757D01*
X126930004Y-79732927D01*
X144919000Y-79732927D01*
X144919000Y-79867073D01*
X144945171Y-79998640D01*
X144996506Y-80122574D01*
X145071033Y-80234112D01*
X145165888Y-80328967D01*
X145277426Y-80403494D01*
X145401360Y-80454829D01*
X145532927Y-80481000D01*
X145667073Y-80481000D01*
X145798640Y-80454829D01*
X145922574Y-80403494D01*
X146034112Y-80328967D01*
X146128967Y-80234112D01*
X146203494Y-80122574D01*
X146254829Y-79998640D01*
X146281000Y-79867073D01*
X146281000Y-79732927D01*
X146254829Y-79601360D01*
X146203494Y-79477426D01*
X146128967Y-79365888D01*
X146034112Y-79271033D01*
X145922574Y-79196506D01*
X145798640Y-79145171D01*
X145667073Y-79119000D01*
X145532927Y-79119000D01*
X145401360Y-79145171D01*
X145277426Y-79196506D01*
X145165888Y-79271033D01*
X145071033Y-79365888D01*
X144996506Y-79477426D01*
X144945171Y-79601360D01*
X144919000Y-79732927D01*
X126930004Y-79732927D01*
X126913693Y-79650931D01*
X126820898Y-79426903D01*
X126686180Y-79225283D01*
X126514717Y-79053820D01*
X126313097Y-78919102D01*
X126089069Y-78826307D01*
X125851243Y-78779000D01*
X125608757Y-78779000D01*
X125370931Y-78826307D01*
X125146903Y-78919102D01*
X124945283Y-79053820D01*
X124916000Y-79083103D01*
X124916000Y-78396897D01*
X124945283Y-78426180D01*
X125146903Y-78560898D01*
X125370931Y-78653693D01*
X125608757Y-78701000D01*
X125851243Y-78701000D01*
X126089069Y-78653693D01*
X126313097Y-78560898D01*
X126514717Y-78426180D01*
X126625583Y-78315314D01*
X134044000Y-78315314D01*
X134044000Y-78434686D01*
X134067288Y-78551764D01*
X134112970Y-78662049D01*
X134179289Y-78761302D01*
X134263698Y-78845711D01*
X134362951Y-78912030D01*
X134473236Y-78957712D01*
X134590314Y-78981000D01*
X134709686Y-78981000D01*
X134826764Y-78957712D01*
X134937049Y-78912030D01*
X135036302Y-78845711D01*
X135120711Y-78761302D01*
X135187030Y-78662049D01*
X135232712Y-78551764D01*
X135256000Y-78434686D01*
X135256000Y-78315314D01*
X135232712Y-78198236D01*
X135187030Y-78087951D01*
X135120711Y-77988698D01*
X135114940Y-77982927D01*
X144919000Y-77982927D01*
X144919000Y-78117073D01*
X144945171Y-78248640D01*
X144996506Y-78372574D01*
X145071033Y-78484112D01*
X145165888Y-78578967D01*
X145277426Y-78653494D01*
X145401360Y-78704829D01*
X145532927Y-78731000D01*
X145667073Y-78731000D01*
X145798640Y-78704829D01*
X145922574Y-78653494D01*
X146034112Y-78578967D01*
X146128967Y-78484112D01*
X146203494Y-78372574D01*
X146254829Y-78248640D01*
X146281000Y-78117073D01*
X146281000Y-77982927D01*
X146254829Y-77851360D01*
X146203494Y-77727426D01*
X146128967Y-77615888D01*
X146034112Y-77521033D01*
X145922574Y-77446506D01*
X145798640Y-77395171D01*
X145667073Y-77369000D01*
X145532927Y-77369000D01*
X145401360Y-77395171D01*
X145277426Y-77446506D01*
X145165888Y-77521033D01*
X145071033Y-77615888D01*
X144996506Y-77727426D01*
X144945171Y-77851360D01*
X144919000Y-77982927D01*
X135114940Y-77982927D01*
X135036302Y-77904289D01*
X134937049Y-77837970D01*
X134826764Y-77792288D01*
X134709686Y-77769000D01*
X134590314Y-77769000D01*
X134473236Y-77792288D01*
X134362951Y-77837970D01*
X134263698Y-77904289D01*
X134179289Y-77988698D01*
X134112970Y-78087951D01*
X134067288Y-78198236D01*
X134044000Y-78315314D01*
X126625583Y-78315314D01*
X126686180Y-78254717D01*
X126820898Y-78053097D01*
X126913693Y-77829069D01*
X126961000Y-77591243D01*
X126961000Y-77348757D01*
X126913693Y-77110931D01*
X126820898Y-76886903D01*
X126686180Y-76685283D01*
X126514717Y-76513820D01*
X126313097Y-76379102D01*
X126141265Y-76307927D01*
X142694000Y-76307927D01*
X142694000Y-76442073D01*
X142720171Y-76573640D01*
X142771506Y-76697574D01*
X142846033Y-76809112D01*
X142940888Y-76903967D01*
X143052426Y-76978494D01*
X143176360Y-77029829D01*
X143307927Y-77056000D01*
X143442073Y-77056000D01*
X143573640Y-77029829D01*
X143697574Y-76978494D01*
X143809112Y-76903967D01*
X143903967Y-76809112D01*
X143978494Y-76697574D01*
X144029829Y-76573640D01*
X144056000Y-76442073D01*
X144056000Y-76307927D01*
X144029829Y-76176360D01*
X143978494Y-76052426D01*
X143903967Y-75940888D01*
X143809112Y-75846033D01*
X143697574Y-75771506D01*
X143573640Y-75720171D01*
X143442073Y-75694000D01*
X143307927Y-75694000D01*
X143176360Y-75720171D01*
X143052426Y-75771506D01*
X142940888Y-75846033D01*
X142846033Y-75940888D01*
X142771506Y-76052426D01*
X142720171Y-76176360D01*
X142694000Y-76307927D01*
X126141265Y-76307927D01*
X126089069Y-76286307D01*
X125851243Y-76239000D01*
X125608757Y-76239000D01*
X125370931Y-76286307D01*
X125146903Y-76379102D01*
X124945283Y-76513820D01*
X124916000Y-76543103D01*
X124916000Y-75856897D01*
X124945283Y-75886180D01*
X125146903Y-76020898D01*
X125370931Y-76113693D01*
X125608757Y-76161000D01*
X125851243Y-76161000D01*
X126089069Y-76113693D01*
X126313097Y-76020898D01*
X126514717Y-75886180D01*
X126686180Y-75714717D01*
X126820898Y-75513097D01*
X126913693Y-75289069D01*
X126961000Y-75051243D01*
X126961000Y-74808757D01*
X126913693Y-74570931D01*
X126820898Y-74346903D01*
X126805109Y-74323272D01*
X130689000Y-74323272D01*
X130701748Y-74452705D01*
X130752125Y-74618774D01*
X130833932Y-74771824D01*
X130944025Y-74905975D01*
X131078175Y-75016068D01*
X131231225Y-75097875D01*
X131397294Y-75148252D01*
X131570000Y-75165262D01*
X131742705Y-75148252D01*
X131908774Y-75097875D01*
X132061824Y-75016068D01*
X132195975Y-74905975D01*
X132306068Y-74771825D01*
X132387875Y-74618775D01*
X132438252Y-74452706D01*
X132451000Y-74323273D01*
X132451000Y-73649130D01*
X132451614Y-73650049D01*
X132549951Y-73748386D01*
X132665584Y-73825649D01*
X132794067Y-73878869D01*
X132930465Y-73906000D01*
X133069535Y-73906000D01*
X133205933Y-73878869D01*
X133334416Y-73825649D01*
X133450049Y-73748386D01*
X133548386Y-73650049D01*
X133625649Y-73534416D01*
X133678869Y-73405933D01*
X133696466Y-73317464D01*
X135034016Y-73317464D01*
X135034016Y-73436836D01*
X135057304Y-73553914D01*
X135102986Y-73664199D01*
X135169305Y-73763452D01*
X135253714Y-73847861D01*
X135352967Y-73914180D01*
X135463252Y-73959862D01*
X135580330Y-73983150D01*
X135699702Y-73983150D01*
X135816780Y-73959862D01*
X135927065Y-73914180D01*
X136026318Y-73847861D01*
X136110727Y-73763452D01*
X136155708Y-73696133D01*
X136189101Y-73746108D01*
X136273510Y-73830517D01*
X136372763Y-73896836D01*
X136483048Y-73942518D01*
X136600126Y-73965806D01*
X136719498Y-73965806D01*
X136836576Y-73942518D01*
X136946861Y-73896836D01*
X137046114Y-73830517D01*
X137130523Y-73746108D01*
X137196842Y-73646855D01*
X137242524Y-73536570D01*
X137265812Y-73419492D01*
X137265812Y-73300120D01*
X137242524Y-73183042D01*
X137220746Y-73130465D01*
X138074000Y-73130465D01*
X138074000Y-73269535D01*
X138101131Y-73405933D01*
X138154351Y-73534416D01*
X138231614Y-73650049D01*
X138329951Y-73748386D01*
X138445584Y-73825649D01*
X138574067Y-73878869D01*
X138710465Y-73906000D01*
X138849535Y-73906000D01*
X138985933Y-73878869D01*
X139114416Y-73825649D01*
X139230049Y-73748386D01*
X139328386Y-73650049D01*
X139329001Y-73649129D01*
X139329000Y-74323272D01*
X139341748Y-74452705D01*
X139392125Y-74618774D01*
X139473932Y-74771824D01*
X139584025Y-74905975D01*
X139718175Y-75016068D01*
X139871225Y-75097875D01*
X140037294Y-75148252D01*
X140210000Y-75165262D01*
X140382705Y-75148252D01*
X140548774Y-75097875D01*
X140701824Y-75016068D01*
X140835975Y-74905975D01*
X140946068Y-74771825D01*
X141027875Y-74618775D01*
X141078252Y-74452706D01*
X141091000Y-74323273D01*
X141091000Y-73136727D01*
X141078252Y-73007294D01*
X141027875Y-72841225D01*
X140946068Y-72688175D01*
X140835975Y-72554025D01*
X140701825Y-72443932D01*
X140548775Y-72362125D01*
X140382706Y-72311748D01*
X140210000Y-72294738D01*
X140037295Y-72311748D01*
X139871226Y-72362125D01*
X139718176Y-72443932D01*
X139584026Y-72554025D01*
X139473933Y-72688175D01*
X139392126Y-72841225D01*
X139391266Y-72844059D01*
X139328386Y-72749951D01*
X139230049Y-72651614D01*
X139114416Y-72574351D01*
X138985933Y-72521131D01*
X138849535Y-72494000D01*
X138710465Y-72494000D01*
X138574067Y-72521131D01*
X138445584Y-72574351D01*
X138329951Y-72651614D01*
X138231614Y-72749951D01*
X138154351Y-72865584D01*
X138101131Y-72994067D01*
X138074000Y-73130465D01*
X137220746Y-73130465D01*
X137196842Y-73072757D01*
X137130523Y-72973504D01*
X137046114Y-72889095D01*
X136946861Y-72822776D01*
X136836576Y-72777094D01*
X136719498Y-72753806D01*
X136600126Y-72753806D01*
X136483048Y-72777094D01*
X136372763Y-72822776D01*
X136273510Y-72889095D01*
X136189101Y-72973504D01*
X136144120Y-73040823D01*
X136110727Y-72990848D01*
X136026318Y-72906439D01*
X135927065Y-72840120D01*
X135816780Y-72794438D01*
X135699702Y-72771150D01*
X135580330Y-72771150D01*
X135463252Y-72794438D01*
X135352967Y-72840120D01*
X135253714Y-72906439D01*
X135169305Y-72990848D01*
X135102986Y-73090101D01*
X135057304Y-73200386D01*
X135034016Y-73317464D01*
X133696466Y-73317464D01*
X133706000Y-73269535D01*
X133706000Y-73130465D01*
X133678869Y-72994067D01*
X133625649Y-72865584D01*
X133548386Y-72749951D01*
X133450049Y-72651614D01*
X133334416Y-72574351D01*
X133205933Y-72521131D01*
X133069535Y-72494000D01*
X132930465Y-72494000D01*
X132794067Y-72521131D01*
X132665584Y-72574351D01*
X132549951Y-72651614D01*
X132451614Y-72749951D01*
X132388734Y-72844058D01*
X132387875Y-72841225D01*
X132306068Y-72688175D01*
X132195975Y-72554025D01*
X132061825Y-72443932D01*
X131908775Y-72362125D01*
X131742706Y-72311748D01*
X131570000Y-72294738D01*
X131397295Y-72311748D01*
X131231226Y-72362125D01*
X131078176Y-72443932D01*
X130944026Y-72554025D01*
X130833933Y-72688175D01*
X130752126Y-72841225D01*
X130701749Y-73007294D01*
X130689001Y-73136727D01*
X130689000Y-74323272D01*
X126805109Y-74323272D01*
X126686180Y-74145283D01*
X126514717Y-73973820D01*
X126313097Y-73839102D01*
X126089069Y-73746307D01*
X125851243Y-73699000D01*
X125608757Y-73699000D01*
X125370931Y-73746307D01*
X125146903Y-73839102D01*
X124945283Y-73973820D01*
X124916000Y-74003103D01*
X124916000Y-73640314D01*
X129394000Y-73640314D01*
X129394000Y-73759686D01*
X129417288Y-73876764D01*
X129462970Y-73987049D01*
X129529289Y-74086302D01*
X129613698Y-74170711D01*
X129712951Y-74237030D01*
X129823236Y-74282712D01*
X129940314Y-74306000D01*
X130059686Y-74306000D01*
X130176764Y-74282712D01*
X130287049Y-74237030D01*
X130386302Y-74170711D01*
X130470711Y-74086302D01*
X130537030Y-73987049D01*
X130582712Y-73876764D01*
X130606000Y-73759686D01*
X130606000Y-73640314D01*
X130582712Y-73523236D01*
X130537030Y-73412951D01*
X130470711Y-73313698D01*
X130386302Y-73229289D01*
X130287049Y-73162970D01*
X130176764Y-73117288D01*
X130059686Y-73094000D01*
X129940314Y-73094000D01*
X129823236Y-73117288D01*
X129712951Y-73162970D01*
X129613698Y-73229289D01*
X129529289Y-73313698D01*
X129462970Y-73412951D01*
X129417288Y-73523236D01*
X129394000Y-73640314D01*
X124916000Y-73640314D01*
X124916000Y-71142305D01*
X124937197Y-70926120D01*
X125031500Y-70926120D01*
X125031500Y-71313880D01*
X125107148Y-71694190D01*
X125255538Y-72052435D01*
X125470966Y-72374846D01*
X125745154Y-72649034D01*
X126067565Y-72864462D01*
X126425810Y-73012852D01*
X126806120Y-73088500D01*
X127193880Y-73088500D01*
X127574190Y-73012852D01*
X127932435Y-72864462D01*
X128254846Y-72649034D01*
X128529034Y-72374846D01*
X128744462Y-72052435D01*
X128892852Y-71694190D01*
X128968500Y-71313880D01*
X128968500Y-70926120D01*
X142811500Y-70926120D01*
X142811500Y-71313880D01*
X142887148Y-71694190D01*
X143035538Y-72052435D01*
X143250966Y-72374846D01*
X143525154Y-72649034D01*
X143847565Y-72864462D01*
X144205810Y-73012852D01*
X144586120Y-73088500D01*
X144973880Y-73088500D01*
X145354190Y-73012852D01*
X145679546Y-72878085D01*
X145634870Y-72922761D01*
X145565815Y-73026109D01*
X145518249Y-73140944D01*
X145494000Y-73262852D01*
X145494000Y-73387148D01*
X145518249Y-73509056D01*
X145565815Y-73623891D01*
X145634870Y-73727239D01*
X145722761Y-73815130D01*
X145826109Y-73884185D01*
X145940944Y-73931751D01*
X146062852Y-73956000D01*
X146187148Y-73956000D01*
X146309056Y-73931751D01*
X146423891Y-73884185D01*
X146527239Y-73815130D01*
X146615130Y-73727239D01*
X146684185Y-73623891D01*
X146731751Y-73509056D01*
X146756000Y-73387148D01*
X146756000Y-73262852D01*
X146731751Y-73140944D01*
X146684185Y-73026109D01*
X146615130Y-72922761D01*
X146527239Y-72834870D01*
X146423891Y-72765815D01*
X146309056Y-72718249D01*
X146187148Y-72694000D01*
X146062852Y-72694000D01*
X145940944Y-72718249D01*
X145915461Y-72728804D01*
X146034846Y-72649034D01*
X146309034Y-72374846D01*
X146524462Y-72052435D01*
X146672852Y-71694190D01*
X146748500Y-71313880D01*
X146748500Y-70926120D01*
X146672852Y-70545810D01*
X146524462Y-70187565D01*
X146309034Y-69865154D01*
X146034846Y-69590966D01*
X145712435Y-69375538D01*
X145354190Y-69227148D01*
X144973880Y-69151500D01*
X144586120Y-69151500D01*
X144205810Y-69227148D01*
X143847565Y-69375538D01*
X143525154Y-69590966D01*
X143250966Y-69865154D01*
X143035538Y-70187565D01*
X142887148Y-70545810D01*
X142811500Y-70926120D01*
X128968500Y-70926120D01*
X128892852Y-70545810D01*
X128744462Y-70187565D01*
X128529034Y-69865154D01*
X128254846Y-69590966D01*
X127932435Y-69375538D01*
X127574190Y-69227148D01*
X127193880Y-69151500D01*
X126806120Y-69151500D01*
X126425810Y-69227148D01*
X126067565Y-69375538D01*
X125745154Y-69590966D01*
X125470966Y-69865154D01*
X125255538Y-70187565D01*
X125107148Y-70545810D01*
X125031500Y-70926120D01*
X124937197Y-70926120D01*
X124957835Y-70715640D01*
X125075268Y-70326681D01*
X125266013Y-69967942D01*
X125522807Y-69653082D01*
X125835862Y-69394101D01*
X126193266Y-69200853D01*
X126581394Y-69080707D01*
X127006756Y-69036000D01*
X130714275Y-69036000D01*
X130701748Y-69077294D01*
G37*
G04 #@! TD.AperFunction*
M02*
