G04 #@! TF.GenerationSoftware,KiCad,Pcbnew,(5.1.8)-1*
G04 #@! TF.CreationDate,2021-04-09T02:34:17+02:00*
G04 #@! TF.ProjectId,Penguino-STM32WL-M,50656e67-7569-46e6-9f2d-53544d333257,0.1*
G04 #@! TF.SameCoordinates,Original*
G04 #@! TF.FileFunction,Soldermask,Bot*
G04 #@! TF.FilePolarity,Negative*
%FSLAX46Y46*%
G04 Gerber Fmt 4.6, Leading zero omitted, Abs format (unit mm)*
G04 Created by KiCad (PCBNEW (5.1.8)-1) date 2021-04-09 02:34:17*
%MOMM*%
%LPD*%
G01*
G04 APERTURE LIST*
G04 #@! TA.AperFunction,Profile*
%ADD10C,0.150000*%
G04 #@! TD*
%ADD11R,1.350000X4.700000*%
%ADD12R,1.500000X4.700000*%
%ADD13C,0.100000*%
%ADD14C,1.000000*%
%ADD15C,3.175000*%
%ADD16C,2.540000*%
%ADD17O,1.700000X1.700000*%
%ADD18O,1.000000X1.600000*%
%ADD19C,0.650000*%
%ADD20O,1.000000X2.100000*%
G04 APERTURE END LIST*
D10*
X127000000Y-119380000D02*
G75*
G02*
X124460000Y-116840000I0J2540000D01*
G01*
X147320000Y-116840000D02*
G75*
G02*
X144780000Y-119380000I-2540000J0D01*
G01*
X144780000Y-68580000D02*
G75*
G02*
X147320000Y-71120000I0J-2540000D01*
G01*
X124460000Y-71120000D02*
G75*
G02*
X127000000Y-68580000I2540000J0D01*
G01*
X124460000Y-116840000D02*
X124460000Y-71120000D01*
X144780000Y-119380000D02*
X127000000Y-119380000D01*
X147320000Y-71120000D02*
X147320000Y-116840000D01*
X127000000Y-68580000D02*
X144780000Y-68580000D01*
D11*
X133065000Y-116880000D03*
D12*
X138715000Y-116880000D03*
D13*
G36*
X129590000Y-74680000D02*
G01*
X129590000Y-75180000D01*
X129589398Y-75180000D01*
X129589398Y-75204534D01*
X129584588Y-75253365D01*
X129575016Y-75301490D01*
X129560772Y-75348445D01*
X129541995Y-75393778D01*
X129518864Y-75437051D01*
X129491604Y-75477850D01*
X129460476Y-75515779D01*
X129425779Y-75550476D01*
X129387850Y-75581604D01*
X129347051Y-75608864D01*
X129303778Y-75631995D01*
X129258445Y-75650772D01*
X129211490Y-75665016D01*
X129163365Y-75674588D01*
X129114534Y-75679398D01*
X129090000Y-75679398D01*
X129090000Y-75680000D01*
X128590000Y-75680000D01*
X128590000Y-75679398D01*
X128565466Y-75679398D01*
X128516635Y-75674588D01*
X128468510Y-75665016D01*
X128421555Y-75650772D01*
X128376222Y-75631995D01*
X128332949Y-75608864D01*
X128292150Y-75581604D01*
X128254221Y-75550476D01*
X128219524Y-75515779D01*
X128188396Y-75477850D01*
X128161136Y-75437051D01*
X128138005Y-75393778D01*
X128119228Y-75348445D01*
X128104984Y-75301490D01*
X128095412Y-75253365D01*
X128090602Y-75204534D01*
X128090602Y-75180000D01*
X128090000Y-75180000D01*
X128090000Y-74680000D01*
X129590000Y-74680000D01*
G37*
G36*
X128090602Y-73880000D02*
G01*
X128090602Y-73855466D01*
X128095412Y-73806635D01*
X128104984Y-73758510D01*
X128119228Y-73711555D01*
X128138005Y-73666222D01*
X128161136Y-73622949D01*
X128188396Y-73582150D01*
X128219524Y-73544221D01*
X128254221Y-73509524D01*
X128292150Y-73478396D01*
X128332949Y-73451136D01*
X128376222Y-73428005D01*
X128421555Y-73409228D01*
X128468510Y-73394984D01*
X128516635Y-73385412D01*
X128565466Y-73380602D01*
X128590000Y-73380602D01*
X128590000Y-73380000D01*
X129090000Y-73380000D01*
X129090000Y-73380602D01*
X129114534Y-73380602D01*
X129163365Y-73385412D01*
X129211490Y-73394984D01*
X129258445Y-73409228D01*
X129303778Y-73428005D01*
X129347051Y-73451136D01*
X129387850Y-73478396D01*
X129425779Y-73509524D01*
X129460476Y-73544221D01*
X129491604Y-73582150D01*
X129518864Y-73622949D01*
X129541995Y-73666222D01*
X129560772Y-73711555D01*
X129575016Y-73758510D01*
X129584588Y-73806635D01*
X129589398Y-73855466D01*
X129589398Y-73880000D01*
X129590000Y-73880000D01*
X129590000Y-74380000D01*
X128090000Y-74380000D01*
X128090000Y-73880000D01*
X128090602Y-73880000D01*
G37*
G36*
X129450000Y-91250602D02*
G01*
X129474534Y-91250602D01*
X129523365Y-91255412D01*
X129571490Y-91264984D01*
X129618445Y-91279228D01*
X129663778Y-91298005D01*
X129707051Y-91321136D01*
X129747850Y-91348396D01*
X129785779Y-91379524D01*
X129820476Y-91414221D01*
X129851604Y-91452150D01*
X129878864Y-91492949D01*
X129901995Y-91536222D01*
X129920772Y-91581555D01*
X129935016Y-91628510D01*
X129944588Y-91676635D01*
X129949398Y-91725466D01*
X129949398Y-91750000D01*
X129950000Y-91750000D01*
X129950000Y-92250000D01*
X129949398Y-92250000D01*
X129949398Y-92274534D01*
X129944588Y-92323365D01*
X129935016Y-92371490D01*
X129920772Y-92418445D01*
X129901995Y-92463778D01*
X129878864Y-92507051D01*
X129851604Y-92547850D01*
X129820476Y-92585779D01*
X129785779Y-92620476D01*
X129747850Y-92651604D01*
X129707051Y-92678864D01*
X129663778Y-92701995D01*
X129618445Y-92720772D01*
X129571490Y-92735016D01*
X129523365Y-92744588D01*
X129474534Y-92749398D01*
X129450000Y-92749398D01*
X129450000Y-92750000D01*
X128950000Y-92750000D01*
X128950000Y-91250000D01*
X129450000Y-91250000D01*
X129450000Y-91250602D01*
G37*
G36*
X128650000Y-92750000D02*
G01*
X128150000Y-92750000D01*
X128150000Y-92749398D01*
X128125466Y-92749398D01*
X128076635Y-92744588D01*
X128028510Y-92735016D01*
X127981555Y-92720772D01*
X127936222Y-92701995D01*
X127892949Y-92678864D01*
X127852150Y-92651604D01*
X127814221Y-92620476D01*
X127779524Y-92585779D01*
X127748396Y-92547850D01*
X127721136Y-92507051D01*
X127698005Y-92463778D01*
X127679228Y-92418445D01*
X127664984Y-92371490D01*
X127655412Y-92323365D01*
X127650602Y-92274534D01*
X127650602Y-92250000D01*
X127650000Y-92250000D01*
X127650000Y-91750000D01*
X127650602Y-91750000D01*
X127650602Y-91725466D01*
X127655412Y-91676635D01*
X127664984Y-91628510D01*
X127679228Y-91581555D01*
X127698005Y-91536222D01*
X127721136Y-91492949D01*
X127748396Y-91452150D01*
X127779524Y-91414221D01*
X127814221Y-91379524D01*
X127852150Y-91348396D01*
X127892949Y-91321136D01*
X127936222Y-91298005D01*
X127981555Y-91279228D01*
X128028510Y-91264984D01*
X128076635Y-91255412D01*
X128125466Y-91250602D01*
X128150000Y-91250602D01*
X128150000Y-91250000D01*
X128650000Y-91250000D01*
X128650000Y-92750000D01*
G37*
G36*
X132258500Y-95146000D02*
G01*
X132258500Y-95646000D01*
X132257898Y-95646000D01*
X132257898Y-95670534D01*
X132253088Y-95719365D01*
X132243516Y-95767490D01*
X132229272Y-95814445D01*
X132210495Y-95859778D01*
X132187364Y-95903051D01*
X132160104Y-95943850D01*
X132128976Y-95981779D01*
X132094279Y-96016476D01*
X132056350Y-96047604D01*
X132015551Y-96074864D01*
X131972278Y-96097995D01*
X131926945Y-96116772D01*
X131879990Y-96131016D01*
X131831865Y-96140588D01*
X131783034Y-96145398D01*
X131758500Y-96145398D01*
X131758500Y-96146000D01*
X131258500Y-96146000D01*
X131258500Y-96145398D01*
X131233966Y-96145398D01*
X131185135Y-96140588D01*
X131137010Y-96131016D01*
X131090055Y-96116772D01*
X131044722Y-96097995D01*
X131001449Y-96074864D01*
X130960650Y-96047604D01*
X130922721Y-96016476D01*
X130888024Y-95981779D01*
X130856896Y-95943850D01*
X130829636Y-95903051D01*
X130806505Y-95859778D01*
X130787728Y-95814445D01*
X130773484Y-95767490D01*
X130763912Y-95719365D01*
X130759102Y-95670534D01*
X130759102Y-95646000D01*
X130758500Y-95646000D01*
X130758500Y-95146000D01*
X132258500Y-95146000D01*
G37*
G36*
X130759102Y-94346000D02*
G01*
X130759102Y-94321466D01*
X130763912Y-94272635D01*
X130773484Y-94224510D01*
X130787728Y-94177555D01*
X130806505Y-94132222D01*
X130829636Y-94088949D01*
X130856896Y-94048150D01*
X130888024Y-94010221D01*
X130922721Y-93975524D01*
X130960650Y-93944396D01*
X131001449Y-93917136D01*
X131044722Y-93894005D01*
X131090055Y-93875228D01*
X131137010Y-93860984D01*
X131185135Y-93851412D01*
X131233966Y-93846602D01*
X131258500Y-93846602D01*
X131258500Y-93846000D01*
X131758500Y-93846000D01*
X131758500Y-93846602D01*
X131783034Y-93846602D01*
X131831865Y-93851412D01*
X131879990Y-93860984D01*
X131926945Y-93875228D01*
X131972278Y-93894005D01*
X132015551Y-93917136D01*
X132056350Y-93944396D01*
X132094279Y-93975524D01*
X132128976Y-94010221D01*
X132160104Y-94048150D01*
X132187364Y-94088949D01*
X132210495Y-94132222D01*
X132229272Y-94177555D01*
X132243516Y-94224510D01*
X132253088Y-94272635D01*
X132257898Y-94321466D01*
X132257898Y-94346000D01*
X132258500Y-94346000D01*
X132258500Y-94846000D01*
X130758500Y-94846000D01*
X130758500Y-94346000D01*
X130759102Y-94346000D01*
G37*
G36*
X140449398Y-83502501D02*
G01*
X140449398Y-83527035D01*
X140444588Y-83575866D01*
X140435016Y-83623991D01*
X140420772Y-83670946D01*
X140401995Y-83716279D01*
X140378864Y-83759552D01*
X140351604Y-83800351D01*
X140320476Y-83838280D01*
X140285779Y-83872977D01*
X140247850Y-83904105D01*
X140207051Y-83931365D01*
X140163778Y-83954496D01*
X140118445Y-83973273D01*
X140071490Y-83987517D01*
X140023365Y-83997089D01*
X139974534Y-84001899D01*
X139950000Y-84001899D01*
X139950000Y-84002501D01*
X139450000Y-84002501D01*
X139450000Y-84001899D01*
X139425466Y-84001899D01*
X139376635Y-83997089D01*
X139328510Y-83987517D01*
X139281555Y-83973273D01*
X139236222Y-83954496D01*
X139192949Y-83931365D01*
X139152150Y-83904105D01*
X139114221Y-83872977D01*
X139079524Y-83838280D01*
X139048396Y-83800351D01*
X139021136Y-83759552D01*
X138998005Y-83716279D01*
X138979228Y-83670946D01*
X138964984Y-83623991D01*
X138955412Y-83575866D01*
X138950602Y-83527035D01*
X138950602Y-83502501D01*
X138950000Y-83502501D01*
X138950000Y-83002501D01*
X140450000Y-83002501D01*
X140450000Y-83502501D01*
X140449398Y-83502501D01*
G37*
G36*
X138950000Y-82702501D02*
G01*
X138950000Y-82202501D01*
X138950602Y-82202501D01*
X138950602Y-82177967D01*
X138955412Y-82129136D01*
X138964984Y-82081011D01*
X138979228Y-82034056D01*
X138998005Y-81988723D01*
X139021136Y-81945450D01*
X139048396Y-81904651D01*
X139079524Y-81866722D01*
X139114221Y-81832025D01*
X139152150Y-81800897D01*
X139192949Y-81773637D01*
X139236222Y-81750506D01*
X139281555Y-81731729D01*
X139328510Y-81717485D01*
X139376635Y-81707913D01*
X139425466Y-81703103D01*
X139450000Y-81703103D01*
X139450000Y-81702501D01*
X139950000Y-81702501D01*
X139950000Y-81703103D01*
X139974534Y-81703103D01*
X140023365Y-81707913D01*
X140071490Y-81717485D01*
X140118445Y-81731729D01*
X140163778Y-81750506D01*
X140207051Y-81773637D01*
X140247850Y-81800897D01*
X140285779Y-81832025D01*
X140320476Y-81866722D01*
X140351604Y-81904651D01*
X140378864Y-81945450D01*
X140401995Y-81988723D01*
X140420772Y-82034056D01*
X140435016Y-82081011D01*
X140444588Y-82129136D01*
X140449398Y-82177967D01*
X140449398Y-82202501D01*
X140450000Y-82202501D01*
X140450000Y-82702501D01*
X138950000Y-82702501D01*
G37*
G36*
X132662000Y-87417499D02*
G01*
X132662000Y-87917499D01*
X132661398Y-87917499D01*
X132661398Y-87942033D01*
X132656588Y-87990864D01*
X132647016Y-88038989D01*
X132632772Y-88085944D01*
X132613995Y-88131277D01*
X132590864Y-88174550D01*
X132563604Y-88215349D01*
X132532476Y-88253278D01*
X132497779Y-88287975D01*
X132459850Y-88319103D01*
X132419051Y-88346363D01*
X132375778Y-88369494D01*
X132330445Y-88388271D01*
X132283490Y-88402515D01*
X132235365Y-88412087D01*
X132186534Y-88416897D01*
X132162000Y-88416897D01*
X132162000Y-88417499D01*
X131662000Y-88417499D01*
X131662000Y-88416897D01*
X131637466Y-88416897D01*
X131588635Y-88412087D01*
X131540510Y-88402515D01*
X131493555Y-88388271D01*
X131448222Y-88369494D01*
X131404949Y-88346363D01*
X131364150Y-88319103D01*
X131326221Y-88287975D01*
X131291524Y-88253278D01*
X131260396Y-88215349D01*
X131233136Y-88174550D01*
X131210005Y-88131277D01*
X131191228Y-88085944D01*
X131176984Y-88038989D01*
X131167412Y-87990864D01*
X131162602Y-87942033D01*
X131162602Y-87917499D01*
X131162000Y-87917499D01*
X131162000Y-87417499D01*
X132662000Y-87417499D01*
G37*
G36*
X131162602Y-86617499D02*
G01*
X131162602Y-86592965D01*
X131167412Y-86544134D01*
X131176984Y-86496009D01*
X131191228Y-86449054D01*
X131210005Y-86403721D01*
X131233136Y-86360448D01*
X131260396Y-86319649D01*
X131291524Y-86281720D01*
X131326221Y-86247023D01*
X131364150Y-86215895D01*
X131404949Y-86188635D01*
X131448222Y-86165504D01*
X131493555Y-86146727D01*
X131540510Y-86132483D01*
X131588635Y-86122911D01*
X131637466Y-86118101D01*
X131662000Y-86118101D01*
X131662000Y-86117499D01*
X132162000Y-86117499D01*
X132162000Y-86118101D01*
X132186534Y-86118101D01*
X132235365Y-86122911D01*
X132283490Y-86132483D01*
X132330445Y-86146727D01*
X132375778Y-86165504D01*
X132419051Y-86188635D01*
X132459850Y-86215895D01*
X132497779Y-86247023D01*
X132532476Y-86281720D01*
X132563604Y-86319649D01*
X132590864Y-86360448D01*
X132613995Y-86403721D01*
X132632772Y-86449054D01*
X132647016Y-86496009D01*
X132656588Y-86544134D01*
X132661398Y-86592965D01*
X132661398Y-86617499D01*
X132662000Y-86617499D01*
X132662000Y-87117499D01*
X131162000Y-87117499D01*
X131162000Y-86617499D01*
X131162602Y-86617499D01*
G37*
G36*
X128750602Y-86617499D02*
G01*
X128750602Y-86592965D01*
X128755412Y-86544134D01*
X128764984Y-86496009D01*
X128779228Y-86449054D01*
X128798005Y-86403721D01*
X128821136Y-86360448D01*
X128848396Y-86319649D01*
X128879524Y-86281720D01*
X128914221Y-86247023D01*
X128952150Y-86215895D01*
X128992949Y-86188635D01*
X129036222Y-86165504D01*
X129081555Y-86146727D01*
X129128510Y-86132483D01*
X129176635Y-86122911D01*
X129225466Y-86118101D01*
X129250000Y-86118101D01*
X129250000Y-86117499D01*
X129750000Y-86117499D01*
X129750000Y-86118101D01*
X129774534Y-86118101D01*
X129823365Y-86122911D01*
X129871490Y-86132483D01*
X129918445Y-86146727D01*
X129963778Y-86165504D01*
X130007051Y-86188635D01*
X130047850Y-86215895D01*
X130085779Y-86247023D01*
X130120476Y-86281720D01*
X130151604Y-86319649D01*
X130178864Y-86360448D01*
X130201995Y-86403721D01*
X130220772Y-86449054D01*
X130235016Y-86496009D01*
X130244588Y-86544134D01*
X130249398Y-86592965D01*
X130249398Y-86617499D01*
X130250000Y-86617499D01*
X130250000Y-87117499D01*
X128750000Y-87117499D01*
X128750000Y-86617499D01*
X128750602Y-86617499D01*
G37*
G36*
X130250000Y-87417499D02*
G01*
X130250000Y-87917499D01*
X130249398Y-87917499D01*
X130249398Y-87942033D01*
X130244588Y-87990864D01*
X130235016Y-88038989D01*
X130220772Y-88085944D01*
X130201995Y-88131277D01*
X130178864Y-88174550D01*
X130151604Y-88215349D01*
X130120476Y-88253278D01*
X130085779Y-88287975D01*
X130047850Y-88319103D01*
X130007051Y-88346363D01*
X129963778Y-88369494D01*
X129918445Y-88388271D01*
X129871490Y-88402515D01*
X129823365Y-88412087D01*
X129774534Y-88416897D01*
X129750000Y-88416897D01*
X129750000Y-88417499D01*
X129250000Y-88417499D01*
X129250000Y-88416897D01*
X129225466Y-88416897D01*
X129176635Y-88412087D01*
X129128510Y-88402515D01*
X129081555Y-88388271D01*
X129036222Y-88369494D01*
X128992949Y-88346363D01*
X128952150Y-88319103D01*
X128914221Y-88287975D01*
X128879524Y-88253278D01*
X128848396Y-88215349D01*
X128821136Y-88174550D01*
X128798005Y-88131277D01*
X128779228Y-88085944D01*
X128764984Y-88038989D01*
X128755412Y-87990864D01*
X128750602Y-87942033D01*
X128750602Y-87917499D01*
X128750000Y-87917499D01*
X128750000Y-87417499D01*
X130250000Y-87417499D01*
G37*
D14*
X131000000Y-102600000D03*
X128350000Y-104100000D03*
X130950000Y-105600000D03*
X128350000Y-107400000D03*
X130900000Y-108650000D03*
X137650000Y-108650000D03*
X140900000Y-105600000D03*
X140850000Y-108550000D03*
D15*
X127000000Y-71120000D03*
X144780000Y-71120000D03*
D16*
X144780000Y-116840000D03*
X127000000Y-116840000D03*
D17*
X125730000Y-74930000D03*
X125730000Y-77470000D03*
X125730000Y-80010000D03*
X125730000Y-82550000D03*
X125730000Y-85090000D03*
X125730000Y-87630000D03*
X125730000Y-90170000D03*
X125730000Y-92710000D03*
X125730000Y-95250000D03*
X125730000Y-97790000D03*
X125730000Y-100330000D03*
X125730000Y-102870000D03*
X125730000Y-105410000D03*
X125730000Y-107950000D03*
X125730000Y-110490000D03*
X125730000Y-113030000D03*
X146050000Y-113030000D03*
X146050000Y-110490000D03*
X146050000Y-107950000D03*
X146050000Y-105410000D03*
X146050000Y-102870000D03*
X146050000Y-100330000D03*
X146050000Y-97790000D03*
X146050000Y-95250000D03*
X146050000Y-92710000D03*
X146050000Y-90170000D03*
X146050000Y-87630000D03*
X146050000Y-85090000D03*
D13*
G36*
X140499398Y-86300000D02*
G01*
X140499398Y-86324534D01*
X140494588Y-86373365D01*
X140485016Y-86421490D01*
X140470772Y-86468445D01*
X140451995Y-86513778D01*
X140428864Y-86557051D01*
X140401604Y-86597850D01*
X140370476Y-86635779D01*
X140335779Y-86670476D01*
X140297850Y-86701604D01*
X140257051Y-86728864D01*
X140213778Y-86751995D01*
X140168445Y-86770772D01*
X140121490Y-86785016D01*
X140073365Y-86794588D01*
X140024534Y-86799398D01*
X140000000Y-86799398D01*
X140000000Y-86800000D01*
X139500000Y-86800000D01*
X139500000Y-86799398D01*
X139475466Y-86799398D01*
X139426635Y-86794588D01*
X139378510Y-86785016D01*
X139331555Y-86770772D01*
X139286222Y-86751995D01*
X139242949Y-86728864D01*
X139202150Y-86701604D01*
X139164221Y-86670476D01*
X139129524Y-86635779D01*
X139098396Y-86597850D01*
X139071136Y-86557051D01*
X139048005Y-86513778D01*
X139029228Y-86468445D01*
X139014984Y-86421490D01*
X139005412Y-86373365D01*
X139000602Y-86324534D01*
X139000602Y-86300000D01*
X139000000Y-86300000D01*
X139000000Y-85800000D01*
X140500000Y-85800000D01*
X140500000Y-86300000D01*
X140499398Y-86300000D01*
G37*
G36*
X139000000Y-85500000D02*
G01*
X139000000Y-85000000D01*
X139000602Y-85000000D01*
X139000602Y-84975466D01*
X139005412Y-84926635D01*
X139014984Y-84878510D01*
X139029228Y-84831555D01*
X139048005Y-84786222D01*
X139071136Y-84742949D01*
X139098396Y-84702150D01*
X139129524Y-84664221D01*
X139164221Y-84629524D01*
X139202150Y-84598396D01*
X139242949Y-84571136D01*
X139286222Y-84548005D01*
X139331555Y-84529228D01*
X139378510Y-84514984D01*
X139426635Y-84505412D01*
X139475466Y-84500602D01*
X139500000Y-84500602D01*
X139500000Y-84500000D01*
X140000000Y-84500000D01*
X140000000Y-84500602D01*
X140024534Y-84500602D01*
X140073365Y-84505412D01*
X140121490Y-84514984D01*
X140168445Y-84529228D01*
X140213778Y-84548005D01*
X140257051Y-84571136D01*
X140297850Y-84598396D01*
X140335779Y-84629524D01*
X140370476Y-84664221D01*
X140401604Y-84702150D01*
X140428864Y-84742949D01*
X140451995Y-84786222D01*
X140470772Y-84831555D01*
X140485016Y-84878510D01*
X140494588Y-84926635D01*
X140499398Y-84975466D01*
X140499398Y-85000000D01*
X140500000Y-85000000D01*
X140500000Y-85500000D01*
X139000000Y-85500000D01*
G37*
D18*
X131570000Y-69550000D03*
D19*
X133000000Y-73200000D03*
D18*
X140210000Y-69550000D03*
D19*
X138780000Y-73200000D03*
D20*
X140210000Y-73730000D03*
X131570000Y-73730000D03*
D14*
X140850000Y-94600000D03*
X134200000Y-108650000D03*
M02*
