G04 #@! TF.GenerationSoftware,KiCad,Pcbnew,(5.1.8)-1*
G04 #@! TF.CreationDate,2021-04-09T02:34:17+02:00*
G04 #@! TF.ProjectId,Penguino-STM32WL-M,50656e67-7569-46e6-9f2d-53544d333257,0.1*
G04 #@! TF.SameCoordinates,Original*
G04 #@! TF.FileFunction,Copper,L3,Inr*
G04 #@! TF.FilePolarity,Positive*
%FSLAX46Y46*%
G04 Gerber Fmt 4.6, Leading zero omitted, Abs format (unit mm)*
G04 Created by KiCad (PCBNEW (5.1.8)-1) date 2021-04-09 02:34:17*
%MOMM*%
%LPD*%
G01*
G04 APERTURE LIST*
G04 #@! TA.AperFunction,Profile*
%ADD10C,0.150000*%
G04 #@! TD*
G04 #@! TA.AperFunction,ComponentPad*
%ADD11C,3.175000*%
G04 #@! TD*
G04 #@! TA.AperFunction,ComponentPad*
%ADD12C,2.540000*%
G04 #@! TD*
G04 #@! TA.AperFunction,ComponentPad*
%ADD13O,1.700000X1.700000*%
G04 #@! TD*
G04 #@! TA.AperFunction,ComponentPad*
%ADD14O,1.000000X1.600000*%
G04 #@! TD*
G04 #@! TA.AperFunction,ComponentPad*
%ADD15O,1.000000X2.100000*%
G04 #@! TD*
G04 #@! TA.AperFunction,ViaPad*
%ADD16C,0.600000*%
G04 #@! TD*
G04 #@! TA.AperFunction,ViaPad*
%ADD17C,0.550000*%
G04 #@! TD*
G04 #@! TA.AperFunction,ViaPad*
%ADD18C,0.450000*%
G04 #@! TD*
G04 #@! TA.AperFunction,ViaPad*
%ADD19C,0.500000*%
G04 #@! TD*
G04 #@! TA.AperFunction,Conductor*
%ADD20C,0.800000*%
G04 #@! TD*
G04 #@! TA.AperFunction,Conductor*
%ADD21C,0.609600*%
G04 #@! TD*
G04 #@! TA.AperFunction,Conductor*
%ADD22C,0.400000*%
G04 #@! TD*
G04 #@! TA.AperFunction,Conductor*
%ADD23C,0.500000*%
G04 #@! TD*
G04 #@! TA.AperFunction,Conductor*
%ADD24C,1.200000*%
G04 #@! TD*
G04 #@! TA.AperFunction,Conductor*
%ADD25C,0.300000*%
G04 #@! TD*
G04 #@! TA.AperFunction,Conductor*
%ADD26C,0.200000*%
G04 #@! TD*
G04 #@! TA.AperFunction,Conductor*
%ADD27C,0.350000*%
G04 #@! TD*
G04 #@! TA.AperFunction,Conductor*
%ADD28C,0.180000*%
G04 #@! TD*
G04 #@! TA.AperFunction,Conductor*
%ADD29C,0.250000*%
G04 #@! TD*
G04 #@! TA.AperFunction,Conductor*
%ADD30C,0.254000*%
G04 #@! TD*
G04 #@! TA.AperFunction,Conductor*
%ADD31C,0.100000*%
G04 #@! TD*
G04 APERTURE END LIST*
D10*
X127000000Y-119380000D02*
G75*
G02*
X124460000Y-116840000I0J2540000D01*
G01*
X147320000Y-116840000D02*
G75*
G02*
X144780000Y-119380000I-2540000J0D01*
G01*
X144780000Y-68580000D02*
G75*
G02*
X147320000Y-71120000I0J-2540000D01*
G01*
X124460000Y-71120000D02*
G75*
G02*
X127000000Y-68580000I2540000J0D01*
G01*
X124460000Y-116840000D02*
X124460000Y-71120000D01*
X144780000Y-119380000D02*
X127000000Y-119380000D01*
X147320000Y-71120000D02*
X147320000Y-116840000D01*
X127000000Y-68580000D02*
X144780000Y-68580000D01*
D11*
X127000000Y-71120000D03*
X144780000Y-71120000D03*
D12*
X144780000Y-116840000D03*
X127000000Y-116840000D03*
D13*
X125730000Y-74930000D03*
X125730000Y-77470000D03*
X125730000Y-80010000D03*
X125730000Y-82550000D03*
X125730000Y-85090000D03*
X125730000Y-87630000D03*
X125730000Y-90170000D03*
X125730000Y-92710000D03*
X125730000Y-95250000D03*
X125730000Y-97790000D03*
X125730000Y-100330000D03*
X125730000Y-102870000D03*
X125730000Y-105410000D03*
X125730000Y-107950000D03*
X125730000Y-110490000D03*
X125730000Y-113030000D03*
X146050000Y-113030000D03*
X146050000Y-110490000D03*
X146050000Y-107950000D03*
X146050000Y-105410000D03*
X146050000Y-102870000D03*
X146050000Y-100330000D03*
X146050000Y-97790000D03*
X146050000Y-95250000D03*
X146050000Y-92710000D03*
X146050000Y-90170000D03*
X146050000Y-87630000D03*
X146050000Y-85090000D03*
D14*
X131570000Y-69550000D03*
X140210000Y-69550000D03*
D15*
X140210000Y-73730000D03*
X131570000Y-73730000D03*
D16*
X145600000Y-78050000D03*
X145600000Y-81500000D03*
X145600000Y-79800000D03*
X143375000Y-76375000D03*
X143419990Y-83080010D03*
X134250000Y-98110000D03*
X137620000Y-98100000D03*
X139510000Y-99620000D03*
X139530000Y-102610000D03*
X139460000Y-105610000D03*
X140870000Y-107200000D03*
X137630000Y-106850000D03*
X134230000Y-107190000D03*
X132310000Y-105680000D03*
X132320000Y-102630000D03*
X132380000Y-99640000D03*
X130950000Y-98080000D03*
X130400000Y-112220000D03*
X142180000Y-105110000D03*
D17*
X132900000Y-112050000D03*
X134550000Y-111900000D03*
X135200000Y-112100000D03*
X134150000Y-113300000D03*
X135100000Y-113400000D03*
X135900000Y-111900000D03*
X136950000Y-111950000D03*
X136650000Y-113500000D03*
X137600000Y-113350000D03*
X137600000Y-112100000D03*
X138400000Y-112100000D03*
X138400000Y-113350000D03*
X139300000Y-111975000D03*
X139275000Y-113450000D03*
X140000000Y-113650000D03*
X141725000Y-111900000D03*
X132525000Y-113600000D03*
X134500000Y-118700000D03*
X134500000Y-117700000D03*
X134500000Y-116800000D03*
X134500000Y-115900000D03*
X134500000Y-115000000D03*
X134700000Y-114200000D03*
X137100000Y-114200000D03*
X137200000Y-115000000D03*
X137200000Y-115900000D03*
X137200000Y-116800000D03*
X137200000Y-117700000D03*
X137200000Y-118700000D03*
X140200000Y-118700000D03*
X140200000Y-117700000D03*
X140100000Y-116800000D03*
X140100000Y-115800000D03*
X131700000Y-118700000D03*
X131700000Y-117700000D03*
X131700000Y-116800000D03*
X131700000Y-115900000D03*
X131700000Y-115000000D03*
X131800000Y-114100000D03*
X138700000Y-114000000D03*
X133100000Y-114000000D03*
X142500000Y-116200000D03*
X144600000Y-114100000D03*
X144100000Y-111900000D03*
D18*
X129600000Y-100125000D03*
X142175000Y-98125000D03*
X137125000Y-72700000D03*
X135575000Y-72200000D03*
X134425000Y-72725000D03*
X133850000Y-78700000D03*
D16*
X131875000Y-75675000D03*
X142650000Y-86025000D03*
X135825000Y-88925000D03*
X139850000Y-77575000D03*
X142025000Y-78700000D03*
X139850000Y-79650000D03*
X137500000Y-78450000D03*
D18*
X140880000Y-98140000D03*
X140660000Y-92640000D03*
D16*
X135747000Y-96003000D03*
D18*
X126946000Y-99414000D03*
X129750000Y-80750000D03*
X129925000Y-81675000D03*
X126625000Y-83800000D03*
X126550000Y-81225000D03*
X129676485Y-93273312D03*
D16*
X132296801Y-108914351D03*
D18*
X133450000Y-80500000D03*
X134200000Y-80350000D03*
X141600000Y-72950000D03*
X143450000Y-69300000D03*
X146600000Y-72400000D03*
X132050000Y-91181326D03*
D16*
X137716502Y-91610580D03*
D18*
X128510000Y-69350000D03*
X127054400Y-114620600D03*
X127656800Y-110403800D03*
X127656800Y-112211000D03*
X128259200Y-113415800D03*
X128861600Y-111006200D03*
X128861600Y-114620600D03*
X128861600Y-118235000D03*
X129464000Y-115825400D03*
X130066400Y-74862200D03*
X130066400Y-113415800D03*
X130066400Y-117030200D03*
X130668800Y-114620600D03*
X130668800Y-118235000D03*
X132476000Y-71247800D03*
X132476000Y-103777400D03*
X133680800Y-70645400D03*
X133680800Y-105584600D03*
X134885600Y-101367800D03*
X135488000Y-70645400D03*
X135488000Y-102572600D03*
X135488000Y-105584600D03*
X136090400Y-100765400D03*
X136090400Y-106789400D03*
X136692800Y-101970200D03*
X137295200Y-70645400D03*
X137295200Y-99560600D03*
X137295200Y-103175000D03*
X137897600Y-100765400D03*
X138500000Y-71247800D03*
X138500000Y-103777400D03*
X139102400Y-101367800D03*
X140307200Y-76067000D03*
X141512000Y-89922200D03*
X141512000Y-117632600D03*
X142716800Y-118235000D03*
X143319200Y-94139000D03*
X143921600Y-77874200D03*
X143921600Y-79681400D03*
X143921600Y-81488600D03*
X146331200Y-115223000D03*
D19*
X133833053Y-88692331D03*
D18*
X141290000Y-82440000D03*
X136050000Y-81950000D03*
D16*
X136000000Y-84475000D03*
X139151888Y-76052410D03*
D18*
X133800000Y-103750000D03*
D16*
X139875000Y-82125000D03*
D18*
X134650000Y-78375000D03*
D16*
X135050000Y-84425000D03*
X135050000Y-83675000D03*
X138175000Y-85950000D03*
X141600000Y-85925000D03*
X141600000Y-84225000D03*
D19*
X146125000Y-73325000D03*
D16*
X138094986Y-84342635D03*
D18*
X127150000Y-101700000D03*
X144750000Y-96575000D03*
D19*
X134300000Y-92400000D03*
X134300000Y-91800000D03*
X139320598Y-86300000D03*
X142500000Y-92700000D03*
X142500000Y-88550000D03*
D18*
X130733265Y-90657231D03*
X134300000Y-91225000D03*
X129632620Y-91530141D03*
X135640016Y-73377150D03*
X136659812Y-73359806D03*
D19*
X140625000Y-87925000D03*
X134850000Y-88680358D03*
D18*
X133300000Y-93300000D03*
D19*
X144950000Y-86550000D03*
X141275000Y-70275000D03*
D18*
X130000000Y-73700000D03*
X134190784Y-89207768D03*
X133550000Y-81475000D03*
X130711653Y-91385950D03*
X129650000Y-96750000D03*
X145350000Y-106650000D03*
X133650000Y-102100000D03*
X126647590Y-93525195D03*
D16*
X137390262Y-94430000D03*
D18*
X134175000Y-81575000D03*
X144780000Y-107000000D03*
X144547590Y-104320000D03*
X139390000Y-95980000D03*
X127100000Y-103500000D03*
X127053113Y-104246887D03*
X129580000Y-107122000D03*
X129563000Y-108127000D03*
X129552000Y-109114000D03*
X136377029Y-109211869D03*
X139250000Y-106837000D03*
X139992693Y-107182287D03*
X144720000Y-109060000D03*
X144710000Y-108220000D03*
X144640000Y-99110000D03*
X140590000Y-93400000D03*
X139020000Y-93330000D03*
X137286767Y-92593223D03*
X139299000Y-107773000D03*
X127068000Y-97886000D03*
X130608734Y-88820886D03*
X127004000Y-98782000D03*
X130700000Y-88200000D03*
D16*
X138375000Y-82375000D03*
D18*
X126797590Y-88450000D03*
X132501000Y-96199000D03*
X126700000Y-86550000D03*
X128993692Y-95066919D03*
X142220000Y-94470000D03*
X128000000Y-82000000D03*
X127035609Y-96274155D03*
X127032000Y-97130000D03*
X128667410Y-81500000D03*
X129152410Y-82074750D03*
X129525000Y-102125000D03*
X128207138Y-95095180D03*
X135635000Y-109209000D03*
D20*
X135050000Y-83675000D02*
X135050000Y-84425000D01*
X138200000Y-85025000D02*
X138175000Y-85050000D01*
D21*
X138175000Y-85050000D02*
X138175000Y-85950000D01*
D20*
X141600000Y-85025000D02*
X138200000Y-85025000D01*
D21*
X141600000Y-84225000D02*
X141600000Y-85025000D01*
X141600000Y-85025000D02*
X141600000Y-85925000D01*
X138175000Y-85050000D02*
X138175000Y-84422649D01*
X138175000Y-84422649D02*
X138094986Y-84342635D01*
X141600000Y-85925000D02*
X141600000Y-86250000D01*
X145520000Y-90170000D02*
X146050000Y-90170000D01*
X141600000Y-86250000D02*
X145520000Y-90170000D01*
D22*
X134650000Y-79390000D02*
X134650000Y-78375000D01*
D20*
X138200000Y-85025000D02*
X137275000Y-85025000D01*
X137275000Y-85025000D02*
X136625000Y-85675000D01*
X136625000Y-85675000D02*
X135650000Y-85675000D01*
X135650000Y-85675000D02*
X135050000Y-85075000D01*
X135050000Y-85075000D02*
X135050000Y-84425000D01*
D22*
X134650000Y-78375000D02*
X134650000Y-77250000D01*
D23*
X134650000Y-77250000D02*
X134650000Y-79390000D01*
X134650000Y-79390000D02*
X135050000Y-79790000D01*
X135050000Y-79790000D02*
X135050000Y-83675000D01*
X144100000Y-75350000D02*
X146125000Y-73325000D01*
X136550000Y-75350000D02*
X144100000Y-75350000D01*
X134650000Y-77250000D02*
X136550000Y-75350000D01*
X134300000Y-91800000D02*
X135800000Y-91800000D01*
X142500000Y-92700000D02*
X142500000Y-88550000D01*
X142500000Y-92700000D02*
X141300000Y-93900000D01*
X141300000Y-93900000D02*
X141300000Y-96250000D01*
X141625000Y-96575000D02*
X144750000Y-96575000D01*
X141300000Y-96250000D02*
X141625000Y-96575000D01*
D24*
X125730000Y-77470000D02*
X127916554Y-77470000D01*
X127916554Y-77470000D02*
X132300000Y-81853446D01*
X132300000Y-81853446D02*
X132300000Y-89800000D01*
X132300000Y-89800000D02*
X134300000Y-91800000D01*
D21*
X139320598Y-86300000D02*
X139320598Y-88279402D01*
X139320598Y-88279402D02*
X135800000Y-91800000D01*
D25*
X139170000Y-106300000D02*
X136970000Y-104100000D01*
X135650000Y-104100000D02*
X133650000Y-102100000D01*
X145000000Y-106300000D02*
X139170000Y-106300000D01*
X136970000Y-104100000D02*
X135650000Y-104100000D01*
X145350000Y-106650000D02*
X145000000Y-106300000D01*
D26*
X129650000Y-96110000D02*
X130711653Y-95048347D01*
X129650000Y-96750000D02*
X129650000Y-96110000D01*
X130711653Y-91385950D02*
X130711653Y-95048347D01*
D27*
X137502410Y-108652410D02*
X138075000Y-109225000D01*
X132922152Y-108652410D02*
X137502410Y-108652410D01*
X144555000Y-109225000D02*
X144720000Y-109060000D01*
X138075000Y-109225000D02*
X144555000Y-109225000D01*
X130819742Y-106550000D02*
X132922152Y-108652410D01*
X126870000Y-106550000D02*
X130819742Y-106550000D01*
X125730000Y-105410000D02*
X126870000Y-106550000D01*
X144485001Y-108444999D02*
X144710000Y-108220000D01*
X137925000Y-107875000D02*
X138494999Y-108444999D01*
X138494999Y-108444999D02*
X144485001Y-108444999D01*
X133325000Y-107875000D02*
X137925000Y-107875000D01*
X131207589Y-105757589D02*
X133325000Y-107875000D01*
X127767589Y-105757589D02*
X131207589Y-105757589D01*
X125730000Y-103720000D02*
X127767589Y-105757589D01*
X125730000Y-102870000D02*
X125730000Y-103720000D01*
X125730000Y-100330000D02*
X125730000Y-101105000D01*
X138998000Y-107773000D02*
X139299000Y-107773000D01*
X138550000Y-107325000D02*
X138998000Y-107773000D01*
X136515000Y-104775000D02*
X138550000Y-106810000D01*
X129325000Y-104775000D02*
X136515000Y-104775000D01*
X125730000Y-101180000D02*
X129325000Y-104775000D01*
X138550000Y-106810000D02*
X138550000Y-107325000D01*
X125730000Y-100330000D02*
X125730000Y-101180000D01*
D28*
X130182599Y-94771401D02*
X130182599Y-89247021D01*
X127068000Y-97886000D02*
X130182599Y-94771401D01*
X130182599Y-89247021D02*
X130608734Y-88820886D01*
X131300000Y-95791756D02*
X128309756Y-98782000D01*
X131300000Y-88800000D02*
X131300000Y-95791756D01*
X128309756Y-98782000D02*
X127004000Y-98782000D01*
X130700000Y-88200000D02*
X131300000Y-88800000D01*
D29*
X127400000Y-87250000D02*
X126700000Y-86550000D01*
X125730000Y-95231812D02*
X127400000Y-93561812D01*
X125730000Y-95250000D02*
X125730000Y-95231812D01*
X127400000Y-93561812D02*
X127400000Y-87250000D01*
X127035609Y-94744391D02*
X127035609Y-96274155D01*
X128000000Y-93780000D02*
X127035609Y-94744391D01*
X128000000Y-82000000D02*
X128000000Y-93780000D01*
X128617410Y-81550000D02*
X128667410Y-81500000D01*
X127538019Y-94911981D02*
X128617410Y-93832590D01*
X127538019Y-96623981D02*
X127538019Y-94911981D01*
X128617410Y-93832590D02*
X128617410Y-81550000D01*
X127032000Y-97130000D02*
X127538019Y-96623981D01*
X128207138Y-94982862D02*
X128207138Y-95095180D01*
X129130219Y-91288988D02*
X129130219Y-94059781D01*
X129130219Y-94059781D02*
X128207138Y-94982862D01*
X129152410Y-91266797D02*
X129130219Y-91288988D01*
X129152410Y-82074750D02*
X129152410Y-91266797D01*
D30*
X137068057Y-90750798D02*
X137053928Y-91471374D01*
X137039502Y-91543901D01*
X137039502Y-91677259D01*
X137048959Y-91724804D01*
X137042726Y-92042708D01*
X137001613Y-92059737D01*
X136903014Y-92125619D01*
X136819163Y-92209470D01*
X136753281Y-92308069D01*
X136707901Y-92417626D01*
X136684767Y-92533931D01*
X136684767Y-92652515D01*
X136707901Y-92768820D01*
X136753281Y-92878377D01*
X136819163Y-92976976D01*
X136903014Y-93060827D01*
X137001613Y-93126709D01*
X137021311Y-93134868D01*
X137006858Y-93871961D01*
X136958699Y-93904140D01*
X136864402Y-93998437D01*
X136790312Y-94109320D01*
X136739278Y-94232526D01*
X136713262Y-94363321D01*
X136713262Y-94496679D01*
X136739278Y-94627474D01*
X136790312Y-94750680D01*
X136864402Y-94861563D01*
X136958699Y-94955860D01*
X136985258Y-94973606D01*
X136976945Y-95397548D01*
X136978899Y-95422368D01*
X136985658Y-95446329D01*
X136996961Y-95468512D01*
X137013242Y-95488956D01*
X137209321Y-95688918D01*
X137228411Y-95704900D01*
X137250251Y-95716851D01*
X137274004Y-95724311D01*
X137300000Y-95727000D01*
X138843195Y-95727000D01*
X138811134Y-95804403D01*
X138788000Y-95920708D01*
X138788000Y-96039292D01*
X138811134Y-96155597D01*
X138856514Y-96265154D01*
X138922396Y-96363753D01*
X139006247Y-96447604D01*
X139104846Y-96513486D01*
X139214403Y-96558866D01*
X139330708Y-96582000D01*
X139449292Y-96582000D01*
X139565597Y-96558866D01*
X139675154Y-96513486D01*
X139773753Y-96447604D01*
X139857604Y-96363753D01*
X139923486Y-96265154D01*
X139968866Y-96155597D01*
X139992000Y-96039292D01*
X139992000Y-95920708D01*
X139968866Y-95804403D01*
X139936805Y-95727000D01*
X144747394Y-95727000D01*
X144873000Y-95852606D01*
X144873000Y-97425224D01*
X144870153Y-97432097D01*
X144823000Y-97669151D01*
X144823000Y-97910849D01*
X144870153Y-98147903D01*
X144873000Y-98154776D01*
X144873000Y-98547394D01*
X144867685Y-98552709D01*
X144815597Y-98531134D01*
X144699292Y-98508000D01*
X144580708Y-98508000D01*
X144464403Y-98531134D01*
X144354846Y-98576514D01*
X144256247Y-98642396D01*
X144225643Y-98673000D01*
X142425114Y-98673000D01*
X142460154Y-98658486D01*
X142558753Y-98592604D01*
X142642604Y-98508753D01*
X142708486Y-98410154D01*
X142753866Y-98300597D01*
X142777000Y-98184292D01*
X142777000Y-98065708D01*
X142753866Y-97949403D01*
X142708486Y-97839846D01*
X142642604Y-97741247D01*
X142558753Y-97657396D01*
X142460154Y-97591514D01*
X142350597Y-97546134D01*
X142234292Y-97523000D01*
X142115708Y-97523000D01*
X141999403Y-97546134D01*
X141889846Y-97591514D01*
X141791247Y-97657396D01*
X141707396Y-97741247D01*
X141641514Y-97839846D01*
X141596134Y-97949403D01*
X141573000Y-98065708D01*
X141573000Y-98184292D01*
X141596134Y-98300597D01*
X141641514Y-98410154D01*
X141707396Y-98508753D01*
X141791247Y-98592604D01*
X141889846Y-98658486D01*
X141924886Y-98673000D01*
X141165881Y-98673000D01*
X141263753Y-98607604D01*
X141347604Y-98523753D01*
X141413486Y-98425154D01*
X141458866Y-98315597D01*
X141482000Y-98199292D01*
X141482000Y-98080708D01*
X141458866Y-97964403D01*
X141413486Y-97854846D01*
X141347604Y-97756247D01*
X141263753Y-97672396D01*
X141165154Y-97606514D01*
X141055597Y-97561134D01*
X140939292Y-97538000D01*
X140820708Y-97538000D01*
X140704403Y-97561134D01*
X140594846Y-97606514D01*
X140496247Y-97672396D01*
X140412396Y-97756247D01*
X140346514Y-97854846D01*
X140301134Y-97964403D01*
X140278000Y-98080708D01*
X140278000Y-98199292D01*
X140301134Y-98315597D01*
X140346514Y-98425154D01*
X140412396Y-98523753D01*
X140496247Y-98607604D01*
X140594119Y-98673000D01*
X137981013Y-98673000D01*
X138051563Y-98625860D01*
X138145860Y-98531563D01*
X138219950Y-98420680D01*
X138270984Y-98297474D01*
X138297000Y-98166679D01*
X138297000Y-98033321D01*
X138270984Y-97902526D01*
X138219950Y-97779320D01*
X138145860Y-97668437D01*
X138051563Y-97574140D01*
X137940680Y-97500050D01*
X137817474Y-97449016D01*
X137686679Y-97423000D01*
X137553321Y-97423000D01*
X137422526Y-97449016D01*
X137299320Y-97500050D01*
X137188437Y-97574140D01*
X137094140Y-97668437D01*
X137020050Y-97779320D01*
X136969016Y-97902526D01*
X136943000Y-98033321D01*
X136943000Y-98166679D01*
X136969016Y-98297474D01*
X137020050Y-98420680D01*
X137094140Y-98531563D01*
X137188437Y-98625860D01*
X137266197Y-98677818D01*
X137260198Y-98679398D01*
X136899487Y-98798444D01*
X136876723Y-98808527D01*
X136863695Y-98816994D01*
X132567172Y-101999602D01*
X132517474Y-101979016D01*
X132386679Y-101953000D01*
X132253321Y-101953000D01*
X132122526Y-101979016D01*
X131999320Y-102030050D01*
X131888437Y-102104140D01*
X131794140Y-102198437D01*
X131720050Y-102309320D01*
X131669016Y-102432526D01*
X131643000Y-102563321D01*
X131643000Y-102619067D01*
X131479584Y-102673000D01*
X129775114Y-102673000D01*
X129810154Y-102658486D01*
X129908753Y-102592604D01*
X129992604Y-102508753D01*
X130058486Y-102410154D01*
X130103866Y-102300597D01*
X130127000Y-102184292D01*
X130127000Y-102065708D01*
X130103866Y-101949403D01*
X130058486Y-101839846D01*
X129992604Y-101741247D01*
X129908753Y-101657396D01*
X129810154Y-101591514D01*
X129700597Y-101546134D01*
X129584292Y-101523000D01*
X129465708Y-101523000D01*
X129349403Y-101546134D01*
X129239846Y-101591514D01*
X129141247Y-101657396D01*
X129057396Y-101741247D01*
X128991514Y-101839846D01*
X128946134Y-101949403D01*
X128923000Y-102065708D01*
X128923000Y-102184292D01*
X128946134Y-102300597D01*
X128991514Y-102410154D01*
X129057396Y-102508753D01*
X129141247Y-102592604D01*
X129239846Y-102658486D01*
X129274886Y-102673000D01*
X128003645Y-102673000D01*
X127027000Y-101696356D01*
X127027000Y-100065708D01*
X128998000Y-100065708D01*
X128998000Y-100184292D01*
X129021134Y-100300597D01*
X129066514Y-100410154D01*
X129132396Y-100508753D01*
X129216247Y-100592604D01*
X129314846Y-100658486D01*
X129424403Y-100703866D01*
X129540708Y-100727000D01*
X129659292Y-100727000D01*
X129775597Y-100703866D01*
X129885154Y-100658486D01*
X129983753Y-100592604D01*
X130067604Y-100508753D01*
X130133486Y-100410154D01*
X130178866Y-100300597D01*
X130202000Y-100184292D01*
X130202000Y-100065708D01*
X130178866Y-99949403D01*
X130133486Y-99839846D01*
X130067604Y-99741247D01*
X129983753Y-99657396D01*
X129885154Y-99591514D01*
X129841233Y-99573321D01*
X131703000Y-99573321D01*
X131703000Y-99706679D01*
X131729016Y-99837474D01*
X131780050Y-99960680D01*
X131854140Y-100071563D01*
X131948437Y-100165860D01*
X132059320Y-100239950D01*
X132182526Y-100290984D01*
X132313321Y-100317000D01*
X132446679Y-100317000D01*
X132577474Y-100290984D01*
X132700680Y-100239950D01*
X132811563Y-100165860D01*
X132905860Y-100071563D01*
X132979950Y-99960680D01*
X133030984Y-99837474D01*
X133057000Y-99706679D01*
X133057000Y-99573321D01*
X133030984Y-99442526D01*
X132979950Y-99319320D01*
X132905860Y-99208437D01*
X132811563Y-99114140D01*
X132700680Y-99040050D01*
X132577474Y-98989016D01*
X132446679Y-98963000D01*
X132313321Y-98963000D01*
X132182526Y-98989016D01*
X132059320Y-99040050D01*
X131948437Y-99114140D01*
X131854140Y-99208437D01*
X131780050Y-99319320D01*
X131729016Y-99442526D01*
X131703000Y-99573321D01*
X129841233Y-99573321D01*
X129775597Y-99546134D01*
X129659292Y-99523000D01*
X129540708Y-99523000D01*
X129424403Y-99546134D01*
X129314846Y-99591514D01*
X129216247Y-99657396D01*
X129132396Y-99741247D01*
X129066514Y-99839846D01*
X129021134Y-99949403D01*
X128998000Y-100065708D01*
X127027000Y-100065708D01*
X127027000Y-100011682D01*
X127121597Y-99992866D01*
X127231154Y-99947486D01*
X127329753Y-99881604D01*
X127413604Y-99797753D01*
X127479486Y-99699154D01*
X127524866Y-99589597D01*
X127548000Y-99473292D01*
X127548000Y-99354708D01*
X127526974Y-99249000D01*
X128286828Y-99249000D01*
X128309756Y-99251258D01*
X128332684Y-99249000D01*
X128332691Y-99249000D01*
X128401304Y-99242242D01*
X128489334Y-99215539D01*
X128570462Y-99172175D01*
X128641572Y-99113816D01*
X128656195Y-99095998D01*
X129738872Y-98013321D01*
X130273000Y-98013321D01*
X130273000Y-98146679D01*
X130299016Y-98277474D01*
X130350050Y-98400680D01*
X130424140Y-98511563D01*
X130518437Y-98605860D01*
X130629320Y-98679950D01*
X130752526Y-98730984D01*
X130883321Y-98757000D01*
X131016679Y-98757000D01*
X131147474Y-98730984D01*
X131270680Y-98679950D01*
X131381563Y-98605860D01*
X131475860Y-98511563D01*
X131549950Y-98400680D01*
X131600984Y-98277474D01*
X131627000Y-98146679D01*
X131627000Y-98043321D01*
X133573000Y-98043321D01*
X133573000Y-98176679D01*
X133599016Y-98307474D01*
X133650050Y-98430680D01*
X133724140Y-98541563D01*
X133818437Y-98635860D01*
X133929320Y-98709950D01*
X134052526Y-98760984D01*
X134183321Y-98787000D01*
X134316679Y-98787000D01*
X134447474Y-98760984D01*
X134570680Y-98709950D01*
X134681563Y-98635860D01*
X134775860Y-98541563D01*
X134849950Y-98430680D01*
X134900984Y-98307474D01*
X134927000Y-98176679D01*
X134927000Y-98043321D01*
X134900984Y-97912526D01*
X134849950Y-97789320D01*
X134775860Y-97678437D01*
X134681563Y-97584140D01*
X134570680Y-97510050D01*
X134447474Y-97459016D01*
X134316679Y-97433000D01*
X134183321Y-97433000D01*
X134052526Y-97459016D01*
X133929320Y-97510050D01*
X133818437Y-97584140D01*
X133724140Y-97678437D01*
X133650050Y-97789320D01*
X133599016Y-97912526D01*
X133573000Y-98043321D01*
X131627000Y-98043321D01*
X131627000Y-98013321D01*
X131600984Y-97882526D01*
X131549950Y-97759320D01*
X131475860Y-97648437D01*
X131381563Y-97554140D01*
X131270680Y-97480050D01*
X131147474Y-97429016D01*
X131016679Y-97403000D01*
X130883321Y-97403000D01*
X130752526Y-97429016D01*
X130629320Y-97480050D01*
X130518437Y-97554140D01*
X130424140Y-97648437D01*
X130350050Y-97759320D01*
X130299016Y-97882526D01*
X130273000Y-98013321D01*
X129738872Y-98013321D01*
X131612485Y-96139708D01*
X131899000Y-96139708D01*
X131899000Y-96258292D01*
X131922134Y-96374597D01*
X131967514Y-96484154D01*
X132033396Y-96582753D01*
X132117247Y-96666604D01*
X132215846Y-96732486D01*
X132325403Y-96777866D01*
X132441708Y-96801000D01*
X132560292Y-96801000D01*
X132676597Y-96777866D01*
X132786154Y-96732486D01*
X132884753Y-96666604D01*
X132968604Y-96582753D01*
X133034486Y-96484154D01*
X133079866Y-96374597D01*
X133103000Y-96258292D01*
X133103000Y-96139708D01*
X133079866Y-96023403D01*
X133043796Y-95936321D01*
X135070000Y-95936321D01*
X135070000Y-96069679D01*
X135096016Y-96200474D01*
X135147050Y-96323680D01*
X135221140Y-96434563D01*
X135315437Y-96528860D01*
X135426320Y-96602950D01*
X135549526Y-96653984D01*
X135680321Y-96680000D01*
X135813679Y-96680000D01*
X135944474Y-96653984D01*
X136067680Y-96602950D01*
X136178563Y-96528860D01*
X136272860Y-96434563D01*
X136346950Y-96323680D01*
X136397984Y-96200474D01*
X136424000Y-96069679D01*
X136424000Y-95936321D01*
X136397984Y-95805526D01*
X136346950Y-95682320D01*
X136272860Y-95571437D01*
X136178563Y-95477140D01*
X136067680Y-95403050D01*
X135944474Y-95352016D01*
X135813679Y-95326000D01*
X135680321Y-95326000D01*
X135549526Y-95352016D01*
X135426320Y-95403050D01*
X135315437Y-95477140D01*
X135221140Y-95571437D01*
X135147050Y-95682320D01*
X135096016Y-95805526D01*
X135070000Y-95936321D01*
X133043796Y-95936321D01*
X133034486Y-95913846D01*
X132968604Y-95815247D01*
X132884753Y-95731396D01*
X132786154Y-95665514D01*
X132676597Y-95620134D01*
X132560292Y-95597000D01*
X132441708Y-95597000D01*
X132325403Y-95620134D01*
X132215846Y-95665514D01*
X132117247Y-95731396D01*
X132033396Y-95815247D01*
X131967514Y-95913846D01*
X131922134Y-96023403D01*
X131899000Y-96139708D01*
X131612485Y-96139708D01*
X131614004Y-96138190D01*
X131631816Y-96123572D01*
X131690175Y-96052462D01*
X131733539Y-95971334D01*
X131748896Y-95920708D01*
X131760242Y-95883305D01*
X131761073Y-95874868D01*
X131767000Y-95814691D01*
X131767000Y-95814684D01*
X131769258Y-95791756D01*
X131767000Y-95768828D01*
X131767000Y-93240708D01*
X132698000Y-93240708D01*
X132698000Y-93359292D01*
X132721134Y-93475597D01*
X132766514Y-93585154D01*
X132832396Y-93683753D01*
X132916247Y-93767604D01*
X133014846Y-93833486D01*
X133124403Y-93878866D01*
X133240708Y-93902000D01*
X133359292Y-93902000D01*
X133475597Y-93878866D01*
X133585154Y-93833486D01*
X133683753Y-93767604D01*
X133767604Y-93683753D01*
X133833486Y-93585154D01*
X133878866Y-93475597D01*
X133902000Y-93359292D01*
X133902000Y-93240708D01*
X133878866Y-93124403D01*
X133833486Y-93014846D01*
X133767604Y-92916247D01*
X133683753Y-92832396D01*
X133585154Y-92766514D01*
X133475597Y-92721134D01*
X133359292Y-92698000D01*
X133240708Y-92698000D01*
X133124403Y-92721134D01*
X133014846Y-92766514D01*
X132916247Y-92832396D01*
X132832396Y-92916247D01*
X132766514Y-93014846D01*
X132721134Y-93124403D01*
X132698000Y-93240708D01*
X131767000Y-93240708D01*
X131767000Y-91715704D01*
X131874403Y-91760192D01*
X131990708Y-91783326D01*
X132109292Y-91783326D01*
X132225597Y-91760192D01*
X132335154Y-91714812D01*
X132433753Y-91648930D01*
X132517604Y-91565079D01*
X132583486Y-91466480D01*
X132628866Y-91356923D01*
X132652000Y-91240618D01*
X132652000Y-91122034D01*
X132628866Y-91005729D01*
X132583486Y-90896172D01*
X132517604Y-90797573D01*
X132433753Y-90713722D01*
X132335154Y-90647840D01*
X132284842Y-90627000D01*
X136946663Y-90627000D01*
X137068057Y-90750798D01*
G04 #@! TA.AperFunction,Conductor*
D31*
G36*
X137068057Y-90750798D02*
G01*
X137053928Y-91471374D01*
X137039502Y-91543901D01*
X137039502Y-91677259D01*
X137048959Y-91724804D01*
X137042726Y-92042708D01*
X137001613Y-92059737D01*
X136903014Y-92125619D01*
X136819163Y-92209470D01*
X136753281Y-92308069D01*
X136707901Y-92417626D01*
X136684767Y-92533931D01*
X136684767Y-92652515D01*
X136707901Y-92768820D01*
X136753281Y-92878377D01*
X136819163Y-92976976D01*
X136903014Y-93060827D01*
X137001613Y-93126709D01*
X137021311Y-93134868D01*
X137006858Y-93871961D01*
X136958699Y-93904140D01*
X136864402Y-93998437D01*
X136790312Y-94109320D01*
X136739278Y-94232526D01*
X136713262Y-94363321D01*
X136713262Y-94496679D01*
X136739278Y-94627474D01*
X136790312Y-94750680D01*
X136864402Y-94861563D01*
X136958699Y-94955860D01*
X136985258Y-94973606D01*
X136976945Y-95397548D01*
X136978899Y-95422368D01*
X136985658Y-95446329D01*
X136996961Y-95468512D01*
X137013242Y-95488956D01*
X137209321Y-95688918D01*
X137228411Y-95704900D01*
X137250251Y-95716851D01*
X137274004Y-95724311D01*
X137300000Y-95727000D01*
X138843195Y-95727000D01*
X138811134Y-95804403D01*
X138788000Y-95920708D01*
X138788000Y-96039292D01*
X138811134Y-96155597D01*
X138856514Y-96265154D01*
X138922396Y-96363753D01*
X139006247Y-96447604D01*
X139104846Y-96513486D01*
X139214403Y-96558866D01*
X139330708Y-96582000D01*
X139449292Y-96582000D01*
X139565597Y-96558866D01*
X139675154Y-96513486D01*
X139773753Y-96447604D01*
X139857604Y-96363753D01*
X139923486Y-96265154D01*
X139968866Y-96155597D01*
X139992000Y-96039292D01*
X139992000Y-95920708D01*
X139968866Y-95804403D01*
X139936805Y-95727000D01*
X144747394Y-95727000D01*
X144873000Y-95852606D01*
X144873000Y-97425224D01*
X144870153Y-97432097D01*
X144823000Y-97669151D01*
X144823000Y-97910849D01*
X144870153Y-98147903D01*
X144873000Y-98154776D01*
X144873000Y-98547394D01*
X144867685Y-98552709D01*
X144815597Y-98531134D01*
X144699292Y-98508000D01*
X144580708Y-98508000D01*
X144464403Y-98531134D01*
X144354846Y-98576514D01*
X144256247Y-98642396D01*
X144225643Y-98673000D01*
X142425114Y-98673000D01*
X142460154Y-98658486D01*
X142558753Y-98592604D01*
X142642604Y-98508753D01*
X142708486Y-98410154D01*
X142753866Y-98300597D01*
X142777000Y-98184292D01*
X142777000Y-98065708D01*
X142753866Y-97949403D01*
X142708486Y-97839846D01*
X142642604Y-97741247D01*
X142558753Y-97657396D01*
X142460154Y-97591514D01*
X142350597Y-97546134D01*
X142234292Y-97523000D01*
X142115708Y-97523000D01*
X141999403Y-97546134D01*
X141889846Y-97591514D01*
X141791247Y-97657396D01*
X141707396Y-97741247D01*
X141641514Y-97839846D01*
X141596134Y-97949403D01*
X141573000Y-98065708D01*
X141573000Y-98184292D01*
X141596134Y-98300597D01*
X141641514Y-98410154D01*
X141707396Y-98508753D01*
X141791247Y-98592604D01*
X141889846Y-98658486D01*
X141924886Y-98673000D01*
X141165881Y-98673000D01*
X141263753Y-98607604D01*
X141347604Y-98523753D01*
X141413486Y-98425154D01*
X141458866Y-98315597D01*
X141482000Y-98199292D01*
X141482000Y-98080708D01*
X141458866Y-97964403D01*
X141413486Y-97854846D01*
X141347604Y-97756247D01*
X141263753Y-97672396D01*
X141165154Y-97606514D01*
X141055597Y-97561134D01*
X140939292Y-97538000D01*
X140820708Y-97538000D01*
X140704403Y-97561134D01*
X140594846Y-97606514D01*
X140496247Y-97672396D01*
X140412396Y-97756247D01*
X140346514Y-97854846D01*
X140301134Y-97964403D01*
X140278000Y-98080708D01*
X140278000Y-98199292D01*
X140301134Y-98315597D01*
X140346514Y-98425154D01*
X140412396Y-98523753D01*
X140496247Y-98607604D01*
X140594119Y-98673000D01*
X137981013Y-98673000D01*
X138051563Y-98625860D01*
X138145860Y-98531563D01*
X138219950Y-98420680D01*
X138270984Y-98297474D01*
X138297000Y-98166679D01*
X138297000Y-98033321D01*
X138270984Y-97902526D01*
X138219950Y-97779320D01*
X138145860Y-97668437D01*
X138051563Y-97574140D01*
X137940680Y-97500050D01*
X137817474Y-97449016D01*
X137686679Y-97423000D01*
X137553321Y-97423000D01*
X137422526Y-97449016D01*
X137299320Y-97500050D01*
X137188437Y-97574140D01*
X137094140Y-97668437D01*
X137020050Y-97779320D01*
X136969016Y-97902526D01*
X136943000Y-98033321D01*
X136943000Y-98166679D01*
X136969016Y-98297474D01*
X137020050Y-98420680D01*
X137094140Y-98531563D01*
X137188437Y-98625860D01*
X137266197Y-98677818D01*
X137260198Y-98679398D01*
X136899487Y-98798444D01*
X136876723Y-98808527D01*
X136863695Y-98816994D01*
X132567172Y-101999602D01*
X132517474Y-101979016D01*
X132386679Y-101953000D01*
X132253321Y-101953000D01*
X132122526Y-101979016D01*
X131999320Y-102030050D01*
X131888437Y-102104140D01*
X131794140Y-102198437D01*
X131720050Y-102309320D01*
X131669016Y-102432526D01*
X131643000Y-102563321D01*
X131643000Y-102619067D01*
X131479584Y-102673000D01*
X129775114Y-102673000D01*
X129810154Y-102658486D01*
X129908753Y-102592604D01*
X129992604Y-102508753D01*
X130058486Y-102410154D01*
X130103866Y-102300597D01*
X130127000Y-102184292D01*
X130127000Y-102065708D01*
X130103866Y-101949403D01*
X130058486Y-101839846D01*
X129992604Y-101741247D01*
X129908753Y-101657396D01*
X129810154Y-101591514D01*
X129700597Y-101546134D01*
X129584292Y-101523000D01*
X129465708Y-101523000D01*
X129349403Y-101546134D01*
X129239846Y-101591514D01*
X129141247Y-101657396D01*
X129057396Y-101741247D01*
X128991514Y-101839846D01*
X128946134Y-101949403D01*
X128923000Y-102065708D01*
X128923000Y-102184292D01*
X128946134Y-102300597D01*
X128991514Y-102410154D01*
X129057396Y-102508753D01*
X129141247Y-102592604D01*
X129239846Y-102658486D01*
X129274886Y-102673000D01*
X128003645Y-102673000D01*
X127027000Y-101696356D01*
X127027000Y-100065708D01*
X128998000Y-100065708D01*
X128998000Y-100184292D01*
X129021134Y-100300597D01*
X129066514Y-100410154D01*
X129132396Y-100508753D01*
X129216247Y-100592604D01*
X129314846Y-100658486D01*
X129424403Y-100703866D01*
X129540708Y-100727000D01*
X129659292Y-100727000D01*
X129775597Y-100703866D01*
X129885154Y-100658486D01*
X129983753Y-100592604D01*
X130067604Y-100508753D01*
X130133486Y-100410154D01*
X130178866Y-100300597D01*
X130202000Y-100184292D01*
X130202000Y-100065708D01*
X130178866Y-99949403D01*
X130133486Y-99839846D01*
X130067604Y-99741247D01*
X129983753Y-99657396D01*
X129885154Y-99591514D01*
X129841233Y-99573321D01*
X131703000Y-99573321D01*
X131703000Y-99706679D01*
X131729016Y-99837474D01*
X131780050Y-99960680D01*
X131854140Y-100071563D01*
X131948437Y-100165860D01*
X132059320Y-100239950D01*
X132182526Y-100290984D01*
X132313321Y-100317000D01*
X132446679Y-100317000D01*
X132577474Y-100290984D01*
X132700680Y-100239950D01*
X132811563Y-100165860D01*
X132905860Y-100071563D01*
X132979950Y-99960680D01*
X133030984Y-99837474D01*
X133057000Y-99706679D01*
X133057000Y-99573321D01*
X133030984Y-99442526D01*
X132979950Y-99319320D01*
X132905860Y-99208437D01*
X132811563Y-99114140D01*
X132700680Y-99040050D01*
X132577474Y-98989016D01*
X132446679Y-98963000D01*
X132313321Y-98963000D01*
X132182526Y-98989016D01*
X132059320Y-99040050D01*
X131948437Y-99114140D01*
X131854140Y-99208437D01*
X131780050Y-99319320D01*
X131729016Y-99442526D01*
X131703000Y-99573321D01*
X129841233Y-99573321D01*
X129775597Y-99546134D01*
X129659292Y-99523000D01*
X129540708Y-99523000D01*
X129424403Y-99546134D01*
X129314846Y-99591514D01*
X129216247Y-99657396D01*
X129132396Y-99741247D01*
X129066514Y-99839846D01*
X129021134Y-99949403D01*
X128998000Y-100065708D01*
X127027000Y-100065708D01*
X127027000Y-100011682D01*
X127121597Y-99992866D01*
X127231154Y-99947486D01*
X127329753Y-99881604D01*
X127413604Y-99797753D01*
X127479486Y-99699154D01*
X127524866Y-99589597D01*
X127548000Y-99473292D01*
X127548000Y-99354708D01*
X127526974Y-99249000D01*
X128286828Y-99249000D01*
X128309756Y-99251258D01*
X128332684Y-99249000D01*
X128332691Y-99249000D01*
X128401304Y-99242242D01*
X128489334Y-99215539D01*
X128570462Y-99172175D01*
X128641572Y-99113816D01*
X128656195Y-99095998D01*
X129738872Y-98013321D01*
X130273000Y-98013321D01*
X130273000Y-98146679D01*
X130299016Y-98277474D01*
X130350050Y-98400680D01*
X130424140Y-98511563D01*
X130518437Y-98605860D01*
X130629320Y-98679950D01*
X130752526Y-98730984D01*
X130883321Y-98757000D01*
X131016679Y-98757000D01*
X131147474Y-98730984D01*
X131270680Y-98679950D01*
X131381563Y-98605860D01*
X131475860Y-98511563D01*
X131549950Y-98400680D01*
X131600984Y-98277474D01*
X131627000Y-98146679D01*
X131627000Y-98043321D01*
X133573000Y-98043321D01*
X133573000Y-98176679D01*
X133599016Y-98307474D01*
X133650050Y-98430680D01*
X133724140Y-98541563D01*
X133818437Y-98635860D01*
X133929320Y-98709950D01*
X134052526Y-98760984D01*
X134183321Y-98787000D01*
X134316679Y-98787000D01*
X134447474Y-98760984D01*
X134570680Y-98709950D01*
X134681563Y-98635860D01*
X134775860Y-98541563D01*
X134849950Y-98430680D01*
X134900984Y-98307474D01*
X134927000Y-98176679D01*
X134927000Y-98043321D01*
X134900984Y-97912526D01*
X134849950Y-97789320D01*
X134775860Y-97678437D01*
X134681563Y-97584140D01*
X134570680Y-97510050D01*
X134447474Y-97459016D01*
X134316679Y-97433000D01*
X134183321Y-97433000D01*
X134052526Y-97459016D01*
X133929320Y-97510050D01*
X133818437Y-97584140D01*
X133724140Y-97678437D01*
X133650050Y-97789320D01*
X133599016Y-97912526D01*
X133573000Y-98043321D01*
X131627000Y-98043321D01*
X131627000Y-98013321D01*
X131600984Y-97882526D01*
X131549950Y-97759320D01*
X131475860Y-97648437D01*
X131381563Y-97554140D01*
X131270680Y-97480050D01*
X131147474Y-97429016D01*
X131016679Y-97403000D01*
X130883321Y-97403000D01*
X130752526Y-97429016D01*
X130629320Y-97480050D01*
X130518437Y-97554140D01*
X130424140Y-97648437D01*
X130350050Y-97759320D01*
X130299016Y-97882526D01*
X130273000Y-98013321D01*
X129738872Y-98013321D01*
X131612485Y-96139708D01*
X131899000Y-96139708D01*
X131899000Y-96258292D01*
X131922134Y-96374597D01*
X131967514Y-96484154D01*
X132033396Y-96582753D01*
X132117247Y-96666604D01*
X132215846Y-96732486D01*
X132325403Y-96777866D01*
X132441708Y-96801000D01*
X132560292Y-96801000D01*
X132676597Y-96777866D01*
X132786154Y-96732486D01*
X132884753Y-96666604D01*
X132968604Y-96582753D01*
X133034486Y-96484154D01*
X133079866Y-96374597D01*
X133103000Y-96258292D01*
X133103000Y-96139708D01*
X133079866Y-96023403D01*
X133043796Y-95936321D01*
X135070000Y-95936321D01*
X135070000Y-96069679D01*
X135096016Y-96200474D01*
X135147050Y-96323680D01*
X135221140Y-96434563D01*
X135315437Y-96528860D01*
X135426320Y-96602950D01*
X135549526Y-96653984D01*
X135680321Y-96680000D01*
X135813679Y-96680000D01*
X135944474Y-96653984D01*
X136067680Y-96602950D01*
X136178563Y-96528860D01*
X136272860Y-96434563D01*
X136346950Y-96323680D01*
X136397984Y-96200474D01*
X136424000Y-96069679D01*
X136424000Y-95936321D01*
X136397984Y-95805526D01*
X136346950Y-95682320D01*
X136272860Y-95571437D01*
X136178563Y-95477140D01*
X136067680Y-95403050D01*
X135944474Y-95352016D01*
X135813679Y-95326000D01*
X135680321Y-95326000D01*
X135549526Y-95352016D01*
X135426320Y-95403050D01*
X135315437Y-95477140D01*
X135221140Y-95571437D01*
X135147050Y-95682320D01*
X135096016Y-95805526D01*
X135070000Y-95936321D01*
X133043796Y-95936321D01*
X133034486Y-95913846D01*
X132968604Y-95815247D01*
X132884753Y-95731396D01*
X132786154Y-95665514D01*
X132676597Y-95620134D01*
X132560292Y-95597000D01*
X132441708Y-95597000D01*
X132325403Y-95620134D01*
X132215846Y-95665514D01*
X132117247Y-95731396D01*
X132033396Y-95815247D01*
X131967514Y-95913846D01*
X131922134Y-96023403D01*
X131899000Y-96139708D01*
X131612485Y-96139708D01*
X131614004Y-96138190D01*
X131631816Y-96123572D01*
X131690175Y-96052462D01*
X131733539Y-95971334D01*
X131748896Y-95920708D01*
X131760242Y-95883305D01*
X131761073Y-95874868D01*
X131767000Y-95814691D01*
X131767000Y-95814684D01*
X131769258Y-95791756D01*
X131767000Y-95768828D01*
X131767000Y-93240708D01*
X132698000Y-93240708D01*
X132698000Y-93359292D01*
X132721134Y-93475597D01*
X132766514Y-93585154D01*
X132832396Y-93683753D01*
X132916247Y-93767604D01*
X133014846Y-93833486D01*
X133124403Y-93878866D01*
X133240708Y-93902000D01*
X133359292Y-93902000D01*
X133475597Y-93878866D01*
X133585154Y-93833486D01*
X133683753Y-93767604D01*
X133767604Y-93683753D01*
X133833486Y-93585154D01*
X133878866Y-93475597D01*
X133902000Y-93359292D01*
X133902000Y-93240708D01*
X133878866Y-93124403D01*
X133833486Y-93014846D01*
X133767604Y-92916247D01*
X133683753Y-92832396D01*
X133585154Y-92766514D01*
X133475597Y-92721134D01*
X133359292Y-92698000D01*
X133240708Y-92698000D01*
X133124403Y-92721134D01*
X133014846Y-92766514D01*
X132916247Y-92832396D01*
X132832396Y-92916247D01*
X132766514Y-93014846D01*
X132721134Y-93124403D01*
X132698000Y-93240708D01*
X131767000Y-93240708D01*
X131767000Y-91715704D01*
X131874403Y-91760192D01*
X131990708Y-91783326D01*
X132109292Y-91783326D01*
X132225597Y-91760192D01*
X132335154Y-91714812D01*
X132433753Y-91648930D01*
X132517604Y-91565079D01*
X132583486Y-91466480D01*
X132628866Y-91356923D01*
X132652000Y-91240618D01*
X132652000Y-91122034D01*
X132628866Y-91005729D01*
X132583486Y-90896172D01*
X132517604Y-90797573D01*
X132433753Y-90713722D01*
X132335154Y-90647840D01*
X132284842Y-90627000D01*
X136946663Y-90627000D01*
X137068057Y-90750798D01*
G37*
G04 #@! TD.AperFunction*
M02*
