M48
; DRILL file {KiCad (5.1.8)-1} date 04/09/21 02:34:27
; FORMAT={-:-/ absolute / metric / decimal}
; #@! TF.CreationDate,2021-04-09T02:34:27+02:00
; #@! TF.GenerationSoftware,Kicad,Pcbnew,(5.1.8)-1
FMAT,2
METRIC
T1C0.300
T2C0.400
T3C0.600
T4C1.000
T5C2.540
T6C0.650
%
G90
G05
T1
X126.55Y-81.225
X126.625Y-83.8
X126.648Y-93.525
X126.7Y-86.55
X126.798Y-88.45
X126.946Y-99.414
X127.004Y-98.782
X127.032Y-97.13
X127.036Y-96.274
X127.053Y-104.247
X127.054Y-114.621
X127.068Y-97.886
X127.1Y-103.5
X127.15Y-101.7
X127.657Y-110.404
X127.657Y-112.211
X128.0Y-82.0
X128.207Y-95.095
X128.259Y-113.416
X128.51Y-69.35
X128.667Y-81.5
X128.862Y-111.006
X128.862Y-114.621
X128.862Y-118.235
X128.994Y-95.067
X129.152Y-82.075
X129.464Y-115.825
X129.525Y-102.125
X129.552Y-109.114
X129.563Y-108.127
X129.58Y-107.122
X129.6Y-100.125
X129.633Y-91.53
X129.65Y-96.75
X129.676Y-93.273
X129.75Y-80.75
X129.925Y-81.675
X130.0Y-73.7
X130.066Y-74.862
X130.066Y-113.416
X130.066Y-117.03
X130.609Y-88.821
X130.669Y-114.621
X130.669Y-118.235
X130.7Y-88.2
X130.712Y-91.386
X130.733Y-90.657
X131.7Y-115.0
X131.7Y-115.9
X131.7Y-116.8
X131.7Y-117.7
X131.7Y-118.7
X131.8Y-114.1
X132.05Y-91.181
X132.476Y-71.248
X132.476Y-103.777
X132.501Y-96.199
X132.525Y-113.6
X132.9Y-112.05
X133.1Y-114.0
X133.3Y-93.3
X133.45Y-80.5
X133.55Y-81.475
X133.65Y-102.1
X133.681Y-70.645
X133.681Y-105.585
X133.8Y-103.75
X133.833Y-88.692
X133.85Y-78.7
X134.15Y-113.3
X134.175Y-81.575
X134.191Y-89.208
X134.2Y-80.35
X134.3Y-91.225
X134.3Y-91.8
X134.3Y-92.4
X134.425Y-72.725
X134.5Y-115.0
X134.5Y-115.9
X134.5Y-116.8
X134.5Y-117.7
X134.5Y-118.7
X134.55Y-111.9
X134.65Y-78.375
X134.7Y-114.2
X134.85Y-88.68
X134.886Y-101.368
X135.1Y-113.4
X135.2Y-112.1
X135.488Y-70.645
X135.488Y-102.573
X135.488Y-105.585
X135.575Y-72.2
X135.635Y-109.209
X135.64Y-73.377
X135.9Y-111.9
X136.05Y-81.95
X136.09Y-100.765
X136.09Y-106.789
X136.377Y-109.212
X136.65Y-113.5
X136.66Y-73.36
X136.693Y-101.97
X136.95Y-111.95
X137.1Y-114.2
X137.125Y-72.7
X137.2Y-115.0
X137.2Y-115.9
X137.2Y-116.8
X137.2Y-117.7
X137.2Y-118.7
X137.287Y-92.593
X137.295Y-70.645
X137.295Y-99.561
X137.295Y-103.175
X137.6Y-112.1
X137.6Y-113.35
X137.898Y-100.765
X138.4Y-112.1
X138.4Y-113.35
X138.5Y-71.248
X138.5Y-103.777
X138.7Y-114.0
X139.02Y-93.33
X139.102Y-101.368
X139.25Y-106.837
X139.275Y-113.45
X139.299Y-107.773
X139.3Y-111.975
X139.321Y-86.3
X139.39Y-95.98
X139.993Y-107.182
X140.0Y-113.65
X140.1Y-115.8
X140.1Y-116.8
X140.2Y-117.7
X140.2Y-118.7
X140.307Y-76.067
X140.59Y-93.4
X140.625Y-87.925
X140.66Y-92.64
X140.88Y-98.14
X141.275Y-70.275
X141.29Y-82.44
X141.512Y-89.922
X141.512Y-117.633
X141.6Y-72.95
X141.725Y-111.9
X142.175Y-98.125
X142.22Y-94.47
X142.5Y-88.55
X142.5Y-92.7
X142.5Y-116.2
X142.717Y-118.235
X143.319Y-94.139
X143.45Y-69.3
X143.922Y-77.874
X143.922Y-79.681
X143.922Y-81.489
X144.1Y-111.9
X144.548Y-104.32
X144.6Y-114.1
X144.64Y-99.11
X144.71Y-108.22
X144.72Y-109.06
X144.75Y-96.575
X144.78Y-107.0
X144.95Y-86.55
X145.35Y-106.65
X146.125Y-73.325
X146.331Y-115.223
X146.6Y-72.4
T2
X130.4Y-112.22
X130.95Y-98.08
X131.875Y-75.675
X132.297Y-108.914
X132.31Y-105.68
X132.32Y-102.63
X132.38Y-99.64
X134.23Y-107.19
X134.25Y-98.11
X135.05Y-83.675
X135.05Y-84.425
X135.747Y-96.003
X135.825Y-88.925
X136.0Y-84.475
X137.39Y-94.43
X137.5Y-78.45
X137.62Y-98.1
X137.63Y-106.85
X137.717Y-91.611
X138.095Y-84.343
X138.175Y-85.95
X138.375Y-82.375
X139.152Y-76.052
X139.46Y-105.61
X139.51Y-99.62
X139.53Y-102.61
X139.85Y-77.575
X139.85Y-79.65
X139.875Y-82.125
X140.87Y-107.2
X141.6Y-84.225
X141.6Y-85.925
X142.025Y-78.7
X142.18Y-105.11
X142.65Y-86.025
X143.375Y-76.375
X143.42Y-83.08
X145.6Y-78.05
X145.6Y-79.8
X145.6Y-81.5
T4
X125.73Y-74.93
X125.73Y-77.47
X125.73Y-80.01
X125.73Y-82.55
X125.73Y-85.09
X125.73Y-87.63
X125.73Y-90.17
X125.73Y-92.71
X125.73Y-95.25
X125.73Y-97.79
X125.73Y-100.33
X125.73Y-102.87
X125.73Y-105.41
X125.73Y-107.95
X125.73Y-110.49
X125.73Y-113.03
X146.05Y-85.09
X146.05Y-87.63
X146.05Y-90.17
X146.05Y-92.71
X146.05Y-95.25
X146.05Y-97.79
X146.05Y-100.33
X146.05Y-102.87
X146.05Y-105.41
X146.05Y-107.95
X146.05Y-110.49
X146.05Y-113.03
T5
X127.0Y-71.12
X127.0Y-116.84
X144.78Y-71.12
X144.78Y-116.84
T6
X133.0Y-73.2
X138.78Y-73.2
T3
G00X131.57Y-69.85
M15
G01X131.57Y-69.25
M16
G05
G00X131.57Y-74.28
M15
G01X131.57Y-73.18
M16
G05
G00X140.21Y-69.85
M15
G01X140.21Y-69.25
M16
G05
G00X140.21Y-74.28
M15
G01X140.21Y-73.18
M16
G05
T0
M30
