G04 #@! TF.GenerationSoftware,KiCad,Pcbnew,(5.1.8)-1*
G04 #@! TF.CreationDate,2021-04-09T02:34:17+02:00*
G04 #@! TF.ProjectId,Penguino-STM32WL-M,50656e67-7569-46e6-9f2d-53544d333257,0.1*
G04 #@! TF.SameCoordinates,Original*
G04 #@! TF.FileFunction,Legend,Bot*
G04 #@! TF.FilePolarity,Positive*
%FSLAX46Y46*%
G04 Gerber Fmt 4.6, Leading zero omitted, Abs format (unit mm)*
G04 Created by KiCad (PCBNEW (5.1.8)-1) date 2021-04-09 02:34:17*
%MOMM*%
%LPD*%
G01*
G04 APERTURE LIST*
%ADD10C,0.187500*%
%ADD11C,0.200000*%
%ADD12C,0.250000*%
%ADD13C,0.175000*%
%ADD14C,0.300000*%
G04 #@! TA.AperFunction,Profile*
%ADD15C,0.150000*%
G04 #@! TD*
%ADD16C,0.010000*%
%ADD17C,0.120000*%
G04 APERTURE END LIST*
D10*
X130450000Y-72161904D02*
X130450000Y-72733333D01*
X130492857Y-72847619D01*
X130578571Y-72923809D01*
X130707142Y-72961904D01*
X130792857Y-72961904D01*
X130021428Y-72961904D02*
X130021428Y-72161904D01*
X129678571Y-72161904D01*
X129592857Y-72200000D01*
X129550000Y-72238095D01*
X129507142Y-72314285D01*
X129507142Y-72428571D01*
X129550000Y-72504761D01*
X129592857Y-72542857D01*
X129678571Y-72580952D01*
X130021428Y-72580952D01*
X128650000Y-72961904D02*
X129164285Y-72961904D01*
X128907142Y-72961904D02*
X128907142Y-72161904D01*
X128992857Y-72276190D01*
X129078571Y-72352380D01*
X129164285Y-72390476D01*
X138250000Y-82561904D02*
X138250000Y-83133333D01*
X138292857Y-83247619D01*
X138378571Y-83323809D01*
X138507142Y-83361904D01*
X138592857Y-83361904D01*
X137821428Y-83361904D02*
X137821428Y-82561904D01*
X137478571Y-82561904D01*
X137392857Y-82600000D01*
X137350000Y-82638095D01*
X137307142Y-82714285D01*
X137307142Y-82828571D01*
X137350000Y-82904761D01*
X137392857Y-82942857D01*
X137478571Y-82980952D01*
X137821428Y-82980952D01*
X136535714Y-82828571D02*
X136535714Y-83361904D01*
X136750000Y-82523809D02*
X136964285Y-83095238D01*
X136407142Y-83095238D01*
X138250000Y-85261904D02*
X138250000Y-85833333D01*
X138292857Y-85947619D01*
X138378571Y-86023809D01*
X138507142Y-86061904D01*
X138592857Y-86061904D01*
X137821428Y-86061904D02*
X137821428Y-85261904D01*
X137478571Y-85261904D01*
X137392857Y-85300000D01*
X137350000Y-85338095D01*
X137307142Y-85414285D01*
X137307142Y-85528571D01*
X137350000Y-85604761D01*
X137392857Y-85642857D01*
X137478571Y-85680952D01*
X137821428Y-85680952D01*
X137007142Y-85261904D02*
X136407142Y-85261904D01*
X136792857Y-86061904D01*
X130040110Y-84820549D02*
X129636049Y-85224610D01*
X129585541Y-85335727D01*
X129592275Y-85450211D01*
X129656252Y-85568062D01*
X129716861Y-85628672D01*
X129171379Y-85083189D02*
X129737064Y-84517504D01*
X129494627Y-84275067D01*
X129407081Y-84241395D01*
X129349839Y-84238028D01*
X129265659Y-84261598D01*
X129184847Y-84342411D01*
X129161277Y-84426590D01*
X129164644Y-84483832D01*
X129198316Y-84571379D01*
X129440753Y-84813815D01*
X128827927Y-83608366D02*
X128949145Y-83729585D01*
X128982817Y-83817131D01*
X128986184Y-83874373D01*
X128965981Y-84015795D01*
X128888536Y-84153849D01*
X128673037Y-84369348D01*
X128588857Y-84392918D01*
X128531615Y-84389551D01*
X128444069Y-84355879D01*
X128322850Y-84234661D01*
X128289179Y-84147114D01*
X128285811Y-84089872D01*
X128309382Y-84005693D01*
X128444069Y-83871006D01*
X128528248Y-83847436D01*
X128585490Y-83850803D01*
X128673037Y-83884475D01*
X128794255Y-84005693D01*
X128827927Y-84093240D01*
X128831294Y-84150482D01*
X128807724Y-84234661D01*
X132340110Y-84820549D02*
X131936049Y-85224610D01*
X131885541Y-85335727D01*
X131892275Y-85450211D01*
X131956252Y-85568062D01*
X132016861Y-85628672D01*
X131471379Y-85083189D02*
X132037064Y-84517504D01*
X131794627Y-84275067D01*
X131707081Y-84241395D01*
X131649839Y-84238028D01*
X131565659Y-84261598D01*
X131484847Y-84342411D01*
X131461277Y-84426590D01*
X131464644Y-84483832D01*
X131498316Y-84571379D01*
X131740753Y-84813815D01*
X131097622Y-83578062D02*
X131400668Y-83881108D01*
X131161598Y-84180786D01*
X131158231Y-84123544D01*
X131124559Y-84035998D01*
X130973037Y-83884475D01*
X130885490Y-83850803D01*
X130828248Y-83847436D01*
X130744069Y-83871006D01*
X130609382Y-84005693D01*
X130585811Y-84089872D01*
X130589179Y-84147114D01*
X130622850Y-84234661D01*
X130774373Y-84386184D01*
X130861920Y-84419856D01*
X130919162Y-84423223D01*
X132250000Y-91761904D02*
X132250000Y-92333333D01*
X132292857Y-92447619D01*
X132378571Y-92523809D01*
X132507142Y-92561904D01*
X132592857Y-92561904D01*
X131821428Y-92561904D02*
X131821428Y-91761904D01*
X131478571Y-91761904D01*
X131392857Y-91800000D01*
X131350000Y-91838095D01*
X131307142Y-91914285D01*
X131307142Y-92028571D01*
X131350000Y-92104761D01*
X131392857Y-92142857D01*
X131478571Y-92180952D01*
X131821428Y-92180952D01*
X130964285Y-91838095D02*
X130921428Y-91800000D01*
X130835714Y-91761904D01*
X130621428Y-91761904D01*
X130535714Y-91800000D01*
X130492857Y-91838095D01*
X130450000Y-91914285D01*
X130450000Y-91990476D01*
X130492857Y-92104761D01*
X131007142Y-92561904D01*
X130450000Y-92561904D01*
X134550000Y-94661904D02*
X134550000Y-95233333D01*
X134592857Y-95347619D01*
X134678571Y-95423809D01*
X134807142Y-95461904D01*
X134892857Y-95461904D01*
X134121428Y-95461904D02*
X134121428Y-94661904D01*
X133778571Y-94661904D01*
X133692857Y-94700000D01*
X133650000Y-94738095D01*
X133607142Y-94814285D01*
X133607142Y-94928571D01*
X133650000Y-95004761D01*
X133692857Y-95042857D01*
X133778571Y-95080952D01*
X134121428Y-95080952D01*
X133307142Y-94661904D02*
X132750000Y-94661904D01*
X133050000Y-94966666D01*
X132921428Y-94966666D01*
X132835714Y-95004761D01*
X132792857Y-95042857D01*
X132750000Y-95119047D01*
X132750000Y-95309523D01*
X132792857Y-95385714D01*
X132835714Y-95423809D01*
X132921428Y-95461904D01*
X133178571Y-95461904D01*
X133264285Y-95423809D01*
X133307142Y-95385714D01*
X132357142Y-102338095D02*
X132314285Y-102300000D01*
X132228571Y-102261904D01*
X132014285Y-102261904D01*
X131928571Y-102300000D01*
X131885714Y-102338095D01*
X131842857Y-102414285D01*
X131842857Y-102490476D01*
X131885714Y-102604761D01*
X132400000Y-103061904D01*
X131842857Y-103061904D01*
X139442857Y-94961904D02*
X139957142Y-94961904D01*
X139700000Y-94961904D02*
X139700000Y-94161904D01*
X139785714Y-94276190D01*
X139871428Y-94352380D01*
X139957142Y-94390476D01*
X129700000Y-103761904D02*
X129142857Y-103761904D01*
X129442857Y-104066666D01*
X129314285Y-104066666D01*
X129228571Y-104104761D01*
X129185714Y-104142857D01*
X129142857Y-104219047D01*
X129142857Y-104409523D01*
X129185714Y-104485714D01*
X129228571Y-104523809D01*
X129314285Y-104561904D01*
X129571428Y-104561904D01*
X129657142Y-104523809D01*
X129700000Y-104485714D01*
X129185714Y-106561904D02*
X129614285Y-106561904D01*
X129657142Y-106942857D01*
X129614285Y-106904761D01*
X129528571Y-106866666D01*
X129314285Y-106866666D01*
X129228571Y-106904761D01*
X129185714Y-106942857D01*
X129142857Y-107019047D01*
X129142857Y-107209523D01*
X129185714Y-107285714D01*
X129228571Y-107323809D01*
X129314285Y-107361904D01*
X129528571Y-107361904D01*
X129614285Y-107323809D01*
X129657142Y-107285714D01*
X131728571Y-104728571D02*
X131728571Y-105261904D01*
X131942857Y-104423809D02*
X132157142Y-104995238D01*
X131600000Y-104995238D01*
X130728571Y-109561904D02*
X130900000Y-109561904D01*
X130985714Y-109600000D01*
X131028571Y-109638095D01*
X131114285Y-109752380D01*
X131157142Y-109904761D01*
X131157142Y-110209523D01*
X131114285Y-110285714D01*
X131071428Y-110323809D01*
X130985714Y-110361904D01*
X130814285Y-110361904D01*
X130728571Y-110323809D01*
X130685714Y-110285714D01*
X130642857Y-110209523D01*
X130642857Y-110019047D01*
X130685714Y-109942857D01*
X130728571Y-109904761D01*
X130814285Y-109866666D01*
X130985714Y-109866666D01*
X131071428Y-109904761D01*
X131114285Y-109942857D01*
X131157142Y-110019047D01*
X134400000Y-109461904D02*
X133800000Y-109461904D01*
X134185714Y-110261904D01*
X137685714Y-109804761D02*
X137771428Y-109766666D01*
X137814285Y-109728571D01*
X137857142Y-109652380D01*
X137857142Y-109614285D01*
X137814285Y-109538095D01*
X137771428Y-109500000D01*
X137685714Y-109461904D01*
X137514285Y-109461904D01*
X137428571Y-109500000D01*
X137385714Y-109538095D01*
X137342857Y-109614285D01*
X137342857Y-109652380D01*
X137385714Y-109728571D01*
X137428571Y-109766666D01*
X137514285Y-109804761D01*
X137685714Y-109804761D01*
X137771428Y-109842857D01*
X137814285Y-109880952D01*
X137857142Y-109957142D01*
X137857142Y-110109523D01*
X137814285Y-110185714D01*
X137771428Y-110223809D01*
X137685714Y-110261904D01*
X137514285Y-110261904D01*
X137428571Y-110223809D01*
X137385714Y-110185714D01*
X137342857Y-110109523D01*
X137342857Y-109957142D01*
X137385714Y-109880952D01*
X137428571Y-109842857D01*
X137514285Y-109804761D01*
X140971428Y-107261904D02*
X140800000Y-107261904D01*
X140714285Y-107223809D01*
X140671428Y-107185714D01*
X140585714Y-107071428D01*
X140542857Y-106919047D01*
X140542857Y-106614285D01*
X140585714Y-106538095D01*
X140628571Y-106500000D01*
X140714285Y-106461904D01*
X140885714Y-106461904D01*
X140971428Y-106500000D01*
X141014285Y-106538095D01*
X141057142Y-106614285D01*
X141057142Y-106804761D01*
X141014285Y-106880952D01*
X140971428Y-106919047D01*
X140885714Y-106957142D01*
X140714285Y-106957142D01*
X140628571Y-106919047D01*
X140585714Y-106880952D01*
X140542857Y-106804761D01*
X141071428Y-110161904D02*
X141585714Y-110161904D01*
X141328571Y-110161904D02*
X141328571Y-109361904D01*
X141414285Y-109476190D01*
X141500000Y-109552380D01*
X141585714Y-109590476D01*
X140514285Y-109361904D02*
X140428571Y-109361904D01*
X140342857Y-109400000D01*
X140300000Y-109438095D01*
X140257142Y-109514285D01*
X140214285Y-109666666D01*
X140214285Y-109857142D01*
X140257142Y-110009523D01*
X140300000Y-110085714D01*
X140342857Y-110123809D01*
X140428571Y-110161904D01*
X140514285Y-110161904D01*
X140600000Y-110123809D01*
X140642857Y-110085714D01*
X140685714Y-110009523D01*
X140728571Y-109857142D01*
X140728571Y-109666666D01*
X140685714Y-109514285D01*
X140642857Y-109438095D01*
X140600000Y-109400000D01*
X140514285Y-109361904D01*
D11*
X145255714Y-81161904D02*
X145255714Y-80361904D01*
X144870000Y-81161904D02*
X144870000Y-80742857D01*
X144912857Y-80666666D01*
X144998571Y-80628571D01*
X145127142Y-80628571D01*
X145212857Y-80666666D01*
X145255714Y-80704761D01*
X144570000Y-80628571D02*
X144227142Y-80628571D01*
X144441428Y-80361904D02*
X144441428Y-81047619D01*
X144398571Y-81123809D01*
X144312857Y-81161904D01*
X144227142Y-81161904D01*
X144055714Y-80628571D02*
X143712857Y-80628571D01*
X143927142Y-80361904D02*
X143927142Y-81047619D01*
X143884285Y-81123809D01*
X143798571Y-81161904D01*
X143712857Y-81161904D01*
X143412857Y-80628571D02*
X143412857Y-81428571D01*
X143412857Y-80666666D02*
X143327142Y-80628571D01*
X143155714Y-80628571D01*
X143070000Y-80666666D01*
X143027142Y-80704761D01*
X142984285Y-80780952D01*
X142984285Y-81009523D01*
X143027142Y-81085714D01*
X143070000Y-81123809D01*
X143155714Y-81161904D01*
X143327142Y-81161904D01*
X143412857Y-81123809D01*
X142641428Y-81123809D02*
X142555714Y-81161904D01*
X142384285Y-81161904D01*
X142298571Y-81123809D01*
X142255714Y-81047619D01*
X142255714Y-81009523D01*
X142298571Y-80933333D01*
X142384285Y-80895238D01*
X142512857Y-80895238D01*
X142598571Y-80857142D01*
X142641428Y-80780952D01*
X142641428Y-80742857D01*
X142598571Y-80666666D01*
X142512857Y-80628571D01*
X142384285Y-80628571D01*
X142298571Y-80666666D01*
X141870000Y-81085714D02*
X141827142Y-81123809D01*
X141870000Y-81161904D01*
X141912857Y-81123809D01*
X141870000Y-81085714D01*
X141870000Y-81161904D01*
X141870000Y-80666666D02*
X141827142Y-80704761D01*
X141870000Y-80742857D01*
X141912857Y-80704761D01*
X141870000Y-80666666D01*
X141870000Y-80742857D01*
X140798571Y-80323809D02*
X141570000Y-81352380D01*
X139855714Y-80323809D02*
X140627142Y-81352380D01*
X139555714Y-81161904D02*
X139555714Y-80628571D01*
X139555714Y-80704761D02*
X139512857Y-80666666D01*
X139427142Y-80628571D01*
X139298571Y-80628571D01*
X139212857Y-80666666D01*
X139170000Y-80742857D01*
X139170000Y-81161904D01*
X139170000Y-80742857D02*
X139127142Y-80666666D01*
X139041428Y-80628571D01*
X138912857Y-80628571D01*
X138827142Y-80666666D01*
X138784285Y-80742857D01*
X138784285Y-81161904D01*
X137970000Y-81161904D02*
X137970000Y-80742857D01*
X138012857Y-80666666D01*
X138098571Y-80628571D01*
X138270000Y-80628571D01*
X138355714Y-80666666D01*
X137970000Y-81123809D02*
X138055714Y-81161904D01*
X138270000Y-81161904D01*
X138355714Y-81123809D01*
X138398571Y-81047619D01*
X138398571Y-80971428D01*
X138355714Y-80895238D01*
X138270000Y-80857142D01*
X138055714Y-80857142D01*
X137970000Y-80819047D01*
X137541428Y-81161904D02*
X137541428Y-80361904D01*
X137455714Y-80857142D02*
X137198571Y-81161904D01*
X137198571Y-80628571D02*
X137541428Y-80933333D01*
X136470000Y-81123809D02*
X136555714Y-81161904D01*
X136727142Y-81161904D01*
X136812857Y-81123809D01*
X136855714Y-81047619D01*
X136855714Y-80742857D01*
X136812857Y-80666666D01*
X136727142Y-80628571D01*
X136555714Y-80628571D01*
X136470000Y-80666666D01*
X136427142Y-80742857D01*
X136427142Y-80819047D01*
X136855714Y-80895238D01*
X136041428Y-81161904D02*
X136041428Y-80628571D01*
X136041428Y-80780952D02*
X135998571Y-80704761D01*
X135955714Y-80666666D01*
X135870000Y-80628571D01*
X135784285Y-80628571D01*
X135612857Y-80628571D02*
X135270000Y-80628571D01*
X135484285Y-80361904D02*
X135484285Y-81047619D01*
X135441428Y-81123809D01*
X135355714Y-81161904D01*
X135270000Y-81161904D01*
X134970000Y-81161904D02*
X134970000Y-80628571D01*
X134970000Y-80780952D02*
X134927142Y-80704761D01*
X134884285Y-80666666D01*
X134798571Y-80628571D01*
X134712857Y-80628571D01*
X134284285Y-81161904D02*
X134370000Y-81123809D01*
X134412857Y-81085714D01*
X134455714Y-81009523D01*
X134455714Y-80780952D01*
X134412857Y-80704761D01*
X134370000Y-80666666D01*
X134284285Y-80628571D01*
X134155714Y-80628571D01*
X134070000Y-80666666D01*
X134027142Y-80704761D01*
X133984285Y-80780952D01*
X133984285Y-81009523D01*
X134027142Y-81085714D01*
X134070000Y-81123809D01*
X134155714Y-81161904D01*
X134284285Y-81161904D01*
X133598571Y-80628571D02*
X133598571Y-81161904D01*
X133598571Y-80704761D02*
X133555714Y-80666666D01*
X133470000Y-80628571D01*
X133341428Y-80628571D01*
X133255714Y-80666666D01*
X133212857Y-80742857D01*
X133212857Y-81161904D01*
X132784285Y-81161904D02*
X132784285Y-80628571D01*
X132784285Y-80361904D02*
X132827142Y-80400000D01*
X132784285Y-80438095D01*
X132741428Y-80400000D01*
X132784285Y-80361904D01*
X132784285Y-80438095D01*
X132355714Y-81161904D02*
X132355714Y-80361904D01*
X132270000Y-80857142D02*
X132012857Y-81161904D01*
X132012857Y-80628571D02*
X132355714Y-80933333D01*
X131241428Y-81161904D02*
X131241428Y-80742857D01*
X131284285Y-80666666D01*
X131370000Y-80628571D01*
X131541428Y-80628571D01*
X131627142Y-80666666D01*
X131241428Y-81123809D02*
X131327142Y-81161904D01*
X131541428Y-81161904D01*
X131627142Y-81123809D01*
X131670000Y-81047619D01*
X131670000Y-80971428D01*
X131627142Y-80895238D01*
X131541428Y-80857142D01*
X131327142Y-80857142D01*
X131241428Y-80819047D01*
X130812857Y-81085714D02*
X130770000Y-81123809D01*
X130812857Y-81161904D01*
X130855714Y-81123809D01*
X130812857Y-81085714D01*
X130812857Y-81161904D01*
X129998571Y-81123809D02*
X130084285Y-81161904D01*
X130255714Y-81161904D01*
X130341428Y-81123809D01*
X130384285Y-81085714D01*
X130427142Y-81009523D01*
X130427142Y-80780952D01*
X130384285Y-80704761D01*
X130341428Y-80666666D01*
X130255714Y-80628571D01*
X130084285Y-80628571D01*
X129998571Y-80666666D01*
X129484285Y-81161904D02*
X129570000Y-81123809D01*
X129612857Y-81085714D01*
X129655714Y-81009523D01*
X129655714Y-80780952D01*
X129612857Y-80704761D01*
X129570000Y-80666666D01*
X129484285Y-80628571D01*
X129355714Y-80628571D01*
X129270000Y-80666666D01*
X129227142Y-80704761D01*
X129184285Y-80780952D01*
X129184285Y-81009523D01*
X129227142Y-81085714D01*
X129270000Y-81123809D01*
X129355714Y-81161904D01*
X129484285Y-81161904D01*
X128798571Y-81161904D02*
X128798571Y-80628571D01*
X128798571Y-80704761D02*
X128755714Y-80666666D01*
X128670000Y-80628571D01*
X128541428Y-80628571D01*
X128455714Y-80666666D01*
X128412857Y-80742857D01*
X128412857Y-81161904D01*
X128412857Y-80742857D02*
X128370000Y-80666666D01*
X128284285Y-80628571D01*
X128155714Y-80628571D01*
X128070000Y-80666666D01*
X128027142Y-80742857D01*
X128027142Y-81161904D01*
X126955714Y-80323809D02*
X127727142Y-81352380D01*
X140861904Y-71747142D02*
X140861904Y-70847142D01*
X140861904Y-71190000D02*
X140766666Y-71147142D01*
X140576190Y-71147142D01*
X140480952Y-71190000D01*
X140433333Y-71232857D01*
X140385714Y-71318571D01*
X140385714Y-71575714D01*
X140433333Y-71661428D01*
X140480952Y-71704285D01*
X140576190Y-71747142D01*
X140766666Y-71747142D01*
X140861904Y-71704285D01*
X140052380Y-71147142D02*
X139814285Y-71747142D01*
X139576190Y-71147142D02*
X139814285Y-71747142D01*
X139909523Y-71961428D01*
X139957142Y-72004285D01*
X140052380Y-72047142D01*
X138004761Y-71747142D02*
X138004761Y-71275714D01*
X138052380Y-71190000D01*
X138147619Y-71147142D01*
X138338095Y-71147142D01*
X138433333Y-71190000D01*
X138004761Y-71704285D02*
X138100000Y-71747142D01*
X138338095Y-71747142D01*
X138433333Y-71704285D01*
X138480952Y-71618571D01*
X138480952Y-71532857D01*
X138433333Y-71447142D01*
X138338095Y-71404285D01*
X138100000Y-71404285D01*
X138004761Y-71361428D01*
X137623809Y-71147142D02*
X137100000Y-71147142D01*
X137623809Y-71747142D01*
X137100000Y-71747142D01*
X136338095Y-71704285D02*
X136433333Y-71747142D01*
X136623809Y-71747142D01*
X136719047Y-71704285D01*
X136766666Y-71618571D01*
X136766666Y-71275714D01*
X136719047Y-71190000D01*
X136623809Y-71147142D01*
X136433333Y-71147142D01*
X136338095Y-71190000D01*
X136290476Y-71275714D01*
X136290476Y-71361428D01*
X136766666Y-71447142D01*
X135861904Y-71747142D02*
X135861904Y-71147142D01*
X135861904Y-71318571D02*
X135814285Y-71232857D01*
X135766666Y-71190000D01*
X135671428Y-71147142D01*
X135576190Y-71147142D01*
X135242857Y-71747142D02*
X135242857Y-71147142D01*
X135242857Y-70847142D02*
X135290476Y-70890000D01*
X135242857Y-70932857D01*
X135195238Y-70890000D01*
X135242857Y-70847142D01*
X135242857Y-70932857D01*
X134766666Y-71747142D02*
X134766666Y-71147142D01*
X134766666Y-71232857D02*
X134719047Y-71190000D01*
X134623809Y-71147142D01*
X134480952Y-71147142D01*
X134385714Y-71190000D01*
X134338095Y-71275714D01*
X134338095Y-71747142D01*
X134338095Y-71275714D02*
X134290476Y-71190000D01*
X134195238Y-71147142D01*
X134052380Y-71147142D01*
X133957142Y-71190000D01*
X133909523Y-71275714D01*
X133909523Y-71747142D01*
X133004761Y-71747142D02*
X133004761Y-71275714D01*
X133052380Y-71190000D01*
X133147619Y-71147142D01*
X133338095Y-71147142D01*
X133433333Y-71190000D01*
X133004761Y-71704285D02*
X133100000Y-71747142D01*
X133338095Y-71747142D01*
X133433333Y-71704285D01*
X133480952Y-71618571D01*
X133480952Y-71532857D01*
X133433333Y-71447142D01*
X133338095Y-71404285D01*
X133100000Y-71404285D01*
X133004761Y-71361428D01*
X132528571Y-71747142D02*
X132528571Y-70847142D01*
X132433333Y-71404285D02*
X132147619Y-71747142D01*
X132147619Y-71147142D02*
X132528571Y-71490000D01*
X131338095Y-71704285D02*
X131433333Y-71747142D01*
X131623809Y-71747142D01*
X131719047Y-71704285D01*
X131766666Y-71618571D01*
X131766666Y-71275714D01*
X131719047Y-71190000D01*
X131623809Y-71147142D01*
X131433333Y-71147142D01*
X131338095Y-71190000D01*
X131290476Y-71275714D01*
X131290476Y-71361428D01*
X131766666Y-71447142D01*
X130861904Y-71747142D02*
X130861904Y-71147142D01*
X130861904Y-71318571D02*
X130814285Y-71232857D01*
X130766666Y-71190000D01*
X130671428Y-71147142D01*
X130576190Y-71147142D01*
D12*
X137891071Y-101585714D02*
X137712500Y-102252380D01*
X137367261Y-101585714D01*
X136697023Y-101252380D02*
X136592261Y-101252380D01*
X136493452Y-101300000D01*
X136447023Y-101347619D01*
X136406547Y-101442857D01*
X136377976Y-101633333D01*
X136407738Y-101871428D01*
X136483928Y-102061904D01*
X136548214Y-102157142D01*
X136606547Y-102204761D01*
X136717261Y-102252380D01*
X136822023Y-102252380D01*
X136920833Y-102204761D01*
X136967261Y-102157142D01*
X137007738Y-102061904D01*
X137036309Y-101871428D01*
X137006547Y-101633333D01*
X136930357Y-101442857D01*
X136866071Y-101347619D01*
X136807738Y-101300000D01*
X136697023Y-101252380D01*
X135972023Y-102157142D02*
X135925595Y-102204761D01*
X135983928Y-102252380D01*
X136030357Y-102204761D01*
X135972023Y-102157142D01*
X135983928Y-102252380D01*
X134883928Y-102252380D02*
X135512500Y-102252380D01*
X135198214Y-102252380D02*
X135073214Y-101252380D01*
X135195833Y-101395238D01*
X135312500Y-101490476D01*
X135423214Y-101538095D01*
D10*
X128266900Y-77161904D02*
X127709757Y-77161904D01*
X128047853Y-77466666D01*
X127919281Y-77466666D01*
X127838329Y-77504761D01*
X127800234Y-77542857D01*
X127766900Y-77619047D01*
X127790710Y-77809523D01*
X127843091Y-77885714D01*
X127890710Y-77923809D01*
X127981186Y-77961904D01*
X128238329Y-77961904D01*
X128319281Y-77923809D01*
X128357376Y-77885714D01*
X127452615Y-77161904D02*
X127252615Y-77961904D01*
X126852615Y-77161904D01*
D13*
X144961093Y-84706666D02*
X144781927Y-85406666D01*
X144427760Y-84706666D01*
X143936093Y-85040000D02*
X143825974Y-85073333D01*
X143792046Y-85106666D01*
X143762284Y-85173333D01*
X143774784Y-85273333D01*
X143821212Y-85340000D01*
X143863474Y-85373333D01*
X143943831Y-85406666D01*
X144248593Y-85406666D01*
X144161093Y-84706666D01*
X143894427Y-84706666D01*
X143822403Y-84740000D01*
X143788474Y-84773333D01*
X143758712Y-84840000D01*
X143767046Y-84906666D01*
X143813474Y-84973333D01*
X143855736Y-85006666D01*
X143936093Y-85040000D01*
X144202760Y-85040000D01*
X143461689Y-85206666D02*
X143080736Y-85206666D01*
X143562879Y-85406666D02*
X143208712Y-84706666D01*
X143029546Y-85406666D01*
X142789665Y-84706666D02*
X142332522Y-84706666D01*
X142648593Y-85406666D02*
X142561093Y-84706666D01*
D10*
X127123161Y-75325204D02*
X127551732Y-75604966D01*
X127123161Y-75896633D02*
X128023161Y-75784133D01*
X128023161Y-75403180D01*
X127980304Y-75313299D01*
X127937446Y-75271037D01*
X127851732Y-75234133D01*
X127723161Y-75250204D01*
X127637446Y-75308537D01*
X127594589Y-75361514D01*
X127551732Y-75462109D01*
X127551732Y-75843061D01*
X127166018Y-74938895D02*
X127123161Y-74849014D01*
X127123161Y-74658537D01*
X127166018Y-74557942D01*
X127251732Y-74499609D01*
X127294589Y-74494252D01*
X127380304Y-74531156D01*
X127423161Y-74621037D01*
X127423161Y-74763895D01*
X127466018Y-74853776D01*
X127551732Y-74890680D01*
X127594589Y-74885323D01*
X127680304Y-74826990D01*
X127723161Y-74726395D01*
X127723161Y-74583537D01*
X127680304Y-74493656D01*
X127723161Y-74154966D02*
X127723161Y-73774014D01*
X128023161Y-73974609D02*
X127251732Y-74071037D01*
X127166018Y-74034133D01*
X127123161Y-73944252D01*
X127123161Y-73849014D01*
X129828329Y-78861904D02*
X129628329Y-79661904D01*
X129228329Y-78861904D01*
X128514043Y-79661904D02*
X128766424Y-79280952D01*
X129028329Y-79661904D02*
X128928329Y-78861904D01*
X128585472Y-78861904D01*
X128504520Y-78900000D01*
X128466424Y-78938095D01*
X128433091Y-79014285D01*
X128447377Y-79128571D01*
X128499758Y-79204761D01*
X128547377Y-79242857D01*
X128637853Y-79280952D01*
X128980710Y-79280952D01*
X128075948Y-79242857D02*
X127775948Y-79242857D01*
X127699758Y-79661904D02*
X128128329Y-79661904D01*
X128028329Y-78861904D01*
X127599758Y-78861904D01*
X126961662Y-79242857D02*
X127261662Y-79242857D01*
X127314043Y-79661904D02*
X127214043Y-78861904D01*
X126785472Y-78861904D01*
X128828805Y-82300000D02*
X128909758Y-82261904D01*
X129038329Y-82261904D01*
X129171662Y-82300000D01*
X129266900Y-82376190D01*
X129319281Y-82452380D01*
X129381186Y-82604761D01*
X129395472Y-82719047D01*
X129371662Y-82871428D01*
X129338329Y-82947619D01*
X129262138Y-83023809D01*
X129138329Y-83061904D01*
X129052615Y-83061904D01*
X128919281Y-83023809D01*
X128871662Y-82985714D01*
X128838329Y-82719047D01*
X129009758Y-82719047D01*
X128495472Y-83061904D02*
X128395472Y-82261904D01*
X127981186Y-83061904D01*
X127881186Y-82261904D01*
X127552615Y-83061904D02*
X127452615Y-82261904D01*
X127238329Y-82261904D01*
X127114519Y-82300000D01*
X127038329Y-82376190D01*
X127004996Y-82452380D01*
X126981186Y-82604761D01*
X126995472Y-82719047D01*
X127057377Y-82871428D01*
X127109758Y-82947619D01*
X127204996Y-83023809D01*
X127338329Y-83061904D01*
X127552615Y-83061904D01*
X126981186Y-84761904D02*
X127409758Y-84761904D01*
X127500234Y-85142857D01*
X127452615Y-85104761D01*
X127362139Y-85066666D01*
X127147853Y-85066666D01*
X127066901Y-85104761D01*
X127028805Y-85142857D01*
X126995472Y-85219047D01*
X127019281Y-85409523D01*
X127071662Y-85485714D01*
X127119281Y-85523809D01*
X127209758Y-85561904D01*
X127424043Y-85561904D01*
X127504996Y-85523809D01*
X127543091Y-85485714D01*
X127024043Y-87261904D02*
X127195472Y-87261904D01*
X127285948Y-87300000D01*
X127333567Y-87338095D01*
X127433567Y-87452380D01*
X127495472Y-87604761D01*
X127533567Y-87909523D01*
X127500234Y-87985714D01*
X127462139Y-88023809D01*
X127381186Y-88061904D01*
X127209758Y-88061904D01*
X127119281Y-88023809D01*
X127071662Y-87985714D01*
X127019281Y-87909523D01*
X126995472Y-87719047D01*
X127028805Y-87642857D01*
X127066901Y-87604761D01*
X127147853Y-87566666D01*
X127319281Y-87566666D01*
X127409758Y-87604761D01*
X127457377Y-87642857D01*
X127509758Y-87719047D01*
X127495472Y-89731904D02*
X126895472Y-89731904D01*
X127381186Y-90531904D01*
X127214043Y-92704761D02*
X127294996Y-92666666D01*
X127333091Y-92628571D01*
X127366424Y-92552380D01*
X127361662Y-92514285D01*
X127309281Y-92438095D01*
X127261662Y-92400000D01*
X127171186Y-92361904D01*
X126999758Y-92361904D01*
X126918805Y-92400000D01*
X126880710Y-92438095D01*
X126847377Y-92514285D01*
X126852139Y-92552380D01*
X126904520Y-92628571D01*
X126952139Y-92666666D01*
X127042615Y-92704761D01*
X127214043Y-92704761D01*
X127304520Y-92742857D01*
X127352139Y-92780952D01*
X127404520Y-92857142D01*
X127423567Y-93009523D01*
X127390234Y-93085714D01*
X127352139Y-93123809D01*
X127271186Y-93161904D01*
X127099758Y-93161904D01*
X127009281Y-93123809D01*
X126961662Y-93085714D01*
X126909281Y-93009523D01*
X126890234Y-92857142D01*
X126923567Y-92780952D01*
X126961662Y-92742857D01*
X127042615Y-92704761D01*
X127456901Y-95561904D02*
X127285472Y-95561904D01*
X127194996Y-95523809D01*
X127147377Y-95485714D01*
X127047377Y-95371428D01*
X126985472Y-95219047D01*
X126947377Y-94914285D01*
X126980710Y-94838095D01*
X127018805Y-94800000D01*
X127099758Y-94761904D01*
X127271186Y-94761904D01*
X127361662Y-94800000D01*
X127409281Y-94838095D01*
X127461662Y-94914285D01*
X127485472Y-95104761D01*
X127452139Y-95180952D01*
X127414043Y-95219047D01*
X127333091Y-95257142D01*
X127161662Y-95257142D01*
X127071186Y-95219047D01*
X127023567Y-95180952D01*
X126971186Y-95104761D01*
X127756901Y-98186904D02*
X128271186Y-98186904D01*
X128014043Y-98186904D02*
X127914043Y-97386904D01*
X128014043Y-97501190D01*
X128109281Y-97577380D01*
X128199758Y-97615476D01*
X127099758Y-97386904D02*
X127014043Y-97386904D01*
X126933091Y-97425000D01*
X126894996Y-97463095D01*
X126861662Y-97539285D01*
X126837853Y-97691666D01*
X126861662Y-97882142D01*
X126923567Y-98034523D01*
X126975948Y-98110714D01*
X127023567Y-98148809D01*
X127114043Y-98186904D01*
X127199758Y-98186904D01*
X127280710Y-98148809D01*
X127318805Y-98110714D01*
X127352139Y-98034523D01*
X127375948Y-97882142D01*
X127352139Y-97691666D01*
X127290234Y-97539285D01*
X127237853Y-97463095D01*
X127190234Y-97425000D01*
X127099758Y-97386904D01*
X129347853Y-100653809D02*
X129224043Y-100691904D01*
X129009758Y-100691904D01*
X128919281Y-100653809D01*
X128871662Y-100615714D01*
X128819281Y-100539523D01*
X128809758Y-100463333D01*
X128843091Y-100387142D01*
X128881186Y-100349047D01*
X128962139Y-100310952D01*
X129128805Y-100272857D01*
X129209758Y-100234761D01*
X129247853Y-100196666D01*
X129281186Y-100120476D01*
X129271662Y-100044285D01*
X129219281Y-99968095D01*
X129171662Y-99930000D01*
X129081186Y-99891904D01*
X128866901Y-99891904D01*
X128743091Y-99930000D01*
X127928805Y-100615714D02*
X127976424Y-100653809D01*
X128109758Y-100691904D01*
X128195472Y-100691904D01*
X128319281Y-100653809D01*
X128395472Y-100577619D01*
X128428805Y-100501428D01*
X128452615Y-100349047D01*
X128438329Y-100234761D01*
X128376424Y-100082380D01*
X128324043Y-100006190D01*
X128228805Y-99930000D01*
X128095472Y-99891904D01*
X128009758Y-99891904D01*
X127885948Y-99930000D01*
X127847853Y-99968095D01*
X127552615Y-100691904D02*
X127452615Y-99891904D01*
X127038329Y-100691904D02*
X127366901Y-100234761D01*
X126938329Y-99891904D02*
X127509758Y-100349047D01*
X129909758Y-103231904D02*
X129809758Y-102431904D01*
X129581186Y-103003333D01*
X129209758Y-102431904D01*
X129309758Y-103231904D01*
X128609758Y-102431904D02*
X128438329Y-102431904D01*
X128357377Y-102470000D01*
X128281186Y-102546190D01*
X128257377Y-102698571D01*
X128290710Y-102965238D01*
X128352615Y-103117619D01*
X128447853Y-103193809D01*
X128538329Y-103231904D01*
X128709758Y-103231904D01*
X128790710Y-103193809D01*
X128866901Y-103117619D01*
X128890710Y-102965238D01*
X128857377Y-102698571D01*
X128795472Y-102546190D01*
X128700234Y-102470000D01*
X128609758Y-102431904D01*
X127976424Y-103193809D02*
X127852615Y-103231904D01*
X127638329Y-103231904D01*
X127547853Y-103193809D01*
X127500234Y-103155714D01*
X127447853Y-103079523D01*
X127438329Y-103003333D01*
X127471662Y-102927142D01*
X127509758Y-102889047D01*
X127590710Y-102850952D01*
X127757377Y-102812857D01*
X127838329Y-102774761D01*
X127876424Y-102736666D01*
X127909758Y-102660476D01*
X127900234Y-102584285D01*
X127847853Y-102508095D01*
X127800234Y-102470000D01*
X127709758Y-102431904D01*
X127495472Y-102431904D01*
X127371662Y-102470000D01*
X127081186Y-103231904D02*
X126981186Y-102431904D01*
X129909758Y-105961904D02*
X129809758Y-105161904D01*
X129581186Y-105733333D01*
X129209758Y-105161904D01*
X129309758Y-105961904D01*
X128881186Y-105961904D02*
X128781186Y-105161904D01*
X128490710Y-105923809D02*
X128366901Y-105961904D01*
X128152615Y-105961904D01*
X128062139Y-105923809D01*
X128014520Y-105885714D01*
X127962139Y-105809523D01*
X127952615Y-105733333D01*
X127985948Y-105657142D01*
X128024043Y-105619047D01*
X128104996Y-105580952D01*
X128271662Y-105542857D01*
X128352615Y-105504761D01*
X128390710Y-105466666D01*
X128424043Y-105390476D01*
X128414520Y-105314285D01*
X128362139Y-105238095D01*
X128314520Y-105200000D01*
X128224043Y-105161904D01*
X128009758Y-105161904D01*
X127885948Y-105200000D01*
X127324043Y-105161904D02*
X127152615Y-105161904D01*
X127071662Y-105200000D01*
X126995472Y-105276190D01*
X126971662Y-105428571D01*
X127004996Y-105695238D01*
X127066901Y-105847619D01*
X127162139Y-105923809D01*
X127252615Y-105961904D01*
X127424043Y-105961904D01*
X127504996Y-105923809D01*
X127581186Y-105847619D01*
X127604996Y-105695238D01*
X127571662Y-105428571D01*
X127509758Y-105276190D01*
X127414520Y-105200000D01*
X127324043Y-105161904D01*
X127571186Y-108961904D02*
X127823567Y-108580952D01*
X128085472Y-108961904D02*
X127985472Y-108161904D01*
X127642615Y-108161904D01*
X127561662Y-108200000D01*
X127523567Y-108238095D01*
X127490234Y-108314285D01*
X127504520Y-108428571D01*
X127556901Y-108504761D01*
X127604520Y-108542857D01*
X127694996Y-108580952D01*
X128037853Y-108580952D01*
X127271186Y-108961904D02*
X126733091Y-108428571D01*
X127204520Y-108428571D02*
X126799758Y-108961904D01*
X128056901Y-109361904D02*
X127542615Y-109361904D01*
X127899758Y-110161904D02*
X127799758Y-109361904D01*
X127428329Y-110161904D02*
X126890234Y-109628571D01*
X127361662Y-109628571D02*
X126956901Y-110161904D01*
X128828805Y-112630000D02*
X128909758Y-112591904D01*
X129038329Y-112591904D01*
X129171662Y-112630000D01*
X129266900Y-112706190D01*
X129319281Y-112782380D01*
X129381186Y-112934761D01*
X129395472Y-113049047D01*
X129371662Y-113201428D01*
X129338329Y-113277619D01*
X129262138Y-113353809D01*
X129138329Y-113391904D01*
X129052615Y-113391904D01*
X128919281Y-113353809D01*
X128871662Y-113315714D01*
X128838329Y-113049047D01*
X129009758Y-113049047D01*
X128495472Y-113391904D02*
X128395472Y-112591904D01*
X127981186Y-113391904D01*
X127881186Y-112591904D01*
X127552615Y-113391904D02*
X127452615Y-112591904D01*
X127238329Y-112591904D01*
X127114519Y-112630000D01*
X127038329Y-112706190D01*
X127004996Y-112782380D01*
X126981186Y-112934761D01*
X126995472Y-113049047D01*
X127057377Y-113201428D01*
X127109758Y-113277619D01*
X127204996Y-113353809D01*
X127338329Y-113391904D01*
X127552615Y-113391904D01*
X144952138Y-113523809D02*
X144828329Y-113561904D01*
X144614043Y-113561904D01*
X144523567Y-113523809D01*
X144475948Y-113485714D01*
X144423567Y-113409523D01*
X144414043Y-113333333D01*
X144447376Y-113257142D01*
X144485472Y-113219047D01*
X144566424Y-113180952D01*
X144733091Y-113142857D01*
X144814043Y-113104761D01*
X144852138Y-113066666D01*
X144885472Y-112990476D01*
X144875948Y-112914285D01*
X144823567Y-112838095D01*
X144775948Y-112800000D01*
X144685472Y-112761904D01*
X144471186Y-112761904D01*
X144347376Y-112800000D01*
X144056900Y-113561904D02*
X143956900Y-112761904D01*
X143742614Y-112761904D01*
X143618805Y-112800000D01*
X143542614Y-112876190D01*
X143509281Y-112952380D01*
X143485472Y-113104761D01*
X143499757Y-113219047D01*
X143561662Y-113371428D01*
X143614043Y-113447619D01*
X143709281Y-113523809D01*
X143842614Y-113561904D01*
X144056900Y-113561904D01*
X143171186Y-113333333D02*
X142742614Y-113333333D01*
X143285472Y-113561904D02*
X142885472Y-112761904D01*
X142685472Y-113561904D01*
X144952139Y-110923809D02*
X144828329Y-110961904D01*
X144614043Y-110961904D01*
X144523567Y-110923809D01*
X144475948Y-110885714D01*
X144423567Y-110809523D01*
X144414043Y-110733333D01*
X144447377Y-110657142D01*
X144485472Y-110619047D01*
X144566424Y-110580952D01*
X144733091Y-110542857D01*
X144814043Y-110504761D01*
X144852139Y-110466666D01*
X144885472Y-110390476D01*
X144875948Y-110314285D01*
X144823567Y-110238095D01*
X144775948Y-110200000D01*
X144685472Y-110161904D01*
X144471186Y-110161904D01*
X144347377Y-110200000D01*
X143533091Y-110885714D02*
X143580710Y-110923809D01*
X143714043Y-110961904D01*
X143799758Y-110961904D01*
X143923567Y-110923809D01*
X143999758Y-110847619D01*
X144033091Y-110771428D01*
X144056901Y-110619047D01*
X144042615Y-110504761D01*
X143980710Y-110352380D01*
X143928329Y-110276190D01*
X143833091Y-110200000D01*
X143699758Y-110161904D01*
X143614043Y-110161904D01*
X143490234Y-110200000D01*
X143452139Y-110238095D01*
X142728329Y-110961904D02*
X143156901Y-110961904D01*
X143056901Y-110161904D01*
X144442615Y-108311904D02*
X144956900Y-108311904D01*
X144699757Y-108311904D02*
X144599757Y-107511904D01*
X144699757Y-107626190D01*
X144794995Y-107702380D01*
X144885472Y-107740476D01*
X144014043Y-108311904D02*
X143842615Y-108311904D01*
X143752138Y-108273809D01*
X143704519Y-108235714D01*
X143604519Y-108121428D01*
X143542615Y-107969047D01*
X143504519Y-107664285D01*
X143537853Y-107588095D01*
X143575948Y-107550000D01*
X143656900Y-107511904D01*
X143828329Y-107511904D01*
X143918805Y-107550000D01*
X143966424Y-107588095D01*
X144018805Y-107664285D01*
X144042615Y-107854761D01*
X144009281Y-107930952D01*
X143971186Y-107969047D01*
X143890234Y-108007142D01*
X143718805Y-108007142D01*
X143628329Y-107969047D01*
X143580710Y-107930952D01*
X143528329Y-107854761D01*
X144866424Y-105048095D02*
X144818805Y-105010000D01*
X144728329Y-104971904D01*
X144514043Y-104971904D01*
X144433091Y-105010000D01*
X144394995Y-105048095D01*
X144361662Y-105124285D01*
X144371186Y-105200476D01*
X144428329Y-105314761D01*
X144999757Y-105771904D01*
X144442615Y-105771904D01*
X143785472Y-104971904D02*
X143699757Y-104971904D01*
X143618805Y-105010000D01*
X143580710Y-105048095D01*
X143547376Y-105124285D01*
X143523567Y-105276666D01*
X143547376Y-105467142D01*
X143609281Y-105619523D01*
X143661662Y-105695714D01*
X143709281Y-105733809D01*
X143799757Y-105771904D01*
X143885472Y-105771904D01*
X143966424Y-105733809D01*
X144004519Y-105695714D01*
X144037853Y-105619523D01*
X144061662Y-105467142D01*
X144037853Y-105276666D01*
X143975948Y-105124285D01*
X143923567Y-105048095D01*
X143875948Y-105010000D01*
X143785472Y-104971904D01*
X144866424Y-102508095D02*
X144818805Y-102470000D01*
X144728329Y-102431904D01*
X144514043Y-102431904D01*
X144433091Y-102470000D01*
X144394995Y-102508095D01*
X144361662Y-102584285D01*
X144371186Y-102660476D01*
X144428329Y-102774761D01*
X144999757Y-103231904D01*
X144442615Y-103231904D01*
X143585472Y-103231904D02*
X144099757Y-103231904D01*
X143842615Y-103231904D02*
X143742615Y-102431904D01*
X143842615Y-102546190D01*
X143937853Y-102622380D01*
X144028329Y-102660476D01*
X144866424Y-99968095D02*
X144818805Y-99930000D01*
X144728329Y-99891904D01*
X144514043Y-99891904D01*
X144433091Y-99930000D01*
X144394995Y-99968095D01*
X144361662Y-100044285D01*
X144371186Y-100120476D01*
X144428329Y-100234761D01*
X144999757Y-100691904D01*
X144442615Y-100691904D01*
X144009281Y-99968095D02*
X143961662Y-99930000D01*
X143871186Y-99891904D01*
X143656900Y-99891904D01*
X143575948Y-99930000D01*
X143537853Y-99968095D01*
X143504519Y-100044285D01*
X143514043Y-100120476D01*
X143571186Y-100234761D01*
X144142615Y-100691904D01*
X143585472Y-100691904D01*
X144866424Y-97428095D02*
X144818805Y-97390000D01*
X144728329Y-97351904D01*
X144514043Y-97351904D01*
X144433091Y-97390000D01*
X144394995Y-97428095D01*
X144361662Y-97504285D01*
X144371186Y-97580476D01*
X144428329Y-97694761D01*
X144999757Y-98151904D01*
X144442615Y-98151904D01*
X144042615Y-97351904D02*
X143485472Y-97351904D01*
X143823567Y-97656666D01*
X143694995Y-97656666D01*
X143614043Y-97694761D01*
X143575948Y-97732857D01*
X143542615Y-97809047D01*
X143566424Y-97999523D01*
X143618805Y-98075714D01*
X143666424Y-98113809D01*
X143756900Y-98151904D01*
X144014043Y-98151904D01*
X144094995Y-98113809D01*
X144133091Y-98075714D01*
X144866424Y-94888095D02*
X144818805Y-94850000D01*
X144728329Y-94811904D01*
X144514043Y-94811904D01*
X144433091Y-94850000D01*
X144394995Y-94888095D01*
X144361662Y-94964285D01*
X144371186Y-95040476D01*
X144428329Y-95154761D01*
X144999757Y-95611904D01*
X144442615Y-95611904D01*
X143604519Y-95078571D02*
X143671186Y-95611904D01*
X143780710Y-94773809D02*
X144066424Y-95345238D01*
X143509281Y-95345238D01*
D13*
X144893236Y-92393333D02*
X144850974Y-92360000D01*
X144770617Y-92326666D01*
X144580140Y-92326666D01*
X144508117Y-92360000D01*
X144474188Y-92393333D01*
X144444426Y-92460000D01*
X144452760Y-92526666D01*
X144503355Y-92626666D01*
X145010498Y-93026666D01*
X144515260Y-93026666D01*
X143703950Y-92326666D02*
X144084902Y-92326666D01*
X144164664Y-92660000D01*
X144122402Y-92626666D01*
X144042045Y-92593333D01*
X143851569Y-92593333D01*
X143779545Y-92626666D01*
X143745617Y-92660000D01*
X143715855Y-92726666D01*
X143736688Y-92893333D01*
X143783117Y-92960000D01*
X143825379Y-92993333D01*
X143905736Y-93026666D01*
X144096212Y-93026666D01*
X144168236Y-92993333D01*
X144202164Y-92960000D01*
X144961093Y-89786666D02*
X144781927Y-90486666D01*
X144427760Y-89786666D01*
X143936093Y-90120000D02*
X143825974Y-90153333D01*
X143792046Y-90186666D01*
X143762284Y-90253333D01*
X143774784Y-90353333D01*
X143821212Y-90420000D01*
X143863474Y-90453333D01*
X143943831Y-90486666D01*
X144248593Y-90486666D01*
X144161093Y-89786666D01*
X143894427Y-89786666D01*
X143822403Y-89820000D01*
X143788474Y-89853333D01*
X143758712Y-89920000D01*
X143767046Y-89986666D01*
X143813474Y-90053333D01*
X143855736Y-90086666D01*
X143936093Y-90120000D01*
X144202760Y-90120000D01*
X143361093Y-89786666D02*
X143431927Y-90353333D01*
X143402165Y-90420000D01*
X143368236Y-90453333D01*
X143296212Y-90486666D01*
X143143831Y-90486666D01*
X143063474Y-90453333D01*
X143021212Y-90420000D01*
X142974784Y-90353333D01*
X142903950Y-89786666D01*
X142644427Y-90453333D02*
X142534308Y-90486666D01*
X142343831Y-90486666D01*
X142263474Y-90453333D01*
X142221212Y-90420000D01*
X142174784Y-90353333D01*
X142166450Y-90286666D01*
X142196212Y-90220000D01*
X142230141Y-90186666D01*
X142302165Y-90153333D01*
X142450379Y-90120000D01*
X142522403Y-90086666D01*
X142556331Y-90053333D01*
X142586093Y-89986666D01*
X142577760Y-89920000D01*
X142531331Y-89853333D01*
X142489069Y-89820000D01*
X142408712Y-89786666D01*
X142218236Y-89786666D01*
X142108117Y-89820000D01*
X144888474Y-87580000D02*
X144621807Y-87580000D01*
X144553355Y-87946666D02*
X144934307Y-87946666D01*
X144846807Y-87246666D01*
X144465855Y-87246666D01*
X144152164Y-87480000D02*
X144210497Y-87946666D01*
X144160497Y-87546666D02*
X144118235Y-87513333D01*
X144037878Y-87480000D01*
X143923593Y-87480000D01*
X143851569Y-87513333D01*
X143821807Y-87580000D01*
X143867640Y-87946666D01*
D14*
X141200000Y-98092857D02*
X141200000Y-96892857D01*
X140666666Y-96892857D01*
X140533333Y-96950000D01*
X140466666Y-97007142D01*
X140400000Y-97121428D01*
X140400000Y-97292857D01*
X140466666Y-97407142D01*
X140533333Y-97464285D01*
X140666666Y-97521428D01*
X141200000Y-97521428D01*
X139266666Y-98035714D02*
X139400000Y-98092857D01*
X139666666Y-98092857D01*
X139800000Y-98035714D01*
X139866666Y-97921428D01*
X139866666Y-97464285D01*
X139800000Y-97350000D01*
X139666666Y-97292857D01*
X139400000Y-97292857D01*
X139266666Y-97350000D01*
X139200000Y-97464285D01*
X139200000Y-97578571D01*
X139866666Y-97692857D01*
X138600000Y-97292857D02*
X138600000Y-98092857D01*
X138600000Y-97407142D02*
X138533333Y-97350000D01*
X138400000Y-97292857D01*
X138200000Y-97292857D01*
X138066666Y-97350000D01*
X138000000Y-97464285D01*
X138000000Y-98092857D01*
X136733333Y-97292857D02*
X136733333Y-98264285D01*
X136800000Y-98378571D01*
X136866666Y-98435714D01*
X137000000Y-98492857D01*
X137200000Y-98492857D01*
X137333333Y-98435714D01*
X136733333Y-98035714D02*
X136866666Y-98092857D01*
X137133333Y-98092857D01*
X137266666Y-98035714D01*
X137333333Y-97978571D01*
X137400000Y-97864285D01*
X137400000Y-97521428D01*
X137333333Y-97407142D01*
X137266666Y-97350000D01*
X137133333Y-97292857D01*
X136866666Y-97292857D01*
X136733333Y-97350000D01*
X135466666Y-97292857D02*
X135466666Y-98092857D01*
X136066666Y-97292857D02*
X136066666Y-97921428D01*
X136000000Y-98035714D01*
X135866666Y-98092857D01*
X135666666Y-98092857D01*
X135533333Y-98035714D01*
X135466666Y-97978571D01*
X134800000Y-98092857D02*
X134800000Y-97292857D01*
X134800000Y-96892857D02*
X134866666Y-96950000D01*
X134800000Y-97007142D01*
X134733333Y-96950000D01*
X134800000Y-96892857D01*
X134800000Y-97007142D01*
X134133333Y-97292857D02*
X134133333Y-98092857D01*
X134133333Y-97407142D02*
X134066666Y-97350000D01*
X133933333Y-97292857D01*
X133733333Y-97292857D01*
X133600000Y-97350000D01*
X133533333Y-97464285D01*
X133533333Y-98092857D01*
X132666666Y-98092857D02*
X132800000Y-98035714D01*
X132866666Y-97978571D01*
X132933333Y-97864285D01*
X132933333Y-97521428D01*
X132866666Y-97407142D01*
X132800000Y-97350000D01*
X132666666Y-97292857D01*
X132466666Y-97292857D01*
X132333333Y-97350000D01*
X132266666Y-97407142D01*
X132200000Y-97521428D01*
X132200000Y-97864285D01*
X132266666Y-97978571D01*
X132333333Y-98035714D01*
X132466666Y-98092857D01*
X132666666Y-98092857D01*
X141200000Y-100192857D02*
X141200000Y-98992857D01*
X140733333Y-99850000D01*
X140266666Y-98992857D01*
X140266666Y-100192857D01*
X139666666Y-99850000D02*
X139000000Y-99850000D01*
X139800000Y-100192857D02*
X139333333Y-98992857D01*
X138866666Y-100192857D01*
X138400000Y-100192857D02*
X138400000Y-98992857D01*
X137933333Y-99850000D01*
X137466666Y-98992857D01*
X137466666Y-100192857D01*
X136933333Y-98992857D02*
X136600000Y-100192857D01*
X136333333Y-99335714D01*
X136066666Y-100192857D01*
X135733333Y-98992857D01*
X134533333Y-100192857D02*
X135200000Y-100192857D01*
X135200000Y-98992857D01*
X134066666Y-99564285D02*
X133600000Y-99564285D01*
X133400000Y-100192857D02*
X134066666Y-100192857D01*
X134066666Y-98992857D01*
X133400000Y-98992857D01*
X132933333Y-100192857D02*
X132200000Y-99392857D01*
X132933333Y-99392857D02*
X132200000Y-100192857D01*
X131800000Y-100192857D02*
X131066666Y-99392857D01*
X131800000Y-99392857D02*
X131066666Y-100192857D01*
D15*
X127000000Y-119380000D02*
G75*
G02*
X124460000Y-116840000I0J2540000D01*
G01*
X147320000Y-116840000D02*
G75*
G02*
X144780000Y-119380000I-2540000J0D01*
G01*
X144780000Y-68580000D02*
G75*
G02*
X147320000Y-71120000I0J-2540000D01*
G01*
X124460000Y-71120000D02*
G75*
G02*
X127000000Y-68580000I2540000J0D01*
G01*
X124460000Y-116840000D02*
X124460000Y-71120000D01*
X144780000Y-119380000D02*
X127000000Y-119380000D01*
X147320000Y-71120000D02*
X147320000Y-116840000D01*
X127000000Y-68580000D02*
X144780000Y-68580000D01*
D16*
G36*
X138300256Y-78419918D02*
G01*
X138244799Y-78447568D01*
X138195852Y-78498480D01*
X138182371Y-78517338D01*
X138167686Y-78542015D01*
X138158158Y-78568816D01*
X138152707Y-78604587D01*
X138150253Y-78656169D01*
X138149714Y-78724267D01*
X138152148Y-78817588D01*
X138160606Y-78887657D01*
X138176826Y-78939931D01*
X138202546Y-78979869D01*
X138239503Y-79012929D01*
X138242218Y-79014886D01*
X138278640Y-79034908D01*
X138322498Y-79044815D01*
X138378276Y-79047257D01*
X138468952Y-79047257D01*
X138468990Y-79135283D01*
X138469834Y-79184308D01*
X138474976Y-79213065D01*
X138488413Y-79230311D01*
X138514142Y-79244808D01*
X138520321Y-79247769D01*
X138549236Y-79261648D01*
X138571624Y-79270414D01*
X138588271Y-79271171D01*
X138599964Y-79261023D01*
X138607490Y-79237073D01*
X138611634Y-79196426D01*
X138613185Y-79136186D01*
X138612929Y-79053455D01*
X138611651Y-78945339D01*
X138611252Y-78913000D01*
X138609815Y-78801524D01*
X138608528Y-78728603D01*
X138469029Y-78728603D01*
X138468245Y-78790499D01*
X138464760Y-78830997D01*
X138456876Y-78857708D01*
X138442895Y-78878244D01*
X138433403Y-78888260D01*
X138394596Y-78917567D01*
X138360237Y-78919952D01*
X138324784Y-78895750D01*
X138323886Y-78894857D01*
X138309461Y-78876153D01*
X138300687Y-78850732D01*
X138296261Y-78811584D01*
X138294882Y-78751697D01*
X138294857Y-78738430D01*
X138298188Y-78655901D01*
X138309031Y-78598691D01*
X138328660Y-78563766D01*
X138358350Y-78548094D01*
X138375509Y-78546514D01*
X138416234Y-78553926D01*
X138444168Y-78578330D01*
X138460983Y-78622980D01*
X138468350Y-78691130D01*
X138469029Y-78728603D01*
X138608528Y-78728603D01*
X138608292Y-78715245D01*
X138606323Y-78650333D01*
X138603550Y-78602958D01*
X138599612Y-78569290D01*
X138594151Y-78545498D01*
X138586808Y-78527753D01*
X138577223Y-78512224D01*
X138573113Y-78506381D01*
X138518595Y-78451185D01*
X138449664Y-78419890D01*
X138369928Y-78411165D01*
X138300256Y-78419918D01*
G37*
X138300256Y-78419918D02*
X138244799Y-78447568D01*
X138195852Y-78498480D01*
X138182371Y-78517338D01*
X138167686Y-78542015D01*
X138158158Y-78568816D01*
X138152707Y-78604587D01*
X138150253Y-78656169D01*
X138149714Y-78724267D01*
X138152148Y-78817588D01*
X138160606Y-78887657D01*
X138176826Y-78939931D01*
X138202546Y-78979869D01*
X138239503Y-79012929D01*
X138242218Y-79014886D01*
X138278640Y-79034908D01*
X138322498Y-79044815D01*
X138378276Y-79047257D01*
X138468952Y-79047257D01*
X138468990Y-79135283D01*
X138469834Y-79184308D01*
X138474976Y-79213065D01*
X138488413Y-79230311D01*
X138514142Y-79244808D01*
X138520321Y-79247769D01*
X138549236Y-79261648D01*
X138571624Y-79270414D01*
X138588271Y-79271171D01*
X138599964Y-79261023D01*
X138607490Y-79237073D01*
X138611634Y-79196426D01*
X138613185Y-79136186D01*
X138612929Y-79053455D01*
X138611651Y-78945339D01*
X138611252Y-78913000D01*
X138609815Y-78801524D01*
X138608528Y-78728603D01*
X138469029Y-78728603D01*
X138468245Y-78790499D01*
X138464760Y-78830997D01*
X138456876Y-78857708D01*
X138442895Y-78878244D01*
X138433403Y-78888260D01*
X138394596Y-78917567D01*
X138360237Y-78919952D01*
X138324784Y-78895750D01*
X138323886Y-78894857D01*
X138309461Y-78876153D01*
X138300687Y-78850732D01*
X138296261Y-78811584D01*
X138294882Y-78751697D01*
X138294857Y-78738430D01*
X138298188Y-78655901D01*
X138309031Y-78598691D01*
X138328660Y-78563766D01*
X138358350Y-78548094D01*
X138375509Y-78546514D01*
X138416234Y-78553926D01*
X138444168Y-78578330D01*
X138460983Y-78622980D01*
X138468350Y-78691130D01*
X138469029Y-78728603D01*
X138608528Y-78728603D01*
X138608292Y-78715245D01*
X138606323Y-78650333D01*
X138603550Y-78602958D01*
X138599612Y-78569290D01*
X138594151Y-78545498D01*
X138586808Y-78527753D01*
X138577223Y-78512224D01*
X138573113Y-78506381D01*
X138518595Y-78451185D01*
X138449664Y-78419890D01*
X138369928Y-78411165D01*
X138300256Y-78419918D01*
G36*
X137183907Y-78427780D02*
G01*
X137137328Y-78454723D01*
X137104943Y-78481466D01*
X137081258Y-78509484D01*
X137064941Y-78543748D01*
X137054661Y-78589227D01*
X137049086Y-78650892D01*
X137046884Y-78733711D01*
X137046629Y-78793246D01*
X137046629Y-79012391D01*
X137108314Y-79040044D01*
X137170000Y-79067697D01*
X137177257Y-78827670D01*
X137180256Y-78738028D01*
X137183402Y-78672962D01*
X137187299Y-78628026D01*
X137192553Y-78598770D01*
X137199769Y-78580748D01*
X137209550Y-78569511D01*
X137212688Y-78567079D01*
X137260239Y-78548083D01*
X137308303Y-78555600D01*
X137336914Y-78575543D01*
X137348553Y-78589675D01*
X137356609Y-78608220D01*
X137361729Y-78636334D01*
X137364559Y-78679173D01*
X137365744Y-78741895D01*
X137365943Y-78807261D01*
X137365982Y-78889268D01*
X137367386Y-78947316D01*
X137372086Y-78986465D01*
X137382013Y-79011780D01*
X137399097Y-79028323D01*
X137425268Y-79041156D01*
X137460225Y-79054491D01*
X137498404Y-79069007D01*
X137493859Y-78811389D01*
X137492029Y-78718519D01*
X137489888Y-78649889D01*
X137486819Y-78600711D01*
X137482206Y-78566198D01*
X137475432Y-78541562D01*
X137465881Y-78522016D01*
X137454366Y-78504770D01*
X137398810Y-78449680D01*
X137331020Y-78417822D01*
X137257287Y-78410191D01*
X137183907Y-78427780D01*
G37*
X137183907Y-78427780D02*
X137137328Y-78454723D01*
X137104943Y-78481466D01*
X137081258Y-78509484D01*
X137064941Y-78543748D01*
X137054661Y-78589227D01*
X137049086Y-78650892D01*
X137046884Y-78733711D01*
X137046629Y-78793246D01*
X137046629Y-79012391D01*
X137108314Y-79040044D01*
X137170000Y-79067697D01*
X137177257Y-78827670D01*
X137180256Y-78738028D01*
X137183402Y-78672962D01*
X137187299Y-78628026D01*
X137192553Y-78598770D01*
X137199769Y-78580748D01*
X137209550Y-78569511D01*
X137212688Y-78567079D01*
X137260239Y-78548083D01*
X137308303Y-78555600D01*
X137336914Y-78575543D01*
X137348553Y-78589675D01*
X137356609Y-78608220D01*
X137361729Y-78636334D01*
X137364559Y-78679173D01*
X137365744Y-78741895D01*
X137365943Y-78807261D01*
X137365982Y-78889268D01*
X137367386Y-78947316D01*
X137372086Y-78986465D01*
X137382013Y-79011780D01*
X137399097Y-79028323D01*
X137425268Y-79041156D01*
X137460225Y-79054491D01*
X137498404Y-79069007D01*
X137493859Y-78811389D01*
X137492029Y-78718519D01*
X137489888Y-78649889D01*
X137486819Y-78600711D01*
X137482206Y-78566198D01*
X137475432Y-78541562D01*
X137465881Y-78522016D01*
X137454366Y-78504770D01*
X137398810Y-78449680D01*
X137331020Y-78417822D01*
X137257287Y-78410191D01*
X137183907Y-78427780D01*
G36*
X138858885Y-78421962D02*
G01*
X138790855Y-78457733D01*
X138740649Y-78515301D01*
X138722815Y-78552312D01*
X138708937Y-78607882D01*
X138701833Y-78678096D01*
X138701160Y-78754727D01*
X138706573Y-78829552D01*
X138717730Y-78894342D01*
X138734286Y-78940873D01*
X138739374Y-78948887D01*
X138799645Y-79008707D01*
X138871231Y-79044535D01*
X138948908Y-79055020D01*
X139027452Y-79038810D01*
X139049311Y-79029092D01*
X139091878Y-78999143D01*
X139129237Y-78959433D01*
X139132768Y-78954397D01*
X139147119Y-78930124D01*
X139156606Y-78904178D01*
X139162210Y-78870022D01*
X139164914Y-78821119D01*
X139165701Y-78750935D01*
X139165714Y-78735200D01*
X139165678Y-78730192D01*
X139020571Y-78730192D01*
X139019727Y-78796430D01*
X139016404Y-78840386D01*
X139009417Y-78868779D01*
X138997584Y-78888325D01*
X138991543Y-78894857D01*
X138956814Y-78919680D01*
X138923097Y-78918548D01*
X138889005Y-78897016D01*
X138868671Y-78874029D01*
X138856629Y-78840478D01*
X138849866Y-78787569D01*
X138849402Y-78781399D01*
X138848248Y-78685513D01*
X138860312Y-78614299D01*
X138885430Y-78568194D01*
X138923440Y-78547635D01*
X138937008Y-78546514D01*
X138972636Y-78552152D01*
X138997006Y-78571686D01*
X139011907Y-78609042D01*
X139019125Y-78668150D01*
X139020571Y-78730192D01*
X139165678Y-78730192D01*
X139165174Y-78660413D01*
X139162904Y-78608159D01*
X139157932Y-78571949D01*
X139149287Y-78545299D01*
X139135995Y-78521722D01*
X139133057Y-78517338D01*
X139083687Y-78458249D01*
X139029891Y-78423947D01*
X138964398Y-78410331D01*
X138942158Y-78409665D01*
X138858885Y-78421962D01*
G37*
X138858885Y-78421962D02*
X138790855Y-78457733D01*
X138740649Y-78515301D01*
X138722815Y-78552312D01*
X138708937Y-78607882D01*
X138701833Y-78678096D01*
X138701160Y-78754727D01*
X138706573Y-78829552D01*
X138717730Y-78894342D01*
X138734286Y-78940873D01*
X138739374Y-78948887D01*
X138799645Y-79008707D01*
X138871231Y-79044535D01*
X138948908Y-79055020D01*
X139027452Y-79038810D01*
X139049311Y-79029092D01*
X139091878Y-78999143D01*
X139129237Y-78959433D01*
X139132768Y-78954397D01*
X139147119Y-78930124D01*
X139156606Y-78904178D01*
X139162210Y-78870022D01*
X139164914Y-78821119D01*
X139165701Y-78750935D01*
X139165714Y-78735200D01*
X139165678Y-78730192D01*
X139020571Y-78730192D01*
X139019727Y-78796430D01*
X139016404Y-78840386D01*
X139009417Y-78868779D01*
X138997584Y-78888325D01*
X138991543Y-78894857D01*
X138956814Y-78919680D01*
X138923097Y-78918548D01*
X138889005Y-78897016D01*
X138868671Y-78874029D01*
X138856629Y-78840478D01*
X138849866Y-78787569D01*
X138849402Y-78781399D01*
X138848248Y-78685513D01*
X138860312Y-78614299D01*
X138885430Y-78568194D01*
X138923440Y-78547635D01*
X138937008Y-78546514D01*
X138972636Y-78552152D01*
X138997006Y-78571686D01*
X139011907Y-78609042D01*
X139019125Y-78668150D01*
X139020571Y-78730192D01*
X139165678Y-78730192D01*
X139165174Y-78660413D01*
X139162904Y-78608159D01*
X139157932Y-78571949D01*
X139149287Y-78545299D01*
X139135995Y-78521722D01*
X139133057Y-78517338D01*
X139083687Y-78458249D01*
X139029891Y-78423947D01*
X138964398Y-78410331D01*
X138942158Y-78409665D01*
X138858885Y-78421962D01*
G36*
X137731697Y-78431239D02*
G01*
X137674473Y-78469735D01*
X137630251Y-78525335D01*
X137603833Y-78596086D01*
X137598490Y-78648162D01*
X137599097Y-78669893D01*
X137604178Y-78686531D01*
X137618145Y-78701437D01*
X137645411Y-78717973D01*
X137690388Y-78739498D01*
X137757489Y-78769374D01*
X137757829Y-78769524D01*
X137819593Y-78797813D01*
X137870241Y-78822933D01*
X137904596Y-78842179D01*
X137917482Y-78852848D01*
X137917486Y-78852934D01*
X137906128Y-78876166D01*
X137879569Y-78901774D01*
X137849077Y-78920221D01*
X137833630Y-78923886D01*
X137791485Y-78911212D01*
X137755192Y-78879471D01*
X137737483Y-78844572D01*
X137720448Y-78818845D01*
X137687078Y-78789546D01*
X137647851Y-78764235D01*
X137613244Y-78750471D01*
X137606007Y-78749714D01*
X137597861Y-78762160D01*
X137597370Y-78793972D01*
X137603357Y-78836866D01*
X137614643Y-78882558D01*
X137630050Y-78922761D01*
X137630829Y-78924322D01*
X137677196Y-78989062D01*
X137737289Y-79033097D01*
X137805535Y-79054711D01*
X137876362Y-79052185D01*
X137944196Y-79023804D01*
X137947212Y-79021808D01*
X138000573Y-78973448D01*
X138035660Y-78910352D01*
X138055078Y-78827387D01*
X138057684Y-78804078D01*
X138062299Y-78694055D01*
X138056767Y-78642748D01*
X137917486Y-78642748D01*
X137915676Y-78674753D01*
X137905778Y-78684093D01*
X137881102Y-78677105D01*
X137842205Y-78660587D01*
X137798725Y-78639881D01*
X137797644Y-78639333D01*
X137760791Y-78619949D01*
X137746000Y-78607013D01*
X137749647Y-78593451D01*
X137765005Y-78575632D01*
X137804077Y-78549845D01*
X137846154Y-78547950D01*
X137883897Y-78566717D01*
X137909966Y-78602915D01*
X137917486Y-78642748D01*
X138056767Y-78642748D01*
X138052806Y-78606027D01*
X138028450Y-78536212D01*
X137994544Y-78487302D01*
X137933347Y-78437878D01*
X137865937Y-78413359D01*
X137797120Y-78411797D01*
X137731697Y-78431239D01*
G37*
X137731697Y-78431239D02*
X137674473Y-78469735D01*
X137630251Y-78525335D01*
X137603833Y-78596086D01*
X137598490Y-78648162D01*
X137599097Y-78669893D01*
X137604178Y-78686531D01*
X137618145Y-78701437D01*
X137645411Y-78717973D01*
X137690388Y-78739498D01*
X137757489Y-78769374D01*
X137757829Y-78769524D01*
X137819593Y-78797813D01*
X137870241Y-78822933D01*
X137904596Y-78842179D01*
X137917482Y-78852848D01*
X137917486Y-78852934D01*
X137906128Y-78876166D01*
X137879569Y-78901774D01*
X137849077Y-78920221D01*
X137833630Y-78923886D01*
X137791485Y-78911212D01*
X137755192Y-78879471D01*
X137737483Y-78844572D01*
X137720448Y-78818845D01*
X137687078Y-78789546D01*
X137647851Y-78764235D01*
X137613244Y-78750471D01*
X137606007Y-78749714D01*
X137597861Y-78762160D01*
X137597370Y-78793972D01*
X137603357Y-78836866D01*
X137614643Y-78882558D01*
X137630050Y-78922761D01*
X137630829Y-78924322D01*
X137677196Y-78989062D01*
X137737289Y-79033097D01*
X137805535Y-79054711D01*
X137876362Y-79052185D01*
X137944196Y-79023804D01*
X137947212Y-79021808D01*
X138000573Y-78973448D01*
X138035660Y-78910352D01*
X138055078Y-78827387D01*
X138057684Y-78804078D01*
X138062299Y-78694055D01*
X138056767Y-78642748D01*
X137917486Y-78642748D01*
X137915676Y-78674753D01*
X137905778Y-78684093D01*
X137881102Y-78677105D01*
X137842205Y-78660587D01*
X137798725Y-78639881D01*
X137797644Y-78639333D01*
X137760791Y-78619949D01*
X137746000Y-78607013D01*
X137749647Y-78593451D01*
X137765005Y-78575632D01*
X137804077Y-78549845D01*
X137846154Y-78547950D01*
X137883897Y-78566717D01*
X137909966Y-78602915D01*
X137917486Y-78642748D01*
X138056767Y-78642748D01*
X138052806Y-78606027D01*
X138028450Y-78536212D01*
X137994544Y-78487302D01*
X137933347Y-78437878D01*
X137865937Y-78413359D01*
X137797120Y-78411797D01*
X137731697Y-78431239D01*
G36*
X136524114Y-78351289D02*
G01*
X136519861Y-78410613D01*
X136514975Y-78445572D01*
X136508205Y-78460820D01*
X136498298Y-78461015D01*
X136495086Y-78459195D01*
X136452356Y-78446015D01*
X136396773Y-78446785D01*
X136340263Y-78460333D01*
X136304918Y-78477861D01*
X136268679Y-78505861D01*
X136242187Y-78537549D01*
X136224001Y-78577813D01*
X136212678Y-78631543D01*
X136206778Y-78703626D01*
X136204857Y-78798951D01*
X136204823Y-78817237D01*
X136204800Y-79022646D01*
X136250509Y-79038580D01*
X136282973Y-79049420D01*
X136300785Y-79054468D01*
X136301309Y-79054514D01*
X136303063Y-79040828D01*
X136304556Y-79003076D01*
X136305674Y-78946224D01*
X136306303Y-78875234D01*
X136306400Y-78832073D01*
X136306602Y-78746973D01*
X136307642Y-78685981D01*
X136310169Y-78644177D01*
X136314836Y-78616642D01*
X136322293Y-78598456D01*
X136333189Y-78584698D01*
X136339993Y-78578073D01*
X136386728Y-78551375D01*
X136437728Y-78549375D01*
X136483999Y-78571955D01*
X136492556Y-78580107D01*
X136505107Y-78595436D01*
X136513812Y-78613618D01*
X136519369Y-78639909D01*
X136522474Y-78679562D01*
X136523824Y-78737832D01*
X136524114Y-78818173D01*
X136524114Y-79022646D01*
X136569823Y-79038580D01*
X136602287Y-79049420D01*
X136620099Y-79054468D01*
X136620623Y-79054514D01*
X136621963Y-79040623D01*
X136623172Y-79001439D01*
X136624199Y-78940700D01*
X136624998Y-78862141D01*
X136625519Y-78769498D01*
X136625714Y-78666509D01*
X136625714Y-78269342D01*
X136578543Y-78249444D01*
X136531371Y-78229547D01*
X136524114Y-78351289D01*
G37*
X136524114Y-78351289D02*
X136519861Y-78410613D01*
X136514975Y-78445572D01*
X136508205Y-78460820D01*
X136498298Y-78461015D01*
X136495086Y-78459195D01*
X136452356Y-78446015D01*
X136396773Y-78446785D01*
X136340263Y-78460333D01*
X136304918Y-78477861D01*
X136268679Y-78505861D01*
X136242187Y-78537549D01*
X136224001Y-78577813D01*
X136212678Y-78631543D01*
X136206778Y-78703626D01*
X136204857Y-78798951D01*
X136204823Y-78817237D01*
X136204800Y-79022646D01*
X136250509Y-79038580D01*
X136282973Y-79049420D01*
X136300785Y-79054468D01*
X136301309Y-79054514D01*
X136303063Y-79040828D01*
X136304556Y-79003076D01*
X136305674Y-78946224D01*
X136306303Y-78875234D01*
X136306400Y-78832073D01*
X136306602Y-78746973D01*
X136307642Y-78685981D01*
X136310169Y-78644177D01*
X136314836Y-78616642D01*
X136322293Y-78598456D01*
X136333189Y-78584698D01*
X136339993Y-78578073D01*
X136386728Y-78551375D01*
X136437728Y-78549375D01*
X136483999Y-78571955D01*
X136492556Y-78580107D01*
X136505107Y-78595436D01*
X136513812Y-78613618D01*
X136519369Y-78639909D01*
X136522474Y-78679562D01*
X136523824Y-78737832D01*
X136524114Y-78818173D01*
X136524114Y-79022646D01*
X136569823Y-79038580D01*
X136602287Y-79049420D01*
X136620099Y-79054468D01*
X136620623Y-79054514D01*
X136621963Y-79040623D01*
X136623172Y-79001439D01*
X136624199Y-78940700D01*
X136624998Y-78862141D01*
X136625519Y-78769498D01*
X136625714Y-78666509D01*
X136625714Y-78269342D01*
X136578543Y-78249444D01*
X136531371Y-78229547D01*
X136524114Y-78351289D01*
G36*
X135860256Y-78450968D02*
G01*
X135803384Y-78472087D01*
X135802733Y-78472493D01*
X135767560Y-78498380D01*
X135741593Y-78528633D01*
X135723330Y-78568058D01*
X135711268Y-78621462D01*
X135703904Y-78693651D01*
X135699736Y-78789432D01*
X135699371Y-78803078D01*
X135694124Y-79008842D01*
X135738284Y-79031678D01*
X135770237Y-79047110D01*
X135789530Y-79054423D01*
X135790422Y-79054514D01*
X135793761Y-79041022D01*
X135796413Y-79004626D01*
X135798044Y-78951452D01*
X135798400Y-78908393D01*
X135798408Y-78838641D01*
X135801597Y-78794837D01*
X135812712Y-78773944D01*
X135836499Y-78772925D01*
X135877704Y-78788741D01*
X135939914Y-78817815D01*
X135985659Y-78841963D01*
X136009187Y-78862913D01*
X136016104Y-78885747D01*
X136016114Y-78886877D01*
X136004701Y-78926212D01*
X135970908Y-78947462D01*
X135919191Y-78950539D01*
X135881939Y-78950006D01*
X135862297Y-78960735D01*
X135850048Y-78986505D01*
X135842998Y-79019337D01*
X135853158Y-79037966D01*
X135856983Y-79040632D01*
X135892999Y-79051340D01*
X135943434Y-79052856D01*
X135995374Y-79045759D01*
X136032178Y-79032788D01*
X136083062Y-78989585D01*
X136111986Y-78929446D01*
X136117714Y-78882462D01*
X136113343Y-78840082D01*
X136097525Y-78805488D01*
X136066203Y-78774763D01*
X136015322Y-78743990D01*
X135940824Y-78709252D01*
X135936286Y-78707288D01*
X135869179Y-78676287D01*
X135827768Y-78650862D01*
X135810019Y-78628014D01*
X135813893Y-78604745D01*
X135837357Y-78578056D01*
X135844373Y-78571914D01*
X135891370Y-78548100D01*
X135940067Y-78549103D01*
X135982478Y-78572451D01*
X136010616Y-78615675D01*
X136013231Y-78624160D01*
X136038692Y-78665308D01*
X136070999Y-78685128D01*
X136117714Y-78704770D01*
X136117714Y-78653950D01*
X136103504Y-78580082D01*
X136061325Y-78512327D01*
X136039376Y-78489661D01*
X135989483Y-78460569D01*
X135926033Y-78447400D01*
X135860256Y-78450968D01*
G37*
X135860256Y-78450968D02*
X135803384Y-78472087D01*
X135802733Y-78472493D01*
X135767560Y-78498380D01*
X135741593Y-78528633D01*
X135723330Y-78568058D01*
X135711268Y-78621462D01*
X135703904Y-78693651D01*
X135699736Y-78789432D01*
X135699371Y-78803078D01*
X135694124Y-79008842D01*
X135738284Y-79031678D01*
X135770237Y-79047110D01*
X135789530Y-79054423D01*
X135790422Y-79054514D01*
X135793761Y-79041022D01*
X135796413Y-79004626D01*
X135798044Y-78951452D01*
X135798400Y-78908393D01*
X135798408Y-78838641D01*
X135801597Y-78794837D01*
X135812712Y-78773944D01*
X135836499Y-78772925D01*
X135877704Y-78788741D01*
X135939914Y-78817815D01*
X135985659Y-78841963D01*
X136009187Y-78862913D01*
X136016104Y-78885747D01*
X136016114Y-78886877D01*
X136004701Y-78926212D01*
X135970908Y-78947462D01*
X135919191Y-78950539D01*
X135881939Y-78950006D01*
X135862297Y-78960735D01*
X135850048Y-78986505D01*
X135842998Y-79019337D01*
X135853158Y-79037966D01*
X135856983Y-79040632D01*
X135892999Y-79051340D01*
X135943434Y-79052856D01*
X135995374Y-79045759D01*
X136032178Y-79032788D01*
X136083062Y-78989585D01*
X136111986Y-78929446D01*
X136117714Y-78882462D01*
X136113343Y-78840082D01*
X136097525Y-78805488D01*
X136066203Y-78774763D01*
X136015322Y-78743990D01*
X135940824Y-78709252D01*
X135936286Y-78707288D01*
X135869179Y-78676287D01*
X135827768Y-78650862D01*
X135810019Y-78628014D01*
X135813893Y-78604745D01*
X135837357Y-78578056D01*
X135844373Y-78571914D01*
X135891370Y-78548100D01*
X135940067Y-78549103D01*
X135982478Y-78572451D01*
X136010616Y-78615675D01*
X136013231Y-78624160D01*
X136038692Y-78665308D01*
X136070999Y-78685128D01*
X136117714Y-78704770D01*
X136117714Y-78653950D01*
X136103504Y-78580082D01*
X136061325Y-78512327D01*
X136039376Y-78489661D01*
X135989483Y-78460569D01*
X135926033Y-78447400D01*
X135860256Y-78450968D01*
G36*
X135370074Y-78449755D02*
G01*
X135304142Y-78474084D01*
X135250727Y-78517117D01*
X135229836Y-78547409D01*
X135207061Y-78602994D01*
X135207534Y-78643186D01*
X135231438Y-78670217D01*
X135240283Y-78674813D01*
X135278470Y-78689144D01*
X135297972Y-78685472D01*
X135304578Y-78661407D01*
X135304914Y-78648114D01*
X135317008Y-78599210D01*
X135348529Y-78564999D01*
X135392341Y-78548476D01*
X135441305Y-78552634D01*
X135481106Y-78574227D01*
X135494550Y-78586544D01*
X135504079Y-78601487D01*
X135510515Y-78624075D01*
X135514683Y-78659328D01*
X135517403Y-78712266D01*
X135519498Y-78787907D01*
X135520040Y-78811857D01*
X135522019Y-78893790D01*
X135524269Y-78951455D01*
X135527643Y-78989608D01*
X135532994Y-79013004D01*
X135541176Y-79026398D01*
X135553041Y-79034545D01*
X135560638Y-79038144D01*
X135592898Y-79050452D01*
X135611889Y-79054514D01*
X135618164Y-79040948D01*
X135621994Y-78999934D01*
X135623400Y-78930999D01*
X135622402Y-78833669D01*
X135622092Y-78818657D01*
X135619899Y-78729859D01*
X135617307Y-78665019D01*
X135613618Y-78619067D01*
X135608136Y-78586935D01*
X135600165Y-78563553D01*
X135589007Y-78543852D01*
X135583170Y-78535410D01*
X135549704Y-78498057D01*
X135512273Y-78469003D01*
X135507691Y-78466467D01*
X135440574Y-78446443D01*
X135370074Y-78449755D01*
G37*
X135370074Y-78449755D02*
X135304142Y-78474084D01*
X135250727Y-78517117D01*
X135229836Y-78547409D01*
X135207061Y-78602994D01*
X135207534Y-78643186D01*
X135231438Y-78670217D01*
X135240283Y-78674813D01*
X135278470Y-78689144D01*
X135297972Y-78685472D01*
X135304578Y-78661407D01*
X135304914Y-78648114D01*
X135317008Y-78599210D01*
X135348529Y-78564999D01*
X135392341Y-78548476D01*
X135441305Y-78552634D01*
X135481106Y-78574227D01*
X135494550Y-78586544D01*
X135504079Y-78601487D01*
X135510515Y-78624075D01*
X135514683Y-78659328D01*
X135517403Y-78712266D01*
X135519498Y-78787907D01*
X135520040Y-78811857D01*
X135522019Y-78893790D01*
X135524269Y-78951455D01*
X135527643Y-78989608D01*
X135532994Y-79013004D01*
X135541176Y-79026398D01*
X135553041Y-79034545D01*
X135560638Y-79038144D01*
X135592898Y-79050452D01*
X135611889Y-79054514D01*
X135618164Y-79040948D01*
X135621994Y-78999934D01*
X135623400Y-78930999D01*
X135622402Y-78833669D01*
X135622092Y-78818657D01*
X135619899Y-78729859D01*
X135617307Y-78665019D01*
X135613618Y-78619067D01*
X135608136Y-78586935D01*
X135600165Y-78563553D01*
X135589007Y-78543852D01*
X135583170Y-78535410D01*
X135549704Y-78498057D01*
X135512273Y-78469003D01*
X135507691Y-78466467D01*
X135440574Y-78446443D01*
X135370074Y-78449755D01*
G36*
X134709883Y-78565358D02*
G01*
X134710067Y-78673837D01*
X134710781Y-78757287D01*
X134712325Y-78819704D01*
X134714999Y-78865085D01*
X134719106Y-78897429D01*
X134724945Y-78920733D01*
X134732818Y-78938995D01*
X134738779Y-78949418D01*
X134788145Y-79005945D01*
X134850736Y-79041377D01*
X134919987Y-79054090D01*
X134989332Y-79042463D01*
X135030625Y-79021568D01*
X135073975Y-78985422D01*
X135103519Y-78941276D01*
X135121345Y-78883462D01*
X135129537Y-78806313D01*
X135130698Y-78749714D01*
X135130542Y-78745647D01*
X135029143Y-78745647D01*
X135028524Y-78810550D01*
X135025686Y-78853514D01*
X135019160Y-78881622D01*
X135007477Y-78901953D01*
X134993517Y-78917288D01*
X134946635Y-78946890D01*
X134896299Y-78949419D01*
X134848724Y-78924705D01*
X134845021Y-78921356D01*
X134829217Y-78903935D01*
X134819307Y-78883209D01*
X134813942Y-78852362D01*
X134811772Y-78804577D01*
X134811429Y-78751748D01*
X134812173Y-78685381D01*
X134815252Y-78641106D01*
X134821939Y-78612009D01*
X134833504Y-78591173D01*
X134842987Y-78580107D01*
X134887040Y-78552198D01*
X134937776Y-78548843D01*
X134986204Y-78570159D01*
X134995550Y-78578073D01*
X135011460Y-78595647D01*
X135021390Y-78616587D01*
X135026722Y-78647782D01*
X135028837Y-78696122D01*
X135029143Y-78745647D01*
X135130542Y-78745647D01*
X135127190Y-78658568D01*
X135115274Y-78590086D01*
X135092865Y-78538600D01*
X135057876Y-78498443D01*
X135030625Y-78477861D01*
X134981093Y-78455625D01*
X134923684Y-78445304D01*
X134870318Y-78448067D01*
X134840457Y-78459212D01*
X134828739Y-78462383D01*
X134820963Y-78450557D01*
X134815535Y-78418866D01*
X134811429Y-78370593D01*
X134806933Y-78316829D01*
X134800687Y-78284482D01*
X134789324Y-78265985D01*
X134769472Y-78253770D01*
X134757000Y-78248362D01*
X134709829Y-78228601D01*
X134709883Y-78565358D01*
G37*
X134709883Y-78565358D02*
X134710067Y-78673837D01*
X134710781Y-78757287D01*
X134712325Y-78819704D01*
X134714999Y-78865085D01*
X134719106Y-78897429D01*
X134724945Y-78920733D01*
X134732818Y-78938995D01*
X134738779Y-78949418D01*
X134788145Y-79005945D01*
X134850736Y-79041377D01*
X134919987Y-79054090D01*
X134989332Y-79042463D01*
X135030625Y-79021568D01*
X135073975Y-78985422D01*
X135103519Y-78941276D01*
X135121345Y-78883462D01*
X135129537Y-78806313D01*
X135130698Y-78749714D01*
X135130542Y-78745647D01*
X135029143Y-78745647D01*
X135028524Y-78810550D01*
X135025686Y-78853514D01*
X135019160Y-78881622D01*
X135007477Y-78901953D01*
X134993517Y-78917288D01*
X134946635Y-78946890D01*
X134896299Y-78949419D01*
X134848724Y-78924705D01*
X134845021Y-78921356D01*
X134829217Y-78903935D01*
X134819307Y-78883209D01*
X134813942Y-78852362D01*
X134811772Y-78804577D01*
X134811429Y-78751748D01*
X134812173Y-78685381D01*
X134815252Y-78641106D01*
X134821939Y-78612009D01*
X134833504Y-78591173D01*
X134842987Y-78580107D01*
X134887040Y-78552198D01*
X134937776Y-78548843D01*
X134986204Y-78570159D01*
X134995550Y-78578073D01*
X135011460Y-78595647D01*
X135021390Y-78616587D01*
X135026722Y-78647782D01*
X135028837Y-78696122D01*
X135029143Y-78745647D01*
X135130542Y-78745647D01*
X135127190Y-78658568D01*
X135115274Y-78590086D01*
X135092865Y-78538600D01*
X135057876Y-78498443D01*
X135030625Y-78477861D01*
X134981093Y-78455625D01*
X134923684Y-78445304D01*
X134870318Y-78448067D01*
X134840457Y-78459212D01*
X134828739Y-78462383D01*
X134820963Y-78450557D01*
X134815535Y-78418866D01*
X134811429Y-78370593D01*
X134806933Y-78316829D01*
X134800687Y-78284482D01*
X134789324Y-78265985D01*
X134769472Y-78253770D01*
X134757000Y-78248362D01*
X134709829Y-78228601D01*
X134709883Y-78565358D01*
G36*
X134120167Y-78458663D02*
G01*
X134117952Y-78496850D01*
X134116216Y-78554886D01*
X134115101Y-78628180D01*
X134114743Y-78705055D01*
X134114743Y-78965196D01*
X134160674Y-79011127D01*
X134192325Y-79039429D01*
X134220110Y-79050893D01*
X134258085Y-79050168D01*
X134273160Y-79048321D01*
X134320274Y-79042948D01*
X134359244Y-79039869D01*
X134368743Y-79039585D01*
X134400767Y-79041445D01*
X134446568Y-79046114D01*
X134464326Y-79048321D01*
X134507943Y-79051735D01*
X134537255Y-79044320D01*
X134566320Y-79021427D01*
X134576812Y-79011127D01*
X134622743Y-78965196D01*
X134622743Y-78478602D01*
X134585774Y-78461758D01*
X134553941Y-78449282D01*
X134535317Y-78444914D01*
X134530542Y-78458718D01*
X134526079Y-78497286D01*
X134522225Y-78556356D01*
X134519278Y-78631663D01*
X134517857Y-78695286D01*
X134513886Y-78945657D01*
X134479241Y-78950556D01*
X134447732Y-78947131D01*
X134432292Y-78936041D01*
X134427977Y-78915308D01*
X134424292Y-78871145D01*
X134421531Y-78809146D01*
X134419988Y-78734909D01*
X134419765Y-78696706D01*
X134419543Y-78476783D01*
X134373834Y-78460849D01*
X134341482Y-78450015D01*
X134323885Y-78444962D01*
X134323377Y-78444914D01*
X134321612Y-78458648D01*
X134319671Y-78496730D01*
X134317718Y-78554482D01*
X134315916Y-78627227D01*
X134314657Y-78695286D01*
X134310686Y-78945657D01*
X134223600Y-78945657D01*
X134219604Y-78717240D01*
X134215608Y-78488822D01*
X134173153Y-78466868D01*
X134141808Y-78451793D01*
X134123256Y-78444951D01*
X134122721Y-78444914D01*
X134120167Y-78458663D01*
G37*
X134120167Y-78458663D02*
X134117952Y-78496850D01*
X134116216Y-78554886D01*
X134115101Y-78628180D01*
X134114743Y-78705055D01*
X134114743Y-78965196D01*
X134160674Y-79011127D01*
X134192325Y-79039429D01*
X134220110Y-79050893D01*
X134258085Y-79050168D01*
X134273160Y-79048321D01*
X134320274Y-79042948D01*
X134359244Y-79039869D01*
X134368743Y-79039585D01*
X134400767Y-79041445D01*
X134446568Y-79046114D01*
X134464326Y-79048321D01*
X134507943Y-79051735D01*
X134537255Y-79044320D01*
X134566320Y-79021427D01*
X134576812Y-79011127D01*
X134622743Y-78965196D01*
X134622743Y-78478602D01*
X134585774Y-78461758D01*
X134553941Y-78449282D01*
X134535317Y-78444914D01*
X134530542Y-78458718D01*
X134526079Y-78497286D01*
X134522225Y-78556356D01*
X134519278Y-78631663D01*
X134517857Y-78695286D01*
X134513886Y-78945657D01*
X134479241Y-78950556D01*
X134447732Y-78947131D01*
X134432292Y-78936041D01*
X134427977Y-78915308D01*
X134424292Y-78871145D01*
X134421531Y-78809146D01*
X134419988Y-78734909D01*
X134419765Y-78696706D01*
X134419543Y-78476783D01*
X134373834Y-78460849D01*
X134341482Y-78450015D01*
X134323885Y-78444962D01*
X134323377Y-78444914D01*
X134321612Y-78458648D01*
X134319671Y-78496730D01*
X134317718Y-78554482D01*
X134315916Y-78627227D01*
X134314657Y-78695286D01*
X134310686Y-78945657D01*
X134223600Y-78945657D01*
X134219604Y-78717240D01*
X134215608Y-78488822D01*
X134173153Y-78466868D01*
X134141808Y-78451793D01*
X134123256Y-78444951D01*
X134122721Y-78444914D01*
X134120167Y-78458663D01*
G36*
X133755124Y-78456335D02*
G01*
X133713333Y-78475344D01*
X133680531Y-78498378D01*
X133656497Y-78524133D01*
X133639903Y-78557358D01*
X133629423Y-78602800D01*
X133623729Y-78665207D01*
X133621493Y-78749327D01*
X133621257Y-78804721D01*
X133621257Y-79020826D01*
X133658226Y-79037670D01*
X133687344Y-79049981D01*
X133701769Y-79054514D01*
X133704528Y-79041025D01*
X133706718Y-79004653D01*
X133708058Y-78951542D01*
X133708343Y-78909372D01*
X133709566Y-78848447D01*
X133712864Y-78800115D01*
X133717679Y-78770518D01*
X133721504Y-78764229D01*
X133747217Y-78770652D01*
X133787582Y-78787125D01*
X133834321Y-78809458D01*
X133879155Y-78833457D01*
X133913807Y-78854930D01*
X133929998Y-78869685D01*
X133930062Y-78869845D01*
X133928670Y-78897152D01*
X133916182Y-78923219D01*
X133894257Y-78944392D01*
X133862257Y-78951474D01*
X133834908Y-78950649D01*
X133796174Y-78950042D01*
X133775842Y-78959116D01*
X133763631Y-78983092D01*
X133762091Y-78987613D01*
X133756797Y-79021806D01*
X133770953Y-79042568D01*
X133807852Y-79052462D01*
X133847711Y-79054292D01*
X133919438Y-79040727D01*
X133956568Y-79021355D01*
X134002424Y-78975845D01*
X134026744Y-78919983D01*
X134028927Y-78860957D01*
X134008371Y-78805953D01*
X133977451Y-78771486D01*
X133946580Y-78752189D01*
X133898058Y-78727759D01*
X133841515Y-78702985D01*
X133832090Y-78699199D01*
X133769981Y-78671791D01*
X133734178Y-78647634D01*
X133722663Y-78623619D01*
X133733420Y-78596635D01*
X133751886Y-78575543D01*
X133795531Y-78549572D01*
X133843554Y-78547624D01*
X133887594Y-78567637D01*
X133919291Y-78607551D01*
X133923451Y-78617848D01*
X133947673Y-78655724D01*
X133983035Y-78683842D01*
X134027657Y-78706917D01*
X134027657Y-78641485D01*
X134025031Y-78601506D01*
X134013770Y-78569997D01*
X133988801Y-78536378D01*
X133964831Y-78510484D01*
X133927559Y-78473817D01*
X133898599Y-78454121D01*
X133867495Y-78446220D01*
X133832287Y-78444914D01*
X133755124Y-78456335D01*
G37*
X133755124Y-78456335D02*
X133713333Y-78475344D01*
X133680531Y-78498378D01*
X133656497Y-78524133D01*
X133639903Y-78557358D01*
X133629423Y-78602800D01*
X133623729Y-78665207D01*
X133621493Y-78749327D01*
X133621257Y-78804721D01*
X133621257Y-79020826D01*
X133658226Y-79037670D01*
X133687344Y-79049981D01*
X133701769Y-79054514D01*
X133704528Y-79041025D01*
X133706718Y-79004653D01*
X133708058Y-78951542D01*
X133708343Y-78909372D01*
X133709566Y-78848447D01*
X133712864Y-78800115D01*
X133717679Y-78770518D01*
X133721504Y-78764229D01*
X133747217Y-78770652D01*
X133787582Y-78787125D01*
X133834321Y-78809458D01*
X133879155Y-78833457D01*
X133913807Y-78854930D01*
X133929998Y-78869685D01*
X133930062Y-78869845D01*
X133928670Y-78897152D01*
X133916182Y-78923219D01*
X133894257Y-78944392D01*
X133862257Y-78951474D01*
X133834908Y-78950649D01*
X133796174Y-78950042D01*
X133775842Y-78959116D01*
X133763631Y-78983092D01*
X133762091Y-78987613D01*
X133756797Y-79021806D01*
X133770953Y-79042568D01*
X133807852Y-79052462D01*
X133847711Y-79054292D01*
X133919438Y-79040727D01*
X133956568Y-79021355D01*
X134002424Y-78975845D01*
X134026744Y-78919983D01*
X134028927Y-78860957D01*
X134008371Y-78805953D01*
X133977451Y-78771486D01*
X133946580Y-78752189D01*
X133898058Y-78727759D01*
X133841515Y-78702985D01*
X133832090Y-78699199D01*
X133769981Y-78671791D01*
X133734178Y-78647634D01*
X133722663Y-78623619D01*
X133733420Y-78596635D01*
X133751886Y-78575543D01*
X133795531Y-78549572D01*
X133843554Y-78547624D01*
X133887594Y-78567637D01*
X133919291Y-78607551D01*
X133923451Y-78617848D01*
X133947673Y-78655724D01*
X133983035Y-78683842D01*
X134027657Y-78706917D01*
X134027657Y-78641485D01*
X134025031Y-78601506D01*
X134013770Y-78569997D01*
X133988801Y-78536378D01*
X133964831Y-78510484D01*
X133927559Y-78473817D01*
X133898599Y-78454121D01*
X133867495Y-78446220D01*
X133832287Y-78444914D01*
X133755124Y-78456335D01*
G36*
X133247400Y-78458752D02*
G01*
X133230052Y-78466334D01*
X133188644Y-78499128D01*
X133153235Y-78546547D01*
X133131336Y-78597151D01*
X133127771Y-78622098D01*
X133139721Y-78656927D01*
X133165933Y-78675357D01*
X133194036Y-78686516D01*
X133206905Y-78688572D01*
X133213171Y-78673649D01*
X133225544Y-78641175D01*
X133230972Y-78626502D01*
X133261410Y-78575744D01*
X133305480Y-78550427D01*
X133361990Y-78551206D01*
X133366175Y-78552203D01*
X133396345Y-78566507D01*
X133418524Y-78594393D01*
X133433673Y-78639287D01*
X133442750Y-78704615D01*
X133446714Y-78793804D01*
X133447086Y-78841261D01*
X133447270Y-78916071D01*
X133448478Y-78967069D01*
X133451691Y-78999471D01*
X133457891Y-79018495D01*
X133468060Y-79029356D01*
X133483181Y-79037272D01*
X133484054Y-79037670D01*
X133513172Y-79049981D01*
X133527597Y-79054514D01*
X133529814Y-79040809D01*
X133531711Y-79002925D01*
X133533153Y-78945715D01*
X133534002Y-78874027D01*
X133534171Y-78821565D01*
X133533308Y-78720047D01*
X133529930Y-78643032D01*
X133522858Y-78586023D01*
X133510912Y-78544526D01*
X133492910Y-78514043D01*
X133467673Y-78490080D01*
X133442753Y-78473355D01*
X133382829Y-78451097D01*
X133313089Y-78446076D01*
X133247400Y-78458752D01*
G37*
X133247400Y-78458752D02*
X133230052Y-78466334D01*
X133188644Y-78499128D01*
X133153235Y-78546547D01*
X133131336Y-78597151D01*
X133127771Y-78622098D01*
X133139721Y-78656927D01*
X133165933Y-78675357D01*
X133194036Y-78686516D01*
X133206905Y-78688572D01*
X133213171Y-78673649D01*
X133225544Y-78641175D01*
X133230972Y-78626502D01*
X133261410Y-78575744D01*
X133305480Y-78550427D01*
X133361990Y-78551206D01*
X133366175Y-78552203D01*
X133396345Y-78566507D01*
X133418524Y-78594393D01*
X133433673Y-78639287D01*
X133442750Y-78704615D01*
X133446714Y-78793804D01*
X133447086Y-78841261D01*
X133447270Y-78916071D01*
X133448478Y-78967069D01*
X133451691Y-78999471D01*
X133457891Y-79018495D01*
X133468060Y-79029356D01*
X133483181Y-79037272D01*
X133484054Y-79037670D01*
X133513172Y-79049981D01*
X133527597Y-79054514D01*
X133529814Y-79040809D01*
X133531711Y-79002925D01*
X133533153Y-78945715D01*
X133534002Y-78874027D01*
X133534171Y-78821565D01*
X133533308Y-78720047D01*
X133529930Y-78643032D01*
X133522858Y-78586023D01*
X133510912Y-78544526D01*
X133492910Y-78514043D01*
X133467673Y-78490080D01*
X133442753Y-78473355D01*
X133382829Y-78451097D01*
X133313089Y-78446076D01*
X133247400Y-78458752D01*
G36*
X132746405Y-78466966D02*
G01*
X132688979Y-78504497D01*
X132661281Y-78538096D01*
X132639338Y-78599064D01*
X132637595Y-78647308D01*
X132641543Y-78711816D01*
X132790314Y-78776934D01*
X132862651Y-78810202D01*
X132909916Y-78836964D01*
X132934493Y-78860144D01*
X132938763Y-78882667D01*
X132925111Y-78907455D01*
X132910057Y-78923886D01*
X132866254Y-78950235D01*
X132818611Y-78952081D01*
X132774855Y-78931546D01*
X132742711Y-78890752D01*
X132736962Y-78876347D01*
X132709424Y-78831356D01*
X132677742Y-78812182D01*
X132634286Y-78795779D01*
X132634286Y-78857966D01*
X132638128Y-78900283D01*
X132653177Y-78935969D01*
X132684720Y-78976943D01*
X132689408Y-78982267D01*
X132724494Y-79018720D01*
X132754653Y-79038283D01*
X132792385Y-79047283D01*
X132823665Y-79050230D01*
X132879615Y-79050965D01*
X132919445Y-79041660D01*
X132944292Y-79027846D01*
X132983344Y-78997467D01*
X133010375Y-78964613D01*
X133027483Y-78923294D01*
X133036762Y-78867521D01*
X133040307Y-78791305D01*
X133040590Y-78752622D01*
X133039628Y-78706247D01*
X132951993Y-78706247D01*
X132950977Y-78731126D01*
X132948444Y-78735200D01*
X132931726Y-78729665D01*
X132895751Y-78715017D01*
X132847669Y-78694190D01*
X132837614Y-78689714D01*
X132776848Y-78658814D01*
X132743368Y-78631657D01*
X132736010Y-78606220D01*
X132753609Y-78580481D01*
X132768144Y-78569109D01*
X132820590Y-78546364D01*
X132869678Y-78550122D01*
X132910773Y-78577884D01*
X132939242Y-78627152D01*
X132948369Y-78666257D01*
X132951993Y-78706247D01*
X133039628Y-78706247D01*
X133038715Y-78662249D01*
X133031804Y-78595384D01*
X133018116Y-78546695D01*
X132995904Y-78510849D01*
X132963426Y-78482513D01*
X132949267Y-78473355D01*
X132884947Y-78449507D01*
X132814527Y-78448006D01*
X132746405Y-78466966D01*
G37*
X132746405Y-78466966D02*
X132688979Y-78504497D01*
X132661281Y-78538096D01*
X132639338Y-78599064D01*
X132637595Y-78647308D01*
X132641543Y-78711816D01*
X132790314Y-78776934D01*
X132862651Y-78810202D01*
X132909916Y-78836964D01*
X132934493Y-78860144D01*
X132938763Y-78882667D01*
X132925111Y-78907455D01*
X132910057Y-78923886D01*
X132866254Y-78950235D01*
X132818611Y-78952081D01*
X132774855Y-78931546D01*
X132742711Y-78890752D01*
X132736962Y-78876347D01*
X132709424Y-78831356D01*
X132677742Y-78812182D01*
X132634286Y-78795779D01*
X132634286Y-78857966D01*
X132638128Y-78900283D01*
X132653177Y-78935969D01*
X132684720Y-78976943D01*
X132689408Y-78982267D01*
X132724494Y-79018720D01*
X132754653Y-79038283D01*
X132792385Y-79047283D01*
X132823665Y-79050230D01*
X132879615Y-79050965D01*
X132919445Y-79041660D01*
X132944292Y-79027846D01*
X132983344Y-78997467D01*
X133010375Y-78964613D01*
X133027483Y-78923294D01*
X133036762Y-78867521D01*
X133040307Y-78791305D01*
X133040590Y-78752622D01*
X133039628Y-78706247D01*
X132951993Y-78706247D01*
X132950977Y-78731126D01*
X132948444Y-78735200D01*
X132931726Y-78729665D01*
X132895751Y-78715017D01*
X132847669Y-78694190D01*
X132837614Y-78689714D01*
X132776848Y-78658814D01*
X132743368Y-78631657D01*
X132736010Y-78606220D01*
X132753609Y-78580481D01*
X132768144Y-78569109D01*
X132820590Y-78546364D01*
X132869678Y-78550122D01*
X132910773Y-78577884D01*
X132939242Y-78627152D01*
X132948369Y-78666257D01*
X132951993Y-78706247D01*
X133039628Y-78706247D01*
X133038715Y-78662249D01*
X133031804Y-78595384D01*
X133018116Y-78546695D01*
X132995904Y-78510849D01*
X132963426Y-78482513D01*
X132949267Y-78473355D01*
X132884947Y-78449507D01*
X132814527Y-78448006D01*
X132746405Y-78466966D01*
G36*
X135796090Y-73742348D02*
G01*
X135717546Y-73742778D01*
X135660702Y-73743942D01*
X135621895Y-73746207D01*
X135597462Y-73749940D01*
X135583738Y-73755506D01*
X135577060Y-73763273D01*
X135573764Y-73773605D01*
X135573444Y-73774943D01*
X135568438Y-73799079D01*
X135559171Y-73846701D01*
X135546608Y-73912741D01*
X135531713Y-73992128D01*
X135515449Y-74079796D01*
X135514881Y-74082875D01*
X135498590Y-74168789D01*
X135483348Y-74244696D01*
X135470139Y-74306045D01*
X135459946Y-74348282D01*
X135453752Y-74366855D01*
X135453457Y-74367184D01*
X135435212Y-74376253D01*
X135397595Y-74391367D01*
X135348729Y-74409262D01*
X135348457Y-74409358D01*
X135286907Y-74432493D01*
X135214343Y-74461965D01*
X135145943Y-74491597D01*
X135142706Y-74493062D01*
X135031298Y-74543626D01*
X134784601Y-74375160D01*
X134708923Y-74323803D01*
X134640369Y-74277889D01*
X134582912Y-74240030D01*
X134540524Y-74212837D01*
X134517175Y-74198921D01*
X134514958Y-74197889D01*
X134497990Y-74202484D01*
X134466299Y-74224655D01*
X134418648Y-74265447D01*
X134353802Y-74325905D01*
X134287603Y-74390227D01*
X134223786Y-74453612D01*
X134166671Y-74511451D01*
X134119695Y-74560175D01*
X134086297Y-74596210D01*
X134069915Y-74615984D01*
X134069306Y-74617002D01*
X134067495Y-74630572D01*
X134074317Y-74652733D01*
X134091460Y-74686478D01*
X134120607Y-74734800D01*
X134163445Y-74800692D01*
X134220552Y-74885517D01*
X134271234Y-74960177D01*
X134316539Y-75027140D01*
X134353850Y-75082516D01*
X134380548Y-75122420D01*
X134394015Y-75142962D01*
X134394863Y-75144356D01*
X134393219Y-75164038D01*
X134380755Y-75202293D01*
X134359952Y-75251889D01*
X134352538Y-75267728D01*
X134320186Y-75338290D01*
X134285672Y-75418353D01*
X134257635Y-75487629D01*
X134237432Y-75539045D01*
X134221385Y-75578119D01*
X134212112Y-75598541D01*
X134210959Y-75600114D01*
X134193904Y-75602721D01*
X134153702Y-75609863D01*
X134095698Y-75620523D01*
X134025237Y-75633685D01*
X133947665Y-75648333D01*
X133868328Y-75663449D01*
X133792569Y-75678018D01*
X133725736Y-75691022D01*
X133673172Y-75701445D01*
X133640224Y-75708270D01*
X133632143Y-75710199D01*
X133623795Y-75714962D01*
X133617494Y-75725718D01*
X133612955Y-75746098D01*
X133609896Y-75779734D01*
X133608033Y-75830255D01*
X133607082Y-75901292D01*
X133606760Y-75996476D01*
X133606743Y-76035492D01*
X133606743Y-76352799D01*
X133682943Y-76367839D01*
X133725337Y-76375995D01*
X133788600Y-76387899D01*
X133865038Y-76402116D01*
X133946957Y-76417210D01*
X133969600Y-76421355D01*
X134045194Y-76436053D01*
X134111047Y-76450505D01*
X134161634Y-76463375D01*
X134191426Y-76473322D01*
X134196388Y-76476287D01*
X134208574Y-76497283D01*
X134226047Y-76537967D01*
X134245423Y-76590322D01*
X134249266Y-76601600D01*
X134274661Y-76671523D01*
X134306183Y-76750418D01*
X134337031Y-76821266D01*
X134337183Y-76821595D01*
X134388553Y-76932733D01*
X134219601Y-77181253D01*
X134050648Y-77429772D01*
X134267571Y-77647058D01*
X134333181Y-77711726D01*
X134393021Y-77768733D01*
X134443733Y-77815033D01*
X134481954Y-77847584D01*
X134504325Y-77863343D01*
X134507534Y-77864343D01*
X134526374Y-77856469D01*
X134564820Y-77834578D01*
X134618670Y-77801267D01*
X134683724Y-77759131D01*
X134754060Y-77711943D01*
X134825445Y-77663810D01*
X134889092Y-77621928D01*
X134940959Y-77588871D01*
X134977005Y-77567218D01*
X134993133Y-77559543D01*
X135012811Y-77566037D01*
X135050125Y-77583150D01*
X135097379Y-77607326D01*
X135102388Y-77610013D01*
X135166023Y-77641927D01*
X135209659Y-77657579D01*
X135236798Y-77657745D01*
X135250943Y-77643204D01*
X135251025Y-77643000D01*
X135258095Y-77625779D01*
X135274958Y-77584899D01*
X135300305Y-77523525D01*
X135332829Y-77444819D01*
X135371222Y-77351947D01*
X135414178Y-77248072D01*
X135455778Y-77147502D01*
X135501496Y-77036516D01*
X135543474Y-76933703D01*
X135580452Y-76842215D01*
X135611173Y-76765201D01*
X135634378Y-76705815D01*
X135648810Y-76667209D01*
X135653257Y-76652800D01*
X135642104Y-76636272D01*
X135612931Y-76609930D01*
X135574029Y-76580887D01*
X135463243Y-76489039D01*
X135376649Y-76383759D01*
X135315284Y-76267266D01*
X135280185Y-76141776D01*
X135272392Y-76009507D01*
X135278057Y-75948457D01*
X135308922Y-75821795D01*
X135362080Y-75709941D01*
X135434233Y-75614001D01*
X135522083Y-75535076D01*
X135622335Y-75474270D01*
X135731690Y-75432687D01*
X135846853Y-75411428D01*
X135964525Y-75411599D01*
X136081410Y-75434301D01*
X136194211Y-75480638D01*
X136299631Y-75551713D01*
X136343632Y-75591911D01*
X136428021Y-75695129D01*
X136486778Y-75807925D01*
X136520296Y-75927010D01*
X136528965Y-76049095D01*
X136513177Y-76170893D01*
X136473322Y-76289116D01*
X136409793Y-76400475D01*
X136322979Y-76501684D01*
X136225971Y-76580887D01*
X136185563Y-76611162D01*
X136157018Y-76637219D01*
X136146743Y-76652825D01*
X136152123Y-76669843D01*
X136167425Y-76710500D01*
X136191388Y-76771642D01*
X136222756Y-76850119D01*
X136260268Y-76942780D01*
X136302667Y-77046472D01*
X136344337Y-77147526D01*
X136390310Y-77258607D01*
X136432893Y-77361541D01*
X136470779Y-77453165D01*
X136502660Y-77530316D01*
X136527229Y-77589831D01*
X136543180Y-77628544D01*
X136549090Y-77643000D01*
X136563052Y-77657685D01*
X136590060Y-77657642D01*
X136633587Y-77642099D01*
X136697110Y-77610284D01*
X136697612Y-77610013D01*
X136745440Y-77585323D01*
X136784103Y-77567338D01*
X136805905Y-77559614D01*
X136806867Y-77559543D01*
X136823279Y-77567378D01*
X136859513Y-77589165D01*
X136911526Y-77622328D01*
X136975275Y-77664291D01*
X137045940Y-77711943D01*
X137117884Y-77760191D01*
X137182726Y-77802151D01*
X137236265Y-77835227D01*
X137274303Y-77856821D01*
X137292467Y-77864343D01*
X137309192Y-77854457D01*
X137342820Y-77826826D01*
X137389990Y-77784495D01*
X137447342Y-77730505D01*
X137511516Y-77667899D01*
X137532503Y-77646983D01*
X137749501Y-77429623D01*
X137584332Y-77187220D01*
X137534136Y-77112781D01*
X137490081Y-77045972D01*
X137454638Y-76990665D01*
X137430281Y-76950729D01*
X137419478Y-76930036D01*
X137419162Y-76928563D01*
X137424857Y-76909058D01*
X137440174Y-76869822D01*
X137462463Y-76817430D01*
X137478107Y-76782355D01*
X137507359Y-76715201D01*
X137534906Y-76647358D01*
X137556263Y-76590034D01*
X137562065Y-76572572D01*
X137578548Y-76525938D01*
X137594660Y-76489905D01*
X137603510Y-76476287D01*
X137623040Y-76467952D01*
X137665666Y-76456137D01*
X137725855Y-76442181D01*
X137798078Y-76427422D01*
X137830400Y-76421355D01*
X137912478Y-76406273D01*
X137991205Y-76391669D01*
X138058891Y-76378980D01*
X138107840Y-76369642D01*
X138117057Y-76367839D01*
X138193257Y-76352799D01*
X138193257Y-76035492D01*
X138193086Y-75931154D01*
X138192384Y-75852213D01*
X138190866Y-75795038D01*
X138188251Y-75755999D01*
X138184254Y-75731465D01*
X138178591Y-75717805D01*
X138170980Y-75711389D01*
X138167857Y-75710199D01*
X138149022Y-75705980D01*
X138107412Y-75697562D01*
X138048370Y-75685961D01*
X137977243Y-75672195D01*
X137899375Y-75657280D01*
X137820113Y-75642232D01*
X137744802Y-75628069D01*
X137678787Y-75615806D01*
X137627413Y-75606461D01*
X137596025Y-75601050D01*
X137589041Y-75600114D01*
X137582715Y-75587596D01*
X137568710Y-75554246D01*
X137549645Y-75506377D01*
X137542366Y-75487629D01*
X137513004Y-75415195D01*
X137478429Y-75335170D01*
X137447463Y-75267728D01*
X137424677Y-75216159D01*
X137409518Y-75173785D01*
X137404458Y-75147834D01*
X137405264Y-75144356D01*
X137415959Y-75127936D01*
X137440380Y-75091417D01*
X137475905Y-75038687D01*
X137519913Y-74973635D01*
X137569783Y-74900151D01*
X137579644Y-74885645D01*
X137637508Y-74799704D01*
X137680044Y-74734261D01*
X137708946Y-74686304D01*
X137725910Y-74652820D01*
X137732633Y-74630795D01*
X137730810Y-74617217D01*
X137730764Y-74617131D01*
X137716414Y-74599297D01*
X137684677Y-74564817D01*
X137638990Y-74517268D01*
X137582796Y-74460222D01*
X137519532Y-74397255D01*
X137512398Y-74390227D01*
X137432670Y-74313020D01*
X137371143Y-74256330D01*
X137326579Y-74219110D01*
X137297743Y-74200315D01*
X137285042Y-74197889D01*
X137266506Y-74208471D01*
X137228039Y-74232916D01*
X137173614Y-74268612D01*
X137107202Y-74312947D01*
X137032775Y-74363311D01*
X137015399Y-74375160D01*
X136768703Y-74543626D01*
X136657294Y-74493062D01*
X136589543Y-74463595D01*
X136516817Y-74433959D01*
X136454297Y-74410330D01*
X136451543Y-74409358D01*
X136402640Y-74391457D01*
X136364943Y-74376320D01*
X136346575Y-74367210D01*
X136346544Y-74367184D01*
X136340715Y-74350717D01*
X136330808Y-74310219D01*
X136317805Y-74250242D01*
X136302691Y-74175340D01*
X136286448Y-74090064D01*
X136285119Y-74082875D01*
X136268825Y-73995014D01*
X136253867Y-73915260D01*
X136241209Y-73848681D01*
X136231814Y-73800347D01*
X136226646Y-73775325D01*
X136226556Y-73774943D01*
X136223411Y-73764299D01*
X136217296Y-73756262D01*
X136204547Y-73750467D01*
X136181500Y-73746547D01*
X136144491Y-73744135D01*
X136089856Y-73742865D01*
X136013933Y-73742371D01*
X135913056Y-73742286D01*
X135900000Y-73742286D01*
X135796090Y-73742348D01*
G37*
X135796090Y-73742348D02*
X135717546Y-73742778D01*
X135660702Y-73743942D01*
X135621895Y-73746207D01*
X135597462Y-73749940D01*
X135583738Y-73755506D01*
X135577060Y-73763273D01*
X135573764Y-73773605D01*
X135573444Y-73774943D01*
X135568438Y-73799079D01*
X135559171Y-73846701D01*
X135546608Y-73912741D01*
X135531713Y-73992128D01*
X135515449Y-74079796D01*
X135514881Y-74082875D01*
X135498590Y-74168789D01*
X135483348Y-74244696D01*
X135470139Y-74306045D01*
X135459946Y-74348282D01*
X135453752Y-74366855D01*
X135453457Y-74367184D01*
X135435212Y-74376253D01*
X135397595Y-74391367D01*
X135348729Y-74409262D01*
X135348457Y-74409358D01*
X135286907Y-74432493D01*
X135214343Y-74461965D01*
X135145943Y-74491597D01*
X135142706Y-74493062D01*
X135031298Y-74543626D01*
X134784601Y-74375160D01*
X134708923Y-74323803D01*
X134640369Y-74277889D01*
X134582912Y-74240030D01*
X134540524Y-74212837D01*
X134517175Y-74198921D01*
X134514958Y-74197889D01*
X134497990Y-74202484D01*
X134466299Y-74224655D01*
X134418648Y-74265447D01*
X134353802Y-74325905D01*
X134287603Y-74390227D01*
X134223786Y-74453612D01*
X134166671Y-74511451D01*
X134119695Y-74560175D01*
X134086297Y-74596210D01*
X134069915Y-74615984D01*
X134069306Y-74617002D01*
X134067495Y-74630572D01*
X134074317Y-74652733D01*
X134091460Y-74686478D01*
X134120607Y-74734800D01*
X134163445Y-74800692D01*
X134220552Y-74885517D01*
X134271234Y-74960177D01*
X134316539Y-75027140D01*
X134353850Y-75082516D01*
X134380548Y-75122420D01*
X134394015Y-75142962D01*
X134394863Y-75144356D01*
X134393219Y-75164038D01*
X134380755Y-75202293D01*
X134359952Y-75251889D01*
X134352538Y-75267728D01*
X134320186Y-75338290D01*
X134285672Y-75418353D01*
X134257635Y-75487629D01*
X134237432Y-75539045D01*
X134221385Y-75578119D01*
X134212112Y-75598541D01*
X134210959Y-75600114D01*
X134193904Y-75602721D01*
X134153702Y-75609863D01*
X134095698Y-75620523D01*
X134025237Y-75633685D01*
X133947665Y-75648333D01*
X133868328Y-75663449D01*
X133792569Y-75678018D01*
X133725736Y-75691022D01*
X133673172Y-75701445D01*
X133640224Y-75708270D01*
X133632143Y-75710199D01*
X133623795Y-75714962D01*
X133617494Y-75725718D01*
X133612955Y-75746098D01*
X133609896Y-75779734D01*
X133608033Y-75830255D01*
X133607082Y-75901292D01*
X133606760Y-75996476D01*
X133606743Y-76035492D01*
X133606743Y-76352799D01*
X133682943Y-76367839D01*
X133725337Y-76375995D01*
X133788600Y-76387899D01*
X133865038Y-76402116D01*
X133946957Y-76417210D01*
X133969600Y-76421355D01*
X134045194Y-76436053D01*
X134111047Y-76450505D01*
X134161634Y-76463375D01*
X134191426Y-76473322D01*
X134196388Y-76476287D01*
X134208574Y-76497283D01*
X134226047Y-76537967D01*
X134245423Y-76590322D01*
X134249266Y-76601600D01*
X134274661Y-76671523D01*
X134306183Y-76750418D01*
X134337031Y-76821266D01*
X134337183Y-76821595D01*
X134388553Y-76932733D01*
X134219601Y-77181253D01*
X134050648Y-77429772D01*
X134267571Y-77647058D01*
X134333181Y-77711726D01*
X134393021Y-77768733D01*
X134443733Y-77815033D01*
X134481954Y-77847584D01*
X134504325Y-77863343D01*
X134507534Y-77864343D01*
X134526374Y-77856469D01*
X134564820Y-77834578D01*
X134618670Y-77801267D01*
X134683724Y-77759131D01*
X134754060Y-77711943D01*
X134825445Y-77663810D01*
X134889092Y-77621928D01*
X134940959Y-77588871D01*
X134977005Y-77567218D01*
X134993133Y-77559543D01*
X135012811Y-77566037D01*
X135050125Y-77583150D01*
X135097379Y-77607326D01*
X135102388Y-77610013D01*
X135166023Y-77641927D01*
X135209659Y-77657579D01*
X135236798Y-77657745D01*
X135250943Y-77643204D01*
X135251025Y-77643000D01*
X135258095Y-77625779D01*
X135274958Y-77584899D01*
X135300305Y-77523525D01*
X135332829Y-77444819D01*
X135371222Y-77351947D01*
X135414178Y-77248072D01*
X135455778Y-77147502D01*
X135501496Y-77036516D01*
X135543474Y-76933703D01*
X135580452Y-76842215D01*
X135611173Y-76765201D01*
X135634378Y-76705815D01*
X135648810Y-76667209D01*
X135653257Y-76652800D01*
X135642104Y-76636272D01*
X135612931Y-76609930D01*
X135574029Y-76580887D01*
X135463243Y-76489039D01*
X135376649Y-76383759D01*
X135315284Y-76267266D01*
X135280185Y-76141776D01*
X135272392Y-76009507D01*
X135278057Y-75948457D01*
X135308922Y-75821795D01*
X135362080Y-75709941D01*
X135434233Y-75614001D01*
X135522083Y-75535076D01*
X135622335Y-75474270D01*
X135731690Y-75432687D01*
X135846853Y-75411428D01*
X135964525Y-75411599D01*
X136081410Y-75434301D01*
X136194211Y-75480638D01*
X136299631Y-75551713D01*
X136343632Y-75591911D01*
X136428021Y-75695129D01*
X136486778Y-75807925D01*
X136520296Y-75927010D01*
X136528965Y-76049095D01*
X136513177Y-76170893D01*
X136473322Y-76289116D01*
X136409793Y-76400475D01*
X136322979Y-76501684D01*
X136225971Y-76580887D01*
X136185563Y-76611162D01*
X136157018Y-76637219D01*
X136146743Y-76652825D01*
X136152123Y-76669843D01*
X136167425Y-76710500D01*
X136191388Y-76771642D01*
X136222756Y-76850119D01*
X136260268Y-76942780D01*
X136302667Y-77046472D01*
X136344337Y-77147526D01*
X136390310Y-77258607D01*
X136432893Y-77361541D01*
X136470779Y-77453165D01*
X136502660Y-77530316D01*
X136527229Y-77589831D01*
X136543180Y-77628544D01*
X136549090Y-77643000D01*
X136563052Y-77657685D01*
X136590060Y-77657642D01*
X136633587Y-77642099D01*
X136697110Y-77610284D01*
X136697612Y-77610013D01*
X136745440Y-77585323D01*
X136784103Y-77567338D01*
X136805905Y-77559614D01*
X136806867Y-77559543D01*
X136823279Y-77567378D01*
X136859513Y-77589165D01*
X136911526Y-77622328D01*
X136975275Y-77664291D01*
X137045940Y-77711943D01*
X137117884Y-77760191D01*
X137182726Y-77802151D01*
X137236265Y-77835227D01*
X137274303Y-77856821D01*
X137292467Y-77864343D01*
X137309192Y-77854457D01*
X137342820Y-77826826D01*
X137389990Y-77784495D01*
X137447342Y-77730505D01*
X137511516Y-77667899D01*
X137532503Y-77646983D01*
X137749501Y-77429623D01*
X137584332Y-77187220D01*
X137534136Y-77112781D01*
X137490081Y-77045972D01*
X137454638Y-76990665D01*
X137430281Y-76950729D01*
X137419478Y-76930036D01*
X137419162Y-76928563D01*
X137424857Y-76909058D01*
X137440174Y-76869822D01*
X137462463Y-76817430D01*
X137478107Y-76782355D01*
X137507359Y-76715201D01*
X137534906Y-76647358D01*
X137556263Y-76590034D01*
X137562065Y-76572572D01*
X137578548Y-76525938D01*
X137594660Y-76489905D01*
X137603510Y-76476287D01*
X137623040Y-76467952D01*
X137665666Y-76456137D01*
X137725855Y-76442181D01*
X137798078Y-76427422D01*
X137830400Y-76421355D01*
X137912478Y-76406273D01*
X137991205Y-76391669D01*
X138058891Y-76378980D01*
X138107840Y-76369642D01*
X138117057Y-76367839D01*
X138193257Y-76352799D01*
X138193257Y-76035492D01*
X138193086Y-75931154D01*
X138192384Y-75852213D01*
X138190866Y-75795038D01*
X138188251Y-75755999D01*
X138184254Y-75731465D01*
X138178591Y-75717805D01*
X138170980Y-75711389D01*
X138167857Y-75710199D01*
X138149022Y-75705980D01*
X138107412Y-75697562D01*
X138048370Y-75685961D01*
X137977243Y-75672195D01*
X137899375Y-75657280D01*
X137820113Y-75642232D01*
X137744802Y-75628069D01*
X137678787Y-75615806D01*
X137627413Y-75606461D01*
X137596025Y-75601050D01*
X137589041Y-75600114D01*
X137582715Y-75587596D01*
X137568710Y-75554246D01*
X137549645Y-75506377D01*
X137542366Y-75487629D01*
X137513004Y-75415195D01*
X137478429Y-75335170D01*
X137447463Y-75267728D01*
X137424677Y-75216159D01*
X137409518Y-75173785D01*
X137404458Y-75147834D01*
X137405264Y-75144356D01*
X137415959Y-75127936D01*
X137440380Y-75091417D01*
X137475905Y-75038687D01*
X137519913Y-74973635D01*
X137569783Y-74900151D01*
X137579644Y-74885645D01*
X137637508Y-74799704D01*
X137680044Y-74734261D01*
X137708946Y-74686304D01*
X137725910Y-74652820D01*
X137732633Y-74630795D01*
X137730810Y-74617217D01*
X137730764Y-74617131D01*
X137716414Y-74599297D01*
X137684677Y-74564817D01*
X137638990Y-74517268D01*
X137582796Y-74460222D01*
X137519532Y-74397255D01*
X137512398Y-74390227D01*
X137432670Y-74313020D01*
X137371143Y-74256330D01*
X137326579Y-74219110D01*
X137297743Y-74200315D01*
X137285042Y-74197889D01*
X137266506Y-74208471D01*
X137228039Y-74232916D01*
X137173614Y-74268612D01*
X137107202Y-74312947D01*
X137032775Y-74363311D01*
X137015399Y-74375160D01*
X136768703Y-74543626D01*
X136657294Y-74493062D01*
X136589543Y-74463595D01*
X136516817Y-74433959D01*
X136454297Y-74410330D01*
X136451543Y-74409358D01*
X136402640Y-74391457D01*
X136364943Y-74376320D01*
X136346575Y-74367210D01*
X136346544Y-74367184D01*
X136340715Y-74350717D01*
X136330808Y-74310219D01*
X136317805Y-74250242D01*
X136302691Y-74175340D01*
X136286448Y-74090064D01*
X136285119Y-74082875D01*
X136268825Y-73995014D01*
X136253867Y-73915260D01*
X136241209Y-73848681D01*
X136231814Y-73800347D01*
X136226646Y-73775325D01*
X136226556Y-73774943D01*
X136223411Y-73764299D01*
X136217296Y-73756262D01*
X136204547Y-73750467D01*
X136181500Y-73746547D01*
X136144491Y-73744135D01*
X136089856Y-73742865D01*
X136013933Y-73742371D01*
X135913056Y-73742286D01*
X135900000Y-73742286D01*
X135796090Y-73742348D01*
D17*
X129840000Y-75230000D02*
X129840000Y-73830000D01*
X129140000Y-73130000D02*
X128540000Y-73130000D01*
X127840000Y-73830000D02*
X127840000Y-75230000D01*
X128540000Y-75930000D02*
X129140000Y-75930000D01*
X129140000Y-75930000D02*
G75*
G03*
X129840000Y-75230000I0J700000D01*
G01*
X127840000Y-75230000D02*
G75*
G03*
X128540000Y-75930000I700000J0D01*
G01*
X128540000Y-73130000D02*
G75*
G03*
X127840000Y-73830000I0J-700000D01*
G01*
X129840000Y-73830000D02*
G75*
G03*
X129140000Y-73130000I-700000J0D01*
G01*
X127400000Y-91700000D02*
X127400000Y-92300000D01*
X129500000Y-91000000D02*
X128100000Y-91000000D01*
X130200000Y-92300000D02*
X130200000Y-91700000D01*
X128100000Y-93000000D02*
X129500000Y-93000000D01*
X129500000Y-93000000D02*
G75*
G03*
X130200000Y-92300000I0J700000D01*
G01*
X130200000Y-91700000D02*
G75*
G03*
X129500000Y-91000000I-700000J0D01*
G01*
X128100000Y-91000000D02*
G75*
G03*
X127400000Y-91700000I0J-700000D01*
G01*
X127400000Y-92300000D02*
G75*
G03*
X128100000Y-93000000I700000J0D01*
G01*
X132508500Y-95696000D02*
X132508500Y-94296000D01*
X131808500Y-93596000D02*
X131208500Y-93596000D01*
X130508500Y-94296000D02*
X130508500Y-95696000D01*
X131208500Y-96396000D02*
X131808500Y-96396000D01*
X131808500Y-96396000D02*
G75*
G03*
X132508500Y-95696000I0J700000D01*
G01*
X130508500Y-95696000D02*
G75*
G03*
X131208500Y-96396000I700000J0D01*
G01*
X131208500Y-93596000D02*
G75*
G03*
X130508500Y-94296000I0J-700000D01*
G01*
X132508500Y-94296000D02*
G75*
G03*
X131808500Y-93596000I-700000J0D01*
G01*
X140000000Y-81452501D02*
X139400000Y-81452501D01*
X140700000Y-83552501D02*
X140700000Y-82152501D01*
X139400000Y-84252501D02*
X140000000Y-84252501D01*
X138700000Y-82152501D02*
X138700000Y-83552501D01*
X138700000Y-83552501D02*
G75*
G03*
X139400000Y-84252501I700000J0D01*
G01*
X140000000Y-84252501D02*
G75*
G03*
X140700000Y-83552501I0J700000D01*
G01*
X140700000Y-82152501D02*
G75*
G03*
X140000000Y-81452501I-700000J0D01*
G01*
X139400000Y-81452501D02*
G75*
G03*
X138700000Y-82152501I0J-700000D01*
G01*
X132912000Y-87967499D02*
X132912000Y-86567499D01*
X132212000Y-85867499D02*
X131612000Y-85867499D01*
X130912000Y-86567499D02*
X130912000Y-87967499D01*
X131612000Y-88667499D02*
X132212000Y-88667499D01*
X132212000Y-88667499D02*
G75*
G03*
X132912000Y-87967499I0J700000D01*
G01*
X130912000Y-87967499D02*
G75*
G03*
X131612000Y-88667499I700000J0D01*
G01*
X131612000Y-85867499D02*
G75*
G03*
X130912000Y-86567499I0J-700000D01*
G01*
X132912000Y-86567499D02*
G75*
G03*
X132212000Y-85867499I-700000J0D01*
G01*
X129200000Y-88667499D02*
X129800000Y-88667499D01*
X128500000Y-86567499D02*
X128500000Y-87967499D01*
X129800000Y-85867499D02*
X129200000Y-85867499D01*
X130500000Y-87967499D02*
X130500000Y-86567499D01*
X130500000Y-86567499D02*
G75*
G03*
X129800000Y-85867499I-700000J0D01*
G01*
X129200000Y-85867499D02*
G75*
G03*
X128500000Y-86567499I0J-700000D01*
G01*
X128500000Y-87967499D02*
G75*
G03*
X129200000Y-88667499I700000J0D01*
G01*
X129800000Y-88667499D02*
G75*
G03*
X130500000Y-87967499I0J700000D01*
G01*
X131700000Y-102600000D02*
G75*
G03*
X131700000Y-102600000I-700000J0D01*
G01*
X129050000Y-104100000D02*
G75*
G03*
X129050000Y-104100000I-700000J0D01*
G01*
X131650000Y-105600000D02*
G75*
G03*
X131650000Y-105600000I-700000J0D01*
G01*
X129050000Y-107400000D02*
G75*
G03*
X129050000Y-107400000I-700000J0D01*
G01*
X131600000Y-108650000D02*
G75*
G03*
X131600000Y-108650000I-700000J0D01*
G01*
X138350000Y-108650000D02*
G75*
G03*
X138350000Y-108650000I-700000J0D01*
G01*
X141600000Y-105600000D02*
G75*
G03*
X141600000Y-105600000I-700000J0D01*
G01*
X141550000Y-108550000D02*
G75*
G03*
X141550000Y-108550000I-700000J0D01*
G01*
X140050000Y-84250000D02*
X139450000Y-84250000D01*
X140750000Y-86350000D02*
X140750000Y-84950000D01*
X139450000Y-87050000D02*
X140050000Y-87050000D01*
X138750000Y-84950000D02*
X138750000Y-86350000D01*
X138750000Y-86350000D02*
G75*
G03*
X139450000Y-87050000I700000J0D01*
G01*
X140050000Y-87050000D02*
G75*
G03*
X140750000Y-86350000I0J700000D01*
G01*
X140750000Y-84950000D02*
G75*
G03*
X140050000Y-84250000I-700000J0D01*
G01*
X139450000Y-84250000D02*
G75*
G03*
X138750000Y-84950000I0J-700000D01*
G01*
X141550000Y-94600000D02*
G75*
G03*
X141550000Y-94600000I-700000J0D01*
G01*
X134900000Y-108650000D02*
G75*
G03*
X134900000Y-108650000I-700000J0D01*
G01*
M02*
